<svg width="507" height="152" viewBox="0 0 507 152" fill="none" xmlns="http://www.w3.org/2000/svg">
<g clip-path="url(#clip0_682_88)">
<path d="M515.826 101.438C515.659 104.479 513.485 107.034 510.51 107.696C508.043 108.247 505.521 107.375 503.912 105.523C503.035 106.353 501.93 106.946 500.694 107.188C498.749 107.575 496.767 107.058 495.275 105.845C493.657 107.715 491.391 108.974 488.868 109.329C485.832 109.758 482.801 108.825 480.548 106.838C479.695 107.743 478.595 108.41 477.345 108.736C475.26 109.287 473.059 108.802 471.408 107.482C469.949 109.478 467.72 110.849 465.183 111.194C463.21 111.46 461.247 111.082 459.559 110.173C458.36 111.506 456.766 112.472 454.956 112.887C452.601 113.432 450.158 112.989 448.166 111.721C446.632 114.538 444.282 116.874 441.367 118.385C437.455 120.413 432.908 120.758 428.767 119.378C426.715 122.535 423.437 124.788 419.622 125.506C415.187 126.34 410.678 124.979 407.46 121.952C403.133 125.352 397.495 126.769 391.973 125.711C386.34 124.629 381.542 121.094 378.814 116.165C376.025 117.662 372.816 118.324 369.571 117.988C365.644 117.583 362.068 115.755 359.451 112.929C358.225 114.234 356.537 115.06 354.695 115.186C352.041 115.372 349.5 114.076 348.092 111.823C347 110.075 346.725 107.976 347.275 106.046C348.096 108.405 350.157 110.154 352.68 110.546C355.194 110.933 357.679 109.884 359.172 107.897C360.281 109.772 362.291 110.975 364.52 111.04C366.605 111.096 368.55 110.145 369.79 108.545C371.058 109.916 373.003 110.541 374.896 110.07C376.468 109.678 377.713 108.601 378.361 107.216C382.059 112.327 388.574 114.761 394.837 113.143C400.246 111.744 404.359 107.608 405.865 102.469C407.26 105.831 410.473 108.256 414.311 108.494C418.624 108.76 422.495 106.186 424.02 102.334C425.377 106.852 429.392 110.112 434.162 110.462C438.546 110.779 442.654 108.568 444.841 104.889C446.38 107.225 449.071 108.596 451.92 108.41C454.681 108.223 457.101 106.61 458.356 104.227C459.983 105.738 462.24 106.423 464.469 106.032C466.512 105.673 468.275 104.46 469.333 102.744C470.816 104.255 473.096 104.773 475.13 103.961C477.079 103.187 478.352 101.368 478.487 99.3538C483.127 103.056 489.693 103.196 494.482 99.7222C495.947 101.914 498.446 103.234 501.123 103.182C503.38 103.14 505.469 102.128 506.896 100.468C508.356 101.727 510.408 102.133 512.264 101.471C513.677 100.967 514.787 99.918 515.379 98.6077C515.724 99.489 515.882 100.45 515.826 101.438Z" fill="#C6E7FF"/>
<path d="M515.379 98.6076C514.786 99.918 513.677 100.967 512.264 101.471C510.408 102.133 508.356 101.727 506.896 100.468C505.469 102.128 503.38 103.14 501.123 103.182C498.446 103.234 495.947 101.914 494.482 99.7222C489.693 103.196 483.127 103.056 478.487 99.3538C478.352 101.368 477.079 103.187 475.13 103.961C473.096 104.773 470.816 104.255 469.333 102.744C468.275 104.46 466.512 105.673 464.469 106.032C462.24 106.423 459.983 105.738 458.356 104.227C457.101 106.61 454.681 108.223 451.92 108.41C449.071 108.596 446.38 107.225 444.841 104.889C442.654 108.568 438.546 110.779 434.162 110.462C429.392 110.112 425.377 106.852 424.02 102.334C422.495 106.186 418.624 108.76 414.311 108.494C410.473 108.256 407.26 105.831 405.865 102.469C404.359 107.608 400.246 111.744 394.837 113.143C388.574 114.761 382.059 112.327 378.361 107.216C377.713 108.601 376.468 109.678 374.896 110.07C373.003 110.541 371.058 109.916 369.79 108.545C368.549 110.145 366.605 111.096 364.52 111.04C362.291 110.975 360.281 109.772 359.172 107.897C357.679 109.884 355.194 110.933 352.68 110.546C350.157 110.154 348.096 108.405 347.275 106.046C347.429 105.481 347.658 104.936 347.961 104.413C349.22 102.236 351.514 100.874 354.014 100.818C354.023 99.2699 354.713 97.7589 355.996 96.7377C357.619 95.4459 359.801 95.2547 361.582 96.1361C362.175 95.1941 363.112 94.5226 364.199 94.2708C364.441 94.2148 364.688 94.1775 364.935 94.1635C364.879 93.7205 364.865 93.2728 364.893 92.8205C365.015 90.8712 365.933 89.0572 367.43 87.8074C368.857 86.6183 370.695 86.0354 372.541 86.1846C372.364 84.0768 373.106 81.941 374.663 80.3834C375.815 79.2269 377.284 78.5181 378.827 78.2942C380.935 70.9075 387.515 65.4934 395.392 65.0318C402.792 64.5981 409.568 68.6412 412.818 75.0113C414.637 73.8967 416.899 73.5936 419.016 74.2884C421.73 75.1745 423.665 77.5201 424.071 80.2901C427.708 78.686 431.863 78.5367 435.645 79.9404C439.022 81.1948 441.81 83.5731 443.587 86.6183C446.082 84.5711 449.449 83.741 452.713 84.5198C455.735 85.2472 458.206 87.2432 459.587 89.8873C461.377 87.8261 463.97 86.5623 466.782 86.4784C469.296 86.4038 471.693 87.2851 473.53 88.8706C475.05 83.1721 480.32 79.1243 486.387 79.3062C492.225 79.4834 497.089 83.5218 498.497 88.9732C500.582 88.838 502.68 89.3556 504.495 90.4888C506.019 91.4401 507.237 92.7738 508.057 94.3221C509.107 94.1682 510.198 94.2614 511.252 94.6205C513.196 95.292 514.675 96.7796 515.379 98.6076Z" fill="#FBFBFB"/>
<path d="M419.594 99.5646C420.26 100.499 421.009 101.169 421.836 101.613C422.66 102.057 423.541 102.266 424.422 102.257C425.302 102.244 426.178 102.016 426.991 101.554C427.807 101.091 428.541 100.407 429.19 99.4587C429.302 100.611 428.789 101.836 427.896 102.708C427.006 103.588 425.73 104.115 424.443 104.122C423.155 104.141 421.869 103.642 420.96 102.783C420.049 101.93 419.509 100.719 419.594 99.5646Z" fill="#C6E7FF"/>
<path d="M401.634 100.521C402.225 101.179 402.804 101.602 403.401 101.875C403.996 102.147 404.591 102.263 405.186 102.258C405.78 102.247 406.372 102.118 406.961 101.834C407.551 101.547 408.12 101.114 408.699 100.444C408.882 101.319 408.534 102.292 407.866 102.988C407.2 103.691 406.208 104.118 405.206 104.122C404.205 104.137 403.205 103.733 402.524 103.045C401.842 102.363 401.473 101.4 401.634 100.521Z" fill="#C6E7FF"/>
<path d="M372.239 102.574C373.425 104.033 374.695 105.143 376.105 105.912C377.499 106.694 379.007 107.114 380.528 107.224C382.05 107.314 383.598 107.09 385.084 106.505C386.578 105.923 387.989 104.996 389.356 103.707C389.016 105.571 387.797 107.288 386.146 108.433C384.494 109.586 382.397 110.153 380.343 110.016C378.29 109.875 376.285 109.044 374.803 107.677C373.315 106.33 372.336 104.463 372.239 102.574Z" fill="#C6E7FF"/>
<path d="M450.17 100.397C451.564 101.658 452.988 102.563 454.498 103.108C455.995 103.669 457.549 103.854 459.069 103.732C460.587 103.589 462.083 103.133 463.464 102.329C464.851 101.526 466.104 100.395 467.26 98.9122C467.208 100.807 466.263 102.689 464.806 104.072C463.348 105.463 461.362 106.341 459.311 106.519C457.261 106.692 455.152 106.175 453.48 105.05C451.804 103.946 450.553 102.25 450.17 100.397Z" fill="#C6E7FF"/>
<path d="M488.286 96.7227C489.26 97.6428 490.278 98.3115 491.366 98.7168C492.444 99.1332 493.573 99.275 494.677 99.1859C495.78 99.0824 496.865 98.7443 497.858 98.1525C498.855 97.5626 499.746 96.7321 500.547 95.6572C500.482 97.0058 499.797 98.3376 498.752 99.3146C497.709 100.298 496.296 100.917 494.839 101.044C493.381 101.166 491.882 100.805 490.687 100.011C489.488 99.233 488.587 98.0364 488.286 96.7227Z" fill="#C6E7FF"/>
<path d="M130.826 101.438C130.659 104.479 128.485 107.034 125.51 107.696C123.043 108.247 120.521 107.375 118.912 105.523C118.035 106.353 116.93 106.946 115.694 107.188C113.749 107.575 111.767 107.058 110.275 105.845C108.657 107.715 106.391 108.974 103.868 109.329C100.832 109.758 97.8008 108.825 95.5485 106.838C94.6951 107.743 93.5945 108.41 92.3448 108.736C90.2603 109.287 88.0592 108.802 86.4084 107.482C84.9488 109.478 82.7197 110.849 80.1828 111.194C78.2102 111.46 76.247 111.082 74.5589 110.173C73.3604 111.506 71.7655 112.472 69.9562 112.887C67.6012 113.432 65.1576 112.989 63.1664 111.721C61.6321 114.538 59.2818 116.874 56.3673 118.385C52.4547 120.413 47.908 120.758 43.767 119.378C41.7151 122.535 38.4368 124.788 34.6222 125.506C30.1874 126.34 25.678 124.979 22.4603 121.952C18.1327 125.352 12.4948 126.769 6.97339 125.711C1.3401 124.629 -3.45845 121.094 -6.18649 116.165C-8.97516 117.662 -12.1835 118.324 -15.4292 117.988C-19.3557 117.583 -22.9325 115.755 -25.5486 112.929C-26.775 114.234 -28.4632 115.06 -30.3052 115.186C-32.9586 115.372 -35.5001 114.076 -36.9084 111.823C-37.9997 110.075 -38.2748 107.976 -37.7245 106.046C-36.9038 108.405 -34.8426 110.154 -32.3197 110.546C-29.8062 110.933 -27.3207 109.884 -25.8284 107.897C-24.7185 109.772 -22.7086 110.975 -20.4796 111.04C-18.3951 111.096 -16.4505 110.145 -15.21 108.545C-13.9416 109.916 -11.997 110.541 -10.1037 110.07C-8.53214 109.678 -7.28704 108.601 -6.63884 107.216C-2.94083 112.327 3.57383 114.761 9.83667 113.143C15.2461 111.744 19.3592 107.608 20.8654 102.469C22.2597 105.831 25.4728 108.256 29.3107 108.494C33.6243 108.76 37.4948 106.186 39.0197 102.334C40.3767 106.852 44.3919 110.112 49.1624 110.462C53.5459 110.779 57.6543 108.568 59.8414 104.889C61.3803 107.225 64.0711 108.596 66.9204 108.41C69.681 108.223 72.1013 106.61 73.3557 104.227C74.9832 105.738 77.2403 106.423 79.4693 106.032C81.5119 105.673 83.2746 104.46 84.3332 102.744C85.8161 104.255 88.0965 104.773 90.1297 103.961C92.079 103.187 93.352 101.368 93.4873 99.3538C98.1273 103.056 104.693 103.196 109.482 99.7222C110.947 101.914 113.446 103.234 116.123 103.182C118.38 103.14 120.469 102.128 121.896 100.468C123.356 101.727 125.408 102.133 127.264 101.471C128.677 100.967 129.787 99.918 130.379 98.6077C130.724 99.489 130.882 100.45 130.826 101.438Z" fill="#C6E7FF"/>
<path d="M130.379 98.6076C129.786 99.918 128.677 100.967 127.264 101.471C125.408 102.133 123.356 101.727 121.896 100.468C120.469 102.128 118.38 103.14 116.123 103.182C113.446 103.234 110.947 101.914 109.482 99.7222C104.693 103.196 98.1272 103.056 93.4872 99.3538C93.352 101.368 92.0789 103.187 90.1296 103.961C88.0964 104.773 85.816 104.255 84.3331 102.744C83.2745 104.46 81.5118 105.673 79.4693 106.032C77.2402 106.423 74.9831 105.738 73.3556 104.227C72.1012 106.61 69.6809 108.223 66.9203 108.41C64.071 108.596 61.3802 107.225 59.8413 104.889C57.6542 108.568 53.5459 110.779 49.1623 110.462C44.3918 110.112 40.3766 106.852 39.0196 102.334C37.4947 106.186 33.6242 108.76 29.3106 108.494C25.4727 108.256 22.2597 105.831 20.8653 102.469C19.3591 107.608 15.246 111.744 9.83658 113.143C3.57374 114.761 -2.94092 112.327 -6.63893 107.216C-7.28713 108.601 -8.53223 109.678 -10.1038 110.07C-11.9971 110.541 -13.9417 109.916 -15.2101 108.545C-16.4506 110.145 -18.3952 111.096 -20.4797 111.04C-22.7087 110.975 -24.7186 109.772 -25.8285 107.897C-27.3207 109.884 -29.8063 110.933 -32.3198 110.546C-34.8427 110.154 -36.9039 108.405 -37.7246 106.046C-37.5707 105.481 -37.3422 104.936 -37.0391 104.413C-35.78 102.236 -33.4857 100.874 -30.9861 100.818C-30.9768 99.2699 -30.2866 97.7589 -29.0042 96.7377C-27.3814 95.4459 -25.1989 95.2547 -23.4175 96.1361C-22.8253 95.1941 -21.888 94.5226 -20.8014 94.2708C-20.5589 94.2148 -20.3118 94.1775 -20.0646 94.1635C-20.1206 93.7205 -20.1346 93.2728 -20.1066 92.8205C-19.9853 90.8712 -19.0667 89.0572 -17.5697 87.8074C-16.1428 86.6183 -14.3054 86.0354 -12.4587 86.1846C-12.636 84.0768 -11.8945 81.941 -10.3369 80.3834C-9.1851 79.2269 -7.71616 78.5181 -6.1726 78.2942C-4.06478 70.9075 2.51517 65.4934 10.3915 65.0318C17.7922 64.5981 24.568 68.6412 27.8183 75.0113C29.637 73.8967 31.8987 73.5936 34.0159 74.2884C36.7299 75.1745 38.6652 77.5201 39.0709 80.2901C42.7083 78.686 46.8633 78.5367 50.6453 79.9404C54.0215 81.1948 56.8102 83.5731 58.5869 86.6183C61.0818 84.5711 64.4487 83.741 67.713 84.5198C70.7348 85.2472 73.2064 87.2432 74.5868 89.8873C76.3775 87.8261 78.9703 86.5623 81.7823 86.4784C84.2958 86.4038 86.6927 87.2851 88.5301 88.8706C90.0503 83.1721 95.3199 79.1243 101.387 79.3062C107.225 79.4834 112.089 83.5218 113.497 88.9732C115.582 88.838 117.68 89.3556 119.495 90.4888C121.019 91.4401 122.237 92.7738 123.057 94.3221C124.107 94.1682 125.198 94.2614 126.252 94.6205C128.196 95.292 129.675 96.7796 130.379 98.6076Z" fill="#FBFBFB"/>
<path d="M34.5936 99.5646C35.2605 100.499 36.0094 101.169 36.8362 101.613C37.6597 102.057 38.5411 102.266 39.422 102.257C40.3024 102.244 41.1777 102.016 41.991 101.554C42.8071 101.091 43.5411 100.407 44.1898 99.4587C44.3022 100.611 43.7892 101.836 42.8962 102.708C42.0059 103.588 40.7296 104.115 39.4425 104.122C38.1554 104.141 36.8688 103.642 35.96 102.783C35.0487 101.93 34.5092 100.719 34.5936 99.5646Z" fill="#C6E7FF"/>
<path d="M16.6343 100.521C17.2247 101.179 17.8038 101.602 18.4007 101.875C18.9958 102.147 19.5908 102.263 20.1859 102.258C20.7804 102.247 21.3722 102.118 21.9607 101.834C22.5511 101.547 23.1205 101.114 23.6987 100.444C23.882 101.319 23.5337 102.292 22.8659 102.988C22.2004 103.691 21.2081 104.118 20.2064 104.122C19.2052 104.137 18.2049 103.733 17.524 103.045C16.8423 102.363 16.4729 101.4 16.6343 100.521Z" fill="#C6E7FF"/>
<path d="M-12.7607 102.574C-11.5749 104.033 -10.3046 105.143 -8.89485 105.912C-7.50098 106.694 -5.99287 107.114 -4.47216 107.224C-2.95005 107.314 -1.40229 107.09 0.0843754 106.505C1.57757 105.923 2.98869 104.996 4.35644 103.707C4.01648 105.571 2.79702 107.288 1.14574 108.433C-0.506474 109.586 -2.60309 110.153 -4.65729 110.016C-6.70961 109.875 -8.71531 109.044 -10.1973 107.677C-11.6854 106.33 -12.6637 104.463 -12.7607 102.574Z" fill="#C6E7FF"/>
<path d="M65.1699 100.397C66.5638 101.658 67.9884 102.563 69.4984 103.108C70.9949 103.669 72.5491 103.854 74.0694 103.732C75.5873 103.589 77.0828 103.133 78.4636 102.329C79.851 101.526 81.1045 100.395 82.26 98.9122C82.2078 100.807 81.2635 102.689 79.8057 104.072C78.348 105.463 76.3619 106.341 74.311 106.519C72.2614 106.692 70.1522 106.175 68.4799 105.05C66.8039 103.946 65.5532 102.25 65.1699 100.397Z" fill="#C6E7FF"/>
<path d="M103.286 96.7227C104.26 97.6428 105.278 98.3115 106.366 98.7168C107.444 99.1332 108.573 99.275 109.677 99.1859C110.78 99.0824 111.865 98.7443 112.858 98.1525C113.855 97.5626 114.746 96.7321 115.547 95.6572C115.482 97.0058 114.797 98.3376 113.752 99.3146C112.709 100.298 111.296 100.917 109.839 101.044C108.381 101.166 106.882 100.805 105.687 100.011C104.488 99.233 103.587 98.0364 103.286 96.7227Z" fill="#C6E7FF"/>
<path d="M217.671 101.042C217.28 102.357 216.487 103.504 215.414 104.33C215.494 105.775 215.232 107.24 214.631 108.592C213.521 111.082 211.371 112.957 208.75 113.717C206.134 114.477 203.318 114.043 201.047 112.537C200.534 112.192 200.058 111.805 199.624 111.362C198.533 112.91 196.873 114.025 194.947 114.407C193.1 114.771 191.23 114.43 189.664 113.507C188.171 117.396 184.851 120.358 180.724 121.351C176.564 122.358 172.223 121.206 169.112 118.376C165.675 119.793 161.805 119.961 158.205 118.772C155.216 117.788 152.627 115.946 150.734 113.526C149.358 114.538 147.638 115.023 145.889 114.841C144.061 114.65 142.415 113.75 141.277 112.388C140.493 114.183 139.062 115.643 137.238 116.459C135.247 117.354 132.986 117.382 130.994 116.562C129.302 118.413 126.979 119.621 124.428 119.901C121.64 120.208 118.87 119.388 116.72 117.658C113.67 120.166 109.384 120.763 105.7 119.033C102.767 117.662 100.729 115.055 100.002 112.057C97.6003 113.246 94.6297 113.008 92.4147 111.208C90.526 109.674 89.6353 107.366 89.8405 105.109C89.099 104.554 88.4975 103.803 88.1244 102.907C87.7933 102.115 87.6627 101.28 87.7234 100.459C90.3815 105.855 96.2339 108.802 102.058 107.851C102.86 109.879 104.441 111.525 106.475 112.411C108.191 113.157 110.084 113.297 111.861 112.84C114.37 115.256 118.072 116.063 121.407 114.832C124.116 113.824 126.13 111.632 126.961 108.984C129.092 110.341 131.661 110.91 134.207 110.532C136.786 110.15 139.108 108.839 140.75 106.876C142.2 108.774 144.607 109.772 147.041 109.385C148.92 109.086 150.529 108.004 151.522 106.484C154.731 110.168 159.739 111.842 164.58 110.742C168.637 109.818 171.952 107.09 173.682 103.462C175.077 105.006 177.059 105.967 179.218 106.032C181.503 106.102 183.652 105.169 185.159 103.551C187.099 105.766 190.051 106.899 193.04 106.47C195.082 106.181 196.906 105.192 198.249 103.747C199.312 104.861 200.697 105.635 202.236 105.953C204.4 106.396 206.643 105.883 208.396 104.549C210.154 103.211 211.245 101.182 211.395 98.9856C211.544 96.7845 210.737 94.63 209.179 93.0678C210.448 92.5968 211.838 92.5362 213.162 92.8953C214.85 93.3616 216.277 94.4901 217.126 96.0197C217.979 97.5539 218.175 99.3633 217.671 101.042Z" fill="#C6E7FF"/>
<path d="M211.394 98.9856C211.245 101.182 210.154 103.211 208.396 104.549C206.643 105.883 204.4 106.396 202.236 105.953C200.697 105.635 199.312 104.861 198.249 103.747C196.906 105.192 195.082 106.181 193.04 106.47C190.05 106.899 187.099 105.766 185.159 103.551C183.652 105.169 181.503 106.102 179.218 106.032C177.058 105.967 175.077 105.006 173.682 103.462C171.952 107.09 168.637 109.818 164.579 110.742C159.739 111.842 154.731 110.168 151.522 106.484C150.529 108.004 148.92 109.086 147.041 109.385C144.606 109.772 142.2 108.774 140.75 106.876C139.108 108.839 136.786 110.15 134.207 110.532C131.661 110.91 129.092 110.341 126.96 108.984C126.13 111.632 124.116 113.824 121.406 114.832C118.072 116.063 114.369 115.256 111.861 112.84C110.084 113.297 108.191 113.157 106.474 112.411C104.441 111.525 102.86 109.879 102.058 107.851C96.2338 108.802 90.3814 105.855 87.7233 100.459C86.3616 100.422 85.0605 99.8156 84.1558 98.7477C82.99 97.3767 82.6776 95.4694 83.3491 93.7953C84.0206 92.1212 85.5595 90.96 87.3502 90.7688C88.3295 90.6662 89.2902 90.8621 90.1249 91.3051C90.969 90.018 92.3353 89.1273 93.9022 88.8942C95.8141 88.6097 97.7261 89.3558 98.9386 90.8341C100.683 88.4791 103.369 86.9262 106.363 86.6371C108.885 86.3946 111.362 87.0755 113.376 88.4791C114.183 86.9729 115.629 85.849 117.387 85.4946C118.977 85.1775 120.576 85.5366 121.849 86.4086C122.526 85.1868 123.57 84.1795 124.867 83.55C126.042 82.9764 127.334 82.7619 128.593 82.8925C130.84 77.2638 136.516 73.5891 142.755 74.0368C148.612 74.4565 153.453 78.411 155.192 83.7645C157.076 82.5101 159.426 82.0484 161.711 82.5614C163.875 83.051 165.717 84.3614 166.897 86.1568C167.9 84.977 169.201 84.0583 170.688 83.5034C172.255 82.9158 173.929 82.7712 175.538 83.051C177.646 78.8307 182.207 76.1493 187.164 76.6529C191.99 77.1426 195.842 80.5095 197.162 84.8977C199.96 84.3894 202.893 85.0516 205.234 86.8096C207.305 88.3672 208.685 90.6103 209.179 93.0678C210.737 94.63 211.544 96.7845 211.394 98.9856Z" fill="#FBFBFB"/>
<path d="M124.533 106.515C125.104 107.104 125.641 107.464 126.18 107.694C126.717 107.923 127.241 108.016 127.763 108.011C128.286 108.002 128.806 107.898 129.338 107.657C129.872 107.415 130.4 107.046 130.96 106.445C131.161 107.25 130.854 108.16 130.243 108.812C129.634 109.47 128.713 109.872 127.783 109.876C126.854 109.89 125.926 109.508 125.302 108.864C124.679 108.226 124.352 107.325 124.533 106.515Z" fill="#C6E7FF"/>
<path d="M195.271 102.126C195.842 102.716 196.378 103.075 196.918 103.305C197.456 103.534 197.979 103.627 198.502 103.622C199.025 103.613 199.545 103.509 200.077 103.268C200.61 103.026 201.139 102.657 201.699 102.055C201.9 102.862 201.593 103.771 200.981 104.423C200.372 105.081 199.451 105.483 198.522 105.487C197.593 105.501 196.664 105.119 196.041 104.475C195.417 103.837 195.091 102.936 195.271 102.126Z" fill="#C6E7FF"/>
<path d="M164.155 97.04C165.293 98.9324 166.72 100.38 168.369 101.352C170.012 102.325 171.844 102.806 173.675 102.786C175.507 102.762 177.326 102.241 178.947 101.233C180.572 100.225 181.967 98.7482 183.067 96.832C183.109 99.056 182.047 101.342 180.304 102.964C178.568 104.599 176.147 105.567 173.706 105.583C171.265 105.617 168.825 104.703 167.054 103.107C165.278 101.523 164.166 99.2635 164.155 97.04Z" fill="#C6E7FF"/>
<path d="M146.389 102.18C147.296 103.243 148.211 103.943 149.169 104.4C150.124 104.854 151.095 105.054 152.065 105.046C153.035 105.029 154 104.809 154.944 104.333C155.891 103.855 156.79 103.137 157.676 102.056C157.932 103.445 157.364 104.973 156.301 106.065C155.242 107.167 153.676 107.836 152.095 107.843C150.515 107.867 148.937 107.234 147.853 106.155C146.769 105.086 146.168 103.574 146.389 102.18Z" fill="#C6E7FF"/>
<path d="M108.276 106.802C107.703 107.78 106.728 108.513 105.627 108.925C104.521 109.336 103.275 109.42 102.101 109.164C100.926 108.912 99.8263 108.319 98.9906 107.485C98.1587 106.653 97.5767 105.581 97.4629 104.452C98.2762 105.233 99.0596 105.854 99.8971 106.332C100.73 106.811 101.598 107.144 102.497 107.342C103.396 107.537 104.325 107.595 105.282 107.505C106.243 107.418 107.214 107.177 108.276 106.802Z" fill="#C6E7FF"/>
<path d="M210.826 86.4383C210.659 89.4788 208.485 92.0343 205.51 92.6965C203.043 93.2467 200.521 92.3747 198.912 90.5234C198.035 91.3534 196.93 91.9457 195.694 92.1882C193.749 92.5752 191.767 92.0576 190.275 90.8451C188.657 92.7151 186.391 93.9742 183.868 94.3286C180.832 94.7577 177.801 93.825 175.548 91.8384C174.695 92.7431 173.595 93.4099 172.345 93.7364C170.26 94.2867 168.059 93.8017 166.408 92.4819C164.949 94.4778 162.72 95.8489 160.183 96.194C158.21 96.4598 156.247 96.082 154.559 95.1727C153.36 96.5064 151.766 97.4717 149.956 97.8867C147.601 98.4323 145.158 97.9893 143.166 96.7209C141.632 99.5375 139.282 101.874 136.367 103.385C132.455 105.413 127.908 105.758 123.767 104.378C121.715 107.535 118.437 109.788 114.622 110.506C110.187 111.34 105.678 109.979 102.46 106.952C98.1327 110.352 92.4948 111.769 86.9734 110.711C81.3401 109.629 76.5415 106.094 73.8135 101.165C71.0248 102.662 67.8165 103.324 64.5708 102.988C60.6443 102.583 57.0675 100.755 54.4514 97.9287C53.225 99.2344 51.5368 100.06 49.6948 100.186C47.0414 100.372 44.4999 99.0759 43.0916 96.8235C42.0003 95.0747 41.7252 92.9763 42.2755 91.0456C43.0962 93.4053 45.1574 95.154 47.6803 95.5457C50.1938 95.9328 52.6793 94.8836 54.1716 92.897C55.2815 94.7716 57.2914 95.9748 59.5204 96.0401C61.6049 96.096 63.5495 95.1447 64.79 93.5452C66.0584 94.9162 68.003 95.5411 69.8963 95.0701C71.4679 94.6784 72.713 93.6011 73.3612 92.2161C77.0592 97.3271 83.5738 99.7614 89.8367 98.1432C95.2461 96.7442 99.3592 92.6079 100.865 87.4689C102.26 90.8311 105.473 93.2561 109.311 93.4939C113.624 93.7597 117.495 91.1856 119.02 87.3337C120.377 91.8524 124.392 95.1121 129.162 95.4618C133.546 95.7789 137.654 93.5685 139.841 89.8891C141.38 92.2255 144.071 93.5965 146.92 93.41C149.681 93.2234 152.101 91.6099 153.356 89.227C154.983 90.7379 157.24 91.4234 159.469 91.0317C161.512 90.6726 163.275 89.4601 164.333 87.744C165.816 89.2549 168.096 89.7726 170.13 88.9611C172.079 88.187 173.352 86.3683 173.487 84.3538C178.127 88.0565 184.693 88.1964 189.482 84.7222C190.947 86.914 193.446 88.2337 196.123 88.1824C198.38 88.1404 200.469 87.1285 201.896 85.4683C203.356 86.7274 205.408 87.1331 207.264 86.4709C208.677 85.9673 209.787 84.918 210.379 83.6077C210.724 84.489 210.882 85.4497 210.826 86.4383Z" fill="#C6E7FF"/>
<path d="M210.379 83.6076C209.786 84.918 208.677 85.9673 207.264 86.4709C205.408 87.1331 203.356 86.7274 201.896 85.4683C200.469 87.1285 198.38 88.1404 196.123 88.1824C193.446 88.2337 190.947 86.9139 189.482 84.7222C184.693 88.1964 178.127 88.0565 173.487 84.3538C173.352 86.3683 172.079 88.187 170.13 88.9611C168.096 89.7726 165.816 89.2549 164.333 87.744C163.275 89.4601 161.512 90.6726 159.469 91.0317C157.24 91.4234 154.983 90.7379 153.356 89.227C152.101 91.6099 149.681 93.2234 146.92 93.41C144.071 93.5965 141.38 92.2255 139.841 89.8891C137.654 93.5685 133.546 95.7789 129.162 95.4618C124.392 95.1121 120.377 91.8524 119.02 87.3337C117.495 91.1856 113.624 93.7597 109.311 93.4939C105.473 93.2561 102.26 90.8311 100.865 87.4689C99.3591 92.6079 95.246 96.7442 89.8366 98.1432C83.5737 99.7614 77.0591 97.3271 73.3611 92.2161C72.7129 93.6011 71.4678 94.6784 69.8962 95.0701C68.0029 95.5411 66.0583 94.9162 64.7899 93.5452C63.5494 95.1447 61.6048 96.096 59.5203 96.0401C57.2913 95.9748 55.2814 94.7716 54.1715 92.897C52.6793 94.8836 50.1937 95.9328 47.6802 95.5457C45.1573 95.154 43.0961 93.4053 42.2754 91.0456C42.4293 90.4814 42.6578 89.9358 42.9609 89.4135C44.22 87.2357 46.5143 85.874 49.0139 85.8181C49.0232 84.2699 49.7134 82.7589 50.9958 81.7377C52.6186 80.4459 54.8011 80.2547 56.5825 81.1361C57.1747 80.1941 58.112 79.5226 59.1986 79.2708C59.4411 79.2148 59.6882 79.1775 59.9354 79.1635C59.8794 78.7205 59.8654 78.2728 59.8934 77.8205C60.0147 75.8712 60.9333 74.0572 62.4303 72.8074C63.8572 71.6183 65.6946 71.0354 67.5413 71.1846C67.364 69.0768 68.1055 66.941 69.6631 65.3834C70.8149 64.2269 72.2838 63.5181 73.8274 63.2942C75.9352 55.9075 82.5152 50.4934 90.3915 50.0318C97.7922 49.5981 104.568 53.6412 107.818 60.0113C109.637 58.8967 111.899 58.5936 114.016 59.2884C116.73 60.1745 118.665 62.5201 119.071 65.2901C122.708 63.686 126.863 63.5367 130.645 64.9404C134.022 66.1948 136.81 68.5731 138.587 71.6183C141.082 69.5711 144.449 68.741 147.713 69.5198C150.735 70.2472 153.206 72.2432 154.587 74.8873C156.377 72.8261 158.97 71.5623 161.782 71.4784C164.296 71.4038 166.693 72.2851 168.53 73.8706C170.05 68.1721 175.32 64.1243 181.387 64.3062C187.225 64.4834 192.089 68.5218 193.497 73.9732C195.582 73.838 197.68 74.3556 199.495 75.4888C201.019 76.4401 202.237 77.7738 203.057 79.3221C204.107 79.1682 205.198 79.2614 206.252 79.6205C208.196 80.292 209.675 81.7796 210.379 83.6076Z" fill="#FBFBFB"/>
<path d="M114.594 84.5646C115.26 85.4986 116.009 86.1687 116.836 86.6127C117.66 87.0566 118.541 87.266 119.422 87.2572C120.302 87.2441 121.178 87.0156 121.991 86.5539C122.807 86.0913 123.541 85.4068 124.19 84.4587C124.302 85.6115 123.789 86.8361 122.896 87.7081C122.006 88.5876 120.73 89.115 119.443 89.122C118.155 89.1407 116.869 88.6422 115.96 87.7827C115.049 86.9303 114.509 85.7187 114.594 84.5646Z" fill="#C6E7FF"/>
<path d="M96.6343 85.521C97.2247 86.1795 97.8038 86.6015 98.4007 86.8748C98.9958 87.1466 99.5908 87.2628 100.186 87.2576C100.78 87.2474 101.372 87.1182 101.961 86.8337C102.551 86.5474 103.12 86.1142 103.699 85.4436C103.882 86.3194 103.534 87.2921 102.866 87.9879C102.2 88.6907 101.208 89.1183 100.206 89.1225C99.2052 89.1374 98.2049 88.7326 97.524 88.0448C96.8423 87.363 96.4729 86.4 96.6343 85.521Z" fill="#C6E7FF"/>
<path d="M67.2393 87.5743C68.4251 89.033 69.6954 90.1433 71.1052 90.9123C72.499 91.6939 74.0071 92.114 75.5278 92.2241C77.0499 92.3136 78.5977 92.0902 80.0844 91.5055C81.5776 90.9235 82.9887 89.9964 84.3564 88.7065C84.0165 90.5709 82.797 92.2884 81.1457 93.4328C79.4935 94.586 77.3969 95.1526 75.3427 95.0155C73.2904 94.8747 71.2847 94.0437 69.8027 92.6769C68.3146 91.3296 67.3363 89.4634 67.2393 87.5743Z" fill="#C6E7FF"/>
<path d="M145.17 85.3974C146.564 86.6584 147.988 87.5631 149.498 88.1082C150.995 88.6687 152.549 88.8544 154.069 88.7322C155.587 88.589 157.083 88.1329 158.464 87.3285C159.851 86.5264 161.104 85.3951 162.26 83.9122C162.208 85.8069 161.263 87.6895 159.806 89.0717C158.348 90.4627 156.362 91.3413 154.311 91.5185C152.261 91.6915 150.152 91.1753 148.48 90.0496C146.804 88.9457 145.553 87.2502 145.17 85.3974Z" fill="#C6E7FF"/>
<path d="M183.286 81.7227C184.26 82.6428 185.278 83.3115 186.366 83.7168C187.444 84.1332 188.573 84.275 189.677 84.1859C190.78 84.0824 191.865 83.7443 192.858 83.1525C193.855 82.5626 194.746 81.7321 195.547 80.6572C195.482 82.0058 194.797 83.3376 193.752 84.3146C192.709 85.2976 191.296 85.9174 189.839 86.0438C188.381 86.1664 186.882 85.8045 185.687 85.0113C184.488 84.233 183.587 83.0364 183.286 81.7227Z" fill="#C6E7FF"/>
<path d="M167.671 107.042C167.28 108.357 166.487 109.504 165.414 110.33C165.494 111.775 165.232 113.24 164.631 114.592C163.521 117.082 161.371 118.957 158.75 119.717C156.134 120.477 153.318 120.043 151.047 118.537C150.534 118.192 150.058 117.805 149.624 117.362C148.533 118.91 146.873 120.025 144.947 120.407C143.1 120.771 141.23 120.43 139.664 119.507C138.171 123.396 134.851 126.358 130.724 127.351C126.564 128.358 122.223 127.206 119.112 124.376C115.675 125.793 111.805 125.961 108.205 124.772C105.216 123.788 102.627 121.946 100.734 119.526C99.3584 120.538 97.6377 121.023 95.8889 120.841C94.0609 120.65 92.4148 119.75 91.2769 118.388C90.4935 120.183 89.0618 121.643 87.2385 122.459C85.2472 123.354 82.9855 123.382 80.9943 122.562C79.3015 124.413 76.9792 125.621 74.4283 125.901C71.6397 126.208 68.8697 125.388 66.7199 123.657C63.6701 126.166 59.3845 126.763 55.7005 125.033C52.7672 123.662 50.7294 121.055 50.0019 118.057C47.6003 119.246 44.6297 119.008 42.4147 117.208C40.526 115.674 39.6353 113.366 39.8405 111.108C39.099 110.554 38.4975 109.803 38.1244 108.907C37.7933 108.115 37.6627 107.28 37.7234 106.459C40.3815 111.855 46.2339 114.802 52.0584 113.851C52.8605 115.879 54.4414 117.525 56.4746 118.411C58.1907 119.157 60.084 119.297 61.8607 118.84C64.3696 121.256 68.0722 122.063 71.4065 120.832C74.1159 119.824 76.1305 117.632 76.9605 114.984C79.0917 116.341 81.6612 116.91 84.2073 116.532C86.7861 116.15 89.1085 114.839 90.75 112.876C92.2003 114.774 94.6065 115.772 97.0408 115.385C98.9201 115.086 100.529 114.004 101.522 112.484C104.731 116.168 109.739 117.842 114.58 116.742C118.637 115.818 121.952 113.09 123.682 109.462C125.077 111.006 127.059 111.967 129.218 112.032C131.503 112.102 133.652 111.169 135.159 109.551C137.099 111.766 140.051 112.899 143.04 112.47C145.082 112.181 146.906 111.192 148.249 109.747C149.312 110.861 150.697 111.635 152.236 111.953C154.4 112.396 156.643 111.883 158.396 110.549C160.154 109.211 161.245 107.182 161.395 104.986C161.544 102.784 160.737 100.63 159.179 99.0678C160.448 98.5968 161.838 98.5362 163.162 98.8953C164.85 99.3616 166.277 100.49 167.126 102.02C167.979 103.554 168.175 105.363 167.671 107.042Z" fill="#C6E7FF"/>
<path d="M161.394 104.986C161.245 107.182 160.154 109.211 158.396 110.549C156.643 111.883 154.4 112.396 152.236 111.953C150.697 111.635 149.312 110.861 148.249 109.747C146.906 111.192 145.082 112.181 143.04 112.47C140.05 112.899 137.099 111.766 135.159 109.551C133.652 111.169 131.503 112.102 129.218 112.032C127.058 111.967 125.077 111.006 123.682 109.462C121.952 113.09 118.637 115.818 114.579 116.742C109.739 117.842 104.731 116.168 101.522 112.484C100.529 114.004 98.92 115.086 97.0407 115.385C94.6064 115.772 92.2002 114.774 90.7499 112.876C89.1084 114.839 86.7861 116.15 84.2072 116.532C81.6611 116.91 79.0916 116.341 76.9604 114.984C76.1304 117.632 74.1158 119.824 71.4064 120.832C68.0721 122.063 64.3695 121.256 61.8606 118.84C60.0839 119.297 58.1906 119.157 56.4745 118.411C54.4413 117.525 52.8604 115.879 52.0583 113.851C46.2338 114.802 40.3814 111.855 37.7233 106.459C36.3616 106.422 35.0605 105.816 34.1558 104.748C32.99 103.377 32.6776 101.469 33.3491 99.7953C34.0206 98.1212 35.5595 96.96 37.3502 96.7688C38.3295 96.6662 39.2902 96.8621 40.1249 97.3051C40.969 96.018 42.3353 95.1273 43.9022 94.8942C45.8141 94.6097 47.7261 95.3558 48.9386 96.8341C50.6826 94.4791 53.3687 92.9262 56.3626 92.6371C58.8854 92.3946 61.3616 93.0755 63.3762 94.4791C64.1829 92.9729 65.6286 91.849 67.3866 91.4946C68.9768 91.1775 70.5764 91.5366 71.8494 92.4086C72.5256 91.1868 73.5702 90.1795 74.8666 89.55C76.0418 88.9764 77.3335 88.7619 78.5926 88.8925C80.8403 83.2638 86.5156 79.5891 92.7551 80.0368C98.6122 80.4565 103.453 84.411 105.192 89.7645C107.076 88.5101 109.426 88.0484 111.711 88.5614C113.875 89.051 115.717 90.3614 116.897 92.1568C117.9 90.977 119.201 90.0583 120.688 89.5034C122.255 88.9158 123.929 88.7712 125.538 89.051C127.646 84.8307 132.207 82.1493 137.164 82.6529C141.99 83.1426 145.842 86.5095 147.162 90.8977C149.96 90.3894 152.893 91.0516 155.234 92.8096C157.305 94.3672 158.685 96.6103 159.179 99.0678C160.737 100.63 161.544 102.784 161.394 104.986Z" fill="#FBFBFB"/>
<path d="M74.5331 112.515C75.1038 113.104 75.6406 113.464 76.1797 113.694C76.7174 113.923 77.2406 114.016 77.7633 114.011C78.2861 114.002 78.806 113.898 79.3381 113.657C79.8716 113.415 80.4 113.046 80.96 112.445C81.161 113.25 80.8542 114.16 80.2428 114.812C79.6338 115.47 78.7128 115.872 77.7834 115.876C76.854 115.89 75.9255 115.508 75.3025 114.864C74.6785 114.226 74.3521 113.325 74.5331 112.515Z" fill="#C6E7FF"/>
<path d="M145.271 108.126C145.842 108.716 146.378 109.075 146.918 109.305C147.456 109.534 147.979 109.627 148.502 109.622C149.025 109.613 149.545 109.509 150.077 109.268C150.61 109.026 151.139 108.657 151.699 108.055C151.9 108.862 151.593 109.771 150.981 110.423C150.372 111.081 149.451 111.483 148.522 111.487C147.593 111.501 146.664 111.119 146.041 110.475C145.417 109.837 145.091 108.936 145.271 108.126Z" fill="#C6E7FF"/>
<path d="M114.155 103.04C115.293 104.932 116.72 106.38 118.369 107.352C120.012 108.325 121.844 108.806 123.675 108.786C125.507 108.762 127.326 108.241 128.947 107.233C130.572 106.225 131.967 104.748 133.067 102.832C133.109 105.056 132.047 107.342 130.304 108.964C128.568 110.599 126.147 111.567 123.706 111.583C121.265 111.617 118.825 110.703 117.054 109.107C115.278 107.523 114.166 105.264 114.155 103.04Z" fill="#C6E7FF"/>
<path d="M96.3892 108.18C97.2958 109.243 98.2107 109.943 99.169 110.4C100.124 110.854 101.095 111.054 102.065 111.046C103.035 111.029 104 110.809 104.944 110.333C105.891 109.855 106.79 109.137 107.676 108.056C107.932 109.445 107.364 110.973 106.301 112.065C105.242 113.167 103.676 113.836 102.095 113.843C100.515 113.867 98.9368 113.234 97.8535 112.155C96.7688 111.086 96.1682 109.574 96.3892 108.18Z" fill="#C6E7FF"/>
<path d="M58.2762 112.802C57.7026 113.78 56.7284 114.513 55.627 114.925C54.5213 115.336 53.2748 115.42 52.101 115.164C50.9259 114.912 49.8263 114.319 48.9906 113.485C48.1587 112.653 47.5767 111.581 47.4629 110.452C48.2762 111.233 49.0596 111.854 49.8971 112.332C50.7295 112.811 51.5983 113.144 52.4969 113.342C53.3965 113.537 54.3254 113.595 55.2819 113.505C56.243 113.418 57.2139 113.177 58.2762 112.802Z" fill="#C6E7FF"/>
<path d="M489.826 87.4383C489.659 90.4788 487.485 93.0343 484.51 93.6965C482.043 94.2467 479.521 93.3747 477.912 91.5234C477.035 92.3534 475.93 92.9457 474.694 93.1882C472.749 93.5752 470.767 93.0576 469.275 91.8451C467.657 93.7151 465.391 94.9742 462.868 95.3286C459.832 95.7577 456.801 94.825 454.548 92.8384C453.695 93.7431 452.595 94.4099 451.345 94.7364C449.26 95.2867 447.059 94.8017 445.408 93.4819C443.949 95.4778 441.72 96.8489 439.183 97.194C437.21 97.4598 435.247 97.082 433.559 96.1727C432.36 97.5064 430.766 98.4717 428.956 98.8867C426.601 99.4323 424.158 98.9893 422.166 97.7209C420.632 100.538 418.282 102.874 415.367 104.385C411.455 106.413 406.908 106.758 402.767 105.378C400.715 108.535 397.437 110.788 393.622 111.506C389.187 112.34 384.678 110.979 381.46 107.952C377.133 111.352 371.495 112.769 365.973 111.711C360.34 110.629 355.542 107.094 352.814 102.165C350.025 103.662 346.816 104.324 343.571 103.988C339.644 103.583 336.068 101.755 333.451 98.9287C332.225 100.234 330.537 101.06 328.695 101.186C326.041 101.372 323.5 100.076 322.092 97.8235C321 96.0747 320.725 93.9763 321.275 92.0456C322.096 94.4053 324.157 96.154 326.68 96.5457C329.194 96.9328 331.679 95.8836 333.172 93.897C334.281 95.7716 336.291 96.9748 338.52 97.0401C340.605 97.096 342.55 96.1447 343.79 94.5452C345.058 95.9162 347.003 96.5411 348.896 96.0701C350.468 95.6784 351.713 94.6011 352.361 93.2161C356.059 98.3271 362.574 100.761 368.837 99.1432C374.246 97.7442 378.359 93.6079 379.865 88.4689C381.26 91.8311 384.473 94.2561 388.311 94.4939C392.624 94.7597 396.495 92.1856 398.02 88.3337C399.377 92.8524 403.392 96.1121 408.162 96.4618C412.546 96.7789 416.654 94.5685 418.841 90.8891C420.38 93.2255 423.071 94.5965 425.92 94.41C428.681 94.2234 431.101 92.6099 432.356 90.227C433.983 91.7379 436.24 92.4234 438.469 92.0317C440.512 91.6726 442.275 90.4601 443.333 88.744C444.816 90.2549 447.096 90.7726 449.13 89.9611C451.079 89.187 452.352 87.3683 452.487 85.3538C457.127 89.0565 463.693 89.1964 468.482 85.7222C469.947 87.914 472.446 89.2337 475.123 89.1824C477.38 89.1404 479.469 88.1285 480.896 86.4683C482.356 87.7274 484.408 88.1331 486.264 87.4709C487.677 86.9673 488.787 85.918 489.379 84.6077C489.724 85.489 489.882 86.4497 489.826 87.4383Z" fill="#C6E7FF"/>
<path d="M489.379 84.6076C488.786 85.918 487.677 86.9673 486.264 87.4709C484.408 88.1331 482.356 87.7274 480.896 86.4683C479.469 88.1285 477.38 89.1404 475.123 89.1824C472.446 89.2337 469.947 87.9139 468.482 85.7222C463.693 89.1964 457.127 89.0565 452.487 85.3538C452.352 87.3683 451.079 89.187 449.13 89.9611C447.096 90.7726 444.816 90.2549 443.333 88.744C442.275 90.4601 440.512 91.6726 438.469 92.0317C436.24 92.4234 433.983 91.7379 432.356 90.227C431.101 92.6099 428.681 94.2234 425.92 94.41C423.071 94.5965 420.38 93.2255 418.841 90.8891C416.654 94.5685 412.546 96.7789 408.162 96.4618C403.392 96.1121 399.377 92.8524 398.02 88.3337C396.495 92.1856 392.624 94.7597 388.311 94.4939C384.473 94.2561 381.26 91.8311 379.865 88.4689C378.359 93.6079 374.246 97.7442 368.837 99.1432C362.574 100.761 356.059 98.3271 352.361 93.2161C351.713 94.6011 350.468 95.6784 348.896 96.0701C347.003 96.5411 345.058 95.9162 343.79 94.5452C342.549 96.1447 340.605 97.096 338.52 97.0401C336.291 96.9748 334.281 95.7716 333.172 93.897C331.679 95.8836 329.194 96.9328 326.68 96.5457C324.157 96.154 322.096 94.4053 321.275 92.0456C321.429 91.4814 321.658 90.9358 321.961 90.4135C323.22 88.2357 325.514 86.874 328.014 86.8181C328.023 85.2699 328.713 83.7589 329.996 82.7377C331.619 81.4459 333.801 81.2547 335.582 82.1361C336.175 81.1941 337.112 80.5226 338.199 80.2708C338.441 80.2148 338.688 80.1775 338.935 80.1635C338.879 79.7205 338.865 79.2728 338.893 78.8205C339.015 76.8712 339.933 75.0572 341.43 73.8074C342.857 72.6183 344.695 72.0354 346.541 72.1846C346.364 70.0768 347.106 67.941 348.663 66.3834C349.815 65.2269 351.284 64.5181 352.827 64.2942C354.935 56.9075 361.515 51.4934 369.392 51.0318C376.792 50.5981 383.568 54.6412 386.818 61.0113C388.637 59.8967 390.899 59.5936 393.016 60.2884C395.73 61.1745 397.665 63.5201 398.071 66.2901C401.708 64.686 405.863 64.5367 409.645 65.9404C413.022 67.1948 415.81 69.5731 417.587 72.6183C420.082 70.5711 423.449 69.741 426.713 70.5198C429.735 71.2472 432.206 73.2432 433.587 75.8873C435.377 73.8261 437.97 72.5623 440.782 72.4784C443.296 72.4038 445.693 73.2851 447.53 74.8706C449.05 69.1721 454.32 65.1243 460.387 65.3062C466.225 65.4834 471.089 69.5218 472.497 74.9732C474.582 74.838 476.68 75.3556 478.495 76.4888C480.019 77.4401 481.237 78.7738 482.057 80.3221C483.107 80.1682 484.198 80.2614 485.252 80.6205C487.196 81.292 488.675 82.7796 489.379 84.6076Z" fill="#FBFBFB"/>
<path d="M393.594 85.5646C394.26 86.4986 395.009 87.1687 395.836 87.6127C396.66 88.0566 397.541 88.266 398.422 88.2572C399.302 88.2441 400.178 88.0156 400.991 87.5539C401.807 87.0913 402.541 86.4068 403.19 85.4587C403.302 86.6115 402.789 87.8361 401.896 88.7081C401.006 89.5876 399.73 90.115 398.443 90.122C397.155 90.1407 395.869 89.6422 394.96 88.7827C394.049 87.9303 393.509 86.7187 393.594 85.5646Z" fill="#C6E7FF"/>
<path d="M375.634 86.521C376.225 87.1795 376.804 87.6015 377.401 87.8748C377.996 88.1466 378.591 88.2628 379.186 88.2576C379.78 88.2474 380.372 88.1182 380.961 87.8337C381.551 87.5474 382.12 87.1142 382.699 86.4436C382.882 87.3194 382.534 88.2921 381.866 88.9879C381.2 89.6907 380.208 90.1183 379.206 90.1225C378.205 90.1374 377.205 89.7326 376.524 89.0448C375.842 88.363 375.473 87.4 375.634 86.521Z" fill="#C6E7FF"/>
<path d="M346.239 88.5743C347.425 90.033 348.695 91.1433 350.105 91.9123C351.499 92.6939 353.007 93.114 354.528 93.2241C356.05 93.3136 357.598 93.0902 359.084 92.5055C360.578 91.9235 361.989 90.9964 363.356 89.7065C363.016 91.5709 361.797 93.2884 360.146 94.4328C358.494 95.586 356.397 96.1526 354.343 96.0155C352.29 95.8747 350.285 95.0437 348.803 93.6769C347.315 92.3296 346.336 90.4634 346.239 88.5743Z" fill="#C6E7FF"/>
<path d="M424.17 86.3974C425.564 87.6584 426.988 88.5631 428.498 89.1082C429.995 89.6687 431.549 89.8544 433.069 89.7322C434.587 89.589 436.083 89.1329 437.464 88.3285C438.851 87.5264 440.104 86.3951 441.26 84.9122C441.208 86.8069 440.263 88.6895 438.806 90.0717C437.348 91.4627 435.362 92.3413 433.311 92.5185C431.261 92.6915 429.152 92.1753 427.48 91.0496C425.804 89.9457 424.553 88.2502 424.17 86.3974Z" fill="#C6E7FF"/>
<path d="M462.286 82.7227C463.26 83.6428 464.278 84.3115 465.366 84.7168C466.444 85.1332 467.573 85.275 468.677 85.1859C469.78 85.0824 470.865 84.7443 471.858 84.1525C472.855 83.5626 473.746 82.7321 474.547 81.6572C474.482 83.0058 473.797 84.3376 472.752 85.3146C471.709 86.2976 470.296 86.9174 468.839 87.0438C467.381 87.1664 465.882 86.8045 464.687 86.0113C463.488 85.233 462.587 84.0364 462.286 82.7227Z" fill="#C6E7FF"/>
<path d="M162.826 96.4383C162.659 99.4788 160.485 102.034 157.51 102.696C155.043 103.247 152.521 102.375 150.912 100.523C150.035 101.353 148.93 101.946 147.694 102.188C145.749 102.575 143.767 102.058 142.275 100.845C140.657 102.715 138.391 103.974 135.868 104.329C132.832 104.758 129.801 103.825 127.548 101.838C126.695 102.743 125.595 103.41 124.345 103.736C122.26 104.287 120.059 103.802 118.408 102.482C116.949 104.478 114.72 105.849 112.183 106.194C110.21 106.46 108.247 106.082 106.559 105.173C105.36 106.506 103.766 107.472 101.956 107.887C99.6012 108.432 97.1576 107.989 95.1664 106.721C93.6321 109.538 91.2818 111.874 88.3673 113.385C84.4547 115.413 79.908 115.758 75.767 114.378C73.7151 117.535 70.4368 119.788 66.6222 120.506C62.1874 121.34 57.678 119.979 54.4603 116.952C50.1327 120.352 44.4948 121.769 38.9734 120.711C33.3401 119.629 28.5415 116.094 25.8135 111.165C23.0248 112.662 19.8165 113.324 16.5708 112.988C12.6443 112.583 9.06753 110.755 6.4514 107.929C5.22495 109.234 3.53683 110.06 1.69482 110.186C-0.958608 110.372 -3.50011 109.076 -4.90844 106.823C-5.99965 105.075 -6.27479 102.976 -5.72452 101.046C-4.90377 103.405 -2.84259 105.154 -0.319733 105.546C2.1938 105.933 4.67935 104.884 6.17161 102.897C7.28148 104.772 9.29137 105.975 11.5204 106.04C13.6049 106.096 15.5495 105.145 16.79 103.545C18.0584 104.916 20.003 105.541 21.8963 105.07C23.4679 104.678 24.713 103.601 25.3612 102.216C29.0592 107.327 35.5738 109.761 41.8367 108.143C47.2461 106.744 51.3592 102.608 52.8654 97.4689C54.2597 100.831 57.4728 103.256 61.3107 103.494C65.6243 103.76 69.4948 101.186 71.0197 97.3337C72.3767 101.852 76.3919 105.112 81.1624 105.462C85.5459 105.779 89.6543 103.568 91.8414 99.8891C93.3803 102.225 96.0711 103.596 98.9204 103.41C101.681 103.223 104.101 101.61 105.356 99.227C106.983 100.738 109.24 101.423 111.469 101.032C113.512 100.673 115.275 99.4601 116.333 97.744C117.816 99.2549 120.096 99.7726 122.13 98.9611C124.079 98.187 125.352 96.3683 125.487 94.3538C130.127 98.0565 136.693 98.1964 141.482 94.7222C142.947 96.914 145.446 98.2337 148.123 98.1824C150.38 98.1404 152.469 97.1285 153.896 95.4683C155.356 96.7274 157.408 97.1331 159.264 96.4709C160.677 95.9673 161.787 94.918 162.379 93.6077C162.724 94.489 162.882 95.4497 162.826 96.4383Z" fill="#C6E7FF"/>
<path d="M162.379 93.6076C161.786 94.918 160.677 95.9673 159.264 96.4709C157.408 97.1331 155.356 96.7274 153.896 95.4683C152.469 97.1285 150.38 98.1404 148.123 98.1824C145.446 98.2337 142.947 96.9139 141.482 94.7222C136.693 98.1964 130.127 98.0565 125.487 94.3538C125.352 96.3683 124.079 98.187 122.13 98.9611C120.096 99.7726 117.816 99.2549 116.333 97.744C115.275 99.4601 113.512 100.673 111.469 101.032C109.24 101.423 106.983 100.738 105.356 99.227C104.101 101.61 101.681 103.223 98.9203 103.41C96.071 103.596 93.3802 102.225 91.8413 99.8891C89.6542 103.568 85.5459 105.779 81.1623 105.462C76.3918 105.112 72.3766 101.852 71.0196 97.3337C69.4947 101.186 65.6242 103.76 61.3106 103.494C57.4727 103.256 54.2597 100.831 52.8653 97.4689C51.3591 102.608 47.246 106.744 41.8366 108.143C35.5737 109.761 29.0591 107.327 25.3611 102.216C24.7129 103.601 23.4678 104.678 21.8962 105.07C20.0029 105.541 18.0583 104.916 16.7899 103.545C15.5494 105.145 13.6048 106.096 11.5203 106.04C9.29128 105.975 7.28139 104.772 6.17152 102.897C4.67926 104.884 2.1937 105.933 -0.319825 105.546C-2.84268 105.154 -4.90387 103.405 -5.72461 101.046C-5.57072 100.481 -5.34222 99.9358 -5.0391 99.4135C-3.78001 97.2357 -1.48565 95.874 1.01388 95.8181C1.02321 94.2699 1.71338 92.7589 2.99579 91.7377C4.61863 90.4459 6.80106 90.2547 8.58245 91.1361C9.17469 90.1941 10.112 89.5226 11.1986 89.2708C11.4411 89.2148 11.6882 89.1775 11.9354 89.1635C11.8794 88.7205 11.8654 88.2728 11.8934 87.8205C12.0147 85.8712 12.9333 84.0572 14.4303 82.8074C15.8572 81.6183 17.6946 81.0354 19.5413 81.1846C19.364 79.0768 20.1055 76.941 21.6631 75.3834C22.8149 74.2269 24.2838 73.5181 25.8274 73.2942C27.9352 65.9075 34.5152 60.4934 42.3915 60.0318C49.7922 59.5981 56.568 63.6412 59.8183 70.0113C61.637 68.8967 63.8987 68.5936 66.0159 69.2884C68.7299 70.1745 70.6652 72.5201 71.0709 75.2901C74.7083 73.686 78.8633 73.5367 82.6453 74.9404C86.0215 76.1948 88.8102 78.5731 90.5869 81.6183C93.0818 79.5711 96.4487 78.741 99.713 79.5198C102.735 80.2472 105.206 82.2432 106.587 84.8873C108.377 82.8261 110.97 81.5623 113.782 81.4784C116.296 81.4038 118.693 82.2851 120.53 83.8706C122.05 78.1721 127.32 74.1243 133.387 74.3062C139.225 74.4834 144.089 78.5218 145.497 83.9732C147.582 83.838 149.68 84.3556 151.495 85.4888C153.019 86.4401 154.237 87.7738 155.057 89.3221C156.107 89.1682 157.198 89.2614 158.252 89.6205C160.196 90.292 161.675 91.7796 162.379 93.6076Z" fill="#FBFBFB"/>
<path d="M66.5936 94.5646C67.2605 95.4986 68.0094 96.1687 68.8362 96.6127C69.6597 97.0566 70.5411 97.266 71.422 97.2572C72.3024 97.2441 73.1777 97.0156 73.991 96.5539C74.8071 96.0913 75.5411 95.4068 76.1898 94.4587C76.3022 95.6115 75.7892 96.8361 74.8962 97.7081C74.0059 98.5876 72.7296 99.115 71.4425 99.122C70.1554 99.1407 68.8688 98.6422 67.96 97.7827C67.0487 96.9303 66.5092 95.7187 66.5936 94.5646Z" fill="#C6E7FF"/>
<path d="M48.6343 95.521C49.2247 96.1795 49.8038 96.6015 50.4007 96.8748C50.9958 97.1466 51.5908 97.2628 52.1859 97.2576C52.7804 97.2474 53.3722 97.1182 53.9607 96.8337C54.5511 96.5474 55.1205 96.1142 55.6987 95.4436C55.882 96.3194 55.5337 97.2921 54.8659 97.9879C54.2004 98.6907 53.2081 99.1183 52.2064 99.1225C51.2052 99.1374 50.2049 98.7326 49.524 98.0448C48.8423 97.363 48.4729 96.4 48.6343 95.521Z" fill="#C6E7FF"/>
<path d="M19.2393 97.5743C20.4251 99.033 21.6954 100.143 23.1052 100.912C24.499 101.694 26.0071 102.114 27.5278 102.224C29.0499 102.314 30.5977 102.09 32.0844 101.505C33.5776 100.923 34.9887 99.9964 36.3564 98.7065C36.0165 100.571 34.797 102.288 33.1457 103.433C31.4935 104.586 29.3969 105.153 27.3427 105.016C25.2904 104.875 23.2847 104.044 21.8027 102.677C20.3146 101.33 19.3363 99.4634 19.2393 97.5743Z" fill="#C6E7FF"/>
<path d="M97.1699 95.3974C98.5638 96.6584 99.9884 97.5631 101.498 98.1082C102.995 98.6687 104.549 98.8544 106.069 98.7322C107.587 98.589 109.083 98.1329 110.464 97.3285C111.851 96.5264 113.104 95.3951 114.26 93.9122C114.208 95.8069 113.263 97.6895 111.806 99.0717C110.348 100.463 108.362 101.341 106.311 101.519C104.261 101.692 102.152 101.175 100.48 100.05C98.8039 98.9457 97.5532 97.2502 97.1699 95.3974Z" fill="#C6E7FF"/>
<path d="M135.286 91.7227C136.26 92.6428 137.278 93.3115 138.366 93.7168C139.444 94.1332 140.573 94.275 141.677 94.1859C142.78 94.0824 143.865 93.7443 144.858 93.1525C145.855 92.5626 146.746 91.7321 147.547 90.6572C147.482 92.0058 146.797 93.3376 145.752 94.3146C144.709 95.2976 143.296 95.9174 141.839 96.0438C140.381 96.1664 138.882 95.8045 137.687 95.0113C136.488 94.233 135.587 93.0364 135.286 91.7227Z" fill="#C6E7FF"/>
<path d="M531.664 101.572C530.923 102.379 529.92 102.854 528.871 102.938C528.432 104.361 527.504 105.62 526.208 106.459C524.585 107.513 522.608 107.774 520.808 107.229C519.451 108.74 517.562 109.738 515.464 109.966C513.085 110.218 510.768 109.444 509.038 107.919C508.492 108.712 507.802 109.406 506.99 109.971C506.095 110.591 505.092 111.011 504.057 111.23C503.885 113.491 502.975 115.693 501.38 117.455C498.792 120.319 494.866 121.489 491.191 120.612C490.081 122.286 488.3 123.452 486.248 123.765C483.683 124.156 481.128 123.154 479.519 121.177C477.248 123.009 474.268 123.783 471.349 123.228C467.893 122.576 465.039 120.179 463.799 116.905C460.735 118.798 457.167 119.806 453.497 119.754C448.419 119.68 443.588 117.581 440.067 113.939C438.715 114.825 437.092 115.282 435.422 115.184C433.464 115.072 431.664 114.214 430.349 112.848C429.155 113.067 427.905 112.881 426.8 112.274C424.967 111.267 423.876 109.29 424.011 107.201C424.035 106.818 424.1 106.45 424.198 106.091C424.571 107.457 425.476 108.651 426.744 109.374C428.274 110.241 430.102 110.316 431.668 109.607C432.797 111.099 434.588 111.962 436.476 111.897C438.108 111.836 439.619 111.095 440.659 109.887C442.525 112.312 445.654 113.459 448.676 112.769C451.175 112.2 453.199 110.47 454.183 108.194C455.181 109.826 456.948 110.894 458.93 110.959C460.665 111.02 462.288 110.306 463.412 109.085C465.594 111.449 469.152 112.172 472.155 110.67C474.678 109.411 476.184 106.898 476.25 104.239C478.992 108.091 483.753 110.125 488.547 109.281C493.42 108.422 497.244 104.785 498.438 100.122C499.688 101.754 501.711 102.663 503.819 102.458C505.88 102.258 507.657 101.026 508.59 99.2544C509.495 100.602 510.945 101.507 512.591 101.712C513.925 101.88 515.254 101.572 516.359 100.868C517.278 101.782 518.583 102.23 519.898 102.038C520.91 101.894 521.815 101.386 522.459 100.635C523.475 101.311 524.739 101.535 525.937 101.222C526.842 100.984 527.635 100.462 528.204 99.7533C528.759 99.8793 529.346 99.842 529.892 99.6461C530.703 99.3476 531.352 98.7181 531.664 97.9113C531.93 97.2352 531.934 96.4937 531.697 95.8175C531.962 96.1113 532.191 96.4471 532.368 96.8201C533.128 98.3963 532.848 100.28 531.664 101.572Z" fill="#C6E7FF"/>
<path d="M531.663 97.9113C531.351 98.7181 530.703 99.3476 529.891 99.6461C529.346 99.842 528.758 99.8793 528.203 99.7533C527.634 100.462 526.842 100.984 525.937 101.222C524.738 101.535 523.475 101.311 522.458 100.635C521.815 101.386 520.91 101.894 519.898 102.038C518.583 102.23 517.277 101.782 516.358 100.868C515.253 101.572 513.924 101.88 512.59 101.712C510.944 101.507 509.494 100.602 508.589 99.2544C507.657 101.026 505.88 102.258 503.819 102.458C501.711 102.663 499.687 101.754 498.437 100.122C497.243 104.785 493.42 108.422 488.546 109.281C483.753 110.125 478.991 108.091 476.249 104.239C476.184 106.898 474.678 109.411 472.155 110.67C469.152 112.172 465.594 111.449 463.411 109.085C462.287 110.306 460.664 111.02 458.93 110.959C456.948 110.894 455.18 109.826 454.182 108.194C453.198 110.47 451.175 112.2 448.675 112.769C445.653 113.459 442.524 112.312 440.659 109.887C439.619 111.095 438.108 111.836 436.476 111.897C434.587 111.962 432.796 111.099 431.668 109.607C430.101 110.316 428.273 110.241 426.743 109.374C425.475 108.651 424.57 107.457 424.197 106.091C424.645 104.482 425.829 103.148 427.424 102.523C429.154 101.843 431.094 102.104 432.568 103.181C433.076 101.474 434.391 100.061 436.168 99.4689C436.923 99.2171 437.698 99.1378 438.448 99.2124C438.607 96.0693 440.426 93.1501 443.363 91.6625C445.737 90.464 448.433 90.4127 450.769 91.35C451.095 89.9557 451.902 88.6966 453.091 87.8199C453.954 87.181 454.952 86.794 455.978 86.6681C456.617 79.9156 461.756 74.2823 468.653 73.1864C474.65 72.2398 480.442 74.9678 483.617 79.7943C486.313 78.1016 489.726 77.8031 492.734 79.1275C495.084 80.1627 496.87 82.0514 497.812 84.3224C500.699 83.3898 503.851 83.4737 506.733 84.6209C509.844 85.866 512.339 88.2349 513.747 91.2055C515.216 90.8231 516.801 90.9303 518.252 91.5599C520.042 92.3433 521.39 93.8263 522.015 95.6077C523.158 95.2999 524.361 95.3092 525.499 95.6356C526.212 94.9268 527.168 94.4791 528.213 94.4045C529.551 94.3113 530.824 94.8475 531.691 95.8128L531.696 95.8175C531.934 96.4937 531.929 97.2352 531.663 97.9113Z" fill="#FBFBFB"/>
<path d="M451.362 106.47C451.839 107.087 452.348 107.515 452.899 107.796C453.448 108.076 454.021 108.205 454.595 108.2C455.169 108.191 455.739 108.049 456.281 107.757C456.824 107.464 457.325 107.027 457.79 106.4C457.895 107.18 457.561 108.022 456.959 108.623C456.36 109.229 455.489 109.593 454.611 109.598C453.732 109.611 452.854 109.266 452.242 108.673C451.628 108.086 451.275 107.252 451.362 106.47Z" fill="#C6E7FF"/>
<path d="M495.313 98.3003C495.789 98.9172 496.3 99.3444 496.85 99.6256C497.399 99.9063 497.972 100.035 498.546 100.029C499.12 100.021 499.69 99.8793 500.232 99.5869C500.775 99.2935 501.276 98.8566 501.741 98.2298C501.847 99.01 501.512 99.8522 500.911 100.453C500.311 101.059 499.44 101.424 498.562 101.428C497.683 101.441 496.806 101.096 496.193 100.503C495.579 99.9152 495.226 99.0823 495.313 98.3003Z" fill="#C6E7FF"/>
<path d="M469.089 99.9623C470.083 101.339 471.192 102.322 472.411 102.974C473.626 103.625 474.923 103.931 476.219 103.918C477.515 103.898 478.803 103.564 480.003 102.887C481.207 102.209 482.294 101.204 483.261 99.806C483.436 101.511 482.681 103.326 481.361 104.618C480.045 105.922 478.156 106.704 476.25 106.714C474.344 106.742 472.439 106.003 471.096 104.728C469.749 103.465 468.955 101.67 469.089 99.9623Z" fill="#C6E7FF"/>
<path d="M364.403 78.7426C364.011 80.0577 363.218 81.2048 362.146 82.0303C362.225 83.4759 361.964 84.9402 361.362 86.2925C360.252 88.7827 358.103 90.6574 355.482 91.4175C352.866 92.1776 350.049 91.7439 347.778 90.2377C347.265 89.8926 346.789 89.5056 346.356 89.0625C345.265 90.6108 343.604 91.7253 341.678 92.1077C339.832 92.4714 337.962 92.131 336.395 91.2077C334.903 95.0969 331.582 98.0581 327.455 99.0514C323.296 100.059 318.954 98.9068 315.844 96.0762C312.407 97.4938 308.536 97.6617 304.936 96.4726C301.947 95.4886 299.359 93.6466 297.466 91.2263C296.09 92.2383 294.369 92.7232 292.62 92.5414C290.792 92.3502 289.146 91.4502 288.008 90.0885C287.225 91.8838 285.793 93.3435 283.97 94.1595C281.979 95.0549 279.717 95.0829 277.726 94.2621C276.033 96.1135 273.711 97.3213 271.16 97.6011C268.371 97.9089 265.601 97.0881 263.451 95.358C260.402 97.8669 256.116 98.4638 252.432 96.7337C249.499 95.3627 247.461 92.7559 246.733 89.7574C244.332 90.9465 241.361 90.7087 239.146 88.9086C237.257 87.3744 236.367 85.0661 236.572 82.809C235.83 82.2541 235.229 81.5033 234.856 80.6079C234.525 79.8152 234.394 78.9804 234.455 78.1597C237.113 83.5552 242.965 86.5024 248.79 85.5511C249.592 87.5796 251.173 89.2258 253.206 90.1118C254.922 90.8579 256.815 90.9978 258.592 90.5408C261.101 92.9564 264.804 93.7632 268.138 92.532C270.847 91.5248 272.862 89.333 273.692 86.6842C275.823 88.0413 278.393 88.6102 280.939 88.2325C283.518 87.8501 285.84 86.5397 287.481 84.5764C288.932 86.4744 291.338 87.4723 293.772 87.0853C295.652 86.7868 297.26 85.705 298.254 84.1847C301.462 87.8687 306.47 89.5429 311.311 88.4423C315.368 87.519 318.684 84.7909 320.414 81.1629C321.808 82.7064 323.79 83.6671 325.949 83.7324C328.234 83.8023 330.384 82.8697 331.89 81.2515C333.83 83.4666 336.782 84.5997 339.771 84.1707C341.814 83.8816 343.637 82.893 344.98 81.4473C346.043 82.5619 347.428 83.336 348.967 83.6531C351.131 84.0961 353.374 83.5831 355.128 82.2494C356.886 80.9111 357.977 78.8825 358.126 76.6861C358.275 74.485 357.468 72.3306 355.911 70.7683C357.179 70.2973 358.569 70.2367 359.893 70.5958C361.582 71.0621 363.009 72.1907 363.857 73.7202C364.711 75.2545 364.906 77.0638 364.403 78.7426Z" fill="#C6E7FF"/>
<path d="M358.126 76.6861C357.977 78.8825 356.885 80.9111 355.127 82.2494C353.374 83.5832 351.131 84.0961 348.967 83.6531C347.428 83.336 346.043 82.5619 344.98 81.4474C343.637 82.893 341.814 83.8816 339.771 84.1707C336.782 84.5998 333.83 83.4666 331.89 81.2515C330.384 82.8697 328.234 83.8023 325.949 83.7324C323.79 83.6671 321.808 82.7064 320.414 81.1629C318.684 84.791 315.368 87.519 311.311 88.4423C306.47 89.5429 301.462 87.8687 298.254 84.1847C297.26 85.705 295.651 86.7869 293.772 87.0853C291.338 87.4724 288.932 86.4744 287.481 84.5764C285.84 86.5397 283.517 87.8501 280.939 88.2325C278.393 88.6102 275.823 88.0413 273.692 86.6843C272.862 89.333 270.847 91.5248 268.138 92.5321C264.804 93.7632 261.101 92.9564 258.592 90.5408C256.815 90.9978 254.922 90.8579 253.206 90.1118C251.173 89.2258 249.592 87.5796 248.79 85.5511C242.965 86.5024 237.113 83.5552 234.455 78.1597C233.093 78.1224 231.792 77.5162 230.887 76.4483C229.721 75.0773 229.409 73.17 230.081 71.4958C230.752 69.8217 232.291 68.6605 234.082 68.4693C235.061 68.3667 236.022 68.5626 236.856 69.0056C237.7 67.7185 239.067 66.8278 240.634 66.5947C242.546 66.3102 244.458 67.0563 245.67 68.5346C247.414 66.1796 250.1 64.6268 253.094 64.3376C255.617 64.0951 258.093 64.776 260.108 66.1796C260.914 64.6734 262.36 63.5495 264.118 63.1951C265.708 62.878 267.308 63.2371 268.581 64.1091C269.257 62.8873 270.302 61.8801 271.598 61.2505C272.773 60.6769 274.065 60.4624 275.324 60.593C277.572 54.9644 283.247 51.2897 289.487 51.7373C295.344 52.157 300.184 56.1115 301.924 61.465C303.808 60.2106 306.158 59.7489 308.443 60.2619C310.607 60.7515 312.449 62.0619 313.629 63.8573C314.631 62.6775 315.932 61.7588 317.42 61.2039C318.987 60.6163 320.661 60.4717 322.27 60.7515C324.377 56.5312 328.938 53.8498 333.895 54.3535C338.722 54.8431 342.574 58.21 343.893 62.5982C346.691 62.0899 349.625 62.7521 351.966 64.5102C354.036 66.0677 355.417 68.3108 355.911 70.7684C357.468 72.3306 358.275 74.485 358.126 76.6861Z" fill="#FBFBFB"/>
<path d="M271.264 84.216C271.835 84.8049 272.372 85.1645 272.911 85.3949C273.449 85.6234 273.972 85.7162 274.495 85.712C275.018 85.7022 275.537 85.5986 276.07 85.358C276.603 85.116 277.131 84.7462 277.691 84.1451C277.892 84.9509 277.586 85.8603 276.974 86.5122C276.365 87.1702 275.444 87.5726 274.515 87.5764C273.585 87.5903 272.657 87.2089 272.034 86.5644C271.41 85.9265 271.084 85.0255 271.264 84.216Z" fill="#C6E7FF"/>
<path d="M342.003 79.8268C342.573 80.4163 343.11 80.7754 343.65 81.0057C344.187 81.2342 344.711 81.327 345.233 81.3228C345.756 81.313 346.276 81.2095 346.808 80.9689C347.342 80.7269 347.87 80.3571 348.43 79.756C348.631 80.5623 348.324 81.4711 347.713 82.1231C347.104 82.7815 346.183 83.1835 345.253 83.1872C344.324 83.2012 343.395 82.8198 342.772 82.1753C342.149 81.5374 341.822 80.6369 342.003 79.8268Z" fill="#C6E7FF"/>
<path d="M310.887 74.7406C312.025 76.6329 313.452 78.0809 315.1 79.0527C316.743 80.0255 318.575 80.5063 320.407 80.4867C322.238 80.4625 324.057 79.9416 325.678 78.9334C327.304 77.9256 328.699 76.4487 329.798 74.5326C329.84 76.7565 328.778 79.0425 327.036 80.6644C325.3 82.2998 322.879 83.2679 320.438 83.2833C317.996 83.3178 315.557 82.4033 313.785 80.8071C312.01 79.2239 310.897 76.964 310.887 74.7406Z" fill="#C6E7FF"/>
<path d="M293.121 79.8805C294.027 80.9432 294.942 81.6437 295.9 82.1002C296.856 82.5549 297.826 82.7549 298.796 82.7461C299.766 82.7298 300.731 82.5092 301.675 82.034C302.622 81.556 303.521 80.8378 304.408 79.7564C304.663 81.1456 304.096 82.6733 303.033 83.7655C301.973 84.8679 300.407 85.5361 298.827 85.5436C297.247 85.5674 295.668 84.9341 294.585 83.8555C293.5 82.7866 292.9 81.2743 293.121 79.8805Z" fill="#C6E7FF"/>
<path d="M255.008 84.5028C254.434 85.4807 253.46 86.2133 252.358 86.6255C251.253 87.0368 250.006 87.1207 248.832 86.8647C247.657 86.6129 246.558 86.0193 245.722 85.1859C244.89 84.354 244.308 83.2814 244.194 82.1529C245.008 82.9331 245.791 83.5547 246.629 84.0327C247.461 84.5116 248.33 84.8441 249.228 85.0423C250.128 85.2377 251.057 85.2955 252.013 85.205C252.974 85.1183 253.945 84.8772 255.008 84.5028Z" fill="#C6E7FF"/>
<path d="M318.826 104.438C318.659 107.479 316.485 110.034 313.51 110.696C311.043 111.247 308.521 110.375 306.912 108.523C306.035 109.353 304.93 109.946 303.694 110.188C301.749 110.575 299.767 110.058 298.275 108.845C296.657 110.715 294.391 111.974 291.868 112.329C288.832 112.758 285.801 111.825 283.548 109.838C282.695 110.743 281.595 111.41 280.345 111.736C278.26 112.287 276.059 111.802 274.408 110.482C272.949 112.478 270.72 113.849 268.183 114.194C266.21 114.46 264.247 114.082 262.559 113.173C261.36 114.506 259.766 115.472 257.956 115.887C255.601 116.432 253.158 115.989 251.166 114.721C249.632 117.538 247.282 119.874 244.367 121.385C240.455 123.413 235.908 123.758 231.767 122.378C229.715 125.535 226.437 127.788 222.622 128.506C218.187 129.34 213.678 127.979 210.46 124.952C206.133 128.352 200.495 129.769 194.973 128.711C189.34 127.629 184.542 124.094 181.814 119.165C179.025 120.662 175.816 121.324 172.571 120.988C168.644 120.583 165.068 118.755 162.451 115.929C161.225 117.234 159.537 118.06 157.695 118.186C155.041 118.372 152.5 117.076 151.092 114.823C150 113.075 149.725 110.976 150.275 109.046C151.096 111.405 153.157 113.154 155.68 113.546C158.194 113.933 160.679 112.884 162.172 110.897C163.281 112.772 165.291 113.975 167.52 114.04C169.605 114.096 171.55 113.145 172.79 111.545C174.058 112.916 176.003 113.541 177.896 113.07C179.468 112.678 180.713 111.601 181.361 110.216C185.059 115.327 191.574 117.761 197.837 116.143C203.246 114.744 207.359 110.608 208.865 105.469C210.26 108.831 213.473 111.256 217.311 111.494C221.624 111.76 225.495 109.186 227.02 105.334C228.377 109.852 232.392 113.112 237.162 113.462C241.546 113.779 245.654 111.568 247.841 107.889C249.38 110.225 252.071 111.596 254.92 111.41C257.681 111.223 260.101 109.61 261.356 107.227C262.983 108.738 265.24 109.423 267.469 109.032C269.512 108.673 271.275 107.46 272.333 105.744C273.816 107.255 276.096 107.773 278.13 106.961C280.079 106.187 281.352 104.368 281.487 102.354C286.127 106.056 292.693 106.196 297.482 102.722C298.947 104.914 301.446 106.234 304.123 106.182C306.38 106.14 308.469 105.128 309.896 103.468C311.356 104.727 313.408 105.133 315.264 104.471C316.677 103.967 317.787 102.918 318.379 101.608C318.724 102.489 318.882 103.45 318.826 104.438Z" fill="#C6E7FF"/>
<path d="M318.379 101.608C317.786 102.918 316.677 103.967 315.264 104.471C313.408 105.133 311.356 104.727 309.896 103.468C308.469 105.128 306.38 106.14 304.123 106.182C301.446 106.234 298.947 104.914 297.482 102.722C292.693 106.196 286.127 106.056 281.487 102.354C281.352 104.368 280.079 106.187 278.13 106.961C276.096 107.773 273.816 107.255 272.333 105.744C271.275 107.46 269.512 108.673 267.469 109.032C265.24 109.423 262.983 108.738 261.356 107.227C260.101 109.61 257.681 111.223 254.92 111.41C252.071 111.596 249.38 110.225 247.841 107.889C245.654 111.568 241.546 113.779 237.162 113.462C232.392 113.112 228.377 109.852 227.02 105.334C225.495 109.186 221.624 111.76 217.311 111.494C213.473 111.256 210.26 108.831 208.865 105.469C207.359 110.608 203.246 114.744 197.837 116.143C191.574 117.761 185.059 115.327 181.361 110.216C180.713 111.601 179.468 112.678 177.896 113.07C176.003 113.541 174.058 112.916 172.79 111.545C171.549 113.145 169.605 114.096 167.52 114.04C165.291 113.975 163.281 112.772 162.172 110.897C160.679 112.884 158.194 113.933 155.68 113.546C153.157 113.154 151.096 111.405 150.275 109.046C150.429 108.481 150.658 107.936 150.961 107.413C152.22 105.236 154.514 103.874 157.014 103.818C157.023 102.27 157.713 100.759 158.996 99.7377C160.619 98.4459 162.801 98.2547 164.582 99.1361C165.175 98.1941 166.112 97.5226 167.199 97.2708C167.441 97.2148 167.688 97.1775 167.935 97.1635C167.879 96.7205 167.865 96.2728 167.893 95.8205C168.015 93.8712 168.933 92.0572 170.43 90.8074C171.857 89.6183 173.695 89.0354 175.541 89.1846C175.364 87.0768 176.106 84.941 177.663 83.3834C178.815 82.2269 180.284 81.5181 181.827 81.2942C183.935 73.9075 190.515 68.4934 198.392 68.0318C205.792 67.5981 212.568 71.6412 215.818 78.0113C217.637 76.8967 219.899 76.5936 222.016 77.2884C224.73 78.1745 226.665 80.5201 227.071 83.2901C230.708 81.686 234.863 81.5367 238.645 82.9404C242.022 84.1948 244.81 86.5731 246.587 89.6183C249.082 87.5711 252.449 86.741 255.713 87.5198C258.735 88.2472 261.206 90.2432 262.587 92.8873C264.377 90.8261 266.97 89.5623 269.782 89.4784C272.296 89.4038 274.693 90.2851 276.53 91.8706C278.05 86.1721 283.32 82.1243 289.387 82.3062C295.225 82.4834 300.089 86.5218 301.497 91.9732C303.582 91.838 305.68 92.3556 307.495 93.4888C309.019 94.4401 310.237 95.7738 311.057 97.3221C312.107 97.1682 313.198 97.2614 314.252 97.6205C316.196 98.292 317.675 99.7796 318.379 101.608Z" fill="#FBFBFB"/>
<path d="M222.594 102.565C223.26 103.499 224.009 104.169 224.836 104.613C225.66 105.057 226.541 105.266 227.422 105.257C228.302 105.244 229.178 105.016 229.991 104.554C230.807 104.091 231.541 103.407 232.19 102.459C232.302 103.611 231.789 104.836 230.896 105.708C230.006 106.588 228.73 107.115 227.443 107.122C226.155 107.141 224.869 106.642 223.96 105.783C223.049 104.93 222.509 103.719 222.594 102.565Z" fill="#C6E7FF"/>
<path d="M204.634 103.521C205.225 104.179 205.804 104.602 206.401 104.875C206.996 105.147 207.591 105.263 208.186 105.258C208.78 105.247 209.372 105.118 209.961 104.834C210.551 104.547 211.12 104.114 211.699 103.444C211.882 104.319 211.534 105.292 210.866 105.988C210.2 106.691 209.208 107.118 208.206 107.122C207.205 107.137 206.205 106.733 205.524 106.045C204.842 105.363 204.473 104.4 204.634 103.521Z" fill="#C6E7FF"/>
<path d="M175.239 105.574C176.425 107.033 177.695 108.143 179.105 108.912C180.499 109.694 182.007 110.114 183.528 110.224C185.05 110.314 186.598 110.09 188.084 109.505C189.578 108.923 190.989 107.996 192.356 106.707C192.016 108.571 190.797 110.288 189.146 111.433C187.494 112.586 185.397 113.153 183.343 113.016C181.29 112.875 179.285 112.044 177.803 110.677C176.315 109.33 175.336 107.463 175.239 105.574Z" fill="#C6E7FF"/>
<path d="M253.17 103.397C254.564 104.658 255.988 105.563 257.498 106.108C258.995 106.669 260.549 106.854 262.069 106.732C263.587 106.589 265.083 106.133 266.464 105.329C267.851 104.526 269.104 103.395 270.26 101.912C270.208 103.807 269.263 105.689 267.806 107.072C266.348 108.463 264.362 109.341 262.311 109.519C260.261 109.692 258.152 109.175 256.48 108.05C254.804 106.946 253.553 105.25 253.17 103.397Z" fill="#C6E7FF"/>
<path d="M291.286 99.7227C292.26 100.643 293.278 101.312 294.366 101.717C295.444 102.133 296.573 102.275 297.677 102.186C298.78 102.082 299.865 101.744 300.858 101.153C301.855 100.563 302.746 99.7321 303.547 98.6572C303.482 100.006 302.797 101.338 301.752 102.315C300.709 103.298 299.296 103.917 297.839 104.044C296.381 104.166 294.882 103.805 293.687 103.011C292.488 102.233 291.587 101.036 291.286 99.7227Z" fill="#C6E7FF"/>
<path d="M377.671 109.042C377.28 110.357 376.487 111.504 375.414 112.33C375.494 113.775 375.232 115.24 374.631 116.592C373.521 119.082 371.371 120.957 368.75 121.717C366.134 122.477 363.318 122.043 361.047 120.537C360.534 120.192 360.058 119.805 359.624 119.362C358.533 120.91 356.873 122.025 354.947 122.407C353.1 122.771 351.23 122.43 349.664 121.507C348.171 125.396 344.851 128.358 340.724 129.351C336.564 130.358 332.223 129.206 329.112 126.376C325.675 127.793 321.805 127.961 318.205 126.772C315.216 125.788 312.627 123.946 310.734 121.526C309.358 122.538 307.638 123.023 305.889 122.841C304.061 122.65 302.415 121.75 301.277 120.388C300.493 122.183 299.062 123.643 297.238 124.459C295.247 125.354 292.986 125.382 290.994 124.562C289.302 126.413 286.979 127.621 284.428 127.901C281.64 128.208 278.87 127.388 276.72 125.657C273.67 128.166 269.384 128.763 265.7 127.033C262.767 125.662 260.729 123.055 260.002 120.057C257.6 121.246 254.63 121.008 252.415 119.208C250.526 117.674 249.635 115.366 249.841 113.108C249.099 112.554 248.497 111.803 248.124 110.907C247.793 110.115 247.663 109.28 247.723 108.459C250.381 113.855 256.234 116.802 262.058 115.851C262.86 117.879 264.441 119.525 266.475 120.411C268.191 121.157 270.084 121.297 271.861 120.84C274.37 123.256 278.072 124.063 281.407 122.832C284.116 121.824 286.13 119.632 286.961 116.984C289.092 118.341 291.661 118.91 294.207 118.532C296.786 118.15 299.108 116.839 300.75 114.876C302.2 116.774 304.607 117.772 307.041 117.385C308.92 117.086 310.529 116.004 311.522 114.484C314.731 118.168 319.739 119.842 324.58 118.742C328.637 117.818 331.952 115.09 333.682 111.462C335.077 113.006 337.059 113.967 339.218 114.032C341.503 114.102 343.652 113.169 345.159 111.551C347.099 113.766 350.051 114.899 353.04 114.47C355.082 114.181 356.906 113.192 358.249 111.747C359.312 112.861 360.697 113.635 362.236 113.953C364.4 114.396 366.643 113.883 368.396 112.549C370.154 111.211 371.245 109.182 371.395 106.986C371.544 104.784 370.737 102.63 369.179 101.068C370.448 100.597 371.838 100.536 373.162 100.895C374.85 101.362 376.277 102.49 377.126 104.02C377.979 105.554 378.175 107.363 377.671 109.042Z" fill="#C6E7FF"/>
<path d="M371.394 106.986C371.245 109.182 370.154 111.211 368.396 112.549C366.643 113.883 364.4 114.396 362.236 113.953C360.697 113.635 359.312 112.861 358.249 111.747C356.906 113.192 355.082 114.181 353.04 114.47C350.05 114.899 347.099 113.766 345.159 111.551C343.652 113.169 341.503 114.102 339.218 114.032C337.058 113.967 335.077 113.006 333.682 111.462C331.952 115.09 328.637 117.818 324.579 118.742C319.739 119.842 314.731 118.168 311.522 114.484C310.529 116.004 308.92 117.086 307.041 117.385C304.606 117.772 302.2 116.774 300.75 114.876C299.108 116.839 296.786 118.15 294.207 118.532C291.661 118.91 289.092 118.341 286.96 116.984C286.13 119.632 284.116 121.824 281.406 122.832C278.072 124.063 274.369 123.256 271.861 120.84C270.084 121.297 268.191 121.157 266.474 120.411C264.441 119.525 262.86 117.879 262.058 115.851C256.234 116.802 250.381 113.855 247.723 108.459C246.362 108.422 245.061 107.816 244.156 106.748C242.99 105.377 242.678 103.469 243.349 101.795C244.021 100.121 245.56 98.96 247.35 98.7688C248.33 98.6662 249.29 98.8621 250.125 99.3051C250.969 98.018 252.335 97.1273 253.902 96.8942C255.814 96.6097 257.726 97.3558 258.939 98.8341C260.683 96.4791 263.369 94.9262 266.363 94.6371C268.885 94.3946 271.362 95.0755 273.376 96.4791C274.183 94.9729 275.629 93.849 277.387 93.4946C278.977 93.1775 280.576 93.5366 281.849 94.4086C282.526 93.1868 283.57 92.1795 284.867 91.55C286.042 90.9764 287.334 90.7619 288.593 90.8925C290.84 85.2638 296.516 81.5891 302.755 82.0368C308.612 82.4565 313.453 86.411 315.192 91.7645C317.076 90.5101 319.426 90.0484 321.711 90.5614C323.875 91.051 325.717 92.3614 326.897 94.1568C327.9 92.977 329.201 92.0583 330.688 91.5034C332.255 90.9158 333.929 90.7712 335.538 91.051C337.646 86.8307 342.207 84.1493 347.164 84.6529C351.99 85.1426 355.842 88.5095 357.162 92.8977C359.96 92.3894 362.893 93.0516 365.234 94.8096C367.305 96.3672 368.685 98.6103 369.179 101.068C370.737 102.63 371.544 104.784 371.394 106.986Z" fill="#FBFBFB"/>
<path d="M284.533 114.515C285.104 115.104 285.641 115.464 286.18 115.694C286.717 115.923 287.241 116.016 287.763 116.011C288.286 116.002 288.806 115.898 289.338 115.657C289.872 115.415 290.4 115.046 290.96 114.445C291.161 115.25 290.854 116.16 290.243 116.812C289.634 117.47 288.713 117.872 287.783 117.876C286.854 117.89 285.926 117.508 285.302 116.864C284.679 116.226 284.352 115.325 284.533 114.515Z" fill="#C6E7FF"/>
<path d="M355.271 110.126C355.842 110.716 356.378 111.075 356.918 111.305C357.456 111.534 357.979 111.627 358.502 111.622C359.025 111.613 359.545 111.509 360.077 111.268C360.61 111.026 361.139 110.657 361.699 110.055C361.9 110.862 361.593 111.771 360.981 112.423C360.372 113.081 359.451 113.483 358.522 113.487C357.593 113.501 356.664 113.119 356.041 112.475C355.417 111.837 355.091 110.936 355.271 110.126Z" fill="#C6E7FF"/>
<path d="M324.155 105.04C325.293 106.932 326.72 108.38 328.369 109.352C330.012 110.325 331.844 110.806 333.675 110.786C335.507 110.762 337.326 110.241 338.947 109.233C340.572 108.225 341.967 106.748 343.067 104.832C343.109 107.056 342.047 109.342 340.304 110.964C338.568 112.599 336.147 113.567 333.706 113.583C331.265 113.617 328.825 112.703 327.054 111.107C325.278 109.523 324.166 107.264 324.155 105.04Z" fill="#C6E7FF"/>
<path d="M306.389 110.18C307.296 111.243 308.211 111.943 309.169 112.4C310.124 112.854 311.095 113.054 312.065 113.046C313.035 113.029 314 112.809 314.944 112.333C315.891 111.855 316.79 111.137 317.676 110.056C317.932 111.445 317.364 112.973 316.301 114.065C315.242 115.167 313.676 115.836 312.095 115.843C310.515 115.867 308.937 115.234 307.853 114.155C306.769 113.086 306.168 111.574 306.389 110.18Z" fill="#C6E7FF"/>
<path d="M268.276 114.802C267.703 115.78 266.728 116.513 265.627 116.925C264.521 117.336 263.275 117.42 262.101 117.164C260.926 116.912 259.826 116.319 258.991 115.485C258.159 114.653 257.577 113.581 257.463 112.452C258.276 113.233 259.06 113.854 259.897 114.332C260.73 114.811 261.598 115.144 262.497 115.342C263.396 115.537 264.325 115.595 265.282 115.505C266.243 115.418 267.214 115.177 268.276 114.802Z" fill="#C6E7FF"/>
</g>
<defs>
<clipPath id="clip0_682_88">
<rect width="507" height="152" fill="white"/>
</clipPath>
</defs>
</svg>
