<svg xmlns="http://www.w3.org/2000/svg" xmlns:xlink="http://www.w3.org/1999/xlink" viewBox="0 0 750 500"><defs><style>.cls-1{isolation:isolate;}.cls-2{fill:url(#linear-gradient);}.cls-3{fill:#fff8e8;mix-blend-mode:screen;opacity:0.16;}.cls-4{fill:#7cd2ff;}.cls-5{fill:#5fc0f8;}.cls-6{fill:#539df8;}.cls-7{fill:#3e7fd7;}.cls-8{fill:#2a6ed7;}.cls-9{fill:#40348e;}.cls-10{fill:#54348e;}.cls-11{fill:#053755;}</style><linearGradient id="linear-gradient" x1="375" y1="533" x2="375" y2="-53.22" gradientUnits="userSpaceOnUse"><stop offset="0.24" stop-color="#fff"/><stop offset="0.31" stop-color="#f0f8ff"/><stop offset="0.45" stop-color="#c9e4ff"/><stop offset="0.64" stop-color="#8ac4ff"/><stop offset="0.87" stop-color="#3499ff"/><stop offset="1" stop-color="#007fff"/></linearGradient></defs><g class="cls-1"><g id="BACKGROUND"><rect class="cls-2" width="750" height="500"/></g><g id="OBJECTS"><path class="cls-3" d="M750,47.66C557.55,61.61,163.5,90.79,0,107.4V317.92c227.88-24.72,626.63-70.56,750-84.78V111.29L31.38,162.81,750,83Z"/><path class="cls-4" d="M750,248.6a29.73,29.73,0,0,1-3.82-1.45c-12.36-5.85-47.65,3.85-69.65-4.15s-32-8-52-10-26,6-36,12-20,6-34,10-20,4-32,8-14,4-34-2-28-8-50-16-16-4-32,0-24,4-36,6-24,8-38,8-54,16-54,16l-62,104s110,30,118,31.5c7.52,1.41,371.41,20.17,415.47,22.44Z"/><path class="cls-5" d="M750,264l-20.9-8.94L706.53,267l-38,4s-18,6-32,12l-20,12s-10,2-26-2a157.8,157.8,0,0,0-34-4s-8,0-22-6l-16-12c-8-8,0,0-12-8-7.06-4.71-12-8-36-16-5.69-1.9-18-2-24,0s-22,8-30,12a60.26,60.26,0,0,1-24,6c-6,0-24,6-32,2s-28-10-36-18-28-8-40-14-22-14-36-18-22-14-28-18-16-8-30-2-24,6-40,14-26,12-38,20-32,8-46,12-16,4-30,14-20,4-28,8A44.1,44.1,0,0,1,0,267.68V500H750Z"/><path class="cls-6" d="M94.53,471s222-24,224-18S353,427,353,427l-16.5-28-20-42s-36-26-50-30-14-12-14.17-23.5-5.83-10.5.17-14.5,14,0-4-20c-7.8-8.67-12-2-34-8,0,0,0-10-12-34-3.69-7.38-4-12-6-20-1.43-5.74,7.44-10.46,12.56-12.66-5.11-.87-11.29-.45-18.56,2.66-14,6-24,6-40,14s-26,12-38,20-32,8-46,12-16,4-30,14-20,4-28,8A44.1,44.1,0,0,1,0,267.68V487.26Z"/><path class="cls-6" d="M376.53,273s6,12-3.82,21.5c0,0,13.82,14.5,27.82,16.5l27.76,6.5L438.53,345l22,32,27.74,27.79s66.26,36.21,70.26,27.54l-10.65-30.48S524.53,369,518.53,367s-16-26-20.91-35.88S500.53,319,496.53,311s-16-14-22-20-6-22-6-22-10-8-12-14c-.92-2.76.28-6.37,1.84-9.46A41.25,41.25,0,0,0,446.53,247c-6,2-22,8-30,12a60.26,60.26,0,0,1-24,6c-4.09,0-13.78,2.8-22.07,3.3C372.78,270.66,374.94,272.47,376.53,273Z"/><path class="cls-7" d="M0,287.85a36.45,36.45,0,0,0,8-2.17,46,46,0,0,0-8-2.48Z"/><path class="cls-8" d="M750,290.7a16.43,16.43,0,0,0-9,5.63s-11.46-3.33-13,9.34c0,0,0-4.67-10.89-4.67-2.29,1,2.3,7,6.31,8-4,1-11.46,0-13.76,3-1.72,1,3.44,3,8.6,4-1.72,2.5-6.88.5-8,6s-2.3,1-6.88,5.5a19.58,19.58,0,0,0-2.3,2.63l-6.57-.13a26.69,26.69,0,0,0-7.48.56,23.42,23.42,0,0,0-2.44.84l-.15.06.5-1.49,5.49-1.41a20.71,20.71,0,0,0,3.3-1c1.42-.61,2.66-1.51,4.06-2.16,2.24-1,4.81-1.39,7.24-2a29.37,29.37,0,0,0,4.83-1.69,75.53,75.53,0,0,0-17.66,3.27c-.83.26-1.66.53-2.46.86a23.3,23.3,0,0,0-4.13,2.2l.65-2q3.24-1.14,6.36-2.52a40,40,0,0,1,5.85-2.31,35.51,35.51,0,0,1,5-.8c2.21-.24,4.42-.48,6.64-.57a29,29,0,0,0-6.64-.76,15.64,15.64,0,0,0-2.37.15,19.39,19.39,0,0,0-2.14.46l-3,.76a29.21,29.21,0,0,0-2.85.81,27.55,27.55,0,0,0-6.39,3.52l.69-2.08,0,0c-.86,1.13-1.66,2.29-2.42,3.47l-.16.24h0c-.22.36-.45.73-.66,1.09-.56.93-1.08,1.88-1.55,2.84l-.23.29.1,0c-.59,1.25-1.09,2.54-1.55,3.83a7.24,7.24,0,0,0-.6-.93c0-.29,0-.57,0-.85s.08-.77.11-1.15,0-.74,0-1.1l.63,3.19c1-1.66.87-3.63.76-5.49,0-.53-.06-1.06-.08-1.59l.16-2.48a30.74,30.74,0,0,0,1.15,5.18,3.86,3.86,0,0,0,.44-2.41l-.24-6.19a1.32,1.32,0,0,1,.59.07,1.74,1.74,0,0,0-.59-.3c0-.54,0-1.08-.07-1.62a17.23,17.23,0,0,1,.15-3.8,12.82,12.82,0,0,1,1.33-3.46,9.42,9.42,0,0,0-3,5.7,15.89,15.89,0,0,0,0,2.76c0,.18,0,.37,0,.55a2.33,2.33,0,0,0-.57.34,3.82,3.82,0,0,0-1.2,2.4,10.56,10.56,0,0,0-.12,1.1,5.44,5.44,0,0,1,0-1.66,6.6,6.6,0,0,0-1.45,3.76,16.36,16.36,0,0,0,.3,4c.09.55.2,1.1.31,1.64a9.23,9.23,0,0,0-.89-.62c-.13-1.12-.24-2.25-.32-3.38a9.71,9.71,0,0,0-1-4.49c0,.28,0,.56,0,.84,0-.05,0-.09,0-.14l0,.24a26.68,26.68,0,0,1-.09,4.56c-.1.5-.25,1-.38,1.5-.24-.09-.51-.16-.77-.23a22.2,22.2,0,0,1-1-2.86s-.05.06-.08.09a4.31,4.31,0,0,0-1.86-4.11c-2.87-1-4.59,6.5-4.59,6.5s-1.72-6.5-5.73-6.5c-2.87,1-.57,6-.57,6s-6.88-4.5-10.32-3c-1.72,2.5,1.72,5.5,1.72,5.5s-8.59-2.5-16-1.5c-1.72,1.5,1.72,5.5,1.72,5.5a9.46,9.46,0,0,0-3.7-.29c0-.41-.09-.82-.15-1.23v-.18s0,.07,0,.11c0-.22-.07-.43-.12-.64a5,5,0,0,0-.36,2c-.2,0-.41.08-.63.13a5.16,5.16,0,0,0-1.49-2.6,4.32,4.32,0,0,1,.19,1.28,7.79,7.79,0,0,0-.22-.83,3.07,3.07,0,0,0-1.19-1.75,1.82,1.82,0,0,0-.47-.21c0-.14,0-.28-.05-.43a13.66,13.66,0,0,0-.35-2.11,7.69,7.69,0,0,0-2.94-4.12,10.1,10.1,0,0,1,1.4,2.55,12.47,12.47,0,0,1,.54,2.9c.05.41.09.83.14,1.25a1.34,1.34,0,0,0-.42.28,1,1,0,0,1,.44-.1c.17,1.59.34,3.18.52,4.77a7.55,7.55,0,0,0,.13.83c-.07.06-.15.1-.22.15l-.29-.39-.64-.78h0a.8.8,0,0,0-.15-.17q-1.06-1.27-2.25-2.46l0,0,.77,1.54a22.11,22.11,0,0,0-5.3-2.16c-.75-.17-1.52-.28-2.28-.38l-2.39-.32a16.34,16.34,0,0,0-1.7-.18,14.09,14.09,0,0,0-1.84.09,22.39,22.39,0,0,0-5,1.16c1.72-.13,3.44-.13,5.16-.13a26.81,26.81,0,0,1,3.91.19,30.79,30.79,0,0,1,4.75,1.27c1.7.53,3.43,1,5.17,1.39l.72,1.44a20.24,20.24,0,0,0-3.42-1.34c-.65-.18-1.32-.32-2-.45a59,59,0,0,0-13.93-1,23.21,23.21,0,0,0,3.9.88,34.63,34.63,0,0,1,5.79.95c1.15.38,2.2,1,3.37,1.31a16.64,16.64,0,0,0,2.64.51l3.39.47c-.09.1-.19.18-.28.28s-.08.37-.12.52l-.15,0a20.62,20.62,0,0,0-5.81.22l-6,.79a30,30,0,0,1-6.27.39,13.5,13.5,0,0,0,4.52,1.2c.53.05,1.07.07,1.61.11,1.16.1,2.3.31,3.46.39h.68a20.38,20.38,0,0,0-1.91,2.5l-2.72.82c-.4.12-.8.24-1.19.38s-1,.38-1.46.55a8.33,8.33,0,0,1-2.22.44,4.35,4.35,0,0,0,.71.18l-.07,0,.19,0a10.47,10.47,0,0,0-4.41,3.49c-1.26,1.47-2.53,3.48-5.4,3.64a7.63,7.63,0,0,0,.92-.31h0l.16-.07h0l.15-.07,0,0,.15-.08h0l.16-.09,0,0,.19-.1h0l.22-.13a7.47,7.47,0,0,0,2.41-2.21c-.75,0-1.39,0-2.37,0l-.22,0H603l-.23,0h0l-.22,0h-.08l-.24.05h-.06l-.2.05-.1,0-.24.06-.1,0-.18,0-.1,0-.25.07-.08,0-.21.06-.08,0-.28.08h0l-.17.05h0c-.56.17-1.08.35-1.48.5a12.22,12.22,0,0,0-2.18,1,11.68,11.68,0,0,1-3-1.62,18.7,18.7,0,0,0,4.23-.36h0l.19,0,.07,0,.14,0,.11,0,.1,0,.12,0h0a15.48,15.48,0,0,0,4-1.48h0a11.35,11.35,0,0,0,1.14-.71l0,0,.18-.13.13-.1.07-.06a7.94,7.94,0,0,0,1.62-1.75l-.49,0H605l-.45,0-.14,0-.34,0-.17,0-.41.06-.18,0-.3.06-.17,0-.39.08-.18,0-.31.07-.23.05-.27.07-.19.05-.36.11-.18.05-.23.07-.18.06h0a17.42,17.42,0,0,0-2.49,1c-1.84,1-3.31,1.74-4.15,2.2l0,0,0,0-.38.21h0l0,0a21.77,21.77,0,0,1-2.25-2.55c0-.15-.07-.31-.09-.45.51-.23,1.05-.41,1.54-.68h.21l.24,0h.05l.23,0h.09l.23,0h.07l.23,0h.09l.26,0h.05l.25-.05.08,0,.28,0h0l.28-.06.07,0,.62-.15h0l.66-.19h0c2.9-.88,5.87-2.42,7.35-4.34h0l.06-.09.06-.09.08-.1.06-.09.1-.16.07-.12a.35.35,0,0,1,.05-.08c0-.07.07-.13.1-.2h-.59l-.28,0h0l-.14,0h0l-.12,0h0l-.12,0h0l-.12,0h0l-.33.09h0l-.11,0h0a32.14,32.14,0,0,0-9.32,5h0l-.28.23,0,0-.26.22h0l-.16.15h0c-.47.26-1,.44-1.5.66-.24-1.19-.46-2.37-.68-3.56a14,14,0,0,0,1.33-.82l.33.08.25,0h1.19l.19,0h.07l.24,0h0c3.71-.7,7.31-5,8.74-8h0c0-.05,0-.1.07-.16l0,0,.06-.13a.64.64,0,0,1,0-.07l0-.1a.42.42,0,0,1,0-.1l0-.06.06-.17-.45.21-.2.1-.26.12-.22.11-.24.11-.22.11-.25.12-.2.11-.27.14-.18.09-.31.17-.14.07-.36.2-.09.05a23.44,23.44,0,0,0-7.53,6.11h0l-.18.26v0l-.18.28,0,.05-.1.18-.06,0c-.41.26-.81.54-1.26.77-.17-.93-.35-1.87-.55-2.8a5,5,0,0,0,1.22-1.12l.25-.1.07,0,.3-.14,0,0,.26-.14.05,0,.27-.17.06,0c.18-.13.36-.26.53-.4l0,0,.25-.22,0,0,.22-.21,0,0h0c2.33-2.46,2.89-6.56,3-9.62v0c0-.1,0-.2,0-.3V329l-.35.29-.15.13-.19.17-.16.16-.17.17-.15.15-.17.19-.13.15c-.06.07-.13.14-.18.21l-.12.15-.18.22-.12.15-.17.23-.11.16c-.06.07-.11.15-.17.23a.21.21,0,0,1,0,.06h0a18.28,18.28,0,0,0-1.66,3.12h0c0,.12-.09.24-.14.36l0,.08c0,.12-.09.24-.13.37l0,.07c0,.12-.09.25-.13.38l0,.05c0,.14-.09.27-.13.4v0l-.12.41v0c0,.15-.08.29-.11.43h0a13.63,13.63,0,0,0-.44,3.85,4.48,4.48,0,0,1-1.1,1c-.27-1.2-.56-2.39-.93-3.58v-.26a.76.76,0,0,0,0-.15v-.3c0-.57,0-1.17,0-1.8h0a47.86,47.86,0,0,0-.19-5.1,19.66,19.66,0,0,0-1.19-4.89h0l0-.08-.09-.22a.78.78,0,0,1,0-.14,2.29,2.29,0,0,1-.1-.23l0-.11-.12-.28,0-.06c-.11-.23-.21-.45-.33-.66l0-.07-.13-.24,0-.08L586,324l0-.07a1.59,1.59,0,0,0-.13-.22l0-.07-.15-.23,0,0-.36-.51,0,0-.14-.18-.05-.06-.13-.15,0-.06-.12-.13-.06-.06-.13-.12,0,0-.17-.15c0,.25-.08.53-.11.84v0a1.1,1.1,0,0,1,0,.18V323c0,.22,0,.45-.07.69h0a21.94,21.94,0,0,0,1.75,11.1h0l.15.33,0,.06.12.25,0,.07c0,.09.08.18.13.27l0,.05.35.65h0l.17.31,0,0,.18.3,0,0c.2.34.41.67.63,1l0,0,.2.29,0,.06.19.27,0,.06,0,.06c.27.87.5,1.74.71,2.62a5.91,5.91,0,0,1-1.18-1.37v0l0-.09-.09-.27,0-.06-.06-.15h0c-1.28-3.21-5.09-6.59-7.72-8.62a27.2,27.2,0,0,0-3.08-1.91h0l-.09,0,0,0-.26-.13,0,0-.06,0,0,0,0,0-.09-.05,0,0-.06,0,0,0-.06,0h0l-.07,0h0l0,0h0l0,0h-.08c0,.05,0,.11,0,.16v.06a.52.52,0,0,0,0,.11v.06l0,.15a.24.24,0,0,1,0,.08l0,.09s0,.06,0,.09l0,.08.06.18,0,.06.05.11,0,0c1.25,3.13,5.69,7.42,9.26,9.53h0l.33.2,0,0,.29.16,0,0a2.1,2.1,0,0,0,.3.15l.08,0,.24.12.06,0,.27.12.09,0,.23.08,0,0,.26.08.07,0,.1,0a7.62,7.62,0,0,0,1.3,1.43l0,0c.27,1.17.51,2.34.74,3.52-.41-.15-.82-.28-1.21-.44l-.09-.1-.08-.08-.25-.26-.06-.06c-.08-.07-.15-.15-.23-.23l-.08-.07-.3-.28h0a34.06,34.06,0,0,0-7.08-4.87,39.41,39.41,0,0,0-5.55-2.27c-.39-.14-.79-.27-1.21-.39h0l-.25-.07-.13,0-.12,0-.1,0a7.06,7.06,0,0,0-4.87-2.62,8.52,8.52,0,0,1-2.54-.64,6,6,0,0,0-1.87-1.14,8.52,8.52,0,0,1-2.47-3.22l5.73,1a6.28,6.28,0,0,0-3.38-3.8,7.73,7.73,0,0,0-2.14-.6c1-.89,1.93-1.84,2.82-2.81a7.07,7.07,0,0,1,3-2.29,6,6,0,0,0-2.93.22A7.55,7.55,0,0,0,567,316.5s-8.59,1-11.46,5c0,0,0-2-8-7-2.29-.5,1.72,6.5,1.72,6.5s-5.73-4-12-2.5-5.73,3.5-8.59,5-8.6-1.5-11.46,2c-2.38,2.91-3.59,4.42-5.9,4.85.21-.27.41-.54.6-.84a11.62,11.62,0,0,1-1.8-4.39c-.15-.35-3.15,2-4,1.56l-.1-.07c-.07-.07-.05-.23,0-.45.35-1.07,1.95-3.54,1.37-4.08-.13-.12-.28-.24-.43-.36a14,14,0,0,0-3.66-1.79h0l-.05,0L503,320l-.32.14-.63.27-.2.09-.2.09-.45.21-.49.23-.54.26-.28.14-.91.45c-.84.44-1.78.94-2.77,1.5a9.45,9.45,0,0,0,.09,1.22c0,.25.07.5.12.74s.17.7.27,1a7.32,7.32,0,0,0,.34.9c.08.19.16.37.25.55s.25.5.38.73l.13.22c1.05,1.77,1.89,2.43-.21,2.35a3,3,0,0,1-2.42-1.67l-.11-.19a10.68,10.68,0,0,1-.89-2.24c-.05-.17-.1-.34-.14-.51-.09-.34-.17-.7-.24-1.05,0-.18-.07-.36-.1-.54-.52.33-1.06.68-1.6,1.05s-.81.55-1.21.85l-.41.29a11.82,11.82,0,0,0,1.26,3.59l.14.23a8.81,8.81,0,0,0,.57.84h0l.3.37h0c.1.12.21.23.31.34l.16.17.31.3h0l.31.28a21.44,21.44,0,0,0,1.93,1.41l.25.17a2.91,2.91,0,0,1,1.14,1.2,10.42,10.42,0,0,0-3.85.67,39.55,39.55,0,0,1-5.47-7.5c-.44.37-.88.76-1.31,1.15s-.86.8-1.28,1.21a17.62,17.62,0,0,0,1.36,3.09l.17.28c.17.28.34.54.52.78a11.48,11.48,0,0,0,3.44,3.2,4.22,4.22,0,0,0-.16,1.9h0a2.73,2.73,0,0,1-.25-.23,22.84,22.84,0,0,1-2.79-3.22l-.21-.28c-.68-.94-1.35-1.95-1.94-2.95l-.11-.19-.11-.19c-.26-.45-.51-.9-.73-1.33h0c-.33.34-.64.69-.95,1.05a28.22,28.22,0,0,0-2.48,3.28l-.19,0-.06,0-.2,0-.1,0-.24.06-.1,0-.18,0-.1,0-.25.07-.09,0-.21.06-.07,0-.28.08h0l-.17.05h0l-1.48.5a12.49,12.49,0,0,0-2.35,1.06h0l-.05,0-.3.18-.07,0-.33.21h0l-.55.39a31.12,31.12,0,0,1-1.87-2.59,17.08,17.08,0,0,0,4.53-.34h0l.19,0h.07l.14,0,.11,0,.1,0,.12,0h0a16.25,16.25,0,0,0,4-1.48h0a12,12,0,0,0,1.13-.72l0,0,.18-.13.13-.11.07-.06a8.11,8.11,0,0,0,1.62-1.74l-.49,0h-.14l-.45.05H483l-.34,0-.17,0-.41.06-.18,0-.3.05-.17,0-.39.08-.18,0-.31.07-.23.06L480,333l-.18.05-.36.1-.18.05-.23.08-.18.06h0a16.35,16.35,0,0,0-2.49,1c-1.84,1-3.31,1.75-4.15,2.21h0l0,0-.38.22h0l-.07,0h0l0,0h0a7.63,7.63,0,0,0-2.08-2.22c-.06-.3-.11-.59-.16-.83.51-.23,1.05-.42,1.54-.68h.21l.24,0h0l.23,0h.09l.23,0h.07l.23,0,.09,0,.26,0h0l.25-.05H473l.28-.06h0l.29-.07h.06l.63-.16h0l.65-.18h0c2.9-.88,5.87-2.42,7.35-4.33h0l.06-.08.06-.09a.76.76,0,0,0,.08-.11l.06-.09.1-.16.07-.11a.41.41,0,0,1,0-.09l.1-.19h-.59l-.28,0h0l-.14,0h0l-.12,0h0l-.12,0h0l-.13,0h0l-.33.09h0l-.11,0h0a32.38,32.38,0,0,0-9.32,5h0a3.11,3.11,0,0,0-.28.23h0l-.26.22v0l-.16.14h0c-.47.26-1,.44-1.5.66-.24-1.18-.46-2.37-.68-3.55.47-.25.89-.54,1.33-.82l.33.07.25,0h.09l.16,0h.94l.19,0h.07l.23,0h0c3.71-.69,7.31-5,8.74-8h0c0-.06.05-.11.07-.16l0,0,.06-.13,0-.07,0-.1a.36.36,0,0,1,0-.09l0-.07.06-.16-.45.21-.21.09-.25.12-.22.11-.24.12-.22.1-.25.13-.2.1-.27.14-.18.1-.31.16-.14.08-.36.2-.09.05a23.31,23.31,0,0,0-7.53,6.1h0l-.18.26v0l-.18.27,0,.05-.11.19h-.05a13.3,13.3,0,0,1-1.26.78c-.17-.94-.35-1.88-.56-2.81a4.73,4.73,0,0,0,1.23-1.12l.25-.1.07,0,.3-.15.05,0,.26-.15.05,0,.27-.17.06,0c.18-.12.36-.26.53-.4l0,0a1.7,1.7,0,0,0,.24-.22l0,0,.22-.22,0,0h0c2.33-2.46,2.89-6.56,3-9.62v0c0-.1,0-.2,0-.29v-.94l-.35.29-.16.14-.18.17-.16.15-.17.17-.15.16a1.54,1.54,0,0,0-.17.19l-.13.15a1.8,1.8,0,0,0-.19.2l-.11.15-.19.23-.11.14-.17.24-.11.15-.17.24,0,.05h0a17.69,17.69,0,0,0-1.66,3.13h0v0c0,.12-.09.23-.14.35l0,.08c-.05.13-.09.25-.14.37a.19.19,0,0,1,0,.07c-.05.13-.09.25-.13.38l0,.06c0,.13-.09.26-.13.39v0l-.12.41v0l-.12.42h0a13.67,13.67,0,0,0-.44,3.85,4.18,4.18,0,0,1-1.11,1c-.26-1.2-.55-2.39-.92-3.58v-.7c0-.57,0-1.18,0-1.8h0a47.86,47.86,0,0,0-.19-5.1,19.64,19.64,0,0,0-1.19-4.9h0l0-.09-.09-.22a.69.69,0,0,1-.05-.13,2.44,2.44,0,0,1-.1-.24,1.17,1.17,0,0,1-.05-.11l-.12-.28,0-.06-.33-.66,0-.06c0-.09-.09-.17-.13-.25l0-.08a2.53,2.53,0,0,1-.13-.22l-.05-.08a2.53,2.53,0,0,0-.13-.22l0-.06-.15-.24,0,0c-.12-.18-.24-.35-.36-.5l0,0c-.05-.06-.09-.12-.14-.17l0-.07-.13-.14-.06-.07-.11-.12-.06-.07-.13-.12-.05,0a1.29,1.29,0,0,0-.17-.16c0,.26-.08.54-.12.85v0c0,.06,0,.12,0,.18v.13c0,.22-.05.45-.07.69h0a22,22,0,0,0,1.75,11.1h0l.15.33,0,.06.12.26,0,.07.14.27,0,0c.11.22.23.44.35.66h0l.18.32,0,0,.18.3,0,0q.29.5.63,1l0,0a3,3,0,0,0,.2.29l0,.06.19.27,0,.06.05.06c.26.87.5,1.75.71,2.63a6.12,6.12,0,0,1-1.18-1.37v-.05l0-.08-.09-.28,0-.06a.88.88,0,0,0-.05-.15h0c-1.28-3.21-5.09-6.59-7.72-8.63a27.12,27.12,0,0,0-3.08-1.9h0l-.09-.06h0l-.26-.14,0,0-.06,0-.06,0-.05,0-.08,0,0,0-.06,0,0,0-.06,0h0l-.07,0h0l0,0h-.07l0,0h0a1,1,0,0,0,0,.16v0a.36.36,0,0,0,0,.11.13.13,0,0,0,0,.06l0,.16a.19.19,0,0,1,0,.07l0,.1s0,.05,0,.08l0,.09.06.17s0,0,0,.06,0,.08,0,.12l0,0c1.26,3.12,5.69,7.42,9.27,9.53h0l.34.19.05,0,.29.16,0,0,.3.15.08,0,.24.11.06,0,.27.11.09,0,.23.09h.05l.25.09.08,0,.1,0a8,8,0,0,0,1.3,1.44l0,0c.27,1.16.51,2.33.73,3.51-.4-.15-.81-.27-1.2-.44l-.1-.1-.07-.07-.25-.27-.06,0-.23-.23-.08-.08-.3-.28h0a34.06,34.06,0,0,0-7.08-4.87,39.41,39.41,0,0,0-5.55-2.27,11.4,11.4,0,0,0-1.21-.39h0l-.06,0-.25-.06-.13,0-.12,0-.15,0-.1,0-.24,0h-.06l-.19,0-.09,0-.18,0h-.07l-.24,0h-.06l-.18,0h-.08l-.18,0h-.05l-.22,0h-.5c.08.08.15.16.23.23.65.66,1.31,1.35,2,2h0a14,14,0,0,0,1.42,1.12c1.58,1.06,2.92,1.8,4.48,2.73a29.15,29.15,0,0,0,8.22,2.91l.38.07.28.05.33.06.27,0,.35.05c.43.18.88.32,1.32.49.1.54.2,1.09.31,1.63-.46-.09-.91-.17-1.36-.27h0l-.31-.15-.22-.09-.11,0-.24-.11-.08,0-.27-.11h0l-.92-.38-.1,0-.26-.1-.06,0h0a28.49,28.49,0,0,0-7.74-1.77l-.09-.09c-2.3-2-5.73-6-8-5.5s-1.72-5.5-6.87-3.5-14.33,1-13.76-2,9.74-3,6.88-5.5-6.3.5-7.45-4,5.73-5.5,1.15-6.5-1.15,2.5-5.73,3-2.87-3.5-2.87-3.5,3.44-6.5-4-5.5-4.59-3-8-4.5-2.3-3.5-10.89-3.5-10.89,7-10.89,7a14.18,14.18,0,0,0-13.75,0s-8-9-10.89-8.5c-.82.36,2.17,4.29,3.94,6.51-1.15-.95-3.25-1.86-6.81-1-2.86,2,6.31,8.5,6.31,8.5a15.47,15.47,0,0,0-7.45,3.5c-3.44,3-1.72,6.5-6.31,7.5-2.74.6-4.66.13-6.87.51-.11-.29-.19-.59-.31-.87.11.29.21.58.31.87a11.24,11.24,0,0,0-5.16,2.49l-.51.38c-.47-1.45-.93-2.9-1.4-4.35a.87.87,0,0,0-.43-.6,21,21,0,0,1,.1,2.39c.06.55.25,1.09.36,1.64l0,.22a4.65,4.65,0,0,0-.2-.52,23.06,23.06,0,0,0-1.41-2.08,21.37,21.37,0,0,1-1.41-3.31l0-.18s0,.07,0,.1c-.09-.2-.18-.4-.28-.6a7.57,7.57,0,0,0,.57,3.52,40.3,40.3,0,0,1,1.41,5.39l0,.18c-.22.13-.44.24-.65.34-.21-1.33-.45-2.67-.75-4a13.2,13.2,0,0,0-1-3,5.8,5.8,0,0,0-2.17-2.42,4.59,4.59,0,0,1,.49,1.22,7.29,7.29,0,0,0-.42-.78,3.32,3.32,0,0,0-1.58-1.49,2.11,2.11,0,0,0-.51-.12l-.15-.41a14.64,14.64,0,0,0-.85-2,8.35,8.35,0,0,0-3.87-3.49,11.62,11.62,0,0,1,2,2.23,14,14,0,0,1,1.22,2.74l.44,1.2a1,1,0,0,0-.34.35.91.91,0,0,1,.4-.18l1.65,4.57a3.33,3.33,0,0,0,1,1.67,24,24,0,0,0-.68-4l.85,1.77c.13.39.27.78.4,1.18a8.06,8.06,0,0,0,2.18,3.84c-.16-.83-.32-1.65-.49-2.48.11.27.23.54.36.8s.28.54.42.82a9.3,9.3,0,0,1,.54,1.41,5.53,5.53,0,0,0,.3.83l0,0a36.39,36.39,0,0,0-3-3.28h.09l-.26-.16c-.63-.59-1.29-1.17-2-1.72-.26-.22-.53-.43-.81-.64h0c-.06-.06-.13-.1-.19-.15-.9-.69-1.84-1.36-2.79-2l0,0,1.12,1.36a23.61,23.61,0,0,0-5.7-1.13c-.77,0-1.55,0-2.32,0l-2.42.12a16,16,0,0,0-1.7.14,13.17,13.17,0,0,0-1.78.42,21.52,21.52,0,0,0-4.62,2.05c1.65-.44,3.34-.75,5-1.07a26.48,26.48,0,0,1,3.87-.53,31.63,31.63,0,0,1,4.95.37c1.79.2,3.59.34,5.39.41l1.05,1.28a20.64,20.64,0,0,0-3.67-.68c-.68-.06-1.36-.07-2.05-.08a59.12,59.12,0,0,0-13.86,1.58,23.47,23.47,0,0,0,4,.15,36.4,36.4,0,0,1,5.9-.14c1.21.16,2.38.54,3.6.67a17.51,17.51,0,0,0,2.71,0l4.43-.21.8,1h-.13c-.67,0-1.35-.08-2-.06a20.47,20.47,0,0,0-5.62,1.27l-5.73,1.89a29.06,29.06,0,0,1-6,1.52,13.55,13.55,0,0,0,4.71.35c.53,0,1.06-.13,1.6-.18,1.16-.12,2.33-.12,3.48-.26a26,26,0,0,0,3.4-.71,44.6,44.6,0,0,0,7.45-2.48l.84,1c-3.83.43-7.3,2.23-10.62,4l-4.13,2.17c-.36.19-.73.38-1.08.59s-.85.55-1.29.81a8.18,8.18,0,0,1-2.07.84,6.28,6.28,0,0,0,.75,0l-.07,0,.31,0a13.42,13.42,0,0,0,3.45-.66l3.06-.92a4.13,4.13,0,0,0-.05,1.74,4.8,4.8,0,0,0-6.88,2.5c-2.29,5-6.3,6-10.31,3s0-9-5.73-10.5A40.25,40.25,0,0,0,289,319s3.44-2-2.29-4.5-6.88-4-6.88-4c.57-3,5.16-6.5,4-10.5-2.29-.5-7.45,7.5-7.45,7.5s-.57-15.5-5.73-17.5c-1.72,1-1.72,9.5-1.72,9.5a15.64,15.64,0,0,0-9.17-4c-1.14.5,2.87,7.5,2.87,7.5a17.45,17.45,0,0,0-10.32.5c-5.73,2-6.49-1.17-15.66.83-.53.12-1,.22-1.46.3,0-.1,0-.2-.05-.31v-.06a.69.69,0,0,0,0-.13v-.06l0-.14v-.05l0-.13v-.07l0-.14v-.05c0-.06,0-.11,0-.17v0l0-.17v0l0-.16v0l0-.18v0l0-.19h0c-.34-1.92-.73-3.8-.81-4.43h0V298a1.71,1.71,0,0,0,0-.31v-.06a2.54,2.54,0,0,0,0-.29v0c0-.09,0-.18,0-.26v0a2.16,2.16,0,0,0-.05-.27v-.05c0-.18-.08-.35-.13-.51l0-.05a2,2,0,0,0-.08-.22v0l-.09-.2,0,0a1.28,1.28,0,0,0-.11-.2l0,0a3.18,3.18,0,0,0-.27-.37l0,0-.15-.16h0a1.07,1.07,0,0,0-.16-.14l0,0-.19-.13,0,0a3.22,3.22,0,0,0-.46-.21h0a5.22,5.22,0,0,0-1.34-.26c-.67-.1-7.45-.57-4.59-2.14,1.08-.58,3.39.26,5,1l.09,0,.12.06.12.06.13.05.09,0,.09,0,.09,0,.14.07.07,0,.09.05.06,0,.13.07h0l.46.24h0l0-.2a.13.13,0,0,0,0-.06l0-.21a.09.09,0,0,1,0-.05l-.06-.22s0,0,0-.06l-.06-.2a.24.24,0,0,1,0-.08c0-.06-.05-.13-.08-.2s0-.05,0-.08l-.08-.2a.36.36,0,0,1,0-.09,1.54,1.54,0,0,0-.08-.19l0-.1a1.42,1.42,0,0,0-.08-.18l-.06-.11a1.3,1.3,0,0,0-.08-.17s-.05-.08-.07-.13l-.08-.15a.64.64,0,0,1-.08-.14,1,1,0,0,1-.08-.14s-.07-.1-.1-.16l-.07-.12c0-.05-.07-.11-.11-.17l-.06-.09-.13-.2-.05-.07-.15-.22,0-.06c-.06-.07-.11-.15-.16-.22l0,0-.19-.26h0a15,15,0,0,0-2-2.11h0q-.31-.27-.6-.48l-.05,0-.14-.09-.05,0-.13-.07,0,0-.14-.08-.17-.07-.18-.06h0l-.18-.05h0l-.2,0h0l-.19,0h0c-3-.18-7.1,3.45-7.72,1.76s1.45-2.31,3.62-2.52l.34,0h.05l.34,0h0l.34,0h3.13c.34-1.62-4.3-5.76-6.59-6.27l-.27-.05h-.36c-2.23,0-5.49,2-6.1,1.11-.79-1.15,1.3-1.62,3.29-1.81h.12l.19,0h2.74c-.11-.13-.21-.26-.32-.38l-.11-.12-.23-.24-.13-.12-.22-.21-.13-.11-.24-.2-.12-.09-.34-.24,0,0c-.12-.08-.24-.16-.37-.23l-.12-.08-.26-.14-.14-.07-.24-.12-.16-.07-.25-.1-.14-.06-.32-.12-.06,0-.39-.12-.14,0-.25-.06-.16,0-.23-.05-.17,0-.07,0h0a16.53,16.53,0,0,0-5.69.18,13.68,13.68,0,0,0-4,1.45h0l0,0a11.88,11.88,0,0,0-4.5-1.22c-2-.09-3.21.55-3.37,1.39.11.11.21.22.31.34l.06.06.25.28a18.22,18.22,0,0,1,2.14,2.89l-1.74,1.21a3.94,3.94,0,0,1-.41-.94,23.1,23.1,0,0,0-1.69-4c-.74-1.67-1.56-.53-2.71.94s-2.6,3-3.15,4.59A14.81,14.81,0,0,1,187,281c-2.3-1.33,6.87-8-7.65-6s-9.16,8-16,11.33c-6.16,3-8.64-1.5-12.38,4.23-.95-.88-1.81-1.84-2.75-2.73l-.17-.22s0,.09.08.14c-.25-.24-.5-.47-.77-.69a12.11,12.11,0,0,0,3,4.47l-.33.61a16.33,16.33,0,0,0-1.57-1.54,9.92,9.92,0,0,0-4.57-2.24,7.67,7.67,0,0,1,1.47,1.43,13.14,13.14,0,0,0-1.08-.86,5.68,5.68,0,0,0-3.16-1.26,3.46,3.46,0,0,0-.78.09c-.16-.16-.32-.32-.47-.49a25,25,0,0,0-2.49-2.33,14.15,14.15,0,0,0-7.62-2.86,18.69,18.69,0,0,1,4.2,2.08,22.79,22.79,0,0,1,3.49,3.15l1.38,1.43a1.41,1.41,0,0,0-.23.66A1.16,1.16,0,0,1,139,289l5.28,5.46a5.73,5.73,0,0,0,2.52,1.78,39.08,39.08,0,0,0-3.6-5.22l2.33,2,1.33,1.43c.42.45.85.9,1.3,1.34-.16.3-.31.59-.46.85-1.09-.42-2.19-.82-3.31-1.18q-.77-.26-1.53-.48h0a2.47,2.47,0,0,0-.36-.11q-2.53-.75-5.15-1.34h0l2.44,1.31a35.2,35.2,0,0,0-8.6,1.29c-1.09.34-2.13.78-3.17,1.22l-3.24,1.38a22,22,0,0,0-2.25,1.05,15.31,15.31,0,0,0-2.17,1.47,27,27,0,0,0-5,5.13c2-1.43,4.09-2.71,6.2-4a37,37,0,0,1,5-2.67,47.83,47.83,0,0,1,7.06-2c2.6-.61,5.17-1.32,7.69-2.12l2.29,1.23a30.79,30.79,0,0,0-5.5.9c-1,.26-1.92.58-2.87.92a80.36,80.36,0,0,0-18,9.1,33,33,0,0,0,5.63-1.81c2.67-1.07,5.18-2.51,8-3.13,1.77-.39,3.63-.45,5.4-.88a25.6,25.6,0,0,0,3.74-1.34l6-2.5.73.4c-.24.39-.48.74-.71,1.06-.44.14-.88.29-1.3.46a27,27,0,0,0-6.91,4.57L131.08,310a45.64,45.64,0,0,1-6,4.38c-3.6-1.3-6-2.59-9.1,1.92a17.93,17.93,0,0,1-1.12,1.47,26.89,26.89,0,0,0-5.65-1.81h0c.14,1,.27,2.15.33,3.32a26.49,26.49,0,0,0-2.91-.77,13.79,13.79,0,0,0-1.17-3h-.28l-.45,0c-.75,0-1.43,0-2.07-.07a28.54,28.54,0,0,1,.73,2.86c-.37,0-.75,0-1.16.05l-1.47.14a11.28,11.28,0,0,0-1.3-3.26,16.53,16.53,0,0,1-5.18-1.16c-.4-.09.11,3.37-.74,3.74l-.12,0c-.11,0-.25-.1-.42-.27-.81-.84-2.26-3.38-3.1-3.27-.19,0-.38.06-.58.11A14.2,14.2,0,0,0,85.55,316v0s0,0,0,0a.39.39,0,0,0,0,.13c0,.08,0,.18-.06.31s0,.37-.09.61l0,.18a1.36,1.36,0,0,1,0,.2l-.06.44c0,.15,0,.32-.05.49s0,.34-.06.53l0,.28c0,.29-.05.6-.07.91-.06.73-.09,1.53-.12,2.39-7.47-4.52-9.08-3.18-12.51-5.57-2.9-2-6.7-2.51-9.35-2.63l.63-.41a7.92,7.92,0,0,0,2.46-2.13A51.87,51.87,0,0,0,74.59,308c-1.84.21-3.66.51-5.48.83L72.42,303s-11.46.67-16,6c0,0-1.53-8-6.11-9.33-1.53,1.33,0,10,0,10a20.54,20.54,0,0,0-12.1-6.35,20.19,20.19,0,0,0-1.38-5.57h0c-1,.84-2.23,1.8-3.51,2.67a14.51,14.51,0,0,0-2.36-1.23,13.74,13.74,0,0,0,4.37-4.41l-.14-.22-.21-.33c-.37-.55-.69-1.06-1-1.53-2.62,2.88-6.05,5.87-8.1,4.56l-.14-.08c-2.61-1.75,3.16-.66,6.79-6.92a12.52,12.52,0,0,1-1.64-4.39c-.13-.34-2.85,2-3.6,1.56a.22.22,0,0,1-.09-.07c-.06-.07,0-.23,0-.45.31-1.06,1.77-3.54,1.24-4.08l-.38-.35a12.56,12.56,0,0,0-3.33-1.8h0l0,0-.13.06-.29.13-.57.27-.18.09-.18.09-.41.21-.45.23-.48.26-.26.14-.83.46c-.76.43-1.61.93-2.52,1.5a11.45,11.45,0,0,0,.09,1.21,6,6,0,0,0,.11.74q.11.54.24,1c.1.32.2.62.31.9s.15.38.22.55l.35.73.12.22c1,1.78,1.72,2.43-.19,2.36a2.74,2.74,0,0,1-2.2-1.68l-.1-.19a11,11,0,0,1-.81-2.24,4.7,4.7,0,0,1-.12-.51c-.08-.34-.15-.69-.22-1.05l-.09-.54c-.48.33-1,.68-1.45,1.05s-.74.56-1.11.85c-.12.1-.24.2-.37.29a12.73,12.73,0,0,0,1.15,3.59l.12.23c.17.3.34.58.52.84h0c.09.13.18.25.28.37h0l.27.33.15.17.28.3h0l.29.28a19.33,19.33,0,0,0,1.74,1.41l.23.17c.67.53,1.12,1,1.12,1.67a2.33,2.33,0,0,1-.23.94l-.06.11a1.82,1.82,0,0,1-.19.31,1.14,1.14,0,0,1-.22.22c-.84.62-2.18-.46-3.61-2.23.49-1.49.5-2.85-1.53-3.58-.42-.15-.81-.27-1.18-.38-.55-.9-1.07-1.82-1.53-2.69-.4.38-.8.76-1.19,1.15s-.69.71-1,1.08c-2.17.17-3.85,1.09-6.87,1.51a6.68,6.68,0,0,1-1.64.05V500H750ZM15.82,302a1,1,0,0,1-.44.59l-.09,0-.62-.11a2.05,2.05,0,0,1-.94-2.6c.44.28.85.51,1.18.71l.2.12.28.19.14.12h0l.12.13A.75.75,0,0,1,15.82,302Zm21.27,7.43-.48-.12c0-.49-.09-1-.16-1.55.48.54,1,1.07,1.4,1.53Zm.88.32c0-.1,0-.19.05-.29l.62.65A5.08,5.08,0,0,0,38,309.72Zm57.46,19.92.2-.06a2.83,2.83,0,0,1,2.28.05,2.45,2.45,0,0,1,.74.71.61.61,0,0,1,.07.1,1.84,1.84,0,0,1,.18.33,1.35,1.35,0,0,1,.08.3c.07,1.13-2.26,1.58-5.32,1.66C94.34,331.67,95.47,331.08,95.43,329.64ZM93,326.37s0,0-.08.07a20,20,0,0,1-5.23-2.11l-.29-.18.59.2c.36.1.71.19,1,.26l.66.13.9.13.29,0C93.18,325.13,94.27,324.89,93,326.37Zm.86,10.76-.06-.13a6.74,6.74,0,0,1-.26-.69A16.22,16.22,0,0,0,98.39,335l.24-.09a2.79,2.79,0,0,1,.35-.11l.21,0h0l.19,0a1,1,0,0,1,.89.34.93.93,0,0,1,.29.68c0,.41-.56.72-1.38,1h0l-.6.14a3.43,3.43,0,0,1-.34.06l-.35.06A28.24,28.24,0,0,1,93.88,337.13Zm6.59,5.3A8.55,8.55,0,0,1,98,341.6c1.11-.59,1.83-1.08,2.43-1a1,1,0,0,1,.5.25c.29.26.41.49.38.72S101,342.18,100.47,342.43Zm16.37-8.67c-1.73,0-1-.72.72-1.87a8,8,0,0,1,2.12.88,7.64,7.64,0,0,1-1.92.86A3.3,3.3,0,0,1,116.84,333.76Zm4.48,3.91a3.81,3.81,0,0,1-1.25.58,2.36,2.36,0,0,1-.39-.19l-.1-.07c-.58-.43-.17-.91.8-1.46a.41.41,0,0,1,.11-.07l0,0,.11-.06.06,0c.42-.23.93-.47,1.48-.72A1.86,1.86,0,0,1,121.32,337.67Zm9.94-22a16.38,16.38,0,0,1-5.17-.9,20.13,20.13,0,0,0,4.39-1.5c.7-.33,1.38-.71,2.08-1,.88-.43,1.8-.82,2.71-1.21C135.28,313.51,135.4,315.67,131.26,315.67Zm91.69-14c-8.41-2-2.3-4-11.46-7.34s-6.12-4-14.52-3.33c-7.15.57-1,.65-.46-2.21h0c3.51-.3,6.91.36,11.07,1.29,2.48.56,6,1.25,8.08,2.49l.46.25.4.23a37.94,37.94,0,0,1,4.38,3.14l.2.16h0l.3.27.06.05.11.1.07.07.1.1.07.06.1.1.07.07.09.09.08.08.09.09.07.08.09.08a.27.27,0,0,0,.07.08l.08.09.07.08.08.09.07.07.08.09.06.07.08.08.06.08.07.08.07.07.07.09.05.07.07.08.06.06.06.08.05.07.06.07.06.06.05.07.05.07,0,.06.05.06,0,.06,0,.06,0,.06,0,.05,0,.06,0,0,0,.05,0,0,0,.05,0,0,0,0,0,0,0,0,0,0,0,0,0,0,0,0v0l0,0h0l0,0h0l0,0c.24.41,1,1.58,1.74,2.55A20.71,20.71,0,0,0,223,301.67Zm4.25,1.46c-.62-1.12-1.84-2.42-2-3-.48-1.73,1.39,1.67,2.43,3.27C227.5,303.28,227.35,303.21,227.2,303.13ZM466.11,333.5a15,15,0,0,1-5.41-1.83l1.82.09h2.62l.59,0h.33l.26,0h0l.26,0h0l.22,0h.06l.18,0h.05l.21,0c.47.11,1,.19,1.42.29h0c.08.43.15.85.24,1.28s.15.83.24,1.34A9.55,9.55,0,0,0,466.11,333.5Zm12.41,8.35c-.66.25-1.3.53-1.91.81a16.55,16.55,0,0,1-1.33-1.16c-.26-.25-.49-.5-.72-.74l.18,0,.15,0,.32,0,.17,0,.33-.05.13,0c1-.16,1.91-.38,2.94-.63l.54-.14A20.86,20.86,0,0,0,478.52,341.85Zm3.4-1.07-.2.05-.11,0-.21.05-.1,0h0l-.18.05c-.28-.3-.57-.6-.84-.92l-.36-.42c.25-.08.49-.16.72-.25h.05a12.48,12.48,0,0,0,1.28,1.39Zm1,1.94a8.31,8.31,0,0,0,.81-.57l.17.11a2.48,2.48,0,0,0,.31.18l.12.07A12.46,12.46,0,0,0,483,342.72Zm105.17,3.87-.24-.1-.08,0-.27-.12h0l-.4-.16c-4.05-2.86-7.18-1.4-9.81-4.16a14.48,14.48,0,0,1-1.45-1.82c.93.57,1.84,1.09,2.83,1.67a29.31,29.31,0,0,0,8.21,2.92l.38.07.28.05.33.05.27.05.35.05c.43.18.88.31,1.32.48.1.55.21,1.09.31,1.64l-1.36-.28h0l-.31-.14-.22-.1Zm.16.51.18,0h0l.21,0c.47.11.95.2,1.43.3h0l.24,1.28c0,.21.08.46.13.72A23.49,23.49,0,0,0,588.28,347.1Zm42.36-12.55.4,1.89c0,.15,0,.31,0,.46l-.58.32A23.88,23.88,0,0,0,630.64,334.55Zm-16.74,50-.22-.1-.08,0-.25-.12h0l-.37-.16-.22-.16h2.77c.07.39.13.77.2,1.16l-1.23-.28h0l-.29-.14-.19-.1Zm.14.51.16,0h0l.19,0,1.29.3h0c.08.42.15.85.22,1.28,0,.21.08.46.13.72A23.12,23.12,0,0,0,614,385.1Zm1.7-1.1h5.06a21,21,0,0,0-2.44,1.85h0l-.25.23,0,0-.23.22h0l-.15.15h0c-.44.26-.91.44-1.37.66C616.1,386.1,615.92,385.05,615.74,384Zm22.54.42c-.36.12-.73.24-1.09.38s-.87.38-1.32.55a7,7,0,0,1-2,.44,3.69,3.69,0,0,0,.65.18l-.06,0,.17,0a9.73,9.73,0,0,0-4,3.49c-1.15,1.47-2.3,3.48-4.9,3.64a6.22,6.22,0,0,0,.83-.31h0l.15-.07h0l.14-.07,0,0,.14-.08h0l.15-.09,0,0,.17-.1h0l.2-.13a7.16,7.16,0,0,0,2.19-2.21,20.11,20.11,0,0,0-2.16,0l-.19,0h-.06l-.2,0h0l-.2,0h-.06l-.22.05h-.06l-.18.05-.09,0-.22.06-.09,0-.16,0-.1,0-.22.07-.08,0-.19.06-.07,0-.25.08h0l-.15.05h0c-.51.17-1,.35-1.34.5a10.72,10.72,0,0,0-2,1,10.14,10.14,0,0,1-2.77-1.62,15.49,15.49,0,0,0,3.84-.36h0l.17,0,.06,0,.13,0,.1,0,.09,0,.11,0h0a13.35,13.35,0,0,0,3.64-1.48h0a9.94,9.94,0,0,0,1-.71l0,0,.16-.13.12-.1.07-.06a7.51,7.51,0,0,0,1.46-1.75l-.44,0h-.12l-.42,0-.12,0-.31,0-.15,0-.38.06-.16,0-.28.06-.15,0-.35.08-.17,0-.28.07-.21.05-.25.07-.17.05-.32.11-.16.05-.21.07-.17.06h0a14.8,14.8,0,0,0-2.26,1c-1.67,1-3,1.74-3.77,2.2l0,0,0,0-.35.21h0l0,0a20.49,20.49,0,0,1-2.05-2.55l-.09-.45c.47-.23,1-.41,1.41-.68h.19l.21,0h0l.21,0h.08l.21,0h.07l.2,0H619l.23,0h0l.23-.05.07,0,.26,0h0l.27-.06.05,0,.57-.15h0l.59-.19h0a18.25,18.25,0,0,0,3.92-1.85h14.21ZM673.56,330a6.57,6.57,0,0,0,.57-1.52l.12,1.65C674,330.08,673.81,330,673.56,330Zm10.09,5c-.14,0-.29,0-.43.06l.52-1.55c.94.12,1.89.2,2.84.25A10.56,10.56,0,0,0,683.65,335Zm13.41-1c-1.62.6-3.33.15-5.24-.21l2.22-.07a35.51,35.51,0,0,0,4.49-.41l.11,0A10.21,10.21,0,0,1,697.06,334Z"/><path class="cls-9" d="M745.2,365.67c-8,3.33-6,6.66-10.67,6-2.9-.42-4.51-1.34-6.59-1.51-.33-.37-.66-.73-1-1.08s-.75-.77-1.14-1.15c-.44.87-.94,1.79-1.46,2.69-.36.11-.74.23-1.14.38-2,.73-1.94,2.09-1.47,3.58-1.37,1.77-2.66,2.85-3.47,2.23a1.49,1.49,0,0,1-.21-.22,1.33,1.33,0,0,1-.18-.31l0-.11a2.33,2.33,0,0,1-.23-.94c0-.68.43-1.14,1.08-1.67l.21-.17a16.76,16.76,0,0,0,1.68-1.41l.28-.28h0l.27-.3.14-.17a4.19,4.19,0,0,0,.26-.33h0l.27-.37h0a8.43,8.43,0,0,0,.49-.84,1,1,0,0,0,.12-.23,12.8,12.8,0,0,0,1.11-3.59l-.36-.29c-.35-.29-.71-.58-1.06-.85s-.94-.72-1.4-1.05c0,.18,0,.36-.08.54q-.09.54-.21,1.05c0,.17-.07.34-.12.51a11.06,11.06,0,0,1-.78,2.24,1.14,1.14,0,0,1-.1.19,2.64,2.64,0,0,1-2.11,1.68c-1.83.07-1.1-.58-.18-2.36l.11-.22c.12-.23.23-.47.34-.73s.15-.36.22-.55.2-.58.29-.9a9.58,9.58,0,0,0,.23-1,6,6,0,0,0,.11-.74,9.34,9.34,0,0,0,.08-1.21c-.87-.57-1.68-1.07-2.42-1.5-.27-.17-.54-.32-.79-.46l-.25-.14-.47-.26-.43-.23-.38-.21-.18-.09-.17-.09-.55-.27-.28-.13-.12-.06,0,0h0a11.94,11.94,0,0,0-3.2,1.8,4,4,0,0,0-.36.35c-.51.54.89,3,1.19,4.08.06.22.07.38,0,.45l-.09.07c-.72.41-3.34-1.9-3.46-1.56a12.87,12.87,0,0,1-1.58,4.39c3.49,6.26,9,5.17,6.52,6.92l-.12.08c-2,1.31-5.26-1.68-7.78-4.56-.29.47-.6,1-1,1.53l-.2.33-.13.22a13.45,13.45,0,0,0,4.19,4.41,13.92,13.92,0,0,0-2.26,1.23,42.7,42.7,0,0,1-3.37-2.67h0a22.05,22.05,0,0,0-1.44,8.52,13.14,13.14,0,0,0,1.84.92c-.12.82-.2,1.58-.24,2.29-.49-.09-.95-.17-1.37-.26a30.22,30.22,0,0,0,1.21,5.26,5.58,5.58,0,0,1-.24,1.19c-.44,1.34-2.68,1.49-5.12,2.83-.7-.43-1.42-.85-2.14-1.25a78.73,78.73,0,0,0-28.79-9.3,48.58,48.58,0,0,0,8.1,3.88,7.63,7.63,0,0,0,2.35,2.13l3.32,2.24c1.34.91,3.32,1.76,4.39.54-.32.77-.65,1.54-1,2.3,3.1.36,4.79,3.34,6.29,6.27a51.88,51.88,0,0,0-6.61-3,37.52,37.52,0,0,0-28.56,1.4,28.4,28.4,0,0,0,11.76,2.6l-.29,1.43c2.28-.16,4.33,1.2,6.44,2.07s4.94,1.09,6.27-.76c-.22.87-.45,1.75-.68,2.62a44.09,44.09,0,0,1,6.54,5.74l.12-.09c1.44,1.23,3.59,2.51,3.59,5.71,0,4.62-5,1.24-12,2.42a1.61,1.61,0,0,0-.08-.38c0,.14-.06.27-.09.41a17.09,17.09,0,0,0-3.18.88l-.43.19a20.92,20.92,0,0,0-2.41-7.75,20.37,20.37,0,0,1,1.4,3.54,6.66,6.66,0,0,1,.06,3.78c-.12.4-.29.78-.45,1.17a13.11,13.11,0,0,0-1.89,1.5,6.41,6.41,0,0,0,.21-.89,1.89,1.89,0,0,0-.29-1.38,2.67,2.67,0,0,0-.89-.63l-1-.5a2.08,2.08,0,0,0-.12.55,5.73,5.73,0,0,0-.15-1,8.13,8.13,0,0,0-.38-1q-1.11-2.46-2.2-4.91a.85.85,0,0,0-.44-.52c.26.72.23,1.51.42,2.25.13.51.35,1,.52,1.51l.06.2A3.33,3.33,0,0,0,663,420c-.4-.66-1-1.19-1.45-1.81a22.19,22.19,0,0,1-1.63-2.95l-.05-.17a.3.3,0,0,0,0,.1c-.1-.18-.2-.36-.31-.53a8.06,8.06,0,0,0,.95,3.25,44,44,0,0,1,1.92,4.92,10.91,10.91,0,0,0,1.25,3.12c-.47-.51-.94-1-1.41-1.51l-.33-.35a1.08,1.08,0,0,0,.3.16c-.42-1.53-.9-3-1.43-4.53a13.43,13.43,0,0,0-1.21-2.71,5.28,5.28,0,0,0-2.12-2,4.53,4.53,0,0,1,.57,1.09,7.26,7.26,0,0,0-.45-.68,3,3,0,0,0-1.51-1.22,2.12,2.12,0,0,0-.44-.05l-.18-.36a14.89,14.89,0,0,0-1-1.8,7.37,7.37,0,0,0-3.68-2.82,10.22,10.22,0,0,1,2,1.87,14.56,14.56,0,0,1,1.39,2.43c.17.37.35.73.52,1.09a1,1,0,0,0-.23.37.77.77,0,0,1,.31-.22q1,2.06,2,4.12a3.21,3.21,0,0,0,1.08,1.45,25.21,25.21,0,0,0-1.13-3.74l1,1.57c.16.36.33.71.5,1.07a8,8,0,0,0,2.33,3.36l-.75-2.28c.13.24.26.48.4.71l.46.72a8.94,8.94,0,0,1,.65,1.27,4.1,4.1,0,0,0,.44.89,35.34,35.34,0,0,0-3-2.86h.07l-.23-.12c-.6-.49-1.22-.95-1.86-1.39-.25-.18-.5-.35-.76-.51h0a1,1,0,0,0-.17-.12c-.84-.54-1.7-1.06-2.58-1.54h0l1.11,1.15a17.33,17.33,0,0,0-4.86-.38,17.52,17.52,0,0,0-1.9.32l-2,.41c-.46.1-.93.2-1.38.34a9.29,9.29,0,0,0-1.41.62,16.42,16.42,0,0,0-3.52,2.5c1.3-.62,2.64-1.12,4-1.62a19,19,0,0,1,3.11-1,23.75,23.75,0,0,1,4.13-.25c1.5,0,3-.11,4.5-.26l1,1.08a14.88,14.88,0,0,0-3.12-.2c-.57,0-1.14.1-1.7.18A42.86,42.86,0,0,0,640,423.33a16.33,16.33,0,0,0,3.34-.35,26.81,26.81,0,0,1,4.84-.84c1,0,2,.22,3.06.19a13.12,13.12,0,0,0,2.24-.31l3.62-.74.79.82h-.1a13.65,13.65,0,0,0-1.69.19,15.28,15.28,0,0,0-4.45,1.88l-4.46,2.49a22.29,22.29,0,0,1-4.77,2.17,10,10,0,0,0,3.93-.24c.44-.12.86-.26,1.3-.37.93-.26,1.9-.4,2.83-.67a19.61,19.61,0,0,0,2.71-1.08,33.89,33.89,0,0,0,5.79-3.26l.83.86c-3.09.88-5.7,3-8.2,5.06l-3.1,2.55c-.27.22-.54.45-.8.69l-.75.72-.41-.1c-6-1.33-4-5.33-12-7.33-5.06-1.27-7.45-.4-8.52.41,1.7-2,5.42-6.56,3.86-7.08a17.67,17.67,0,0,0-14,6.67s1.33-8.67,0-10c-4,1.33-5.34,9.33-5.34,9.33-4-5.33-14-6-14-6l3.34,6.67s8.66,4.66,6.66,4.66-6.66,0-10,2.67c-3,2.39-4.39,1.05-10.91,5.57,0-.86-.06-1.66-.1-2.39,0-.31,0-.62-.07-.91a2.64,2.64,0,0,0,0-.28c0-.19,0-.36,0-.53s0-.34,0-.49,0-.3-.05-.44,0-.13,0-.2a1.1,1.1,0,0,1,0-.18c0-.24-.06-.45-.08-.61s0-.23,0-.31a1.05,1.05,0,0,1,0-.13s0,0,0,0v0a11.59,11.59,0,0,0-3.28-1.63,5,5,0,0,0-.5-.11c-.74-.11-2,2.43-2.71,3.27-.15.17-.28.28-.37.27l-.1,0c-.74-.37-.3-3.83-.65-3.74a12.9,12.9,0,0,1-4.52,1.16,12.32,12.32,0,0,0-1.13,3.26l-1.29-.14c-.35,0-.68,0-1-.05.17-.95.39-1.93.64-2.86-.56,0-1.15.06-1.81.07l-.39,0h-.25a15.58,15.58,0,0,0-1,3,21.26,21.26,0,0,0-2.54.77c.06-1.17.17-2.32.29-3.32h0a21.49,21.49,0,0,0-4.94,1.81c-.3-.41-.62-.89-1-1.47-2.7-4.51-4.8-3.22-7.94-1.92a40.33,40.33,0,0,1-5.23-4.38l-5.8-5.46a23.43,23.43,0,0,0-6-4.57c-.37-.17-.75-.32-1.13-.46-.2-.32-.41-.67-.62-1.06l.64-.4,5.2,2.5a20.5,20.5,0,0,0,3.26,1.34c1.54.43,3.16.49,4.71.88,2.49.62,4.68,2.06,7,3.13a26.06,26.06,0,0,0,4.91,1.81,67.36,67.36,0,0,0-15.74-9.1c-.83-.34-1.66-.66-2.51-.92a23.67,23.67,0,0,0-4.79-.9l2-1.23q3.31,1.2,6.71,2.12a37.42,37.42,0,0,1,6.16,2,31.21,31.21,0,0,1,4.34,2.67c1.84,1.28,3.68,2.56,5.41,4a25.86,25.86,0,0,0-4.37-5.13,13.4,13.4,0,0,0-1.9-1.47,17.53,17.53,0,0,0-2-1.05L548,413.3a28.22,28.22,0,0,0-2.76-1.22,27.12,27.12,0,0,0-7.5-1.29l2.12-1.31h0c-1.52.39-3,.84-4.5,1.34a1.92,1.92,0,0,0-.31.11h0l-1.34.48c-1,.36-1.93.76-2.88,1.18-.13-.26-.26-.55-.4-.85.39-.44.76-.89,1.13-1.34s.78-1,1.16-1.43l2-2a38.84,38.84,0,0,0-3.14,5.22,5,5,0,0,0,2.19-1.78l4.61-5.46a1.12,1.12,0,0,1,.38.45,1.65,1.65,0,0,0-.21-.66l1.21-1.43a21.08,21.08,0,0,1,3-3.15,15.65,15.65,0,0,1,3.67-2.08,11.44,11.44,0,0,0-6.65,2.86,23.94,23.94,0,0,0-2.17,2.33l-.41.49a2.72,2.72,0,0,0-.69-.09,4.63,4.63,0,0,0-2.75,1.26c-.33.27-.64.56-1,.86a7.33,7.33,0,0,1,1.29-1.43,8.34,8.34,0,0,0-4,2.24,14.13,14.13,0,0,0-1.36,1.54l-.3-.61a12.26,12.26,0,0,0,2.63-4.47c-.23.22-.45.45-.67.69l.07-.14-.15.22c-.82.89-1.57,1.85-2.4,2.73-3.26-5.73-5.43-1.24-10.8-4.23-6-3.33-1.33-9.33-14-11.33s-4.67,4.67-6.67,6a12,12,0,0,1-2.35,1.05,19,19,0,0,0-2.74-4.59c-1-1.47-1.72-2.61-2.37-.94a25,25,0,0,0-1.48,4,4.29,4.29,0,0,1-.35.94c-.5-.39-1-.8-1.52-1.21a18.21,18.21,0,0,1,1.86-2.89l.23-.28.05-.06a2.88,2.88,0,0,1,.27-.34c-.14-.84-1.16-1.48-2.94-1.39a9.35,9.35,0,0,0-3.93,1.22l0,0h0a11,11,0,0,0-3.49-1.45,12.6,12.6,0,0,0-5-.18h0l-.06,0-.15,0-.2.05-.14,0-.21.06-.13,0-.33.12-.06,0-.28.12-.13.06-.21.1-.14.07-.21.12-.12.07-.23.14-.11.08-.32.23,0,0-.3.24-.1.09-.21.2L469,393l-.19.21-.11.12-.2.24-.1.12-.28.38h2.39l.17,0h.11c1.73.19,3.56.66,2.87,1.81-.54.89-3.38-1.12-5.33-1.11H468l-.24.05c-2,.51-6,4.65-5.75,6.27h2.73l.3,0h0l.3,0h0l.3,0c1.89.21,3.69.84,3.16,2.52s-4.12-1.94-6.73-1.76h0l-.16,0h0l-.17,0h0l-.16.05h0l-.17.06-.14.07-.13.08,0,0-.11.07-.05,0-.12.09,0,0c-.17.14-.35.3-.53.48h0a15.12,15.12,0,0,0-1.7,2.11h0l-.16.26,0,0-.14.22,0,.06a2.53,2.53,0,0,1-.13.22l0,.07c0,.06-.07.13-.11.2l-.06.09-.09.17a.75.75,0,0,1-.07.12.8.8,0,0,1-.08.16.91.91,0,0,1-.07.14.61.61,0,0,1-.07.14l-.07.15-.06.13c0,.06-.05.11-.07.17l-.05.11-.08.18,0,.1c0,.06-.05.13-.08.19l0,.09c0,.06-.05.13-.07.2s0,.05,0,.08l-.06.2a.24.24,0,0,0,0,.08l-.06.2s0,0,0,.06,0,.15-.05.22v.05a1.55,1.55,0,0,0,0,.21v.06a1.23,1.23,0,0,0,0,.2h0l.39-.24h0l.12-.07,0,0,.08-.05.07,0,.12-.07.07,0,.08,0,.09,0,.1-.05.11-.06.1-.06.08,0c1.4-.72,3.42-1.56,4.35-1,2.51,1.57-3.41,2-4,2.14a4.13,4.13,0,0,0-1.17.26h0a2.15,2.15,0,0,0-.4.21l0,0-.17.13,0,0-.14.14h0l-.14.16,0,0c-.08.12-.16.24-.23.37l0,0-.09.2,0,0c0,.06-.05.13-.07.2l0,0a1.87,1.87,0,0,1-.07.22v.05l-.12.51v.05c0,.09,0,.17,0,.27v0l0,.26v0l0,.29v.06l0,.31v.06h0c-.08.63-.42,2.51-.71,4.43h0l0,.19v0l0,.18v0l0,.16v0l0,.17v0l0,.17v.05l0,.14v.07l0,.13v.05l0,.14v.06l0,.13v.06c0,.11,0,.21,0,.31-.39-.08-.82-.18-1.28-.3-8-2-8.67,1.17-13.67-.83a13.37,13.37,0,0,0-9-.5s3.5-7,2.5-7.5a13.05,13.05,0,0,0-8,4s0-8.5-1.5-9.5c-4.5,2-5,17.5-5,17.5s-4.5-8-6.5-7.5c-1,4,3,7.5,3.5,10.5,0,0-1,1.5-6,4s-2,4.5-2,4.5a31,31,0,0,0-8,1.5c-5,1.5-1.5,7.5-5,10.5s-7,2-9-3-6-2.5-6-2.5a4.69,4.69,0,0,0,0-1.74l2.67.92a10.4,10.4,0,0,0,3,.66l.27,0-.06,0a4.63,4.63,0,0,0,.65,0,6.58,6.58,0,0,1-1.8-.84c-.39-.26-.75-.55-1.13-.81s-.62-.4-.94-.59l-3.6-2.17c-2.9-1.75-5.93-3.55-9.27-4l.73-1a35.7,35.7,0,0,0,6.5,2.48,20.36,20.36,0,0,0,3,.71c1,.14,2,.14,3,.26.46.05.93.14,1.4.18a10.32,10.32,0,0,0,4.1-.35,22.83,22.83,0,0,1-5.27-1.52l-5-1.89a16,16,0,0,0-4.91-1.27,17.45,17.45,0,0,0-1.77.06H371l.7-1,3.87.21a13.28,13.28,0,0,0,2.36,0c1.07-.13,2.09-.51,3.15-.67a27.66,27.66,0,0,1,5.14.14,17.91,17.91,0,0,0,3.51-.15,45.37,45.37,0,0,0-12.1-1.58c-.59,0-1.19,0-1.78.08a15.86,15.86,0,0,0-3.2.68l.91-1.28c1.58-.07,3.14-.21,4.7-.41a24.24,24.24,0,0,1,4.32-.37,20.48,20.48,0,0,1,3.38.53c1.47.32,2.94.63,4.38,1.07a17.46,17.46,0,0,0-4-2.05,10.12,10.12,0,0,0-1.55-.42,12.15,12.15,0,0,0-1.48-.14l-2.11-.12a19.46,19.46,0,0,0-2,0,18.26,18.26,0,0,0-5,1.13l1-1.36,0,0c-.84.63-1.65,1.3-2.44,2a1.14,1.14,0,0,0-.16.15h0l-.71.64c-.59.55-1.17,1.13-1.71,1.72l-.23.16h.08a37.21,37.21,0,0,0-2.58,3.28l0,0a6.61,6.61,0,0,0,.26-.83,9,9,0,0,1,.48-1.41c.12-.28.25-.55.36-.82a7.77,7.77,0,0,0,.31-.8l-.42,2.48a8.48,8.48,0,0,0,1.9-3.84c.11-.4.23-.79.35-1.18l.74-1.77a27.33,27.33,0,0,0-.6,4,3.33,3.33,0,0,0,.9-1.67l1.45-4.57a.78.78,0,0,1,.35.18,1,1,0,0,0-.3-.35c.13-.4.25-.8.38-1.2a14,14,0,0,1,1.07-2.74,10.94,10.94,0,0,1,1.73-2.23,7.69,7.69,0,0,0-3.37,3.49,15.49,15.49,0,0,0-.75,2c0,.14-.08.28-.13.41a1.69,1.69,0,0,0-.44.12,3.13,3.13,0,0,0-1.38,1.49,7,7,0,0,0-.37.78,5.2,5.2,0,0,1,.43-1.22,5.51,5.51,0,0,0-1.89,2.42,14.58,14.58,0,0,0-.84,3c-.26,1.32-.47,2.66-.66,4-.18-.1-.37-.21-.56-.34l0-.18a44.73,44.73,0,0,1,1.22-5.39,8.37,8.37,0,0,0,.5-3.52q-.14.3-.24.6a.34.34,0,0,1,0-.1l0,.18a23.87,23.87,0,0,1-1.23,3.31c-.39.71-.91,1.34-1.23,2.08a4.56,4.56,0,0,0-.18.52,2.07,2.07,0,0,1,0-.22c.09-.55.25-1.09.31-1.64a21,21,0,0,1,.09-2.39c-.23.1-.31.36-.38.6L364,430.38l-.44-.38a9.29,9.29,0,0,0-4.5-2.49c.09-.29.17-.58.27-.87-.1.28-.18.58-.27.87-1.93-.38-3.6.09-6-.51-4-1-2.5-4.5-5.5-7.5A12.68,12.68,0,0,0,341,416s8-6.5,5.5-8.5c-3.1-.85-4.93.06-5.94,1,1.55-2.22,4.16-6.15,3.44-6.51-2.5-.5-9.5,8.5-9.5,8.5a11,11,0,0,0-12,0s-2-7-9.5-7-6.5,2-9.5,3.5-.5,5.5-7,4.5S293,417,293,417s1.5,4-2.5,3.5-1-4-5-3,2,2,1,6.5-4,1.5-6.5,4,5.5,2.5,6,5.5-7.5,4-12,2-4,4-6,3.5-5,3.5-7,5.5l-.08.09a22.12,22.12,0,0,0-6.75,1.77h0l0,0-.23.1-.09,0-.8.38h0l-.23.11-.07,0-.22.11-.09,0-.19.09-.27.15h0c-.39.1-.79.18-1.18.27.08-.54.17-1.09.26-1.63.39-.17.78-.31,1.16-.49l.3-.05.24,0,.28-.06.25-.05.33-.07a23.43,23.43,0,0,0,7.17-2.91c1.36-.93,2.53-1.67,3.91-2.73a11.94,11.94,0,0,0,1.24-1.12h0c.63-.64,1.2-1.33,1.77-2,.07-.07.13-.15.2-.23h-.43l-.19,0h-.05l-.16,0H267l-.15,0h-.06l-.21,0h-.06l-.15,0-.08,0-.17,0H266l-.21,0-.09,0-.13,0-.1,0-.11,0-.22.06-.05,0h0a9.58,9.58,0,0,0-1.06.39,32.24,32.24,0,0,0-4.84,2.27,29.87,29.87,0,0,0-6.17,4.87h0l-.27.28-.06.08-.21.23,0,0-.22.27-.06.07-.08.1c-.35.17-.7.29-1.06.44.2-1.18.41-2.35.65-3.51l0,0a7.39,7.39,0,0,0,1.13-1.44l.09,0,.07,0,.22-.09h0l.2-.09.08,0,.23-.11.06,0,.21-.11.07,0,.26-.15,0,0,.25-.16,0,0,.29-.19h0c3.12-2.11,7-6.41,8.08-9.53l0,0s0-.08,0-.12l0-.06c0-.06,0-.12.05-.17a.29.29,0,0,0,0-.09l0-.08a.3.3,0,0,1,0-.1s0-.05,0-.07a.45.45,0,0,0,0-.16v-.06a.36.36,0,0,0,0-.11v0a.92.92,0,0,0,0-.16h0l0,0h-.06l0,0h0l-.06,0h0l-.05,0,0,0-.05,0,0,0-.08,0,0,0-.05,0-.05,0,0,0-.22.14h0l-.08.06h0a23.28,23.28,0,0,0-2.68,1.9c-2.3,2-5.63,5.42-6.74,8.63h0c0,.05,0,.1-.05.15l0,.06c0,.09,0,.19-.08.28l0,.08,0,.05a5.73,5.73,0,0,1-1,1.37c.19-.88.39-1.76.63-2.63l0-.06,0-.06c.06-.09.12-.18.17-.27l0-.06.17-.29,0,0c.19-.33.38-.66.55-1v0c.06-.1.11-.2.16-.3l0,0,.15-.32h0c.11-.22.21-.44.31-.66l0,0,.12-.27,0-.07c0-.09.07-.17.1-.26l0-.06.13-.33h0a24.83,24.83,0,0,0,1.52-11.1h0l-.06-.69v-.13a1.1,1.1,0,0,1,0-.18v0c0-.31-.06-.59-.1-.85l-.15.16,0,0-.11.12-.05.07-.1.12-.06.07-.1.14-.05.07-.12.17,0,0c-.1.15-.21.32-.31.5l0,0-.13.24,0,.06-.11.22,0,.08-.11.22,0,.08a1.89,1.89,0,0,0-.11.25l0,.06c-.1.21-.19.44-.29.66l0,.06c0,.1-.07.19-.11.28l0,.11-.09.24,0,.13c0,.08,0,.15-.08.22l0,.09h0a22,22,0,0,0-1,4.9c-.17,1.8-.17,3.53-.17,5.1h0c0,.62,0,1.23,0,1.8v0c0,.09,0,.19,0,.28v.4c-.32,1.19-.58,2.38-.81,3.58a4.09,4.09,0,0,1-1-1,15,15,0,0,0-.38-3.85h0c0-.14-.06-.28-.1-.42v0c0-.13-.07-.27-.11-.41v0c0-.13-.07-.26-.11-.39v-.06l-.12-.38,0-.07-.12-.37,0-.08-.12-.35v0h0a18.18,18.18,0,0,0-1.45-3.13h0l0-.05-.15-.24-.09-.15-.16-.24-.09-.14-.16-.23-.11-.15-.15-.2-.12-.15-.15-.19a1.83,1.83,0,0,0-.13-.16l-.15-.17-.14-.15A1.29,1.29,0,0,0,246,430l-.13-.14c-.1-.1-.2-.2-.31-.29v.94c0,.09,0,.19,0,.29v0c.06,3.06.55,7.16,2.58,9.62h0l0,0c.06.07.12.15.19.22l0,0,.21.22,0,0a4.4,4.4,0,0,0,.46.4l0,0,.24.17,0,0,.23.15,0,0a2.2,2.2,0,0,0,.26.15l.06,0,.22.1a4.38,4.38,0,0,0,1.07,1.12c-.18.93-.34,1.87-.49,2.81a12.14,12.14,0,0,1-1.1-.78h-.05l-.09-.19,0-.05-.15-.27v0l-.16-.26h0a21.26,21.26,0,0,0-6.58-6.1l-.07-.05-.32-.2-.12-.08-.27-.16-.16-.1-.23-.14-.18-.1-.22-.13-.19-.1-.21-.12-.19-.11-.22-.12-.18-.09-.4-.21.06.16,0,.07,0,.09,0,.1,0,.07a.69.69,0,0,0,0,.13v0l.07.16h0c1.25,3,4.39,7.28,7.63,8h0l.21,0h.06l.16,0h.82l.14,0h.08l.22,0,.29-.07c.38.28.75.57,1.16.82-.19,1.18-.38,2.37-.6,3.55-.43-.22-.89-.4-1.31-.66h0l-.14-.14v0l-.23-.22h0l-.24-.23h0a27.25,27.25,0,0,0-8.13-5h0l-.1,0h0l-.29-.09h0l-.11,0h0l-.11,0h0l-.1,0h0l-.12,0h0l-.24,0h-.52l.09.19.05.09a.54.54,0,0,0,0,.11l.09.16a.41.41,0,0,1,.05.09l.07.11.06.09.05.08h0c1.29,1.91,3.88,3.45,6.41,4.33h0l.57.18h0l.54.16h0l.25.07h0l.25.06h.07l.22.05h.05l.22,0,.08,0,.2,0h.06l.2,0h.08l.2,0h0l.2,0h.19c.42.26.9.45,1.34.68l-.14.83a7.11,7.11,0,0,0-1.81,2.22h0l0,0h0l0,0h0l-.33-.22,0,0h0c-.73-.46-2-1.24-3.62-2.21a13,13,0,0,0-2.18-1h0l-.16-.06-.2-.08-.16-.05-.31-.1-.16-.05-.24-.07-.2-.06-.27-.07-.16,0-.34-.08-.15,0-.26-.05-.16,0-.36-.06-.14,0-.3,0h-.12l-.4-.05h-.12l-.42,0a7.73,7.73,0,0,0,1.41,1.74l.06.06.12.11.15.13,0,0a11.33,11.33,0,0,0,1,.72h0a13.08,13.08,0,0,0,3.49,1.48h0l.1,0,.08,0,.1,0,.13,0H244l.17,0h0a13,13,0,0,0,4,.34c-.44.75-.93,1.61-1.63,2.59l-.48-.39h0l-.28-.21-.06,0-.27-.18,0,0h0a10.66,10.66,0,0,0-2-1.06l-1.3-.5h0l-.14-.05h0l-.25-.08-.07,0-.18-.06-.07,0-.22-.07-.09,0-.16,0-.08,0-.21-.06-.09,0-.17,0-.06,0-.17,0a28.07,28.07,0,0,0-2.15-3.28c-.27-.36-.55-.71-.83-1.05h0c-.2.43-.41.88-.64,1.33a1607839673474.54,1607839673474.54,0,0,1-.2.38c-.51,1-1.09,2-1.69,2.95l-.18.28a23.39,23.39,0,0,1-2.43,3.22l-.22.23h0a4.84,4.84,0,0,0-.14-1.9,10.53,10.53,0,0,0,3-3.2c.15-.24.31-.5.45-.78l.15-.28a18.87,18.87,0,0,0,1.19-3.09c-.37-.41-.74-.82-1.12-1.21s-.75-.78-1.14-1.15a40.3,40.3,0,0,1-4.77,7.5,8.08,8.08,0,0,0-3.36-.67,2.75,2.75,0,0,1,1-1.2l.21-.17a18.23,18.23,0,0,0,1.68-1.41l.28-.28h0l.27-.3a2.09,2.09,0,0,1,.14-.17c.09-.11.18-.22.26-.34h0l.27-.37h0a8.43,8.43,0,0,0,.49-.84,1.27,1.27,0,0,0,.12-.23,12.91,12.91,0,0,0,1.11-3.59l-.36-.29c-.35-.3-.71-.58-1.06-.85s-.94-.72-1.4-1.05c0,.18-.05.36-.08.54-.06.35-.13.71-.21,1.05,0,.17-.07.34-.12.51a11.28,11.28,0,0,1-.78,2.24,1.14,1.14,0,0,1-.1.19,2.63,2.63,0,0,1-2.11,1.67c-1.83.08-1.1-.58-.18-2.35l.11-.22c.12-.23.23-.47.34-.73s.15-.36.22-.55.2-.58.29-.9a9.58,9.58,0,0,0,.23-1,6,6,0,0,0,.11-.74,9.49,9.49,0,0,0,.08-1.22c-.87-.56-1.68-1.06-2.42-1.5l-.79-.45-.25-.14-.47-.26-.43-.23-.38-.21-.18-.09-.17-.09-.55-.27-.28-.14-.12-.05,0,0h0a11.77,11.77,0,0,0-3.2,1.79q-.19.18-.36.36c-.51.54.89,3,1.19,4.08.06.22.07.38,0,.45l-.09.07c-.72.41-3.34-1.91-3.46-1.56a12.87,12.87,0,0,1-1.58,4.39c.17.3.35.57.52.84-2-.43-3.06-1.94-5.14-4.85-2.5-3.5-7.5-.5-10-2s-2-3.5-7.5-5-10.5,2.5-10.5,2.5,3.5-7,1.5-6.5c-7,5-7,7-7,7-2.5-4-10-5-10-5,1,5,11,8.5,6,8.5a6.38,6.38,0,0,0-3,.7,6.24,6.24,0,0,0-3,3.8l5-1s-1.5,4.5-6,5a6,6,0,0,0-4.25,2.62l-.08,0-.11,0-.11,0-.22.07h0q-.54.18-1.05.39a31.35,31.35,0,0,0-4.84,2.27,29.94,29.94,0,0,0-6.18,4.87h0a3.45,3.45,0,0,0-.26.28l-.07.07-.2.23-.05.06-.23.26-.06.08-.08.1c-.34.16-.7.29-1.05.44.19-1.18.4-2.35.64-3.52l0,0a7.46,7.46,0,0,0,1.14-1.43l.08,0,.07,0,.22-.08.05,0,.19-.08.08,0,.24-.12.05,0,.21-.12.07,0a1.35,1.35,0,0,0,.26-.15l0,0,.25-.16.05,0,.29-.2h0c3.12-2.11,7-6.4,8.09-9.53v0a.49.49,0,0,0,0-.11l0-.06a1.21,1.21,0,0,0,.05-.18l0-.08a.29.29,0,0,1,0-.09s0-.06,0-.09,0-.05,0-.08l0-.15v-.06s0-.08,0-.11v-.06s0-.11,0-.16h-.07l0,0h0l0,0h0l-.06,0h0l0,0,0,0-.05,0,0,0-.08.05,0,0,0,0-.05,0,0,0-.22.13,0,0-.08,0h0a22.64,22.64,0,0,0-2.69,1.91c-2.3,2-5.62,5.41-6.73,8.62h0l-.06.15,0,.06a2.76,2.76,0,0,1-.08.27l0,.09v0a5.79,5.79,0,0,1-1,1.37c.18-.88.39-1.75.62-2.62l0-.06,0-.06c.05-.09.11-.18.17-.27l0-.06c.06-.1.12-.19.17-.29l0,0c.2-.33.38-.66.55-1l0,0,.15-.3,0,0,.15-.31h0c.1-.22.21-.44.3-.65l0-.05.12-.27,0-.07c0-.08.07-.17.11-.25l0-.06c0-.11.09-.22.13-.33h0a24.85,24.85,0,0,0,1.53-11.1h0c0-.24,0-.47-.07-.69v-.14c0-.06,0-.12,0-.18v0c0-.31-.07-.59-.1-.84l-.15.15-.05,0-.11.12-.05.06a1.47,1.47,0,0,0-.1.13l-.05.06-.11.15,0,.06-.12.18,0,0-.31.51v0c-.05.07-.09.15-.14.23l0,.07-.12.22,0,.07a2.4,2.4,0,0,1-.11.23l0,.08a2.56,2.56,0,0,1-.11.24l0,.07c-.1.21-.19.43-.28.66l0,.06c0,.09-.07.18-.1.28l-.05.11-.08.23-.05.14c0,.07,0,.14-.08.22l0,.08h0a22.08,22.08,0,0,0-1,4.89,50.22,50.22,0,0,0-.16,5.1h0v2.25a1.48,1.48,0,0,0,0,.21v.05c-.32,1.19-.58,2.38-.81,3.58a4.22,4.22,0,0,1-1-1,15,15,0,0,0-.39-3.85h0l-.09-.43v0c0-.14-.07-.27-.1-.41v0c0-.13-.08-.26-.11-.4l0-.05c0-.13-.08-.26-.11-.38l0-.07c0-.13-.07-.25-.12-.37a.19.19,0,0,0,0-.08c0-.12-.08-.24-.13-.36h0a18.86,18.86,0,0,0-1.45-3.12h0l0-.06-.14-.23a1.4,1.4,0,0,1-.1-.16l-.15-.23-.1-.15c0-.07-.1-.15-.16-.22l-.1-.15-.16-.21-.11-.15c0-.06-.11-.12-.16-.19l-.12-.15-.16-.17c0-.06-.09-.11-.13-.16a1.29,1.29,0,0,1-.16-.17l-.14-.13-.3-.29v.65a1.77,1.77,0,0,0,0,.23v.38c.06,3.06.55,7.16,2.59,9.62h0v0l.19.21,0,0,.21.22,0,0,.46.4,0,0,.24.17,0,0,.23.14,0,0,.26.14.07,0,.21.1a4.74,4.74,0,0,0,1.07,1.12c-.18.93-.33,1.87-.49,2.8-.38-.23-.73-.51-1.09-.77l-.05,0-.09-.18,0-.05c0-.09-.1-.19-.16-.28v0l-.15-.26h0a21.25,21.25,0,0,0-6.57-6.11l-.08-.05-.31-.2-.13-.07-.26-.17-.16-.09-.24-.14-.18-.11-.21-.12-.19-.11-.21-.11-.2-.11-.22-.12-.18-.1-.39-.21a1.09,1.09,0,0,0,.05.17l0,.06a.42.42,0,0,1,0,.1.42.42,0,0,0,0,.1l0,.07s0,.08,0,.13l0,0,.06.16h0c1.25,3,4.39,7.28,7.63,8h0l.21,0H142l.17,0h1l.22,0,.28-.08a11.58,11.58,0,0,0,1.16.82c-.19,1.19-.38,2.37-.59,3.56a14.58,14.58,0,0,1-1.31-.66h0l-.14-.15h0l-.22-.22,0,0-.24-.23h0a27.17,27.17,0,0,0-8.13-5h0l-.09,0h0l-.29-.09h0l-.11,0h0l-.1,0h0l-.11,0h0l-.12,0h0l-.24,0h-.51l.09.2,0,.08.06.12.08.16.06.09.06.1.06.09.06.09h0c1.3,1.92,3.89,3.46,6.41,4.34h0l.57.19h0c.18.05.36.11.54.15l0,0,.26.06h0l.25,0,.07,0,.22.05h0l.22,0h.08l.2,0H142l.21,0h.07l.2,0h0l.2,0h.19c.43.27.9.45,1.35.68,0,.14-.06.3-.08.45a21.4,21.4,0,0,1-2,2.55l0,0h0l-.34-.21,0,0,0,0c-.74-.46-2-1.23-3.63-2.2a13.68,13.68,0,0,0-2.17-1h0l-.16-.06-.2-.07-.16-.05-.31-.11-.16-.05-.24-.07-.2-.05-.27-.07-.16,0-.33-.08-.15,0-.27-.06-.15,0-.37-.06-.14,0-.3,0-.12,0-.39,0h-.13l-.42,0a7.57,7.57,0,0,0,1.41,1.75l.07.06.11.1.15.13,0,0a9.47,9.47,0,0,0,1,.71h0a12.72,12.72,0,0,0,3.49,1.48h0l.1,0,.09,0,.1,0,.12,0,.06,0,.16,0h0a14.33,14.33,0,0,0,3.69.36,9.59,9.59,0,0,1-2.66,1.62,10.22,10.22,0,0,0-1.9-1c-.35-.15-.8-.33-1.29-.5h0l-.14-.05h0l-.25-.08-.06,0-.19-.06-.07,0-.21-.07-.1,0-.16,0-.08,0-.21-.06-.09,0-.17-.05h-.05l-.21-.05H134l-.19,0h0l-.2,0h0l-.19,0a18.62,18.62,0,0,0-2.08,0,7,7,0,0,0,2.11,2.21l.19.13h0l.16.1,0,0,.14.09h0l.14.08,0,0,.13.07h0l.14.07h0a6.48,6.48,0,0,0,.81.31c-2.5-.16-3.61-2.17-4.72-3.64a9.45,9.45,0,0,0-3.84-3.49l.16,0-.06,0a3.38,3.38,0,0,0,.62-.18,6.51,6.51,0,0,1-1.94-.44c-.43-.17-.84-.38-1.27-.55s-.69-.26-1-.38l-2.37-.82a20.47,20.47,0,0,0-1.67-2.5h.59c1-.08,2-.29,3-.39.47,0,.94-.06,1.4-.11a10.57,10.57,0,0,0,3.94-1.2,22.8,22.8,0,0,1-5.46-.39l-5.29-.79a15.68,15.68,0,0,0-5.06-.22l-.13,0a4.66,4.66,0,0,1-.11-.52c-.08-.1-.16-.18-.25-.28l3-.47a13.06,13.06,0,0,0,2.31-.51c1-.35,1.93-.93,2.93-1.31A26.89,26.89,0,0,1,125,452a18.07,18.07,0,0,0,3.4-.88,45.16,45.16,0,0,0-12.16,1c-.58.13-1.16.27-1.73.45a16.27,16.27,0,0,0-3,1.34l.62-1.44c1.53-.4,3-.86,4.51-1.39a24.51,24.51,0,0,1,4.15-1.27,20.41,20.41,0,0,1,3.41-.19c1.5,0,3,0,4.51.13a17.49,17.49,0,0,0-4.38-1.16,10.66,10.66,0,0,0-1.6-.09,12.2,12.2,0,0,0-1.48.18l-2.09.32a19.38,19.38,0,0,0-2,.38,18.23,18.23,0,0,0-4.63,2.16l.67-1.54v0c-.69.79-1.34,1.61-2,2.46l-.13.17h0l-.56.78c-.09.13-.16.26-.25.39l-.2-.15a7.54,7.54,0,0,0,.12-.83l.45-4.77a.75.75,0,0,1,.38.1,1.09,1.09,0,0,0-.36-.28l.12-1.25a14.15,14.15,0,0,1,.47-2.9,10.17,10.17,0,0,1,1.23-2.55,7.79,7.79,0,0,0-2.58,4.12,16.49,16.49,0,0,0-.3,2.11c0,.15,0,.29,0,.43a1.44,1.44,0,0,0-.41.21,3.09,3.09,0,0,0-1,1.75,7.68,7.68,0,0,0-.19.83,5,5,0,0,1,.16-1.28,5.48,5.48,0,0,0-1.3,2.6,5.47,5.47,0,0,0-.55-.13,5.57,5.57,0,0,0-.31-2c0,.21-.08.42-.11.64,0,0,0-.07,0-.11v.18c0,.41-.09.82-.13,1.23a7.25,7.25,0,0,0-3.23.29s3-4,1.5-5.5c-6.5-1-14,1.5-14,1.5s3-3,1.5-5.5c-3-1.5-9,3-9,3s2-5-.5-6c-3.5,0-5,6.5-5,6.5s-1.5-7.5-4-6.5a4.64,4.64,0,0,0-1.63,4.11s0-.07-.06-.09a27,27,0,0,1-.89,2.86,6.59,6.59,0,0,0-.67.23c-.12-.5-.25-1-.33-1.5a28.9,28.9,0,0,1-.08-4.56l0-.24a.74.74,0,0,1,0,.14q0-.42,0-.84a10.86,10.86,0,0,0-.91,4.49c-.07,1.13-.16,2.26-.28,3.38a8.32,8.32,0,0,0-.77.62c.09-.54.19-1.09.27-1.64a18.56,18.56,0,0,0,.26-4,7.17,7.17,0,0,0-1.27-3.76,6.15,6.15,0,0,1,0,1.66c0-.36,0-.73-.1-1.1a4,4,0,0,0-1-2.4,1.87,1.87,0,0,0-.49-.34c0-.18,0-.37,0-.55a19.54,19.54,0,0,0,0-2.76,9.93,9.93,0,0,0-2.62-5.7A13.82,13.82,0,0,1,63.5,431a19.28,19.28,0,0,1,.13,3.8l-.06,1.62a1.4,1.4,0,0,0-.51.3,1,1,0,0,1,.51-.07l-.21,6.19a4.48,4.48,0,0,0,.38,2.41,33.63,33.63,0,0,0,1-5.18l.14,2.48c0,.53,0,1.06-.07,1.59a10.83,10.83,0,0,0,.66,5.49c.18-1.07.37-2.13.55-3.19,0,.36,0,.73,0,1.1s.07.77.1,1.15,0,.56,0,.85a7.37,7.37,0,0,0-.52.93c-.4-1.29-.84-2.58-1.36-3.83l.1,0-.21-.29c-.41-1-.86-1.91-1.35-2.84-.19-.36-.38-.73-.58-1.09h0c0-.08-.09-.16-.14-.24-.66-1.18-1.36-2.34-2.11-3.47l0,0,.61,2.08A23.44,23.44,0,0,0,55,437.24a23.18,23.18,0,0,0-2.48-.81l-2.62-.76a15.45,15.45,0,0,0-1.87-.46,12,12,0,0,0-2.07-.15,22.18,22.18,0,0,0-5.79.76c1.94.09,3.87.33,5.79.57a27.64,27.64,0,0,1,4.34.8,32,32,0,0,1,5.1,2.31c1.81.92,3.67,1.76,5.55,2.52l.57,2a19.91,19.91,0,0,0-3.61-2.2c-.69-.33-1.42-.6-2.14-.86a58.44,58.44,0,0,0-15.41-3.27,23.29,23.29,0,0,0,4.21,1.69c2.12.65,4.36,1,6.32,2,1.23.65,2.3,1.55,3.54,2.16a16.48,16.48,0,0,0,2.88,1L62.12,446l.44,1.49-.13-.06a18.46,18.46,0,0,0-2.13-.84,20.44,20.44,0,0,0-6.53-.56l-5.73.13a19.24,19.24,0,0,0-2-2.63c-4-4.5-5,0-6-5.5s-5.5-3.5-7-6c4.5-1,9-3,7.5-4-2-3-8.5-2-12-3,3.5-1,7.5-7,5.5-8-9.5,0-9.5,4.67-9.5,4.67C23.2,409,13.2,412.33,13.2,412.33c-4.18-5.7-9.45-6.41-13.2-6V500H750V364.73A14.71,14.71,0,0,0,745.2,365.67ZM71.53,444.48A7.65,7.65,0,0,0,72,446a5.8,5.8,0,0,0-.6.13C71.46,445.58,71.5,445,71.53,444.48Zm-8.38,5,.46,1.55c-.13,0-.26,0-.38-.06a8.75,8.75,0,0,0-2.55-1.24C61.51,449.68,62.33,449.6,63.15,449.48Zm-9,.24,1.93.07c-1.67.36-3.16.81-4.57.21a8.52,8.52,0,0,1-1.38-.72l.1,0A27.14,27.14,0,0,0,54.17,449.72Zm55,2.72.36-1.89a26.5,26.5,0,0,0,.12,2.67l-.51-.32Zm36,9.08c.38-.17.78-.3,1.15-.48l.3-.05.24-.05.29-.05.24-.05.33-.07a23.5,23.5,0,0,0,7.17-2.92c.86-.58,1.65-1.1,2.46-1.67A14.29,14.29,0,0,1,156,458c-2.3,2.76-5,1.3-8.56,4.16l-.35.16h0l-.24.12-.07,0-.21.1-.1.05-.18.1a2.44,2.44,0,0,0-.28.14h0l-1.18.28Zm-.51,3.09.21-1.28h0l1.25-.3.18,0h0l.15,0a22,22,0,0,0-1.95,2.23C144.53,465.07,144.57,464.82,144.6,464.61Zm92.89-6.35.15-.11a6.81,6.81,0,0,0,.71.57,10,10,0,0,0-1.24-.21l.11-.07Zm13-9.09.21-1.28h0c.41-.1.83-.18,1.24-.29l.18,0h.05l.16,0h.05l.19,0h0l.24,0h0l.22,0h.29l.51,0h2.29l1.59-.09A12.13,12.13,0,0,1,253,449.5a7.76,7.76,0,0,0-2.74,1C250.37,450,250.45,449.54,250.51,449.17ZM242,456c.89.25,1.72.47,2.56.63l.11,0,.29.05.15,0,.27,0,.14,0,.15,0c-.2.24-.4.49-.63.74a14.06,14.06,0,0,1-1.15,1.16c-.54-.28-1.09-.56-1.67-.81a20.25,20.25,0,0,0-.7-2Zm-1-.31-.31.42c-.24.32-.49.62-.74.92l-.16-.05h0l-.08,0-.18-.05-.11,0-.17-.05h-.05a11.89,11.89,0,0,0,1.12-1.39h0C240.55,455.49,240.76,455.57,241,455.65ZM577.87,453l-.06.13a21.64,21.64,0,0,1-3.5-.21l-.3-.06-.3-.06-.52-.14h0c-.72-.23-1.16-.54-1.2-1a1,1,0,0,1,.25-.68.79.79,0,0,1,.77-.34l.17,0h0l.18,0a1.82,1.82,0,0,1,.3.11l.22.09a12.74,12.74,0,0,0,4.21,1.33C578,452.53,578,452.75,577.87,453Zm-4.5-5.93a.89.89,0,0,1,.06-.3,2.45,2.45,0,0,1,.16-.33l.06-.1a2.27,2.27,0,0,1,.65-.71,2.16,2.16,0,0,1,2-.05l.18.06c0,1.44.95,2,1.54,3.09C575.34,448.65,573.3,448.2,573.37,447.07Zm-15.59,2.69a2.63,2.63,0,0,1-.81-.13,6.33,6.33,0,0,1-1.67-.86,6.56,6.56,0,0,1,1.85-.88C558.65,449,559.29,449.76,557.78,449.76ZM555.39,454l-.09.07a1.79,1.79,0,0,1-.34.19,3.13,3.13,0,0,1-1.09-.58,2,2,0,0,1-.75-2c.48.25.92.49,1.29.72l.05,0,.1.06,0,0,.1.07C555.53,453.08,555.9,453.56,555.39,454Zm15.92,3.6a.93.93,0,0,1,.33-.72.9.9,0,0,1,.44-.25c.53-.1,1.15.39,2.12,1a6.75,6.75,0,0,1-2.14.83C571.62,458.18,571.33,457.9,571.31,457.59Zm9.1-16.69.24,0,.8-.13.57-.13c.29-.07.6-.16.91-.26l.52-.2-.25.18a16.32,16.32,0,0,1-4.57,2.11l-.07-.07C577.47,440.89,578.42,441.13,580.41,440.9Zm-34.53-11.63a16.13,16.13,0,0,0,3.83,1.5,12.73,12.73,0,0,1-4.51.9c-3.61,0-3.51-2.16-3.5-4.66.79.39,1.59.78,2.36,1.21C544.67,428.56,545.27,428.94,545.88,429.27Zm-82.64-13.18c-.15.62-1.21,1.92-1.75,3l-.38.23C462,417.76,463.65,414.36,463.24,416.09ZM487.87,407c-7.34-.67-4.67,0-12.67,3.33s-2.67,5.34-10,7.34a16.38,16.38,0,0,0-2.9,1c.62-1,1.31-2.14,1.52-2.55l0,0h0v0h0v0l0,0v0l0,0,0,0,0,0,0,0,0,0,0,0,0-.05,0,0,0-.05,0,0,0-.06,0-.05,0-.06,0-.06,0-.06,0-.06,0-.06.05-.07.05-.07,0-.06.05-.07.05-.07.06-.08.05-.06.05-.08,0-.07.07-.09,0-.07.06-.08.06-.08.06-.08.06-.07.07-.09.06-.07.07-.09.06-.08.07-.09.06-.08.08-.08.06-.08.08-.09.07-.08.08-.09.06-.07.09-.1.06-.06.09-.1.06-.07.09-.1,0-.05.27-.27h0a1.29,1.29,0,0,1,.17-.16,32.69,32.69,0,0,1,3.82-3.14l.35-.23.4-.25c1.85-1.24,4.89-1.93,7.06-2.49,3.62-.93,6.58-1.59,9.65-1.29h0C488.77,407.65,494.1,407.57,487.87,407Zm163.86,30.82a35.15,35.15,0,0,0,5.36-3.85,20.13,20.13,0,0,0-1.24,1.91c-.62,1.11-1.15,2.29-1.76,3.4A6.39,6.39,0,0,1,651.73,437.82Zm4.22,2c.94-.81,1.86-1.63,2.72-2.5l-.14.21-1.42,2.26A3.73,3.73,0,0,1,656,439.82Zm8.2-15.52c.17.66.36,1.31.56,2a4.53,4.53,0,0,0,.61,1.36h0a1.27,1.27,0,0,0,.21.25,18.53,18.53,0,0,0,0-3.16l.06.25c.23,1,.61,1.94.87,2.92l-.49.6c-.66-.81-1.35-1.6-2-2.38A5.78,5.78,0,0,0,664.15,424.3Zm.14,4.42.83.86-.21.31a22.49,22.49,0,0,0-2.27,2.09C663.23,430.92,663.77,429.82,664.29,428.72Zm-1.83-1.05.3-.52.86.88c-1,.74-2.07,1.49-3,2.31A26.25,26.25,0,0,0,662.46,427.67Zm-13.74,5.55,5.16-2.67c.5-.26,1-.52,1.49-.82a16,16,0,0,0,1.82-1.36,41.14,41.14,0,0,0,3.55-3.31l1,1a24.52,24.52,0,0,0-9.18,8.36c-.41.62-.78,1.27-1.23,1.85-.12.16-.27.29-.39.44-.67-1.22-.84-2.42-2.8-3.25Zm72.35-54.08a.49.49,0,0,1,.12-.13h0l.14-.12.26-.19.2-.12c.32-.2.71-.43,1.13-.71a2.09,2.09,0,0,1-1.15,2.74.8.8,0,0,1-.44-.05,1,1,0,0,1-.42-.59A.79.79,0,0,1,721.07,379.14Z"/><path class="cls-10" d="M545.73,404.18c-2.56,1.33-5.1,2.95-6.62,5.4l3.45-1a28.37,28.37,0,0,0-2.82,1c4,.86,8.23.42,12.31,1a5.34,5.34,0,0,1,2.46.83,8.37,8.37,0,0,1,1.18,1.2,20.05,20.05,0,0,0,3.48,2.8,7.34,7.34,0,0,0-.92-2.7,8.39,8.39,0,0,0-1-1.58,7.69,7.69,0,0,0-3.91-2,20.81,20.81,0,0,0-7.3-1.18,15.33,15.33,0,0,0-2.44.4l-.94.25,1.46-.42c.75-.21,1.49-.42,2.22-.69,3.73-1.37,6.75-4.19,9.38-7.17A6.8,6.8,0,0,1,558.6,398a6.43,6.43,0,0,0-4.36.9,27.53,27.53,0,0,0-3.65,2.73,10.18,10.18,0,0,1-1.28.9,13.25,13.25,0,0,1-1.55.68C547.07,403.5,546.39,403.84,545.73,404.18Z"/><path class="cls-10" d="M543.16,401.71c-2.09.82-3.53,2.72-4.86,4.54l-3.31,4.5a1.57,1.57,0,0,1,.6-.16,4,4,0,0,0,2-1.34,53.35,53.35,0,0,1,7.81-6.5,3.86,3.86,0,0,1,2.49-.9A6.09,6.09,0,0,0,543.16,401.71Z"/><path class="cls-10" d="M643.78,416.15a3.45,3.45,0,0,1,1.66-.12c2.63.27,5.17,1.2,7.8,1.3a16.85,16.85,0,0,0-1.6-1l2,1.14a10.41,10.41,0,0,0-3.26-4.39c-.36-.32-.72-.63-1.11-.92a9.18,9.18,0,0,1-.85-.66,6,6,0,0,1-.65-.77,17.45,17.45,0,0,0-1.84-2.26,4.1,4.1,0,0,0-2.57-1.25,4.45,4.45,0,0,1,1.4,1.87,15.72,15.72,0,0,0,4.69,5.93c.41.28.85.53,1.28.77l.84.49-.55-.3a9.34,9.34,0,0,0-1.45-.63,13.11,13.11,0,0,0-4.72-.42,4.93,4.93,0,0,0-2.74.65,5.07,5.07,0,0,0-.84.83,4.76,4.76,0,0,0-1,1.53,12.24,12.24,0,0,0,2.6-1.19A5.8,5.8,0,0,1,643.78,416.15Z"/><path class="cls-10" d="M650.81,412.21a33.46,33.46,0,0,1,3.82,5.26,2.62,2.62,0,0,0,1,1.15.88.88,0,0,1,.34.19c-.44-1.11-.89-2.21-1.34-3.32a7.76,7.76,0,0,0-2.31-3.58,3.91,3.91,0,0,0-3-.65A2.46,2.46,0,0,1,650.81,412.21Z"/><path class="cls-10" d="M112.89,450.32l1.53-1.85a17.15,17.15,0,0,0-1.19,1.61c2.55-1.07,4.7-2.91,7.17-4.14a3.63,3.63,0,0,1,1.68-.49,6.2,6.2,0,0,1,1.11.21,13.56,13.56,0,0,0,3,.22,4.76,4.76,0,0,0-1.55-1.14,3.86,3.86,0,0,0-4-.14,14.15,14.15,0,0,0-4.48,2.14,10.87,10.87,0,0,0-1.19,1.16c-.15.16-.29.32-.43.49l.65-.79c.33-.4.66-.8,1-1.23a16.23,16.23,0,0,0,2.43-7.53,4.55,4.55,0,0,1,.69-2.35,4.34,4.34,0,0,0-2.07,2.17,19.2,19.2,0,0,0-1,2.89,5.59,5.59,0,0,1-.37,1,9.56,9.56,0,0,1-.58,1c-.28.42-.52.86-.76,1.31A10.87,10.87,0,0,0,112.89,450.32Z"/><path class="cls-10" d="M111.17,448.8c0,1.24-.07,2.49-.11,3.74a1.39,1.39,0,0,1,.27-.32,2.7,2.7,0,0,0,.59-1.5,35.45,35.45,0,0,1,1.82-6.56,2.57,2.57,0,0,1,1-1.45,4.08,4.08,0,0,0-2.65,1.73A8.09,8.09,0,0,0,111.17,448.8Z"/><path class="cls-10" d="M374.66,425.08l1.88-1.5c-.52.42-1,.86-1.5,1.33,2.72-.51,5.21-1.86,7.88-2.54a3.56,3.56,0,0,1,1.74-.12,5,5,0,0,1,1,.43,13.6,13.6,0,0,0,2.88.84,4.68,4.68,0,0,0-1.27-1.43,5,5,0,0,0-1-.73,5.17,5.17,0,0,0-2.95-.26,13.89,13.89,0,0,0-4.82,1.15,10.74,10.74,0,0,0-1.41.88l-.52.39.8-.63c.41-.32.82-.65,1.2-1a16.26,16.26,0,0,0,3.95-6.86,4.71,4.71,0,0,1,1.17-2.15,4.29,4.29,0,0,0-2.47,1.69,18.66,18.66,0,0,0-1.56,2.62,6.43,6.43,0,0,1-.56.9,10,10,0,0,1-.78.82c-.35.35-.69.73-1,1.12A10.88,10.88,0,0,0,374.66,425.08Z"/><path class="cls-10" d="M373.29,423.22c-.29,1.22-.59,2.43-.88,3.64a1.2,1.2,0,0,1,.33-.25,2.64,2.64,0,0,0,.88-1.34,35.47,35.47,0,0,1,3.17-6,2.57,2.57,0,0,1,1.3-1.2,4.09,4.09,0,0,0-2.95,1.13A8.11,8.11,0,0,0,373.29,423.22Z"/><path class="cls-10" d="M48,431.54a7.12,7.12,0,0,1,1.46-.09,4.73,4.73,0,0,1,2.06.89c3,2,5.42,4.7,8.51,6.48a23.54,23.54,0,0,0-1.26-2.25c.55.87,1.1,1.75,1.66,2.62a14,14,0,0,0-1.13-7.3c-.23-.61-.47-1.22-.75-1.81a13.2,13.2,0,0,1-.6-1.33,8.54,8.54,0,0,1-.3-1.33,24.86,24.86,0,0,0-.76-3.86,5.57,5.57,0,0,0-2.29-3.11,6,6,0,0,1,.5,3.11c0,3.45.27,7,1.87,10.05.31.6.67,1.17,1,1.73l.7,1.12c-.15-.24-.3-.47-.46-.7a13.52,13.52,0,0,0-1.34-1.68,18,18,0,0,0-5.38-3.47,6.67,6.67,0,0,0-3.7-.95,6.67,6.67,0,0,0-1.52.46,6.1,6.1,0,0,0-2.16,1.2A17.23,17.23,0,0,0,48,431.54Z"/><path class="cls-10" d="M60.34,431.16a45.64,45.64,0,0,1,1.27,8.71,3.42,3.42,0,0,0,.5,2,1.25,1.25,0,0,1,.29.44l.48-4.81c.2-1.94.37-4-.5-5.74a5.25,5.25,0,0,0-3.11-2.64A3.26,3.26,0,0,1,60.34,431.16Z"/><path class="cls-9" d="M0,346.6a12.65,12.65,0,0,1,1-1.82c-.33.19-.65.4-1,.61Z"/><path class="cls-9" d="M53.21,426.23a108.23,108.23,0,0,0-10.51,4.51,30.56,30.56,0,0,1-3.07-1.28c3.1-5.48,6.87-10.25,12.83-10.93l-2.34-5.46c2.55,2.89,7.25.87,10.44-1.29l7.87-5.33c2.09-1.42,4.25-2.9,5.6-5a117.61,117.61,0,0,0,19.24-9.22A186.72,186.72,0,0,0,41.55,406.1c-.88-.68-1.78-1.33-2.69-2l-12.14-8.6c-8.38-5.93-17.07-12-26.72-15.12v9.44c1.9,1.5,3.83,3,5.79,4.36a62.3,62.3,0,0,0,7.13,4.54c1.85,1,3.79,1.8,5.72,2.63l17.13,7.33q-5.54,2.61-10.9,5.57l-.87.5A91.18,91.18,0,0,0,0,393.16v54.22l3.41,1.82a43.18,43.18,0,0,0,3,4.13A64.92,64.92,0,0,0,0,459.68v.5c1.45,3.09,19.4,19.8,22.31,20.16,6.75.84,14.94-11,21-14.41l-7.08-14,13.51,10.17a105.09,105.09,0,0,1,15.54-13.65l-1.62-6.21c3.17,4.39,9.91,3.88,14.91,1.81s9.88-5.31,15.28-4.93c-.23-1.13-.45-2.25-.68-3.38a67.15,67.15,0,0,0,27.92-6.2A89.14,89.14,0,0,0,53.21,426.23Zm-49.28,3-.61-.83-.55-.75c.48.43,1,.84,1.48,1.26Zm9-7.48-.11-.17a69.32,69.32,0,0,0-5.09-6.72q3.66,2.78,7.54,5.27Q14,421,12.89,421.78Zm24.65,11.58.77-1.48c.48.13,1,.24,1.45.33C39,432.59,38.27,433,37.54,433.36Z"/><path class="cls-9" d="M11.18,332.81a54,54,0,0,0-3.13,6.88l-.57,1.42a5.4,5.4,0,0,0-1.6.3c-2.31.82-4,2.82-5.27,4.89-.21.34-.41.69-.61,1v11.94l1.14-3,3.07-6.06a94.76,94.76,0,0,0-3.16,14.12c1.84-1.32,2.77-3.54,3.61-5.65q3.14-7.89,6.28-15.77a2.77,2.77,0,0,1,1.19.75,3.58,3.58,0,0,0-1-1.33l1.65-4.14a51.5,51.5,0,0,1,4.49-9.38A37.29,37.29,0,0,1,24,321.38,27.34,27.34,0,0,0,11.18,332.81Z"/><path class="cls-9" d="M28.24,359.08c5.11-.29,10.25-.79,15.34-.19a72.71,72.71,0,0,1,11.78,2.76c5.1,1.5,10.21,3,15.17,4.92a61.08,61.08,0,0,0-13.7-8.28,34.15,34.15,0,0,0-5.36-1.9,48,48,0,0,0-5.21-.88l-7.41-1a71.07,71.07,0,0,0-7.13-.69c-6-.17-12,1.22-17.87,2.72L17.66,352l-.08,0c-3.11,2-6.16,4.15-9.11,6.4a5.61,5.61,0,0,0-.62.47h0c-.89.69-1.78,1.38-2.65,2.09q-2.67,2.14-5.2,4.46v11.46a134.92,134.92,0,0,0,20.17,9.19,70.65,70.65,0,0,0,10.29,3.26c3.52.76,7.13,1,10.66,1.7,1.64.32,3.25.72,4.89,1a37.07,37.07,0,0,0,14.58-.17c-6.36-1.26-12.31-4-18.19-6.74l-17.16-8c-5.45-2.53-11-5.09-17-5.76A54.67,54.67,0,0,0,2,371.24h-.4L4.3,368l13.58,1.72a47.9,47.9,0,0,0,8.36.57c3.79-.18,7.48-1.26,11.27-1.54,6.06-.46,12.08,1.11,18.12,1.8a62.93,62.93,0,0,0,12.42.39,160,160,0,0,0-42.28-8.71c-2.11-.14-4.22-.24-6.34-.19A55.75,55.75,0,0,0,8,363.6l3.57-4.26C17.1,359.49,22.68,359.41,28.24,359.08Z"/><path class="cls-10" d="M26.85,335.71c-4.76,4.9-9.26,10.45-10.85,17.11L23.05,348a65.57,65.57,0,0,0-5.65,4.29c9.73-1.08,18.86-5.21,28.49-6.93a12.75,12.75,0,0,1,6.17,0,21.28,21.28,0,0,1,3.56,1.81,47.16,47.16,0,0,0,9.94,3.71,17.19,17.19,0,0,0-4.11-5.39,18,18,0,0,0-3.32-2.84c-3-1.85-6.79-1.81-10.32-1.68-5.89.22-11.91.56-17.35,2.82a36.8,36.8,0,0,0-5.19,2.75c-.65.4-1.29.82-1.93,1.24l3-2c1.53-1,3.05-2.07,4.49-3.22,7.37-5.9,12.05-14.49,15.73-23.19,1.14-2.69,2.32-5.56,4.68-7.27-3.58.42-6.75,2.62-9.16,5.29a67.5,67.5,0,0,0-6.17,8.87,21.76,21.76,0,0,1-2.21,3,37.92,37.92,0,0,1-3,2.69C29.37,333.17,28.09,334.43,26.85,335.71Z"/><path class="cls-10" d="M11.66,345.93,7.6,358.54a3.59,3.59,0,0,1,1.23-.8c1.69-.92,2.61-2.78,3.47-4.52A125.45,125.45,0,0,1,25,332.74c1.3-1.7,2.82-3.48,4.92-3.89a14.39,14.39,0,0,0-10.73,3.21C15.13,335.48,13.3,340.85,11.66,345.93Z"/><path class="cls-11" d="M17.49,309.18c-1.34,5.4-5,9.89-8.43,14.25-3.12,3.93-6.17,7.94-9.06,12v-9c1.32-.9,2.64-1.8,3.88-2.8,4.29-3.44,7.52-8,11.25-12l.47-.71c-.07.15-.15.29-.23.44C16.06,310.6,16.76,309.87,17.49,309.18Z"/><path class="cls-11" d="M4.11,341.16A45.06,45.06,0,0,0,0,345.78v-5.65q2.67-4.28,5.46-8.47a67,67,0,0,1,9-11.39,25.77,25.77,0,0,1,12.5-7,22,22,0,0,0-4,4.46c.94-.94,1.92-1.85,2.95-2.71,2.49-2.05,5.41-3.86,8.63-3.92a7.41,7.41,0,0,1,2.14.29l1.29-1.54a71.22,71.22,0,0,1,6.8-7.3,36,36,0,0,1,20.82-9,49.11,49.11,0,0,0-11.49,6.5A68.39,68.39,0,0,0,44.53,310l-3.79,4.49a4.93,4.93,0,0,1,.65,2.06,3.58,3.58,0,0,0-1.19-1.42L25.78,332.19c-1.93,2.29-4,4.68-6.87,5.57a124.36,124.36,0,0,1,9.84-16.35l-6.37,6.3c-1.22,1.49-2.44,3-3.65,4.47-4.26,5.23-8.78,10.7-15.07,13.12q3.12-4.95,6.26-9.89c-.89,1-1.8,1.95-2.76,2.87S5.11,340.19,4.11,341.16Z"/><path class="cls-11" d="M19.38,446.63a72.86,72.86,0,0,0,8.26,11.2c-2.05-2.22-4.88-3.62-7.32-5.44-4-3-7-7.05-9.86-11.08-3.55-4.95-7.11-9.91-10.46-15V367.15a119.92,119.92,0,0,1,27,44.4c1.16,3.44,2.17,6.93,3.61,10.26a42.34,42.34,0,0,0,15.86,18.63,11.15,11.15,0,0,1-6.76-1.25,33,33,0,0,1-7.25-5.39,173.28,173.28,0,0,1-26.32-30,90.63,90.63,0,0,1,3.58,10.53C12.7,425.21,13.75,436.86,19.38,446.63Z"/><path class="cls-11" d="M0,434.14c.5,1.55,1,3.1,1.51,4.65,1.88,5.78,3.33,12.18,1.76,18,.07.17.14.35.2.52l-.2-.51c-.14.52-.3,1-.49,1.55A59.46,59.46,0,0,0,0,452.19Z"/><path class="cls-11" d="M2.64,314.8A28.17,28.17,0,0,0,0,320.27v-3.62A4,4,0,0,1,2.64,314.8Z"/><path class="cls-11" d="M74.39,348.67c-6.11-2.87-12.75-4.39-19.27-6.15q-10.65-2.86-21-6.64l-6.23,3.85a73.5,73.5,0,0,1,15,2.81c2.67.82,5.27,1.82,7.85,2.88A210.25,210.25,0,0,1,100,373.93a83.45,83.45,0,0,1-15.37-5.67c-7.28-3.37-14.14-7.85-21.93-9.8-4.85-1.22-9.92-1.41-14.74-2.76a63.47,63.47,0,0,1-10.22-4.2l-16.28-7.81-4.76,2.93.5.17a72.83,72.83,0,0,1,7.75,2.9C32.13,353,38,358.54,43.81,364L62,381.09c6.22,5.87,12.52,11.79,20,16a48.9,48.9,0,0,1-18.32-5.85c-1.93-1.06-3.78-2.23-5.7-3.31-4.13-2.33-8.54-4.16-12.63-6.57A94.12,94.12,0,0,1,33.76,373c-8.41-6.85-16.67-14-23.54-22.38l-5,3.08c13.62,7.88,23.45,21,32.81,33.79l11.62,15.82c1,1.39,2.05,2.79,3,4.24,1.17,1.81,2.21,3.7,3.4,5.48a30,30,0,0,0,6.26,6.88,24.21,24.21,0,0,1-2.87-1l.21.22c-.38-.19-.75-.4-1.12-.61-4.34-2-8.22-5.1-11.79-8.27L25.49,391.45c-2.07-1.84-4.15-3.68-6.07-5.68a82,82,0,0,1-7-8.64A211.08,211.08,0,0,1,0,358V347.83c4.57-2.77,9.23-5.4,14.05-7.7l-.31-.15c.4-.08.82-.18,1.24-.28,3.44-1.6,7-3,10.5-4.36,1.39-.52,2.79-1,4.19-1.51h0a8.52,8.52,0,0,1,1-.33q6.95-2.37,14.07-4.21l.11,0-6.66,4.1c8,.57,16,1.3,23.5,4,3,1.08,5.8,2.46,8.64,3.83l8.86,4.31a61.36,61.36,0,0,1,6.15,3.28,44.56,44.56,0,0,1,5.92,4.61,80.57,80.57,0,0,1,13.69,16.06C99.51,365,93.74,361,88,357A94.38,94.38,0,0,0,74.39,348.67Z"/><path class="cls-11" d="M728.1,338.53l-.68-1,.33.65c-1-1.07-2-2.11-3.06-3.12,1.94,7.82,7.2,14.31,12.2,20.62,4.51,5.7,8.92,11.49,13.11,17.44V360c-1.9-1.3-3.82-2.6-5.61-4C738.17,351,733.5,344.4,728.1,338.53Z"/><path class="cls-11" d="M729.1,351.08c-5.06-4.85-11.22-8.76-18.09-10.15a32,32,0,0,1,5.83,6.46c-1.36-1.37-2.78-2.68-4.27-3.91-3.6-3-7.83-5.59-12.49-5.69a10.86,10.86,0,0,0-3.09.42L695.11,336a103.65,103.65,0,0,0-9.83-10.58,52.18,52.18,0,0,0-30.13-13,71.88,71.88,0,0,1,16.62,9.41c5.2,4.11,9.51,9.22,13.79,14.29l5.47,6.49a7.17,7.17,0,0,0-.93,3,5.21,5.21,0,0,1,1.71-2.06l20.88,24.76c2.79,3.31,5.81,6.78,9.94,8.06a180.73,180.73,0,0,0-14.23-23.66l9.21,9.12q2.65,3.22,5.28,6.46c6.16,7.57,12.71,15.5,21.82,19L735.65,373c1.28,1.43,2.6,2.82,4,4.16s3,2.76,4.42,4.17a65.1,65.1,0,0,1,6,6.68v-8.18c-2.58-4.12-5.2-8.22-7.9-12.26C738.2,361.73,734.15,355.94,729.1,351.08Z"/><path class="cls-11" d="M705.68,498c-.28.66-.58,1.31-.89,2h13.78a241.23,241.23,0,0,0,22.52-28,133.94,133.94,0,0,0-5.17,15.24c-1.15,4.21-2.1,8.5-3,12.8H750V418.93a173.61,173.61,0,0,0-39.09,64.27C709.23,488.17,707.77,493.23,705.68,498Z"/><path class="cls-11" d="M746.18,343.16a40.64,40.64,0,0,1,3.82,7.91v-5.23C749,344.57,747.78,343.24,746.18,343.16Z"/><path class="cls-11" d="M730.12,379.61c-.59-.11-1.19-.26-1.8-.41-5-2.32-10.06-4.39-15.19-6.31-2-.75-4-1.47-6.07-2.18h0a12.18,12.18,0,0,0-1.4-.48q-10.06-3.42-20.37-6.09l-.16,0,9.63,5.94c-11.53.82-23.16,1.89-34,5.84a130.27,130.27,0,0,0-12.5,5.56l-12.83,6.23a89.13,89.13,0,0,0-8.9,4.74,64.13,64.13,0,0,0-8.56,6.68,116.86,116.86,0,0,0-19.83,23.24c7.84-6.46,16.19-12.26,24.52-18.06,6.33-4.4,12.69-8.81,19.67-12.09,8.85-4.15,18.46-6.35,27.9-8.9q15.4-4.15,30.41-9.61l9,5.57A106.7,106.7,0,0,0,688,383.31c-3.86,1.18-7.62,2.64-11.36,4.17a304.7,304.7,0,0,0-71.31,41.26,120.06,120.06,0,0,0,22.25-8.2c10.53-4.88,20.47-11.37,31.73-14.19,7-1.76,14.37-2,21.34-4a91.81,91.81,0,0,0,14.79-6.08L719,385l6.88,4.25-.72.24a106.53,106.53,0,0,0-11.22,4.2c-10.41,4.81-18.95,12.81-27.3,20.69l-26.27,24.76c-9,8.49-18.13,17.07-28.89,23.17A70.76,70.76,0,0,0,658,453.81c2.79-1.53,5.47-3.23,8.24-4.79,6-3.37,12.37-6,18.29-9.51a135.83,135.83,0,0,0,16.66-12.11c12.17-9.91,24.13-20.32,34.07-32.4l7.23,4.46c-19.71,11.41-33.93,30.45-47.48,48.91l-16.81,22.89c-1.49,2-3,4-4.33,6.15-1.7,2.61-3.2,5.35-4.93,7.93a43.59,43.59,0,0,1-9.06,10,33.74,33.74,0,0,0,4.15-1.4l-.29.32c.55-.28,1.08-.58,1.62-.89,6.27-2.85,11.9-7.39,17.06-12l30.74-27.26c3-2.66,6-5.33,8.78-8.22a119.58,119.58,0,0,0,10.17-12.5A305.24,305.24,0,0,0,750,405.64V391c-6.62-4-13.36-7.81-20.34-11.14Z"/><path class="cls-11" d="M657,357c-11.21-.83-22.32,2.2-33.11,5.35-6.49,1.89-13.33,4.08-17.69,9.25a34.92,34.92,0,0,0-4.3,7.14c-1.94,3.89-3.91,7.91-4.19,12.25,5.57-3.84,11.19-7.72,15.77-12.7a38.83,38.83,0,0,1,5.36-5.44c3.19-2.35,7.23-3.19,11.16-3.76,18.48-2.69,37.51-.7,55.77-4.62A126.25,126.25,0,0,0,673,360.15l15.63,4.41c-6.88-11.1-18.38-18.45-30-24.46-3-1.56-6.08-3.07-9.23-4.38a68.05,68.05,0,0,1-7-3.09,42.14,42.14,0,0,1-5.82-4.11c-5.37-4.31-10.53-9-16.52-12.35s-13-5.45-19.78-4.06c5.31,1.68,9.17,6.17,12.85,10.36C625.07,336,638.74,348.74,655.64,355c3.29,1.21,6.68,2.17,10.07,3.12l6.61,1.87c-1.41-.39-2.82-.76-4.24-1.09A69.19,69.19,0,0,0,657,357Z"/><path class="cls-11" d="M660.16,333.64a239,239,0,0,1,35.4,29.42c2.6,2.62,5.39,5.44,9,6.09a7.1,7.1,0,0,1,2.71.7l-15-20.38c-6-8.22-12.57-16.84-22.06-20.57a27.5,27.5,0,0,0-21.36.66C653,329,656.78,331.34,660.16,333.64Z"/><path class="cls-11" d="M710,454.16l-.85,1C709.42,454.81,709.71,454.48,710,454.16Z"/></g></g></svg>