<svg id="Layer_1" data-name="Layer 1" xmlns="http://www.w3.org/2000/svg" xmlns:xlink="http://www.w3.org/1999/xlink" viewBox="0 0 1920 1080"><defs><style>.cls-1,.cls-10,.cls-8{fill:none;}.cls-2{clip-path:url(#clip-path);}.cls-13,.cls-3{fill:#ffda6a;}.cls-14,.cls-3{opacity:0.5;}.cls-4{opacity:0.3;}.cls-5{fill:#ffce0b;}.cls-6{fill:#ff8c00;}.cls-7{fill:#f34049;}.cls-10,.cls-8{stroke:#5b1019;}.cls-8{stroke-linecap:round;stroke-linejoin:round;stroke-width:0.64px;}.cls-9{fill:#fff;}.cls-10{stroke-miterlimit:10;stroke-width:2.56px;}.cls-11{fill:#ffe8ae;}.cls-12{clip-path:url(#clip-path-3);}.cls-15{fill:#ffa81f;}</style><clipPath id="clip-path"><rect class="cls-1" x="1940.05" width="1919.91" height="1080"/></clipPath><clipPath id="clip-path-3"><rect class="cls-1" y="4" width="1919.91" height="1080"/></clipPath></defs><g class="cls-2"><path class="cls-3" d="M1491.56,1266.75s442.52-827.5,615-868.43,400.65,328.91,400.65,328.91,115-141,188.88-141.83S2912,755.23,2912,755.23s326-347.67,507.58-352.75c169.8-4.75,963.12,873.65,963.12,873.65Z"/></g><g class="cls-2"><g class="cls-4"><path class="cls-5" d="M1957.1,494.74l161.19,15c11.24,1,20.26,8.15,20.18,15.89l-5.6,549.53c-.1,9.57-10.34,17-22.9,16.57l-180.55-6.24c-13.05-.45-23.25-8.77-22.75-18.54L1935.29,507C1935.69,499.14,1945.47,493.66,1957.1,494.74Z"/><path class="cls-6" d="M2235.19,1059.25c-6.71-17.46-24.39-28.42-42.1-26.36-14.4,1.67-28.42-7.83-33.29-22.45-6.74-20.22-10.21-30.37-17.14-50.69l-1.48-4.34h0c-1.38-4-2.07-6-3.44-10.09-.71-2.08-1.07-3.12-1.78-5.21h0c-1.24-3.62-1.85-5.43-3.09-9.05l-2.13-6.25h0l-1.26-3.73c-9.59-31.66-40.22-55.82-72.91-57.81-1.52-4.88-2.27-7.32-3.76-12.2-3.9-12.72-15.28-21.13-27-19.88l-.23,0c-5.53-25.67-8.17-38.45-13-63.73a4.78,4.78,0,0,0-5-4.1L1996,764.6a4.65,4.65,0,0,0-3.91,5c1.25,25.65,2.09,38.63,3.94,64.72l-.22,0c-11.68,1.24-20.36,11.82-20.42,25,0,5.05,0,7.58,0,12.64-32.46,8.42-52.28,39.47-52.76,72,0,1.56,0,2.34-.07,3.91h0c-.06,4-.09,6-.16,10l-.1,6h0c-.07,4-.11,6-.18,10.05h0c0,2.4-.06,3.6-.11,6h0c-.07,4-.11,6-.19,10h0c-.37,19.11-.58,28.66-1.07,47.68-.39,15.33-11.28,27.78-25.67,29.45h0c-17.71,2.06-31.64,16.81-33.54,35.35-1.72,16.75-2.59,25.07-4.32,41.56l392.44-45.65C2244.17,1082.87,2241.25,1075,2235.19,1059.25Z"/></g><path class="cls-7" d="M1755.33,34.52c.22,18.31,3.46,35.77,11.3,51.36a7.74,7.74,0,0,0,9.84,3.36,160.28,160.28,0,0,0,42.11-31.18A547.35,547.35,0,0,1,1755.33,34.52Z"/><path class="cls-8" d="M1807.27,60.43a100.72,100.72,0,0,1-30.72,23.16"/><path class="cls-9" d="M1818.58,58.06c2.31,18.1,7.46,35,16.9,49.43a7.5,7.5,0,0,0,10,2.08A161.2,161.2,0,0,0,1883,73.38,542.89,542.89,0,0,1,1818.58,58.06Z"/><path class="cls-8" d="M1872.19,77.15a101.31,101.31,0,0,1-27.3,26.81"/><path class="cls-7" d="M1883,73.38c4.36,17.67,11.36,33.76,22.29,47a7.32,7.32,0,0,0,10,.84,162.24,162.24,0,0,0,32.52-40.46A542.42,542.42,0,0,1,1883,73.38Z"/><path class="cls-8" d="M1937.68,85.74a101.71,101.71,0,0,1-23.63,29.94"/><path class="cls-10" d="M1743.51,29.11c259.22,122.39,569,23.38,709.22-226.66"/></g><rect class="cls-11" width="1919.91" height="1084"/><g class="cls-12"><path class="cls-13" d="M-448.48,1270.75S-6,443.25,166.49,402.32,567.14,731.23,567.14,731.23,682.19,590.2,756,589.4,972,759.23,972,759.23s326-347.67,507.58-352.75c169.8-4.75,963.12,873.65,963.12,873.65Z"/></g><g class="cls-12"><g class="cls-14"><path class="cls-5" d="M1941.26,1099.24H1695.45c-10.47,0-19.15-8-19.37-18l-9.36-426.12c-.26-11.62,8.78-20.71,20.17-20.26l266.9,10.49c10.86.43,19.36,10,19,21.26l-12.87,415.06C1959.63,1091.41,1951.28,1099.24,1941.26,1099.24Z"/><path class="cls-9" d="M1733.56,707.4l-27.16-.9a3.51,3.51,0,0,1-3.33-3.44l-.18-11.46a3.12,3.12,0,0,1,3.24-3.23l27.24,1a3.48,3.48,0,0,1,3.31,3.44l.11,11.44A3.12,3.12,0,0,1,1733.56,707.4Z"/><path class="cls-9" d="M1784.31,709.09l-26.92-.89a3.44,3.44,0,0,1-3.27-3.42l-.08-11.42a3.14,3.14,0,0,1,3.24-3.21l27,.94a3.42,3.42,0,0,1,3.25,3.43l0,11.38A3.14,3.14,0,0,1,1784.31,709.09Z"/><path class="cls-9" d="M1834.63,710.77l-26.69-.89a3.39,3.39,0,0,1-3.22-3.4l0-11.36a3.14,3.14,0,0,1,3.23-3.2l26.78.93a3.37,3.37,0,0,1,3.19,3.41l-.09,11.33A3.15,3.15,0,0,1,1834.63,710.77Z"/><path class="cls-9" d="M1884.52,712.43l-26.46-.88a3.33,3.33,0,0,1-3.16-3.39l.12-11.31a3.16,3.16,0,0,1,3.24-3.18l26.54.92a3.32,3.32,0,0,1,3.14,3.4l-.19,11.28A3.16,3.16,0,0,1,1884.52,712.43Z"/><path class="cls-9" d="M1934,714.08l-26.24-.88a3.26,3.26,0,0,1-3.1-3.37l.22-11.25a3.17,3.17,0,0,1,3.24-3.18l26.32.92a3.27,3.27,0,0,1,3.08,3.38l-.28,11.23A3.19,3.19,0,0,1,1934,714.08Z"/><path class="cls-9" d="M1733.94,743.52l-27-.81a3.46,3.46,0,0,1-3.31-3.39l-.18-11.32a3.11,3.11,0,0,1,3.21-3.2l27.07.86a3.45,3.45,0,0,1,3.29,3.4l.11,11.29A3.09,3.09,0,0,1,1733.94,743.52Z"/><path class="cls-9" d="M1784.37,745.05l-26.75-.81a3.4,3.4,0,0,1-3.25-3.37l-.08-11.27a3.12,3.12,0,0,1,3.22-3.18l26.83.85a3.38,3.38,0,0,1,3.23,3.38v11.24A3.11,3.11,0,0,1,1784.37,745.05Z"/><path class="cls-9" d="M1834.38,746.56l-26.53-.8a3.34,3.34,0,0,1-3.19-3.35l0-11.22a3.12,3.12,0,0,1,3.22-3.17l26.6.84a3.33,3.33,0,0,1,3.17,3.37l-.08,11.18A3.14,3.14,0,0,1,1834.38,746.56Z"/><path class="cls-9" d="M1884,748.06l-26.29-.8a3.28,3.28,0,0,1-3.15-3.33l.12-11.17a3.15,3.15,0,0,1,3.22-3.16l26.38.84a3.28,3.28,0,0,1,3.12,3.35l-.18,11.13A3.15,3.15,0,0,1,1884,748.06Z"/><path class="cls-9" d="M1933.11,749.54l-26.07-.78a3.24,3.24,0,0,1-3.09-3.32l.21-11.12a3.16,3.16,0,0,1,3.23-3.14l26.15.83a3.21,3.21,0,0,1,3.06,3.33l-.27,11.08A3.16,3.16,0,0,1,1933.11,749.54Z"/><path class="cls-9" d="M1734.31,779.19l-26.81-.73a3.42,3.42,0,0,1-3.29-3.33L1704,764a3.1,3.1,0,0,1,3.2-3.17l26.9.78a3.38,3.38,0,0,1,3.26,3.34l.11,11.15A3.08,3.08,0,0,1,1734.31,779.19Z"/><path class="cls-9" d="M1784.43,780.55l-26.58-.72a3.36,3.36,0,0,1-3.24-3.31l-.07-11.13a3.1,3.1,0,0,1,3.2-3.16l26.66.77a3.34,3.34,0,0,1,3.21,3.33v11.09A3.09,3.09,0,0,1,1784.43,780.55Z"/><path class="cls-9" d="M1834.13,781.91l-26.37-.72a3.3,3.3,0,0,1-3.17-3.3l0-11.08a3.11,3.11,0,0,1,3.2-3.14l26.44.76a3.28,3.28,0,0,1,3.15,3.31l-.08,11A3.13,3.13,0,0,1,1834.13,781.91Z"/><path class="cls-9" d="M1883.4,783.25l-26.14-.71a3.25,3.25,0,0,1-3.12-3.29l.12-11a3.12,3.12,0,0,1,3.2-3.12l26.21.75a3.22,3.22,0,0,1,3.1,3.29l-.18,11A3.14,3.14,0,0,1,1883.4,783.25Z"/><path class="cls-9" d="M1932.26,784.58l-25.92-.71a3.19,3.19,0,0,1-3.07-3.27l.21-11a3.14,3.14,0,0,1,3.2-3.11l26,.74a3.17,3.17,0,0,1,3,3.29l-.27,10.94A3.14,3.14,0,0,1,1932.26,784.58Z"/><path class="cls-9" d="M1734.69,814.42l-26.65-.65a3.37,3.37,0,0,1-3.27-3.28l-.17-11a3.07,3.07,0,0,1,3.17-3.14l26.73.69a3.35,3.35,0,0,1,3.25,3.29l.1,11A3.07,3.07,0,0,1,1734.69,814.42Z"/><path class="cls-9" d="M1784.49,815.62l-26.42-.64a3.3,3.3,0,0,1-3.21-3.26l-.08-11a3.08,3.08,0,0,1,3.18-3.12l26.5.68a3.3,3.3,0,0,1,3.19,3.28v11A3.08,3.08,0,0,1,1784.49,815.62Z"/><path class="cls-9" d="M1833.88,816.82l-26.2-.64a3.25,3.25,0,0,1-3.16-3.25l0-10.94a3.1,3.1,0,0,1,3.18-3.11l26.28.68a3.23,3.23,0,0,1,3.13,3.26l-.08,10.91A3.1,3.1,0,0,1,1833.88,816.82Z"/><path class="cls-9" d="M1882.85,818l-26-.63a3.2,3.2,0,0,1-3.1-3.23l.11-10.9a3.1,3.1,0,0,1,3.18-3.09l26.06.67a3.18,3.18,0,0,1,3.08,3.24l-.18,10.87A3.1,3.1,0,0,1,1882.85,818Z"/><path class="cls-9" d="M1931.41,819.18l-25.76-.63a3.14,3.14,0,0,1-3.05-3.22l.21-10.84a3.11,3.11,0,0,1,3.18-3.08l25.84.66a3.12,3.12,0,0,1,3,3.23l-.27,10.82A3.12,3.12,0,0,1,1931.41,819.18Z"/><path class="cls-9" d="M1735.05,849.2l-26.48-.56a3.33,3.33,0,0,1-3.25-3.23l-.17-10.9a3.05,3.05,0,0,1,3.16-3.11l26.56.6a3.3,3.3,0,0,1,3.22,3.25l.11,10.87A3,3,0,0,1,1735.05,849.2Z"/><path class="cls-9" d="M1784.55,850.26l-26.26-.56a3.27,3.27,0,0,1-3.19-3.22l-.08-10.85a3.07,3.07,0,0,1,3.16-3.1l26.34.6a3.26,3.26,0,0,1,3.17,3.23v10.82A3.07,3.07,0,0,1,1784.55,850.26Z"/><path class="cls-9" d="M1833.63,851.3l-26-.55a3.21,3.21,0,0,1-3.13-3.21l0-10.8a3.07,3.07,0,0,1,3.16-3.08l26.11.59a3.2,3.2,0,0,1,3.12,3.21l-.09,10.78A3.07,3.07,0,0,1,1833.63,851.3Z"/><path class="cls-9" d="M1882.3,852.33l-25.82-.55a3.15,3.15,0,0,1-3.08-3.18l.11-10.76a3.09,3.09,0,0,1,3.16-3.07l25.9.59a3.14,3.14,0,0,1,3.06,3.2l-.17,10.73A3.08,3.08,0,0,1,1882.3,852.33Z"/><path class="cls-9" d="M1930.57,853.36l-25.6-.54a3.12,3.12,0,0,1-3-3.18l.21-10.71a3.11,3.11,0,0,1,3.16-3.06l25.69.59a3.08,3.08,0,0,1,3,3.18l-.26,10.69A3.11,3.11,0,0,1,1930.57,853.36Z"/><path class="cls-9" d="M1735.41,883.56l-26.31-.48a3.28,3.28,0,0,1-3.23-3.18l-.17-10.77a3,3,0,0,1,3.14-3.08l26.39.52a3.28,3.28,0,0,1,3.21,3.2l.1,10.74A3,3,0,0,1,1735.41,883.56Z"/><path class="cls-9" d="M1784.6,884.47l-26.09-.48a3.22,3.22,0,0,1-3.17-3.17l-.08-10.72a3.06,3.06,0,0,1,3.14-3.07l26.18.52a3.23,3.23,0,0,1,3.15,3.18v10.69A3.05,3.05,0,0,1,1784.6,884.47Z"/><path class="cls-9" d="M1833.39,885.36l-25.88-.47a3.18,3.18,0,0,1-3.12-3.16l0-10.67a3.05,3.05,0,0,1,3.14-3l26,.51a3.15,3.15,0,0,1,3.09,3.16l-.08,10.65A3.05,3.05,0,0,1,1833.39,885.36Z"/><path class="cls-9" d="M1881.77,886.25l-25.67-.47a3.12,3.12,0,0,1-3.06-3.14l.11-10.63a3.07,3.07,0,0,1,3.14-3l25.74.51a3.09,3.09,0,0,1,3,3.15l-.17,10.6A3.07,3.07,0,0,1,1881.77,886.25Z"/><path class="cls-9" d="M1929.75,887.13l-25.46-.47a3.07,3.07,0,0,1-3-3.13l.2-10.58a3.08,3.08,0,0,1,3.15-3l25.52.5a3,3,0,0,1,3,3.14l-.26,10.55A3.09,3.09,0,0,1,1929.75,887.13Z"/><path class="cls-9" d="M1735.77,917.51l-26.15-.41a3.25,3.25,0,0,1-3.21-3.13l-.17-10.64a3,3,0,0,1,3.12-3.05l26.23.44a3.24,3.24,0,0,1,3.19,3.15l.1,10.61A3,3,0,0,1,1735.77,917.51Z"/><path class="cls-9" d="M1784.66,918.26l-25.94-.4a3.18,3.18,0,0,1-3.15-3.12l-.07-10.59a3,3,0,0,1,3.12-3l26,.44a3.17,3.17,0,0,1,3.13,3.13v10.56A3,3,0,0,1,1784.66,918.26Z"/><path class="cls-9" d="M1833.15,919l-25.72-.4a3.12,3.12,0,0,1-3.1-3.1l0-10.55a3,3,0,0,1,3.12-3l25.8.43a3.11,3.11,0,0,1,3.07,3.12l-.08,10.52A3,3,0,0,1,1833.15,919Z"/><path class="cls-9" d="M1881.24,919.75l-25.51-.39a3.08,3.08,0,0,1-3-3.1l.11-10.5a3.06,3.06,0,0,1,3.12-3l25.59.44a3,3,0,0,1,3,3.1l-.17,10.47A3.05,3.05,0,0,1,1881.24,919.75Z"/><path class="cls-9" d="M1928.93,920.49l-25.3-.39a3,3,0,0,1-3-3.08l.2-10.46a3.08,3.08,0,0,1,3.13-3l25.37.43a3,3,0,0,1,3,3.09l-.27,10.43A3.06,3.06,0,0,1,1928.93,920.49Z"/><path class="cls-9" d="M1736.12,951l-26-.32a3.21,3.21,0,0,1-3.19-3.09l-.17-10.51a3,3,0,0,1,3.1-3l26.08.37a3.18,3.18,0,0,1,3.16,3.09l.1,10.48A3,3,0,0,1,1736.12,951Z"/><path class="cls-9" d="M1784.72,951.65l-25.78-.33a3.15,3.15,0,0,1-3.14-3.07l-.07-10.47a3,3,0,0,1,3.1-3l25.86.36a3.12,3.12,0,0,1,3.11,3.08v10.44A3,3,0,0,1,1784.72,951.65Z"/><path class="cls-9" d="M1832.91,952.25l-25.57-.32a3.1,3.1,0,0,1-3.08-3.06l0-10.42a3,3,0,0,1,3.1-3l25.65.36a3.08,3.08,0,0,1,3.06,3.07l-.08,10.39A3,3,0,0,1,1832.91,952.25Z"/><path class="cls-9" d="M1880.71,952.86l-25.36-.32a3.05,3.05,0,0,1-3-3l.11-10.38a3,3,0,0,1,3.11-3l25.43.36a3,3,0,0,1,3,3.06l-.17,10.34A3.05,3.05,0,0,1,1880.71,952.86Z"/><path class="cls-9" d="M1928.12,953.45l-25.15-.31a3,3,0,0,1-3-3l.2-10.33a3.05,3.05,0,0,1,3.11-3l25.22.35a3,3,0,0,1,3,3.05l-.26,10.3A3.05,3.05,0,0,1,1928.12,953.45Z"/><path class="cls-9" d="M1736.47,984.16l-25.84-.25a3.16,3.16,0,0,1-3.16-3l-.17-10.38a3,3,0,0,1,3.08-3l25.92.29a3.15,3.15,0,0,1,3.14,3.05l.1,10.36A3,3,0,0,1,1736.47,984.16Z"/><path class="cls-9" d="M1784.77,984.63l-25.62-.25a3.11,3.11,0,0,1-3.12-3L1756,971a3,3,0,0,1,3.08-3l25.7.29a3.1,3.1,0,0,1,3.1,3v10.31A3,3,0,0,1,1784.77,984.63Z"/><path class="cls-9" d="M1832.68,985.1l-25.42-.25a3.06,3.06,0,0,1-3.06-3l0-10.29a3,3,0,0,1,3.08-3l25.49.29a3,3,0,0,1,3,3l-.08,10.27A3,3,0,0,1,1832.68,985.1Z"/><path class="cls-9" d="M1880.19,985.56l-25.2-.24a3,3,0,0,1-3-3l.11-10.25a3,3,0,0,1,3.09-2.95l25.28.28a3,3,0,0,1,3,3l-.17,10.23A3,3,0,0,1,1880.19,985.56Z"/><path class="cls-9" d="M1927.32,986l-25-.25a3,3,0,0,1-3-3l.2-10.21a3,3,0,0,1,3.08-2.94l25.08.28a2.94,2.94,0,0,1,2.94,3l-.26,10.18A3,3,0,0,1,1927.32,986Z"/><path class="cls-9" d="M1736.81,1016.89l-25.68-.18a3.13,3.13,0,0,1-3.14-3l-.17-10.26a3,3,0,0,1,3.07-3l25.75.21a3.12,3.12,0,0,1,3.13,3l.1,10.23A3,3,0,0,1,1736.81,1016.89Z"/><path class="cls-9" d="M1784.83,1017.22l-25.48-.18a3.06,3.06,0,0,1-3.09-3l-.07-10.22a3,3,0,0,1,3.06-3l25.55.22a3,3,0,0,1,3.07,3v10.19A3,3,0,0,1,1784.83,1017.22Z"/><path class="cls-9" d="M1832.45,1017.55l-25.27-.17a3,3,0,0,1-3-3l0-10.18a3,3,0,0,1,3.06-2.94l25.34.22a3,3,0,0,1,3,3l-.08,10.14A3,3,0,0,1,1832.45,1017.55Z"/><path class="cls-9" d="M1879.68,1017.89l-25.06-.18a3,3,0,0,1-3-3l.11-10.13a3,3,0,0,1,3.06-2.93l25.13.21a3,3,0,0,1,3,3l-.17,10.11A3,3,0,0,1,1879.68,1017.89Z"/><path class="cls-9" d="M1926.54,1018.21l-24.86-.17a2.92,2.92,0,0,1-3-2.95l.2-10.09a3,3,0,0,1,3.07-2.91l24.93.21a2.9,2.9,0,0,1,2.92,3l-.25,10.07A3,3,0,0,1,1926.54,1018.21Z"/><path class="cls-9" d="M1737.15,1049.22l-25.52-.11a3.09,3.09,0,0,1-3.13-2.95l-.16-10.14a2.94,2.94,0,0,1,3-2.93l25.61.14a3.08,3.08,0,0,1,3.1,3l.1,10.11A3,3,0,0,1,1737.15,1049.22Z"/><path class="cls-9" d="M1784.88,1049.42l-25.32-.1a3,3,0,0,1-3.08-2.94l-.07-10.1a3,3,0,0,1,3-2.92l25.39.14a3,3,0,0,1,3.06,3v10.07A3,3,0,0,1,1784.88,1049.42Z"/><path class="cls-9" d="M1832.22,1049.63l-25.12-.11a3,3,0,0,1-3-2.93l0-10a3,3,0,0,1,3-2.91l25.19.14a3,3,0,0,1,3,2.94l-.07,10A3,3,0,0,1,1832.22,1049.63Z"/><path class="cls-9" d="M1879.18,1049.83l-24.92-.11a2.93,2.93,0,0,1-3-2.92l.1-10a3,3,0,0,1,3-2.9l25,.14a2.92,2.92,0,0,1,3,2.93l-.16,10A3,3,0,0,1,1879.18,1049.83Z"/><path class="cls-9" d="M1925.76,1050l-24.72-.1a2.89,2.89,0,0,1-2.92-2.91l.19-10a3,3,0,0,1,3-2.89l24.78.14a2.88,2.88,0,0,1,2.91,2.92l-.25,9.94A3,3,0,0,1,1925.76,1050Z"/><path class="cls-5" d="M17.05,498.74l161.19,15c11.24,1,20.27,8.15,20.19,15.89l-5.61,549.53c-.1,9.57-10.34,17-22.9,16.57l-180.54-6.24c-13.06-.45-23.26-8.77-22.76-18.54L-4.76,511C-4.35,503.14,5.42,497.66,17.05,498.74Z"/><path class="cls-9" d="M148.34,1003.69l16.73.73c2,.09,3.61,1.38,3.59,2.89l-.27,17.74c0,1.52-1.67,2.69-3.67,2.6l-16.81-.69c-2-.09-3.63-1.39-3.6-2.91l.34-17.78C144.68,1004.75,146.33,1003.6,148.34,1003.69Z"/><path class="cls-9" d="M111.76,1002.09l16.86.74c2,.08,3.62,1.38,3.59,2.89l-.38,17.81c0,1.52-1.7,2.69-3.72,2.61l-16.94-.7c-2-.09-3.64-1.39-3.6-2.92l.46-17.85C108.07,1003.16,109.74,1002,111.76,1002.09Z"/><path class="cls-9" d="M74.92,1000.48l17,.74c2,.09,3.64,1.39,3.6,2.91L95,1022c0,1.53-1.73,2.7-3.77,2.61l-17.06-.7c-2-.09-3.67-1.4-3.62-2.93l.59-17.91C71.19,1001.55,72.88,1000.39,74.92,1000.48Z"/><path class="cls-9" d="M37.8,998.86l17.11.75c2.05.08,3.66,1.39,3.61,2.91l-.63,17.93c0,1.54-1.76,2.71-3.82,2.63l-17.18-.71c-2.06-.09-3.68-1.41-3.62-2.94l.7-18C34,999.93,35.75,998.77,37.8,998.86Z"/><path class="cls-9" d="M.41,997.22l17.24.76c2.06.09,3.67,1.4,3.61,2.93l-.75,18c-.06,1.54-1.79,2.72-3.86,2.64l-17.31-.72c-2.08-.08-3.71-1.41-3.64-2.95l.84-18C-3.39,998.3-1.66,997.13.41,997.22Z"/><path class="cls-9" d="M149.19,957.37l16.6.8c2,.1,3.57,1.37,3.55,2.86l-.26,17.44c0,1.5-1.65,2.63-3.65,2.54l-16.66-.77c-2-.09-3.6-1.38-3.57-2.87l.34-17.49C145.56,958.4,147.2,957.27,149.19,957.37Z"/><path class="cls-9" d="M112.93,955.61l16.72.81c2,.1,3.59,1.38,3.56,2.87l-.38,17.5c0,1.5-1.68,2.64-3.69,2.55l-16.78-.77c-2-.1-3.62-1.39-3.58-2.89l.45-17.54C109.27,956.65,110.93,955.52,112.93,955.61Z"/><path class="cls-9" d="M76.41,953.85l16.83.81c2,.1,3.61,1.39,3.57,2.88l-.49,17.56c0,1.51-1.72,2.65-3.74,2.56l-16.91-.78c-2-.1-3.63-1.39-3.58-2.9l.57-17.6C72.71,954.88,74.39,953.75,76.41,953.85Z"/><path class="cls-9" d="M39.62,952.07l17,.82c2,.1,3.63,1.39,3.58,2.89l-.62,17.62c-.05,1.51-1.74,2.65-3.78,2.56l-17-.78c-2-.1-3.65-1.4-3.59-2.91l.69-17.66C35.88,953.11,37.58,952,39.62,952.07Z"/><path class="cls-9" d="M2.55,950.28l17.09.82c2,.1,3.64,1.4,3.58,2.9l-.74,17.68c-.06,1.52-1.78,2.67-3.83,2.57L1.5,973.46c-2.06-.09-3.68-1.4-3.61-2.92l.82-17.72C-1.22,951.32.5,950.18,2.55,950.28Z"/><path class="cls-9" d="M150,911.82l16.45.88c2,.1,3.54,1.37,3.52,2.82l-.25,17.16c0,1.46-1.64,2.57-3.62,2.47l-16.52-.83c-2-.1-3.57-1.38-3.54-2.85l.33-17.19C146.44,912.82,148.06,911.72,150,911.82Z"/><path class="cls-9" d="M114.08,909.92l16.57.88c2,.1,3.57,1.37,3.53,2.84l-.36,17.21c0,1.47-1.67,2.58-3.66,2.48l-16.64-.84c-2-.1-3.59-1.38-3.55-2.86l.44-17.24C110.45,910.92,112.1,909.82,114.08,909.92Z"/><path class="cls-9" d="M77.87,908l16.69.88c2,.11,3.58,1.38,3.54,2.85L97.61,929c0,1.48-1.7,2.6-3.7,2.5l-16.76-.85c-2-.11-3.61-1.39-3.56-2.87l.57-17.3C74.21,909,75.87,907.9,77.87,908Z"/><path class="cls-9" d="M41.4,906.08l16.81.89c2,.1,3.6,1.38,3.55,2.85l-.61,17.33c0,1.48-1.73,2.6-3.75,2.5l-16.88-.86c-2-.1-3.63-1.39-3.57-2.88l.69-17.36C37.7,907.08,39.38,906,41.4,906.08Z"/><path class="cls-9" d="M4.66,904.13l16.93.9c2,.11,3.62,1.39,3.56,2.87l-.73,17.38c-.06,1.48-1.76,2.61-3.79,2.5l-17-.86c-2-.1-3.64-1.39-3.57-2.88l.8-17.42C.92,905.14,2.63,904,4.66,904.13Z"/><path class="cls-9" d="M150.86,867l16.32.94c1.95.11,3.51,1.36,3.49,2.8l-.25,16.87c0,1.44-1.62,2.52-3.58,2.41l-16.38-.9c-2-.11-3.54-1.37-3.52-2.82l.33-16.9C147.3,868,148.91,866.93,150.86,867Z"/><path class="cls-9" d="M115.22,865l16.43.94c2,.11,3.53,1.37,3.5,2.81l-.37,16.92c0,1.45-1.65,2.53-3.62,2.43l-16.5-.92c-2-.1-3.56-1.37-3.52-2.82l.44-17C111.61,866,113.24,864.88,115.22,865Z"/><path class="cls-9" d="M79.31,862.94l16.55.95c2,.11,3.55,1.37,3.51,2.81l-.48,17c0,1.45-1.68,2.54-3.67,2.43L78.6,885.2c-2-.11-3.57-1.38-3.53-2.84l.56-17C75.68,863.9,77.33,862.82,79.31,862.94Z"/><path class="cls-9" d="M43.15,860.86l16.67,1c2,.11,3.56,1.38,3.51,2.82l-.59,17c-.05,1.45-1.72,2.55-3.72,2.44l-16.74-.93c-2-.11-3.59-1.38-3.53-2.84l.67-17.07C39.48,861.83,41.15,860.75,43.15,860.86Z"/><path class="cls-9" d="M6.73,858.77l16.78,1c2,.12,3.59,1.39,3.53,2.84l-.72,17.09c-.06,1.46-1.74,2.55-3.76,2.44L5.7,881.17c-2-.11-3.6-1.39-3.54-2.85L3,861.19C3,859.74,4.71,858.65,6.73,858.77Z"/><path class="cls-9" d="M151.68,823l16.18,1c1.93.12,3.48,1.36,3.46,2.77l-.24,16.59c0,1.42-1.62,2.48-3.56,2.36l-16.24-1c-1.95-.11-3.51-1.36-3.49-2.78l.32-16.63C148.14,823.93,149.74,822.88,151.68,823Z"/><path class="cls-9" d="M116.33,820.82l16.29,1c1.95.12,3.5,1.37,3.47,2.78l-.35,16.64c0,1.43-1.64,2.49-3.6,2.37l-16.36-1c-2-.12-3.53-1.37-3.49-2.8l.43-16.68C112.76,821.74,114.37,820.69,116.33,820.82Z"/><path class="cls-9" d="M80.73,818.61l16.41,1c2,.12,3.52,1.37,3.48,2.79l-.47,16.69c0,1.43-1.67,2.49-3.64,2.38L80,840.5c-2-.11-3.55-1.37-3.5-2.8L77.08,821C77.12,819.55,78.76,818.49,80.73,818.61Z"/><path class="cls-9" d="M44.87,816.4l16.53,1c2,.12,3.54,1.37,3.49,2.8L64.3,837c0,1.43-1.7,2.5-3.68,2.38l-16.6-1c-2-.12-3.56-1.38-3.5-2.82l.66-16.78C41.24,817.33,42.89,816.28,44.87,816.4Z"/><path class="cls-9" d="M8.76,814.17l16.64,1c2,.12,3.56,1.37,3.5,2.8l-.7,16.8c-.06,1.44-1.73,2.51-3.73,2.39l-16.71-1c-2-.12-3.58-1.39-3.52-2.83L5,816.53C5.09,815.1,6.76,814,8.76,814.17Z"/><path class="cls-9" d="M152.48,779.68l16,1.06c1.92.13,3.46,1.36,3.44,2.74l-.24,16.32c0,1.4-1.6,2.43-3.53,2.31l-16.11-1c-1.93-.13-3.48-1.36-3.45-2.76l.31-16.35C149,780.58,150.55,779.55,152.48,779.68Z"/><path class="cls-9" d="M117.42,777.36l16.16,1.07c1.93.13,3.47,1.36,3.44,2.75l-.35,16.37c0,1.4-1.62,2.44-3.56,2.31l-16.23-1c-1.94-.12-3.49-1.36-3.46-2.76l.43-16.41C113.88,778.26,115.48,777.23,117.42,777.36Z"/><path class="cls-9" d="M82.12,775l16.27,1.07c2,.13,3.49,1.37,3.45,2.76l-.46,16.42c0,1.41-1.66,2.45-3.61,2.32l-16.34-1.05c-2-.12-3.51-1.36-3.47-2.77l.54-16.46C78.55,775.92,80.17,774.9,82.12,775Z"/><path class="cls-9" d="M46.57,772.67,63,773.76c2,.13,3.51,1.37,3.46,2.77L65.84,793c0,1.41-1.69,2.45-3.66,2.32l-16.45-1.05c-2-.13-3.53-1.37-3.48-2.79l.66-16.5C43,773.57,44.6,772.54,46.57,772.67Z"/><path class="cls-9" d="M10.76,770.31l16.5,1.09c2,.13,3.53,1.37,3.47,2.78L30,790.7c-.06,1.41-1.71,2.46-3.69,2.33L9.77,792c-2-.13-3.54-1.38-3.48-2.8l.77-16.55C7.12,771.21,8.78,770.17,10.76,770.31Z"/><path class="cls-9" d="M153.27,737.06l15.91,1.13c1.9.13,3.43,1.34,3.41,2.71L172.35,757c0,1.38-1.58,2.39-3.5,2.26l-16-1.1c-1.92-.13-3.45-1.35-3.43-2.73l.31-16.08C149.79,737.93,151.36,736.93,153.27,737.06Z"/><path class="cls-9" d="M118.5,734.62l16,1.13c1.92.13,3.45,1.35,3.42,2.72l-.35,16.1c0,1.38-1.61,2.39-3.53,2.26L118,755.73c-1.93-.13-3.47-1.36-3.43-2.74l.41-16.14C115,735.48,116.58,734.48,118.5,734.62Z"/><path class="cls-9" d="M83.49,732.15l16.13,1.14c1.93.13,3.47,1.36,3.43,2.73l-.46,16.15c0,1.38-1.64,2.4-3.57,2.26l-16.21-1.1c-1.94-.13-3.48-1.37-3.44-2.75l.53-16.19C80,733,81.55,732,83.49,732.15Z"/><path class="cls-9" d="M48.23,729.67l16.25,1.14c2,.14,3.48,1.37,3.43,2.74l-.56,16.2c0,1.39-1.67,2.41-3.62,2.27l-16.32-1.11c-2-.13-3.5-1.37-3.45-2.76l.64-16.23C44.66,730.54,46.28,729.53,48.23,729.67Z"/><path class="cls-9" d="M12.73,727.17l16.36,1.15c2,.14,3.5,1.37,3.44,2.75l-.68,16.25c-.06,1.39-1.7,2.41-3.66,2.28l-16.43-1.13c-2-.13-3.52-1.37-3.46-2.76l.76-16.29C9.12,728,10.77,727,12.73,727.17Z"/><path class="cls-9" d="M154,695.14l15.78,1.18c1.89.14,3.41,1.34,3.39,2.68L173,714.8c0,1.35-1.57,2.34-3.46,2.2l-15.85-1.15c-1.9-.14-3.42-1.35-3.4-2.7l.31-15.83C150.59,696,152.15,695,154,695.14Z"/><path class="cls-9" d="M119.56,692.56l15.89,1.19c1.9.14,3.42,1.35,3.39,2.69l-.34,15.85c0,1.35-1.6,2.34-3.51,2.2l-16-1.15c-1.92-.14-3.44-1.36-3.41-2.72l.41-15.87C116.08,693.4,117.65,692.42,119.56,692.56Z"/><path class="cls-9" d="M84.84,690l16,1.2c1.91.14,3.43,1.35,3.39,2.7l-.44,15.89c0,1.36-1.63,2.35-3.55,2.21l-16.07-1.16c-1.93-.14-3.45-1.36-3.41-2.72l.52-15.93C81.32,690.81,82.92,689.83,84.84,690Z"/><path class="cls-9" d="M49.87,687.36,66,688.57c1.92.14,3.45,1.35,3.4,2.71l-.56,15.94c0,1.36-1.65,2.35-3.59,2.21l-16.18-1.17c-1.94-.14-3.47-1.36-3.42-2.73l.63-16C46.33,688.2,47.94,687.22,49.87,687.36Z"/><path class="cls-9" d="M14.67,684.74,30.89,686c1.94.14,3.47,1.36,3.41,2.72l-.67,16C33.58,706,32,707,30,706.88l-16.29-1.19c-2-.14-3.49-1.36-3.43-2.74l.74-16C11.09,685.58,12.72,684.59,14.67,684.74Z"/><path class="cls-9" d="M154.8,653.88l15.66,1.23c1.87.15,3.37,1.34,3.35,2.66l-.23,15.55c0,1.33-1.55,2.29-3.43,2.15l-15.72-1.21c-1.89-.14-3.4-1.34-3.37-2.67l.3-15.58C151.38,654.69,152.93,653.73,154.8,653.88Z"/><path class="cls-9" d="M120.6,651.19l15.76,1.24c1.89.15,3.39,1.34,3.37,2.67l-.34,15.59c0,1.33-1.58,2.3-3.48,2.15l-15.82-1.21c-1.9-.15-3.42-1.35-3.38-2.69l.4-15.62C117.15,652,118.71,651,120.6,651.19Z"/><path class="cls-9" d="M86.16,648.47,102,649.72c1.9.15,3.41,1.35,3.37,2.68L105,668c0,1.34-1.61,2.3-3.52,2.16L85.51,669c-1.91-.14-3.43-1.35-3.39-2.69l.51-15.67C82.68,649.28,84.26,648.32,86.16,648.47Z"/><path class="cls-9" d="M51.49,645.74l16,1.26c1.91.15,3.42,1.35,3.37,2.69l-.55,15.68c0,1.34-1.64,2.31-3.55,2.16l-16-1.23c-1.93-.15-3.45-1.36-3.39-2.7l.62-15.71C48,646.55,49.57,645.59,51.49,645.74Z"/><path class="cls-9" d="M16.57,643l16.09,1.27c1.93.15,3.44,1.36,3.38,2.69l-.65,15.73c-.06,1.35-1.67,2.32-3.6,2.17l-16.16-1.24c-1.94-.15-3.46-1.36-3.4-2.71L13,645.14C13,643.8,14.64,642.84,16.57,643Z"/><path class="cls-9" d="M155.56,613.28l15.53,1.29c1.85.15,3.34,1.33,3.32,2.63l-.22,15.3c0,1.31-1.55,2.25-3.41,2.1l-15.6-1.26c-1.87-.15-3.36-1.34-3.34-2.65l.29-15.33C152.16,614.06,153.69,613.13,155.56,613.28Z"/><path class="cls-9" d="M121.63,610.47l15.63,1.29c1.87.16,3.37,1.34,3.34,2.65l-.33,15.34c0,1.31-1.57,2.25-3.45,2.1l-15.7-1.27c-1.88-.15-3.38-1.34-3.35-2.65l.4-15.38C118.2,611.25,119.75,610.31,121.63,610.47Z"/><path class="cls-9" d="M87.47,607.64l15.74,1.3c1.88.16,3.38,1.35,3.34,2.65L106.12,627c0,1.32-1.6,2.26-3.49,2.11l-15.81-1.28c-1.89-.15-3.4-1.35-3.35-2.67l.5-15.41C84,608.42,85.58,607.48,87.47,607.64Z"/><path class="cls-9" d="M53.07,604.79l15.85,1.31c1.9.16,3.4,1.35,3.35,2.66l-.54,15.43c0,1.32-1.62,2.27-3.53,2.12L52.29,625c-1.91-.15-3.42-1.35-3.37-2.68l.61-15.46C49.59,605.57,51.17,604.63,53.07,604.79Z"/><path class="cls-9" d="M18.44,601.92l16,1.32c1.91.16,3.41,1.36,3.36,2.67l-.65,15.48c0,1.32-1.65,2.27-3.57,2.11l-16-1.29c-1.93-.16-3.44-1.36-3.37-2.69l.71-15.5C14.93,602.7,16.53,601.76,18.44,601.92Z"/><path class="cls-9" d="M156.29,573.32l15.41,1.34c1.84.16,3.32,1.32,3.3,2.6l-.22,15.06c0,1.29-1.53,2.21-3.38,2l-15.47-1.31c-1.86-.16-3.34-1.33-3.32-2.62l.29-15.09C152.93,574.07,154.45,573.16,156.29,573.32Z"/><path class="cls-9" d="M122.64,570.39l15.51,1.35c1.85.16,3.33,1.33,3.31,2.62l-.33,15.1c0,1.29-1.56,2.21-3.42,2l-15.57-1.32c-1.87-.16-3.36-1.34-3.33-2.63l.4-15.13C119.24,571.14,120.77,570.23,122.64,570.39Z"/><path class="cls-9" d="M88.75,567.45l15.62,1.36c1.86.16,3.35,1.33,3.31,2.62l-.42,15.15c0,1.29-1.59,2.21-3.47,2L88.12,587.3c-1.89-.16-3.38-1.34-3.33-2.64l.49-15.17C85.32,568.2,86.88,567.29,88.75,567.45Z"/><path class="cls-9" d="M54.63,564.49l15.73,1.36c1.88.17,3.36,1.35,3.32,2.64l-.53,15.18c-.05,1.3-1.61,2.23-3.5,2.07L53.86,584.4c-1.89-.16-3.39-1.35-3.33-2.65l.6-15.22C51.18,565.24,52.75,564.32,54.63,564.49Z"/><path class="cls-9" d="M20.29,561.51l15.83,1.37c1.89.16,3.38,1.35,3.33,2.64l-.64,15.23c-.06,1.3-1.64,2.23-3.54,2.07l-15.89-1.35c-1.91-.16-3.41-1.35-3.35-2.66l.71-15.26C16.8,562.26,18.39,561.34,20.29,561.51Z"/><path class="cls-5" d="M1122.62,990.23l-233-4.31c-10.37-.19-18.79-8.36-18.79-18.25V558.47c0-9.89,8.42-17.42,18.79-16.83l233,13.25c9.94.56,18,8.85,18,18.51V973.07A17.36,17.36,0,0,1,1122.62,990.23Z"/><path class="cls-9" d="M929.05,606.92l-23.87-1.23a3.14,3.14,0,0,1-3-3V592.11a2.77,2.77,0,0,1,3-2.73l23.87,1.26a3.14,3.14,0,0,1,3,3V604.2A2.76,2.76,0,0,1,929.05,606.92Z"/><path class="cls-9" d="M974.13,609.24,950.44,608a3.13,3.13,0,0,1-3-3v-10.5a2.76,2.76,0,0,1,3-2.72L974.13,593a3.12,3.12,0,0,1,3,3v10.47A2.75,2.75,0,0,1,974.13,609.24Z"/><path class="cls-9" d="M1018.85,611.54l-23.5-1.21a3.12,3.12,0,0,1-3-3V596.85a2.75,2.75,0,0,1,3-2.71l23.5,1.24a3.11,3.11,0,0,1,3,3v10.43A2.74,2.74,0,0,1,1018.85,611.54Z"/><path class="cls-9" d="M1063.23,613.82l-23.32-1.2a3.1,3.1,0,0,1-3-3V599.19a2.72,2.72,0,0,1,3-2.69l23.32,1.23a3.09,3.09,0,0,1,2.94,3v10.39A2.73,2.73,0,0,1,1063.23,613.82Z"/><path class="cls-9" d="M1107.26,616.08l-23.14-1.19a3.07,3.07,0,0,1-2.93-3V601.52a2.71,2.71,0,0,1,2.93-2.69l23.14,1.22a3.08,3.08,0,0,1,2.92,3V613.4A2.71,2.71,0,0,1,1107.26,616.08Z"/><path class="cls-9" d="M929.05,639.74l-23.87-1.16a3.13,3.13,0,0,1-3-3V625a2.78,2.78,0,0,1,3-2.73l23.87,1.19a3.12,3.12,0,0,1,3,3V637A2.77,2.77,0,0,1,929.05,639.74Z"/><path class="cls-9" d="M974.13,641.93l-23.69-1.15a3.12,3.12,0,0,1-3-3V627.25a2.77,2.77,0,0,1,3-2.72l23.69,1.18a3.11,3.11,0,0,1,3,3V639.2A2.76,2.76,0,0,1,974.13,641.93Z"/><path class="cls-9" d="M1018.85,644.1,995.35,643a3.1,3.1,0,0,1-3-3V629.49a2.76,2.76,0,0,1,3-2.72l23.5,1.18a3.08,3.08,0,0,1,3,3v10.44A2.74,2.74,0,0,1,1018.85,644.1Z"/><path class="cls-9" d="M1063.23,646.25l-23.32-1.13a3.08,3.08,0,0,1-3-3V631.7a2.74,2.74,0,0,1,3-2.7l23.32,1.16a3.09,3.09,0,0,1,2.94,3v10.39A2.73,2.73,0,0,1,1063.23,646.25Z"/><path class="cls-9" d="M1107.26,648.39l-23.14-1.12a3.07,3.07,0,0,1-2.93-3V633.9a2.71,2.71,0,0,1,2.93-2.69l23.14,1.16a3.06,3.06,0,0,1,2.92,3V645.7A2.72,2.72,0,0,1,1107.26,648.39Z"/><path class="cls-9" d="M929.05,672.56l-23.87-1.1a3.12,3.12,0,0,1-3-3V657.9a2.79,2.79,0,0,1,3-2.75l23.87,1.13a3.12,3.12,0,0,1,3,3v10.51A2.8,2.8,0,0,1,929.05,672.56Z"/><path class="cls-9" d="M974.13,674.62l-23.69-1.09a3.1,3.1,0,0,1-3-3V660a2.77,2.77,0,0,1,3-2.73l23.69,1.11a3.1,3.1,0,0,1,3,3v10.48A2.77,2.77,0,0,1,974.13,674.62Z"/><path class="cls-9" d="M1018.85,676.66l-23.5-1.07a3.09,3.09,0,0,1-3-3V662.13a2.76,2.76,0,0,1,3-2.73l23.5,1.11a3.08,3.08,0,0,1,3,3v10.43A2.75,2.75,0,0,1,1018.85,676.66Z"/><path class="cls-9" d="M1063.23,678.69l-23.32-1.07a3.06,3.06,0,0,1-3-3V664.22a2.75,2.75,0,0,1,3-2.72l23.32,1.1a3.07,3.07,0,0,1,2.94,3V676A2.74,2.74,0,0,1,1063.23,678.69Z"/><path class="cls-9" d="M1107.26,680.7l-23.14-1.06a3,3,0,0,1-2.93-3V666.29a2.72,2.72,0,0,1,2.93-2.7l23.14,1.09a3,3,0,0,1,2.92,3V678A2.72,2.72,0,0,1,1107.26,680.7Z"/><path class="cls-9" d="M929.05,705.37l-23.87-1a3.11,3.11,0,0,1-3-3V690.79a2.8,2.8,0,0,1,3-2.75l23.87,1.06a3.1,3.1,0,0,1,3,3v10.51A2.8,2.8,0,0,1,929.05,705.37Z"/><path class="cls-9" d="M974.13,707.31l-23.69-1a3.1,3.1,0,0,1-3-3V692.78a2.79,2.79,0,0,1,3-2.74l23.69,1.05a3.09,3.09,0,0,1,3,3v10.48A2.78,2.78,0,0,1,974.13,707.31Z"/><path class="cls-9" d="M1018.85,709.22l-23.5-1a3.09,3.09,0,0,1-3-3V694.76a2.77,2.77,0,0,1,3-2.73l23.5,1a3.07,3.07,0,0,1,3,3v10.43A2.76,2.76,0,0,1,1018.85,709.22Z"/><path class="cls-9" d="M1063.23,711.13l-23.32-1a3.06,3.06,0,0,1-3-3V696.73a2.76,2.76,0,0,1,3-2.73l23.32,1a3.05,3.05,0,0,1,2.94,3v10.4A2.76,2.76,0,0,1,1063.23,711.13Z"/><path class="cls-9" d="M1107.26,713l-23.14-1a3,3,0,0,1-2.93-3V698.67a2.74,2.74,0,0,1,2.93-2.71l23.14,1a3,3,0,0,1,2.92,3V710.3A2.73,2.73,0,0,1,1107.26,713Z"/><path class="cls-9" d="M929.05,738.19l-23.87-1a3.11,3.11,0,0,1-3-3V723.69a2.82,2.82,0,0,1,3-2.77l23.87,1a3.1,3.1,0,0,1,3,3v10.51A2.8,2.8,0,0,1,929.05,738.19Z"/><path class="cls-9" d="M974.13,740l-23.69-1a3.09,3.09,0,0,1-3-3v-10.5a2.79,2.79,0,0,1,3-2.75l23.69,1a3.08,3.08,0,0,1,3,3v10.48A2.79,2.79,0,0,1,974.13,740Z"/><path class="cls-9" d="M1018.85,741.79l-23.5-.95a3.06,3.06,0,0,1-3-3V727.4a2.78,2.78,0,0,1,3-2.74l23.5,1a3.06,3.06,0,0,1,3,3v10.44A2.77,2.77,0,0,1,1018.85,741.79Z"/><path class="cls-9" d="M1063.23,743.56l-23.32-.93a3.06,3.06,0,0,1-3-3V729.24a2.76,2.76,0,0,1,3-2.73l23.32,1a3.05,3.05,0,0,1,2.94,3v10.39A2.75,2.75,0,0,1,1063.23,743.56Z"/><path class="cls-9" d="M1107.26,745.32l-23.14-.92a3,3,0,0,1-2.93-3V731.06a2.74,2.74,0,0,1,2.93-2.72l23.14,1a3,3,0,0,1,2.92,3v10.36A2.74,2.74,0,0,1,1107.26,745.32Z"/><path class="cls-9" d="M929.05,771l-23.87-.89a3.09,3.09,0,0,1-3-3V756.58a2.83,2.83,0,0,1,3-2.77l23.87.92a3.09,3.09,0,0,1,3,3v10.51A2.82,2.82,0,0,1,929.05,771Z"/><path class="cls-9" d="M974.13,772.68l-23.69-.88a3.06,3.06,0,0,1-3-3v-10.5a2.8,2.8,0,0,1,3-2.76l23.69.91a3.06,3.06,0,0,1,3,3v10.48A2.79,2.79,0,0,1,974.13,772.68Z"/><path class="cls-9" d="M1018.85,774.35l-23.5-.88a3.05,3.05,0,0,1-3-3V760a2.79,2.79,0,0,1,3-2.75l23.5.91a3,3,0,0,1,3,3V771.6A2.78,2.78,0,0,1,1018.85,774.35Z"/><path class="cls-9" d="M1063.23,776l-23.32-.87a3,3,0,0,1-3-3V761.75a2.77,2.77,0,0,1,3-2.74l23.32.9a3,3,0,0,1,2.94,3v10.39A2.77,2.77,0,0,1,1063.23,776Z"/><path class="cls-9" d="M1107.26,777.64l-23.14-.87a3,3,0,0,1-2.93-2.95V763.44a2.75,2.75,0,0,1,2.93-2.72l23.14.89a3,3,0,0,1,2.92,2.95v10.35A2.76,2.76,0,0,1,1107.26,777.64Z"/><path class="cls-9" d="M929.05,803.83,905.18,803a3.08,3.08,0,0,1-3-3V789.47a2.83,2.83,0,0,1,3-2.77l23.87.85a3.08,3.08,0,0,1,3,3v10.51A2.83,2.83,0,0,1,929.05,803.83Z"/><path class="cls-9" d="M974.13,805.37l-23.69-.81a3.06,3.06,0,0,1-3-3v-10.5a2.81,2.81,0,0,1,3-2.77l23.69.85a3.05,3.05,0,0,1,3,3v10.48A2.8,2.8,0,0,1,974.13,805.37Z"/><path class="cls-9" d="M1018.85,806.91l-23.5-.81a3,3,0,0,1-3-3V792.68a2.8,2.8,0,0,1,3-2.76l23.5.84a3,3,0,0,1,3,3v10.44A2.79,2.79,0,0,1,1018.85,806.91Z"/><path class="cls-9" d="M1063.23,808.43l-23.32-.8a3,3,0,0,1-3-3V794.26a2.78,2.78,0,0,1,3-2.75l23.32.84a3,3,0,0,1,2.94,2.95v10.39A2.77,2.77,0,0,1,1063.23,808.43Z"/><path class="cls-9" d="M1107.26,810l-23.14-.8a3,3,0,0,1-2.93-2.94V795.83a2.77,2.77,0,0,1,2.93-2.74l23.14.83a3,3,0,0,1,2.92,2.94v10.35A2.77,2.77,0,0,1,1107.26,810Z"/><path class="cls-9" d="M929.05,836.64l-23.87-.75a3.06,3.06,0,0,1-3-3V822.37a2.84,2.84,0,0,1,3-2.79l23.87.79a3.06,3.06,0,0,1,3,3v10.52A2.83,2.83,0,0,1,929.05,836.64Z"/><path class="cls-9" d="M974.13,838.06l-23.69-.74a3,3,0,0,1-3-3v-10.5a2.83,2.83,0,0,1,3-2.78l23.69.78a3,3,0,0,1,3,3v10.47A2.81,2.81,0,0,1,974.13,838.06Z"/><path class="cls-9" d="M1018.85,839.47l-23.5-.74a3,3,0,0,1-3-3V825.31a2.8,2.8,0,0,1,3-2.76l23.5.77a3,3,0,0,1,3,3v10.43A2.8,2.8,0,0,1,1018.85,839.47Z"/><path class="cls-9" d="M1063.23,840.87l-23.32-.73a3,3,0,0,1-3-2.95V826.77a2.78,2.78,0,0,1,3-2.75l23.32.76a3,3,0,0,1,2.94,2.94v10.4A2.79,2.79,0,0,1,1063.23,840.87Z"/><path class="cls-9" d="M1107.26,842.26l-23.14-.73a3,3,0,0,1-2.93-2.94V828.21a2.78,2.78,0,0,1,2.93-2.74l23.14.76a3,3,0,0,1,2.92,2.93v10.36A2.77,2.77,0,0,1,1107.26,842.26Z"/><path class="cls-9" d="M929.05,869.46l-23.87-.68a3.06,3.06,0,0,1-3-3V855.26a2.85,2.85,0,0,1,3-2.79l23.87.72a3,3,0,0,1,3,3v10.52A2.84,2.84,0,0,1,929.05,869.46Z"/><path class="cls-9" d="M974.13,870.75l-23.69-.67a3,3,0,0,1-3-3v-10.5a2.83,2.83,0,0,1,3-2.78l23.69.71a3,3,0,0,1,3,3V868A2.82,2.82,0,0,1,974.13,870.75Z"/><path class="cls-9" d="M1018.85,872l-23.5-.68a3,3,0,0,1-3-3V858a2.82,2.82,0,0,1,3-2.77l23.5.7a3,3,0,0,1,3,3v10.43A2.82,2.82,0,0,1,1018.85,872Z"/><path class="cls-9" d="M1063.23,873.31l-23.32-.67a3,3,0,0,1-3-2.94V859.28a2.8,2.8,0,0,1,3-2.76l23.32.7a3,3,0,0,1,2.94,2.93v10.4A2.8,2.8,0,0,1,1063.23,873.31Z"/><path class="cls-9" d="M1107.26,874.57l-23.14-.66a3,3,0,0,1-2.93-2.93V860.6a2.78,2.78,0,0,1,2.93-2.75l23.14.69a3,3,0,0,1,2.92,2.92v10.36A2.79,2.79,0,0,1,1107.26,874.57Z"/><path class="cls-9" d="M929.05,902.28l-23.87-.62a3,3,0,0,1-3-3V888.16a2.86,2.86,0,0,1,3-2.81l23.87.65a3,3,0,0,1,3,3v10.52A2.85,2.85,0,0,1,929.05,902.28Z"/><path class="cls-9" d="M974.13,903.44l-23.69-.61a3,3,0,0,1-3-3v-10.5a2.84,2.84,0,0,1,3-2.79l23.69.64a3,3,0,0,1,3,2.95v10.47A2.82,2.82,0,0,1,974.13,903.44Z"/><path class="cls-9" d="M1018.85,904.6l-23.5-.61a3,3,0,0,1-3-2.94V890.59a2.82,2.82,0,0,1,3-2.78l23.5.64a3,3,0,0,1,3,2.93v10.44A2.82,2.82,0,0,1,1018.85,904.6Z"/><path class="cls-9" d="M1063.23,905.74l-23.32-.6a3,3,0,0,1-3-2.93V891.79a2.82,2.82,0,0,1,3-2.77l23.32.63a3,3,0,0,1,2.94,2.93V903A2.81,2.81,0,0,1,1063.23,905.74Z"/><path class="cls-9" d="M1107.26,906.88l-23.14-.6a3,3,0,0,1-2.93-2.91V893a2.8,2.8,0,0,1,2.93-2.77l23.14.63a3,3,0,0,1,2.92,2.92v10.35A2.79,2.79,0,0,1,1107.26,906.88Z"/><path class="cls-9" d="M929.05,935.1l-23.87-.55a3,3,0,0,1-3-3V921.05a2.87,2.87,0,0,1,3-2.81l23.87.58a3,3,0,0,1,3,2.95v10.52A2.86,2.86,0,0,1,929.05,935.1Z"/><path class="cls-9" d="M974.13,936.13l-23.69-.54a3,3,0,0,1-3-2.94V922.14a2.86,2.86,0,0,1,3-2.8l23.69.58a3,3,0,0,1,3,2.94v10.47A2.84,2.84,0,0,1,974.13,936.13Z"/><path class="cls-9" d="M1018.85,937.16l-23.5-.54a3,3,0,0,1-3-2.93V923.23a2.84,2.84,0,0,1,3-2.79l23.5.57a3,3,0,0,1,3,2.93v10.43A2.83,2.83,0,0,1,1018.85,937.16Z"/><path class="cls-9" d="M1063.23,938.18l-23.32-.54a3,3,0,0,1-3-2.92V924.3a2.82,2.82,0,0,1,3-2.78l23.32.57a3,3,0,0,1,2.94,2.92V935.4A2.82,2.82,0,0,1,1063.23,938.18Z"/><path class="cls-9" d="M1107.26,939.19l-23.14-.53a3,3,0,0,1-2.93-2.91V925.37a2.8,2.8,0,0,1,2.93-2.77l23.14.56a3,3,0,0,1,2.92,2.91v10.35A2.8,2.8,0,0,1,1107.26,939.19Z"/><path class="cls-5" d="M823.78,1075.57l-121.13,1.16c-7.37.07-13.3-5.18-13.23-11.75L694,661.89a14.33,14.33,0,0,1,15-14.09l134.56,4.92a14.15,14.15,0,0,1,13.67,14.88l-19.91,396.15C837,1070.22,831,1075.5,823.78,1075.57Z"/><path class="cls-9" d="M727.48,715.28l-13.1-.39a2.36,2.36,0,0,1-2.32-2.36l.19-12.46a2.3,2.3,0,0,1,2.41-2.24l13.15.41a2.36,2.36,0,0,1,2.31,2.38l-.25,12.44A2.29,2.29,0,0,1,727.48,715.28Z"/><path class="cls-9" d="M754.36,716.07l-13-.39a2.34,2.34,0,0,1-2.3-2.35l.28-12.42a2.31,2.31,0,0,1,2.41-2.23l13.07.41a2.34,2.34,0,0,1,2.29,2.37l-.33,12.39A2.31,2.31,0,0,1,754.36,716.07Z"/><path class="cls-9" d="M781.09,716.85l-13-.38a2.31,2.31,0,0,1-2.26-2.35l.35-12.38a2.32,2.32,0,0,1,2.41-2.22l13,.4a2.31,2.31,0,0,1,2.26,2.37l-.41,12.35A2.31,2.31,0,0,1,781.09,716.85Z"/><path class="cls-9" d="M807.67,717.63l-12.88-.38a2.26,2.26,0,0,1-2.23-2.34l.43-12.34a2.33,2.33,0,0,1,2.41-2.22l12.92.41a2.27,2.27,0,0,1,2.23,2.35l-.48,12.32A2.32,2.32,0,0,1,807.67,717.63Z"/><path class="cls-9" d="M834.09,718.41l-12.8-.38a2.25,2.25,0,0,1-2.21-2.33l.51-12.31a2.33,2.33,0,0,1,2.41-2.21l12.85.4a2.27,2.27,0,0,1,2.21,2.35l-.57,12.28A2.33,2.33,0,0,1,834.09,718.41Z"/><path class="cls-9" d="M726.81,749.2l-13-.33a2.33,2.33,0,0,1-2.3-2.32l.19-12.26a2.28,2.28,0,0,1,2.39-2.2l13,.35a2.33,2.33,0,0,1,2.3,2.34L729.19,747A2.28,2.28,0,0,1,726.81,749.2Z"/><path class="cls-9" d="M753.48,749.89l-12.92-.34a2.29,2.29,0,0,1-2.27-2.31l.27-12.21a2.3,2.3,0,0,1,2.39-2.21l13,.36a2.3,2.3,0,0,1,2.26,2.33l-.32,12.19A2.29,2.29,0,0,1,753.48,749.89Z"/><path class="cls-9" d="M780,750.57l-12.85-.33a2.29,2.29,0,0,1-2.25-2.31l.36-12.18a2.28,2.28,0,0,1,2.38-2.19l12.9.35a2.28,2.28,0,0,1,2.24,2.32l-.4,12.16A2.3,2.3,0,0,1,780,750.57Z"/><path class="cls-9" d="M806.36,751.25l-12.77-.33a2.25,2.25,0,0,1-2.22-2.3l.43-12.14a2.29,2.29,0,0,1,2.38-2.19l12.83.35a2.24,2.24,0,0,1,2.21,2.31l-.48,12.12A2.3,2.3,0,0,1,806.36,751.25Z"/><path class="cls-9" d="M832.57,751.92l-12.69-.33a2.21,2.21,0,0,1-2.2-2.29l.51-12.1a2.3,2.3,0,0,1,2.39-2.18l12.74.35a2.21,2.21,0,0,1,2.19,2.3L835,749.75A2.31,2.31,0,0,1,832.57,751.92Z"/><path class="cls-9" d="M726.16,782.57l-12.89-.28A2.29,2.29,0,0,1,711,780l.19-12.06a2.27,2.27,0,0,1,2.36-2.18l12.94.31a2.28,2.28,0,0,1,2.28,2.29l-.24,12A2.26,2.26,0,0,1,726.16,782.57Z"/><path class="cls-9" d="M752.62,783.16l-12.82-.29a2.26,2.26,0,0,1-2.26-2.26l.27-12a2.27,2.27,0,0,1,2.37-2.17l12.86.3a2.25,2.25,0,0,1,2.25,2.28L755,781A2.26,2.26,0,0,1,752.62,783.16Z"/><path class="cls-9" d="M778.92,783.74l-12.74-.28A2.23,2.23,0,0,1,764,781.2l.34-12a2.29,2.29,0,0,1,2.37-2.17l12.79.3a2.23,2.23,0,0,1,2.22,2.28l-.39,12A2.28,2.28,0,0,1,778.92,783.74Z"/><path class="cls-9" d="M805.07,784.32,792.4,784a2.21,2.21,0,0,1-2.2-2.25l.42-11.95a2.28,2.28,0,0,1,2.37-2.16l12.72.3a2.22,2.22,0,0,1,2.2,2.27l-.48,11.92A2.27,2.27,0,0,1,805.07,784.32Z"/><path class="cls-9" d="M831.08,784.89l-12.6-.28a2.18,2.18,0,0,1-2.18-2.24l.5-11.91a2.3,2.3,0,0,1,2.37-2.16l12.65.31a2.18,2.18,0,0,1,2.17,2.25l-.55,11.89A2.28,2.28,0,0,1,831.08,784.89Z"/><path class="cls-9" d="M725.52,815.41l-12.79-.24a2.24,2.24,0,0,1-2.26-2.23l.18-11.86a2.25,2.25,0,0,1,2.35-2.15l12.84.26a2.25,2.25,0,0,1,2.26,2.24l-.24,11.84A2.25,2.25,0,0,1,725.52,815.41Z"/><path class="cls-9" d="M751.76,815.9l-12.71-.24a2.23,2.23,0,0,1-2.24-2.22l.26-11.83a2.27,2.27,0,0,1,2.35-2.15l12.76.26a2.24,2.24,0,0,1,2.24,2.24l-.32,11.8A2.26,2.26,0,0,1,751.76,815.9Z"/><path class="cls-9" d="M777.86,816.38l-12.64-.23a2.21,2.21,0,0,1-2.22-2.22l.34-11.79a2.26,2.26,0,0,1,2.35-2.14l12.69.26a2.2,2.2,0,0,1,2.21,2.23l-.39,11.76A2.27,2.27,0,0,1,777.86,816.38Z"/><path class="cls-9" d="M803.81,816.86l-12.57-.23a2.17,2.17,0,0,1-2.19-2.21l.41-11.76a2.27,2.27,0,0,1,2.35-2.13l12.62.26a2.17,2.17,0,0,1,2.18,2.22l-.46,11.73A2.26,2.26,0,0,1,803.81,816.86Z"/><path class="cls-9" d="M829.61,817.34l-12.5-.23a2.15,2.15,0,0,1-2.16-2.2l.49-11.72a2.27,2.27,0,0,1,2.35-2.13l12.55.25a2.16,2.16,0,0,1,2.15,2.22l-.54,11.7A2.27,2.27,0,0,1,829.61,817.34Z"/><path class="cls-9" d="M724.89,847.72l-12.69-.19a2.23,2.23,0,0,1-2.25-2.19l.19-11.67a2.24,2.24,0,0,1,2.33-2.13l12.73.22a2.21,2.21,0,0,1,2.24,2.2l-.23,11.65A2.23,2.23,0,0,1,724.89,847.72Z"/><path class="cls-9" d="M750.92,848.11l-12.61-.19a2.19,2.19,0,0,1-2.22-2.18l.26-11.63a2.24,2.24,0,0,1,2.33-2.13l12.66.22a2.18,2.18,0,0,1,2.21,2.19l-.3,11.62A2.25,2.25,0,0,1,750.92,848.11Z"/><path class="cls-9" d="M776.81,848.5l-12.54-.19a2.15,2.15,0,0,1-2.19-2.17l.33-11.6a2.25,2.25,0,0,1,2.33-2.12l12.59.21a2.17,2.17,0,0,1,2.19,2.19l-.38,11.58A2.25,2.25,0,0,1,776.81,848.5Z"/><path class="cls-9" d="M802.56,848.89l-12.47-.19a2.13,2.13,0,0,1-2.17-2.16l.41-11.57a2.25,2.25,0,0,1,2.33-2.11l12.52.21a2.14,2.14,0,0,1,2.16,2.18l-.46,11.55A2.24,2.24,0,0,1,802.56,848.89Z"/><path class="cls-9" d="M828.16,849.28l-12.4-.19a2.11,2.11,0,0,1-2.14-2.16l.48-11.54a2.26,2.26,0,0,1,2.33-2.1l12.45.21a2.12,2.12,0,0,1,2.14,2.17l-.53,11.52A2.27,2.27,0,0,1,828.16,849.28Z"/><path class="cls-9" d="M724.27,879.52l-12.59-.15a2.18,2.18,0,0,1-2.23-2.14l.18-11.49a2.22,2.22,0,0,1,2.31-2.1l12.63.17A2.19,2.19,0,0,1,726.8,866l-.23,11.46A2.22,2.22,0,0,1,724.27,879.52Z"/><path class="cls-9" d="M750.1,879.82l-12.51-.15a2.15,2.15,0,0,1-2.21-2.13l.25-11.46a2.22,2.22,0,0,1,2.31-2.09l12.57.17a2.16,2.16,0,0,1,2.2,2.15l-.31,11.43A2.22,2.22,0,0,1,750.1,879.82Z"/><path class="cls-9" d="M775.79,880.12,763.34,880a2.13,2.13,0,0,1-2.18-2.13l.33-11.42a2.24,2.24,0,0,1,2.31-2.09l12.49.17a2.14,2.14,0,0,1,2.18,2.15l-.38,11.4A2.23,2.23,0,0,1,775.79,880.12Z"/><path class="cls-9" d="M801.33,880.42,789,880.27a2.11,2.11,0,0,1-2.16-2.12l.41-11.39a2.22,2.22,0,0,1,2.31-2.08l12.42.16a2.12,2.12,0,0,1,2.15,2.14l-.45,11.37A2.24,2.24,0,0,1,801.33,880.42Z"/><path class="cls-9" d="M826.74,880.71l-12.31-.14a2.09,2.09,0,0,1-2.13-2.12l.48-11.35a2.23,2.23,0,0,1,2.31-2.08l12.35.16a2.08,2.08,0,0,1,2.12,2.14l-.51,11.33A2.24,2.24,0,0,1,826.74,880.71Z"/><path class="cls-9" d="M723.65,910.82l-12.48-.1a2.16,2.16,0,0,1-2.22-2.11l.18-11.3a2.21,2.21,0,0,1,2.29-2.08l12.54.13a2.14,2.14,0,0,1,2.2,2.11l-.22,11.29A2.2,2.2,0,0,1,723.65,910.82Z"/><path class="cls-9" d="M749.29,911l-12.42-.1a2.12,2.12,0,0,1-2.19-2.1l.25-11.27a2.21,2.21,0,0,1,2.29-2.07l12.47.12a2.13,2.13,0,0,1,2.18,2.11l-.3,11.26A2.2,2.2,0,0,1,749.29,911Z"/><path class="cls-9" d="M774.78,911.24l-12.35-.1a2.11,2.11,0,0,1-2.17-2.09l.33-11.24a2.22,2.22,0,0,1,2.29-2.07l12.4.13a2.09,2.09,0,0,1,2.15,2.1l-.37,11.22A2.21,2.21,0,0,1,774.78,911.24Z"/><path class="cls-9" d="M800.13,911.45l-12.28-.1a2.07,2.07,0,0,1-2.14-2.08l.39-11.22a2.23,2.23,0,0,1,2.3-2l12.32.12a2.06,2.06,0,0,1,2.13,2.1l-.44,11.19A2.21,2.21,0,0,1,800.13,911.45Z"/><path class="cls-9" d="M825.34,911.66l-12.21-.1a2.05,2.05,0,0,1-2.12-2.08l.47-11.18a2.22,2.22,0,0,1,2.29-2l12.26.12a2.05,2.05,0,0,1,2.11,2.09l-.51,11.16A2.23,2.23,0,0,1,825.34,911.66Z"/><path class="cls-9" d="M723.05,941.63l-12.39-.06a2.13,2.13,0,0,1-2.2-2.06l.18-11.13a2.18,2.18,0,0,1,2.27-2l12.44.08a2.12,2.12,0,0,1,2.19,2.07l-.22,11.11A2.18,2.18,0,0,1,723.05,941.63Z"/><path class="cls-9" d="M748.49,941.76l-12.32-.06a2.1,2.1,0,0,1-2.18-2.06l.25-11.1a2.18,2.18,0,0,1,2.27-2l12.37.08a2.09,2.09,0,0,1,2.17,2.07l-.3,11.08A2.19,2.19,0,0,1,748.49,941.76Z"/><path class="cls-9" d="M773.78,941.88l-12.25-.06a2.06,2.06,0,0,1-2.15-2.05l.32-11.07a2.2,2.2,0,0,1,2.27-2l12.3.08a2.07,2.07,0,0,1,2.14,2.07l-.36,11.05A2.19,2.19,0,0,1,773.78,941.88Z"/><path class="cls-9" d="M798.94,942,786.75,942a2,2,0,0,1-2.12-2.05l.39-11a2.2,2.2,0,0,1,2.27-2l12.24.08a2,2,0,0,1,2.11,2.06l-.43,11A2.21,2.21,0,0,1,798.94,942Z"/><path class="cls-9" d="M824,942.13l-12.12-.06a2,2,0,0,1-2.1-2l.46-11a2.2,2.2,0,0,1,2.27-2l12.17.08a2,2,0,0,1,2.09,2l-.5,11A2.21,2.21,0,0,1,824,942.13Z"/><path class="cls-9" d="M722.46,972l-12.29,0a2.09,2.09,0,0,1-2.19-2l.18-11a2.15,2.15,0,0,1,2.25-2l12.34,0a2.08,2.08,0,0,1,2.18,2L724.71,970A2.18,2.18,0,0,1,722.46,972Z"/><path class="cls-9" d="M747.7,972l-12.23,0a2.07,2.07,0,0,1-2.16-2l.25-10.93a2.17,2.17,0,0,1,2.25-2l12.28,0a2.07,2.07,0,0,1,2.15,2L750,970A2.18,2.18,0,0,1,747.7,972Z"/><path class="cls-9" d="M772.8,972.05l-12.16,0a2,2,0,0,1-2.13-2l.31-10.9a2.17,2.17,0,0,1,2.26-2l12.21,0a2,2,0,0,1,2.12,2l-.36,10.88A2.18,2.18,0,0,1,772.8,972.05Z"/><path class="cls-9" d="M797.77,972.09l-12.1,0a2,2,0,0,1-2.1-2L784,959.2a2.18,2.18,0,0,1,2.26-2l12.14,0a2,2,0,0,1,2.1,2L800,970.1A2.18,2.18,0,0,1,797.77,972.09Z"/><path class="cls-9" d="M822.6,972.14l-12,0a2,2,0,0,1-2.08-2l.45-10.84a2.2,2.2,0,0,1,2.26-2l12.07,0a2,2,0,0,1,2.08,2l-.5,10.82A2.2,2.2,0,0,1,822.6,972.14Z"/><path class="cls-9" d="M721.87,1001.83l-12.2,0a2,2,0,0,1-2.16-2l.17-10.79a2.15,2.15,0,0,1,2.24-2h12.24a2.05,2.05,0,0,1,2.16,2l-.21,10.77A2.16,2.16,0,0,1,721.87,1001.83Z"/><path class="cls-9" d="M746.92,1001.8l-12.13,0a2,2,0,0,1-2.14-2l.24-10.77a2.15,2.15,0,0,1,2.24-2h12.18a2,2,0,0,1,2.13,2l-.29,10.74A2.16,2.16,0,0,1,746.92,1001.8Z"/><path class="cls-9" d="M771.84,1001.76l-12.07,0a2,2,0,0,1-2.12-2l.31-10.73a2.16,2.16,0,0,1,2.24-2h12.11a2,2,0,0,1,2.11,2l-.35,10.71A2.17,2.17,0,0,1,771.84,1001.76Z"/><path class="cls-9" d="M796.61,1001.72l-12,0a2,2,0,0,1-2.09-2l.38-10.7a2.17,2.17,0,0,1,2.24-2h12a2,2,0,0,1,2.09,2l-.42,10.69A2.17,2.17,0,0,1,796.61,1001.72Z"/><path class="cls-9" d="M821.26,1001.68l-11.94,0a2,2,0,0,1-2.07-2l.45-10.68a2.18,2.18,0,0,1,2.24-2h12a2,2,0,0,1,2.06,2l-.48,10.66A2.18,2.18,0,0,1,821.26,1001.68Z"/><path class="cls-9" d="M721.3,1031.25l-12.11.06a2,2,0,0,1-2.15-2l.17-10.63a2.14,2.14,0,0,1,2.22-2l12.15,0a2,2,0,0,1,2.15,2l-.22,10.6A2.14,2.14,0,0,1,721.3,1031.25Z"/><path class="cls-9" d="M746.16,1031.13l-12,.06a2,2,0,0,1-2.13-1.94l.24-10.6a2.13,2.13,0,0,1,2.22-2l12.09,0a2,2,0,0,1,2.11,2l-.28,10.58A2.14,2.14,0,0,1,746.16,1031.13Z"/><path class="cls-9" d="M770.88,1031l-12,0a2,2,0,0,1-2.1-1.93l.3-10.57a2.15,2.15,0,0,1,2.22-2l12,0a2,2,0,0,1,2.1,2l-.35,10.55A2.16,2.16,0,0,1,770.88,1031Z"/><path class="cls-9" d="M795.48,1030.9l-11.91.06a2,2,0,0,1-2.08-1.94l.37-10.54a2.15,2.15,0,0,1,2.22-2l12,0a2,2,0,0,1,2.07,1.95L797.7,1029A2.17,2.17,0,0,1,795.48,1030.9Z"/><path class="cls-9" d="M819.94,1030.79l-11.85,0a1.93,1.93,0,0,1-2.05-1.93l.44-10.51a2.17,2.17,0,0,1,2.22-2l11.89,0a1.93,1.93,0,0,1,2,1.94l-.48,10.49A2.17,2.17,0,0,1,819.94,1030.79Z"/><path class="cls-5" d="M1299,1095.72H1176.73c-8.75,0-15.86-6.24-15.86-14V514.52a17.49,17.49,0,0,1,18.33-17.72l141,6.24a18.19,18.19,0,0,1,17.17,19l-22.35,559.83C1314.76,1089.55,1307.56,1095.72,1299,1095.72Z"/><path class="cls-9" d="M1197,593.89l-13.32-.5a3,3,0,0,1-2.88-3l.09-18.71a2.8,2.8,0,0,1,2.92-2.79l13.4.52a3,3,0,0,1,2.87,3l-.16,18.67A2.79,2.79,0,0,1,1197,593.89Z"/><path class="cls-9" d="M1225.9,595l-13.26-.49a3,3,0,0,1-2.85-3l.21-18.66a2.81,2.81,0,0,1,2.93-2.79l13.33.52a3,3,0,0,1,2.85,3l-.29,18.63A2.8,2.8,0,0,1,1225.9,595Z"/><path class="cls-9" d="M1254.64,596l-13.2-.49a2.93,2.93,0,0,1-2.82-3L1239,574a2.82,2.82,0,0,1,2.94-2.78l13.28.52a2.93,2.93,0,0,1,2.81,3l-.41,18.6A2.83,2.83,0,0,1,1254.64,596Z"/><path class="cls-9" d="M1283.26,597.09l-13.15-.49a2.89,2.89,0,0,1-2.78-3l.45-18.58a2.83,2.83,0,0,1,2.94-2.77l13.23.52a2.91,2.91,0,0,1,2.78,3l-.54,18.54A2.81,2.81,0,0,1,1283.26,597.09Z"/><path class="cls-9" d="M1311.76,598.15l-13.09-.49a2.87,2.87,0,0,1-2.76-2.95l.58-18.53a2.85,2.85,0,0,1,2.94-2.77l13.17.51a2.88,2.88,0,0,1,2.75,3l-.65,18.5A2.85,2.85,0,0,1,1311.76,598.15Z"/><path class="cls-9" d="M1196.63,642.37l-13.17-.44a3,3,0,0,1-2.85-2.91l.09-18.29a2.75,2.75,0,0,1,2.89-2.74l13.24.47a2.94,2.94,0,0,1,2.84,2.93l-.16,18.27A2.75,2.75,0,0,1,1196.63,642.37Z"/><path class="cls-9" d="M1225.18,643.33l-13.12-.44a2.92,2.92,0,0,1-2.82-2.9l.21-18.25a2.76,2.76,0,0,1,2.89-2.73l13.19.46a2.92,2.92,0,0,1,2.82,2.93l-.29,18.22A2.76,2.76,0,0,1,1225.18,643.33Z"/><path class="cls-9" d="M1253.6,644.28l-13.06-.44a2.88,2.88,0,0,1-2.79-2.89l.33-18.21A2.78,2.78,0,0,1,1241,620l13.13.46a2.88,2.88,0,0,1,2.79,2.92l-.41,18.18A2.78,2.78,0,0,1,1253.6,644.28Z"/><path class="cls-9" d="M1281.91,645.23l-13-.44a2.84,2.84,0,0,1-2.76-2.88l.45-18.17a2.8,2.8,0,0,1,2.91-2.72l13.07.47a2.85,2.85,0,0,1,2.76,2.91l-.53,18.14A2.78,2.78,0,0,1,1281.91,645.23Z"/><path class="cls-9" d="M1310.09,646.17l-12.95-.43a2.8,2.8,0,0,1-2.72-2.88l.56-18.12a2.8,2.8,0,0,1,2.91-2.71l13,.46a2.81,2.81,0,0,1,2.72,2.9l-.64,18.1A2.81,2.81,0,0,1,1310.09,646.17Z"/><path class="cls-9" d="M1196.24,689.78l-13-.39a2.89,2.89,0,0,1-2.82-2.83l.09-17.89a2.71,2.71,0,0,1,2.85-2.69l13.1.42a2.87,2.87,0,0,1,2.81,2.86l-.16,17.86A2.7,2.7,0,0,1,1196.24,689.78Z"/><path class="cls-9" d="M1224.47,690.63l-13-.39a2.84,2.84,0,0,1-2.79-2.83l.2-17.85a2.73,2.73,0,0,1,2.86-2.68l13,.42a2.85,2.85,0,0,1,2.78,2.85l-.28,17.82A2.72,2.72,0,0,1,1224.47,690.63Z"/><path class="cls-9" d="M1252.58,691.47l-12.92-.39a2.8,2.8,0,0,1-2.75-2.82l.32-17.8a2.74,2.74,0,0,1,2.87-2.68l13,.42a2.81,2.81,0,0,1,2.76,2.84l-.4,17.78A2.74,2.74,0,0,1,1252.58,691.47Z"/><path class="cls-9" d="M1280.58,692.31l-12.86-.38a2.78,2.78,0,0,1-2.73-2.82l.43-17.76a2.76,2.76,0,0,1,2.88-2.67l12.93.41a2.8,2.8,0,0,1,2.73,2.84l-.51,17.74A2.75,2.75,0,0,1,1280.58,692.31Z"/><path class="cls-9" d="M1308.46,693.15l-12.81-.38A2.76,2.76,0,0,1,1293,690l.55-17.73a2.78,2.78,0,0,1,2.89-2.66l12.88.41a2.76,2.76,0,0,1,2.69,2.83l-.63,17.7A2.76,2.76,0,0,1,1308.46,693.15Z"/><path class="cls-9" d="M1195.85,736.16l-12.88-.34a2.82,2.82,0,0,1-2.79-2.77l.08-17.5a2.68,2.68,0,0,1,2.83-2.63l13,.36a2.83,2.83,0,0,1,2.78,2.79l-.15,17.48A2.69,2.69,0,0,1,1195.85,736.16Z"/><path class="cls-9" d="M1223.78,736.9l-12.84-.34a2.78,2.78,0,0,1-2.75-2.76l.19-17.46a2.71,2.71,0,0,1,2.84-2.63l12.9.37a2.79,2.79,0,0,1,2.75,2.78l-.27,17.44A2.69,2.69,0,0,1,1223.78,736.9Z"/><path class="cls-9" d="M1251.59,737.64l-12.78-.34a2.76,2.76,0,0,1-2.73-2.75l.31-17.42a2.71,2.71,0,0,1,2.84-2.62l12.85.36a2.76,2.76,0,0,1,2.72,2.78l-.39,17.39A2.7,2.7,0,0,1,1251.59,737.64Z"/><path class="cls-9" d="M1279.28,738.38l-12.72-.34a2.72,2.72,0,0,1-2.7-2.74l.42-17.39a2.73,2.73,0,0,1,2.85-2.62l12.79.37a2.73,2.73,0,0,1,2.7,2.77l-.5,17.35A2.73,2.73,0,0,1,1279.28,738.38Z"/><path class="cls-9" d="M1306.87,739.11l-12.68-.34a2.69,2.69,0,0,1-2.67-2.73l.54-17.35a2.74,2.74,0,0,1,2.85-2.61l12.74.36a2.7,2.7,0,0,1,2.67,2.77l-.61,17.31A2.75,2.75,0,0,1,1306.87,739.11Z"/><path class="cls-9" d="M1195.47,781.54l-12.74-.3a2.76,2.76,0,0,1-2.76-2.69l.08-17.13a2.67,2.67,0,0,1,2.8-2.59l12.81.32a2.77,2.77,0,0,1,2.75,2.73l-.15,17.09A2.65,2.65,0,0,1,1195.47,781.54Z"/><path class="cls-9" d="M1223.1,782.18l-12.69-.3a2.72,2.72,0,0,1-2.73-2.69l.19-17.08a2.67,2.67,0,0,1,2.8-2.58l12.76.32a2.74,2.74,0,0,1,2.73,2.71l-.27,17.06A2.66,2.66,0,0,1,1223.1,782.18Z"/><path class="cls-9" d="M1250.61,782.82l-12.64-.3a2.7,2.7,0,0,1-2.7-2.68l.31-17.05a2.67,2.67,0,0,1,2.8-2.57l12.71.31a2.72,2.72,0,0,1,2.7,2.71l-.38,17A2.68,2.68,0,0,1,1250.61,782.82Z"/><path class="cls-9" d="M1278,783.46l-12.59-.3a2.67,2.67,0,0,1-2.67-2.67l.42-17a2.7,2.7,0,0,1,2.81-2.57l12.66.32a2.69,2.69,0,0,1,2.67,2.7l-.49,17A2.7,2.7,0,0,1,1278,783.46Z"/><path class="cls-9" d="M1305.3,784.09l-12.54-.29a2.65,2.65,0,0,1-2.64-2.67l.53-17a2.7,2.7,0,0,1,2.82-2.56l12.6.31a2.66,2.66,0,0,1,2.64,2.7l-.6,16.95A2.7,2.7,0,0,1,1305.3,784.09Z"/><path class="cls-9" d="M1195.1,826l-12.61-.25a2.71,2.71,0,0,1-2.72-2.63l.07-16.76a2.63,2.63,0,0,1,2.77-2.54l12.68.27a2.72,2.72,0,0,1,2.72,2.66l-.15,16.73A2.63,2.63,0,0,1,1195.1,826Z"/><path class="cls-9" d="M1222.44,826.49l-12.56-.25a2.67,2.67,0,0,1-2.7-2.62l.19-16.73a2.63,2.63,0,0,1,2.77-2.53l12.62.27a2.69,2.69,0,0,1,2.7,2.65l-.26,16.7A2.63,2.63,0,0,1,1222.44,826.49Z"/><path class="cls-9" d="M1249.66,827l-12.51-.25a2.65,2.65,0,0,1-2.67-2.62l.3-16.69a2.65,2.65,0,0,1,2.77-2.53l12.58.27a2.67,2.67,0,0,1,2.67,2.65l-.37,16.66A2.66,2.66,0,0,1,1249.66,827Z"/><path class="cls-9" d="M1276.77,827.58l-12.46-.25a2.63,2.63,0,0,1-2.64-2.62l.41-16.65a2.66,2.66,0,0,1,2.78-2.52l12.52.27a2.62,2.62,0,0,1,2.64,2.64l-.48,16.62A2.66,2.66,0,0,1,1276.77,827.58Z"/><path class="cls-9" d="M1303.77,828.12l-12.4-.25a2.6,2.6,0,0,1-2.62-2.61l.52-16.61a2.66,2.66,0,0,1,2.79-2.52l12.47.27a2.6,2.6,0,0,1,2.61,2.63l-.59,16.59A2.68,2.68,0,0,1,1303.77,828.12Z"/><path class="cls-9" d="M1194.74,869.42l-12.47-.21a2.66,2.66,0,0,1-2.7-2.57l.07-16.4a2.6,2.6,0,0,1,2.74-2.5l12.54.23a2.67,2.67,0,0,1,2.7,2.59l-.15,16.39A2.59,2.59,0,0,1,1194.74,869.42Z"/><path class="cls-9" d="M1221.79,869.87l-12.43-.21a2.62,2.62,0,0,1-2.67-2.56l.18-16.37a2.62,2.62,0,0,1,2.75-2.49l12.49.23a2.63,2.63,0,0,1,2.66,2.59l-.25,16.34A2.6,2.6,0,0,1,1221.79,869.87Z"/><path class="cls-9" d="M1248.72,870.32l-12.37-.21a2.6,2.6,0,0,1-2.65-2.55l.3-16.34a2.61,2.61,0,0,1,2.74-2.48l12.45.23a2.61,2.61,0,0,1,2.64,2.58l-.37,16.31A2.61,2.61,0,0,1,1248.72,870.32Z"/><path class="cls-9" d="M1275.55,870.77l-12.32-.21a2.57,2.57,0,0,1-2.62-2.55l.4-16.3a2.64,2.64,0,0,1,2.75-2.48l12.39.23a2.58,2.58,0,0,1,2.62,2.58l-.47,16.27A2.63,2.63,0,0,1,1275.55,870.77Z"/><path class="cls-9" d="M1302.28,871.22,1290,871a2.54,2.54,0,0,1-2.59-2.54l.5-16.27a2.65,2.65,0,0,1,2.76-2.47L1303,850a2.55,2.55,0,0,1,2.58,2.57l-.57,16.25A2.64,2.64,0,0,1,1302.28,871.22Z"/><path class="cls-9" d="M1194.39,912l-12.35-.17a2.61,2.61,0,0,1-2.67-2.5l.08-16.06a2.55,2.55,0,0,1,2.7-2.45l12.41.18a2.62,2.62,0,0,1,2.67,2.53l-.14,16A2.57,2.57,0,0,1,1194.39,912Z"/><path class="cls-9" d="M1221.15,912.35l-12.3-.17a2.59,2.59,0,0,1-2.64-2.5l.18-16a2.59,2.59,0,0,1,2.71-2.45l12.37.19a2.58,2.58,0,0,1,2.64,2.52l-.25,16A2.59,2.59,0,0,1,1221.15,912.35Z"/><path class="cls-9" d="M1247.81,912.71l-12.25-.17a2.56,2.56,0,0,1-2.62-2.49l.29-16a2.6,2.6,0,0,1,2.72-2.44l12.31.19a2.55,2.55,0,0,1,2.61,2.51l-.35,16A2.58,2.58,0,0,1,1247.81,912.71Z"/><path class="cls-9" d="M1274.36,913.07l-12.2-.17a2.53,2.53,0,0,1-2.59-2.49l.39-16a2.62,2.62,0,0,1,2.73-2.44l12.26.19a2.53,2.53,0,0,1,2.59,2.51l-.46,15.94A2.61,2.61,0,0,1,1274.36,913.07Z"/><path class="cls-9" d="M1300.81,913.43l-12.15-.17a2.5,2.5,0,0,1-2.57-2.48l.5-15.93a2.61,2.61,0,0,1,2.73-2.43l12.21.18a2.5,2.5,0,0,1,2.56,2.51l-.56,15.91A2.61,2.61,0,0,1,1300.81,913.43Z"/><path class="cls-9" d="M1194,953.67l-12.22-.13a2.56,2.56,0,0,1-2.64-2.45l.07-15.73a2.54,2.54,0,0,1,2.68-2.41l12.28.15a2.57,2.57,0,0,1,2.64,2.47l-.14,15.71A2.54,2.54,0,0,1,1194,953.67Z"/><path class="cls-9" d="M1220.53,953.94l-12.17-.12a2.55,2.55,0,0,1-2.62-2.45l.18-15.69a2.55,2.55,0,0,1,2.68-2.41l12.24.15a2.54,2.54,0,0,1,2.61,2.46l-.24,15.68A2.55,2.55,0,0,1,1220.53,953.94Z"/><path class="cls-9" d="M1246.92,954.22l-12.13-.13a2.5,2.5,0,0,1-2.59-2.43l.28-15.67a2.56,2.56,0,0,1,2.69-2.4l12.19.15a2.51,2.51,0,0,1,2.58,2.46l-.34,15.64A2.56,2.56,0,0,1,1246.92,954.22Z"/><path class="cls-9" d="M1273.2,954.5l-12.08-.13a2.47,2.47,0,0,1-2.56-2.43l.38-15.64a2.57,2.57,0,0,1,2.69-2.39l12.14.15a2.47,2.47,0,0,1,2.56,2.45l-.45,15.61A2.58,2.58,0,0,1,1273.2,954.5Z"/><path class="cls-9" d="M1299.38,954.77l-12-.12a2.46,2.46,0,0,1-2.54-2.43l.48-15.6a2.58,2.58,0,0,1,2.7-2.39l12.09.14a2.46,2.46,0,0,1,2.54,2.45l-.55,15.58A2.58,2.58,0,0,1,1299.38,954.77Z"/><path class="cls-9" d="M1193.7,994.5l-12.09-.1A2.52,2.52,0,0,1,1179,992l.07-15.41a2.52,2.52,0,0,1,2.65-2.37l12.16.11a2.51,2.51,0,0,1,2.61,2.41l-.14,15.39A2.5,2.5,0,0,1,1193.7,994.5Z"/><path class="cls-9" d="M1219.92,994.69l-12.05-.09a2.5,2.5,0,0,1-2.59-2.38l.18-15.38a2.51,2.51,0,0,1,2.65-2.36l12.11.11a2.49,2.49,0,0,1,2.59,2.4l-.24,15.36A2.53,2.53,0,0,1,1219.92,994.69Z"/><path class="cls-9" d="M1246,994.89l-12-.09a2.47,2.47,0,0,1-2.57-2.38l.28-15.35a2.54,2.54,0,0,1,2.66-2.36l12.06.11a2.46,2.46,0,0,1,2.56,2.4l-.34,15.33A2.54,2.54,0,0,1,1246,994.89Z"/><path class="cls-9" d="M1272.05,995.08l-12-.09a2.44,2.44,0,0,1-2.54-2.37l.38-15.32a2.54,2.54,0,0,1,2.66-2.35l12,.11a2.42,2.42,0,0,1,2.53,2.39l-.44,15.3A2.55,2.55,0,0,1,1272.05,995.08Z"/><path class="cls-9" d="M1298,995.28l-11.91-.09a2.4,2.4,0,0,1-2.51-2.37l.47-15.29a2.56,2.56,0,0,1,2.67-2.35l12,.11a2.4,2.4,0,0,1,2.51,2.39l-.54,15.27A2.56,2.56,0,0,1,1298,995.28Z"/><path class="cls-9" d="M1193.37,1034.5l-12-.06a2.46,2.46,0,0,1-2.59-2.33l.07-15.1a2.48,2.48,0,0,1,2.62-2.32l12,.07a2.48,2.48,0,0,1,2.59,2.35l-.13,15.08A2.5,2.5,0,0,1,1193.37,1034.5Z"/><path class="cls-9" d="M1219.32,1034.61l-11.92,0a2.46,2.46,0,0,1-2.57-2.33l.17-15.07a2.5,2.5,0,0,1,2.63-2.32l12,.07a2.46,2.46,0,0,1,2.56,2.35l-.24,15A2.49,2.49,0,0,1,1219.32,1034.61Z"/><path class="cls-9" d="M1245.18,1034.73l-11.88,0a2.42,2.42,0,0,1-2.54-2.33l.27-15a2.5,2.5,0,0,1,2.63-2.32l11.94.07a2.43,2.43,0,0,1,2.54,2.35l-.34,15A2.49,2.49,0,0,1,1245.18,1034.73Z"/><path class="cls-9" d="M1270.93,1034.85l-11.83,0a2.4,2.4,0,0,1-2.52-2.32l.37-15a2.53,2.53,0,0,1,2.64-2.32l11.9.08a2.39,2.39,0,0,1,2.51,2.34l-.44,15A2.51,2.51,0,0,1,1270.93,1034.85Z"/><path class="cls-9" d="M1296.59,1035l-11.79,0a2.36,2.36,0,0,1-2.49-2.31l.47-15a2.53,2.53,0,0,1,2.64-2.31l11.85.07a2.37,2.37,0,0,1,2.49,2.34l-.53,15A2.53,2.53,0,0,1,1296.59,1035Z"/><path class="cls-15" d="M1204.47,1111.08l-397.3.94a4.1,4.1,0,0,1-3.91-4.26V809.63a4.1,4.1,0,0,1,3.91-4.27l397.3.74a4.09,4.09,0,0,1,3.87,4.26v296.47A4.08,4.08,0,0,1,1204.47,1111.08Z"/><path class="cls-9" d="M861.49,908.76H841.28a2.77,2.77,0,0,1-2.63-2.88V848.93a2.76,2.76,0,0,1,2.63-2.87l20.21,0a2.77,2.77,0,0,1,2.64,2.88v56.93A2.76,2.76,0,0,1,861.49,908.76Z"/><path class="cls-9" d="M913.21,908.78H893a2.76,2.76,0,0,1-2.63-2.87V849a2.74,2.74,0,0,1,2.63-2.86l20.18,0a2.77,2.77,0,0,1,2.63,2.88v56.88A2.76,2.76,0,0,1,913.21,908.78Z"/><path class="cls-9" d="M964.86,908.8H944.7a2.76,2.76,0,0,1-2.63-2.87V849.06a2.76,2.76,0,0,1,2.63-2.87l20.16,0a2.75,2.75,0,0,1,2.62,2.87v56.85A2.75,2.75,0,0,1,964.86,908.8Z"/><path class="cls-9" d="M1016.43,908.82H996.3a2.75,2.75,0,0,1-2.62-2.87V849.12a2.75,2.75,0,0,1,2.62-2.86l20.13,0a2.76,2.76,0,0,1,2.62,2.87V906A2.75,2.75,0,0,1,1016.43,908.82Z"/><path class="cls-9" d="M1067.92,908.85h-20.09a2.75,2.75,0,0,1-2.62-2.87V849.19a2.75,2.75,0,0,1,2.62-2.86l20.09,0a2.76,2.76,0,0,1,2.62,2.87V906A2.75,2.75,0,0,1,1067.92,908.85Z"/><path class="cls-9" d="M1119.35,908.87h-20.07a2.75,2.75,0,0,1-2.62-2.86V849.25a2.75,2.75,0,0,1,2.62-2.86l20.07,0a2.75,2.75,0,0,1,2.61,2.87V906A2.74,2.74,0,0,1,1119.35,908.87Z"/><path class="cls-9" d="M1170.7,908.89h-20a2.74,2.74,0,0,1-2.61-2.86v-56.7a2.74,2.74,0,0,1,2.61-2.86l20,0a2.74,2.74,0,0,1,2.61,2.86V906A2.74,2.74,0,0,1,1170.7,908.89Z"/><path class="cls-9" d="M861.49,992.7l-20.21,0a2.76,2.76,0,0,1-2.63-2.87v-57a2.76,2.76,0,0,1,2.63-2.87h20.21a2.76,2.76,0,0,1,2.64,2.87v56.93A2.76,2.76,0,0,1,861.49,992.7Z"/><path class="cls-9" d="M913.21,992.66l-20.18,0a2.75,2.75,0,0,1-2.63-2.87v-56.9A2.76,2.76,0,0,1,893,930h20.18a2.76,2.76,0,0,1,2.63,2.87v56.88A2.76,2.76,0,0,1,913.21,992.66Z"/><path class="cls-9" d="M964.86,992.63H944.7a2.75,2.75,0,0,1-2.63-2.86V932.91A2.76,2.76,0,0,1,944.7,930h20.16a2.75,2.75,0,0,1,2.62,2.86v56.85A2.75,2.75,0,0,1,964.86,992.63Z"/><path class="cls-9" d="M1016.43,992.59l-20.13,0a2.75,2.75,0,0,1-2.62-2.87V932.92a2.75,2.75,0,0,1,2.62-2.87h20.13a2.76,2.76,0,0,1,2.62,2.87v56.8A2.76,2.76,0,0,1,1016.43,992.59Z"/><path class="cls-9" d="M1067.92,992.55l-20.09,0a2.75,2.75,0,0,1-2.62-2.86V932.92a2.75,2.75,0,0,1,2.62-2.86h20.09a2.75,2.75,0,0,1,2.62,2.86v56.77A2.75,2.75,0,0,1,1067.92,992.55Z"/><path class="cls-9" d="M1119.35,992.52h-20.07a2.75,2.75,0,0,1-2.62-2.86V932.93a2.75,2.75,0,0,1,2.62-2.86h20.07a2.74,2.74,0,0,1,2.61,2.86v56.72A2.75,2.75,0,0,1,1119.35,992.52Z"/><path class="cls-9" d="M1170.7,992.48l-20,0a2.74,2.74,0,0,1-2.61-2.86V932.93a2.74,2.74,0,0,1,2.61-2.86h20a2.74,2.74,0,0,1,2.61,2.86v56.68A2.74,2.74,0,0,1,1170.7,992.48Z"/><path class="cls-15" d="M1215.7,817.18l-419.89-.72a6.12,6.12,0,0,1-5.83-6.37V776.2a6.1,6.1,0,0,1,5.83-6.35l419.89,1a6.09,6.09,0,0,1,5.77,6.34v33.69A6.05,6.05,0,0,1,1215.7,817.18Z"/><path class="cls-15" d="M1675.42,1097H1298.65c-10.49,0-19-9.67-19.1-21.62l-2.37-350.32c-.09-12.4,8.48-23.17,19.18-24l385-31.39c12.52-1,22.55,9.12,22.35,22.64L1698,1073.52C1697.77,1086.49,1687.65,1097,1675.42,1097Z"/><path class="cls-9" d="M1363,753.77l-37.51,2.62a3.18,3.18,0,0,1-3.18-3.43l0-7.56a3.72,3.72,0,0,1,3.15-3.88l37.55-2.74a3.2,3.2,0,0,1,3.22,3.46l0,7.63A3.76,3.76,0,0,1,1363,753.77Z"/><path class="cls-9" d="M1431,749l-38.56,2.69a3.22,3.22,0,0,1-3.25-3.47v-7.67a3.82,3.82,0,0,1,3.25-3.94l38.59-2.81a3.25,3.25,0,0,1,3.3,3.5v7.74A3.86,3.86,0,0,1,1431,749Z"/><path class="cls-9" d="M1500.87,744.16l-39.64,2.76a3.27,3.27,0,0,1-3.33-3.52l0-7.77a3.91,3.91,0,0,1,3.35-4l39.67-2.89a3.3,3.3,0,0,1,3.38,3.55l0,7.85A4,4,0,0,1,1500.87,744.16Z"/><path class="cls-9" d="M1572.75,739.15,1532,742a3.31,3.31,0,0,1-3.41-3.57l0-7.88a4,4,0,0,1,3.47-4.06l40.8-3a3.34,3.34,0,0,1,3.46,3.59l-.07,8A4,4,0,0,1,1572.75,739.15Z"/><path class="cls-9" d="M1646.69,734l-41.94,2.93a3.38,3.38,0,0,1-3.5-3.62l.08-8a4.1,4.1,0,0,1,3.57-4.12l42-3a3.4,3.4,0,0,1,3.56,3.64l-.1,8.07A4.15,4.15,0,0,1,1646.69,734Z"/><path class="cls-9" d="M1363.06,783.92l-37.45,2.38a3.2,3.2,0,0,1-3.18-3.44l0-7.53a3.69,3.69,0,0,1,3.14-3.85L1363,769a3.21,3.21,0,0,1,3.22,3.46l0,7.6A3.74,3.74,0,0,1,1363.06,783.92Z"/><path class="cls-9" d="M1431,779.6l-38.5,2.45a3.24,3.24,0,0,1-3.25-3.48v-7.64a3.78,3.78,0,0,1,3.25-3.91l38.52-2.57a3.26,3.26,0,0,1,3.3,3.51v7.71A3.81,3.81,0,0,1,1431,779.6Z"/><path class="cls-9" d="M1500.73,775.16l-39.58,2.52a3.29,3.29,0,0,1-3.33-3.53l0-7.75a3.88,3.88,0,0,1,3.35-4l39.61-2.64a3.3,3.3,0,0,1,3.37,3.55l0,7.82A3.91,3.91,0,0,1,1500.73,775.16Z"/><path class="cls-9" d="M1572.48,770.6l-40.7,2.59a3.33,3.33,0,0,1-3.4-3.58l0-7.86a4,4,0,0,1,3.46-4l40.73-2.72a3.36,3.36,0,0,1,3.46,3.6l-.06,7.94A4,4,0,0,1,1572.48,770.6Z"/><path class="cls-9" d="M1646.31,765.91l-41.88,2.66a3.39,3.39,0,0,1-3.49-3.62l.08-8a4.06,4.06,0,0,1,3.57-4.09l41.91-2.79a3.41,3.41,0,0,1,3.54,3.65l-.09,8A4.12,4.12,0,0,1,1646.31,765.91Z"/><path class="cls-9" d="M1363.14,814l-37.41,2.15a3.21,3.21,0,0,1-3.17-3.44l0-7.52a3.67,3.67,0,0,1,3.14-3.82l37.43-2.26a3.23,3.23,0,0,1,3.22,3.47v7.58A3.68,3.68,0,0,1,1363.14,814Z"/><path class="cls-9" d="M1430.91,810.08l-38.43,2.21a3.26,3.26,0,0,1-3.25-3.49v-7.62a3.73,3.73,0,0,1,3.23-3.88l38.47-2.33a3.28,3.28,0,0,1,3.29,3.52v7.69A3.78,3.78,0,0,1,1430.91,810.08Z"/><path class="cls-9" d="M1500.58,806.07l-39.51,2.27a3.29,3.29,0,0,1-3.32-3.53l0-7.73a3.82,3.82,0,0,1,3.34-3.93l39.54-2.4a3.33,3.33,0,0,1,3.38,3.56l0,7.8A3.88,3.88,0,0,1,1500.58,806.07Z"/><path class="cls-9" d="M1572.22,802l-40.63,2.34a3.36,3.36,0,0,1-3.4-3.59l0-7.83a3.91,3.91,0,0,1,3.45-4l40.66-2.47a3.38,3.38,0,0,1,3.46,3.61l-.07,7.91A4,4,0,0,1,1572.22,802Z"/><path class="cls-9" d="M1645.92,797.72l-41.8,2.4a3.41,3.41,0,0,1-3.49-3.63l.08-8a4,4,0,0,1,3.56-4.06l41.84-2.53a3.43,3.43,0,0,1,3.54,3.66l-.09,8A4.08,4.08,0,0,1,1645.92,797.72Z"/><path class="cls-9" d="M1363.21,843.93l-37.35,1.92a3.21,3.21,0,0,1-3.16-3.45l0-7.49a3.62,3.62,0,0,1,3.14-3.79l37.37-2a3.25,3.25,0,0,1,3.21,3.48l0,7.56A3.65,3.65,0,0,1,1363.21,843.93Z"/><path class="cls-9" d="M1430.88,840.45l-38.38,2a3.28,3.28,0,0,1-3.24-3.5v-7.6a3.7,3.7,0,0,1,3.23-3.84l38.41-2.09a3.28,3.28,0,0,1,3.28,3.52v7.67A3.73,3.73,0,0,1,1430.88,840.45Z"/><path class="cls-9" d="M1500.44,836.88l-39.45,2a3.33,3.33,0,0,1-3.32-3.55l0-7.7a3.8,3.8,0,0,1,3.34-3.9l39.48-2.15a3.34,3.34,0,0,1,3.37,3.57l0,7.78A3.83,3.83,0,0,1,1500.44,836.88Z"/><path class="cls-9" d="M1572,833.2l-40.56,2.09a3.37,3.37,0,0,1-3.4-3.59l0-7.82a3.89,3.89,0,0,1,3.44-4l40.6-2.2a3.38,3.38,0,0,1,3.45,3.61l-.07,7.89A3.92,3.92,0,0,1,1572,833.2Z"/><path class="cls-9" d="M1645.54,829.42l-41.73,2.15a3.41,3.41,0,0,1-3.48-3.65l.07-7.92a4,4,0,0,1,3.56-4l41.77-2.27a3.43,3.43,0,0,1,3.53,3.67l-.09,8A4,4,0,0,1,1645.54,829.42Z"/><path class="cls-9" d="M1363.28,873.8,1326,875.49a3.23,3.23,0,0,1-3.16-3.46l0-7.47a3.59,3.59,0,0,1,3.13-3.76l37.31-1.8a3.25,3.25,0,0,1,3.21,3.49l0,7.53A3.63,3.63,0,0,1,1363.28,873.8Z"/><path class="cls-9" d="M1430.85,870.74l-38.32,1.74a3.28,3.28,0,0,1-3.23-3.51V861.4a3.68,3.68,0,0,1,3.23-3.82l38.34-1.85a3.31,3.31,0,0,1,3.29,3.53v7.64A3.72,3.72,0,0,1,1430.85,870.74Z"/><path class="cls-9" d="M1500.3,867.59l-39.39,1.79a3.34,3.34,0,0,1-3.31-3.56l0-7.67a3.75,3.75,0,0,1,3.33-3.87l39.42-1.91a3.36,3.36,0,0,1,3.36,3.58l0,7.75A3.79,3.79,0,0,1,1500.3,867.59Z"/><path class="cls-9" d="M1571.7,864.35l-40.5,1.84a3.39,3.39,0,0,1-3.39-3.6l0-7.79a3.83,3.83,0,0,1,3.44-3.92l40.53-2a3.41,3.41,0,0,1,3.45,3.62l-.07,7.86A3.88,3.88,0,0,1,1571.7,864.35Z"/><path class="cls-9" d="M1645.16,861l-41.67,1.89a3.43,3.43,0,0,1-3.47-3.65l.08-7.9a3.94,3.94,0,0,1,3.55-4l41.7-2a3.46,3.46,0,0,1,3.52,3.68l-.09,8A4,4,0,0,1,1645.16,861Z"/><path class="cls-9" d="M1363.35,903.58,1326.12,905a3.25,3.25,0,0,1-3.16-3.47l0-7.44a3.55,3.55,0,0,1,3.12-3.73l37.26-1.58a3.28,3.28,0,0,1,3.21,3.5v7.51A3.58,3.58,0,0,1,1363.35,903.58Z"/><path class="cls-9" d="M1430.81,900.93l-38.25,1.5a3.29,3.29,0,0,1-3.23-3.51v-7.55a3.63,3.63,0,0,1,3.22-3.78l38.29-1.62a3.32,3.32,0,0,1,3.28,3.54v7.62A3.67,3.67,0,0,1,1430.81,900.93Z"/><path class="cls-9" d="M1500.15,898.21l-39.32,1.54a3.35,3.35,0,0,1-3.31-3.56l0-7.65a3.73,3.73,0,0,1,3.33-3.84l39.35-1.67a3.38,3.38,0,0,1,3.36,3.59l0,7.73A3.76,3.76,0,0,1,1500.15,898.21Z"/><path class="cls-9" d="M1571.45,895.41,1531,897a3.39,3.39,0,0,1-3.38-3.61l0-7.76a3.81,3.81,0,0,1,3.44-3.89l40.46-1.71a3.42,3.42,0,0,1,3.44,3.63l-.07,7.84A3.85,3.85,0,0,1,1571.45,895.41Z"/><path class="cls-9" d="M1644.78,892.53l-41.6,1.63a3.45,3.45,0,0,1-3.47-3.66l.08-7.87a3.92,3.92,0,0,1,3.55-4l41.62-1.76a3.48,3.48,0,0,1,3.53,3.69l-.1,7.95A4,4,0,0,1,1644.78,892.53Z"/><path class="cls-9" d="M1363.42,933.27l-37.18,1.23a3.26,3.26,0,0,1-3.15-3.47l0-7.43a3.52,3.52,0,0,1,3.12-3.7l37.21-1.34a3.27,3.27,0,0,1,3.19,3.5l0,7.49A3.56,3.56,0,0,1,1363.42,933.27Z"/><path class="cls-9" d="M1430.78,931l-38.2,1.27a3.31,3.31,0,0,1-3.22-3.53v-7.52a3.59,3.59,0,0,1,3.22-3.75l38.23-1.39a3.34,3.34,0,0,1,3.27,3.55v7.6A3.63,3.63,0,0,1,1430.78,931Z"/><path class="cls-9" d="M1500,928.73l-39.26,1.3a3.36,3.36,0,0,1-3.3-3.57l0-7.63a3.69,3.69,0,0,1,3.32-3.81l39.29-1.42a3.38,3.38,0,0,1,3.35,3.6l0,7.7A3.73,3.73,0,0,1,1500,928.73Z"/><path class="cls-9" d="M1571.19,926.36l-40.37,1.34a3.42,3.42,0,0,1-3.38-3.62l0-7.74a3.77,3.77,0,0,1,3.42-3.86l40.41-1.46a3.44,3.44,0,0,1,3.43,3.65l-.07,7.81A3.81,3.81,0,0,1,1571.19,926.36Z"/><path class="cls-9" d="M1644.4,923.92l-41.53,1.39a3.47,3.47,0,0,1-3.46-3.67l.08-7.85a3.86,3.86,0,0,1,3.54-3.92l41.55-1.51a3.5,3.5,0,0,1,3.52,3.7L1648,920A3.9,3.9,0,0,1,1644.4,923.92Z"/><path class="cls-9" d="M1363.49,962.86l-37.12,1a3.29,3.29,0,0,1-3.15-3.49l0-7.4a3.48,3.48,0,0,1,3.12-3.67l37.15-1.12a3.31,3.31,0,0,1,3.19,3.51l0,7.46A3.51,3.51,0,0,1,1363.49,962.86Z"/><path class="cls-9" d="M1430.75,961l-38.14,1a3.32,3.32,0,0,1-3.22-3.53V951a3.56,3.56,0,0,1,3.22-3.72l38.16-1.16a3.35,3.35,0,0,1,3.27,3.56v7.57A3.6,3.6,0,0,1,1430.75,961Z"/><path class="cls-9" d="M1499.87,959.15l-39.2,1.07a3.38,3.38,0,0,1-3.29-3.58V949a3.64,3.64,0,0,1,3.32-3.77l39.23-1.19a3.4,3.4,0,0,1,3.34,3.61l0,7.67A3.69,3.69,0,0,1,1499.87,959.15Z"/><path class="cls-9" d="M1570.93,957.21l-40.3,1.1a3.43,3.43,0,0,1-3.38-3.63l0-7.71a3.73,3.73,0,0,1,3.42-3.83l40.34-1.22a3.45,3.45,0,0,1,3.42,3.66l-.06,7.78A3.77,3.77,0,0,1,1570.93,957.21Z"/><path class="cls-9" d="M1644,955.22l-41.46,1.13a3.48,3.48,0,0,1-3.45-3.68l.07-7.82a3.81,3.81,0,0,1,3.54-3.88l41.48-1.26a3.52,3.52,0,0,1,3.52,3.71l-.1,7.9A3.87,3.87,0,0,1,1644,955.22Z"/><path class="cls-9" d="M1363.56,992.37l-37.06.79a3.3,3.3,0,0,1-3.15-3.5l0-7.37a3.45,3.45,0,0,1,3.11-3.64l37.1-.9a3.31,3.31,0,0,1,3.18,3.52l0,7.44A3.47,3.47,0,0,1,1363.56,992.37Z"/><path class="cls-9" d="M1430.72,990.94l-38.08.81a3.34,3.34,0,0,1-3.22-3.54v-7.48a3.54,3.54,0,0,1,3.21-3.69l38.11-.92a3.36,3.36,0,0,1,3.26,3.57v7.54A3.57,3.57,0,0,1,1430.72,990.94Z"/><path class="cls-9" d="M1499.73,989.48l-39.14.83a3.4,3.4,0,0,1-3.29-3.59l0-7.58a3.61,3.61,0,0,1,3.31-3.74l39.17-.95a3.41,3.41,0,0,1,3.34,3.61l0,7.65A3.65,3.65,0,0,1,1499.73,989.48Z"/><path class="cls-9" d="M1570.67,988l-40.23.85a3.44,3.44,0,0,1-3.37-3.63l0-7.69a3.7,3.7,0,0,1,3.41-3.8l40.27-1a3.46,3.46,0,0,1,3.42,3.66l-.06,7.76A3.74,3.74,0,0,1,1570.67,988Z"/><path class="cls-9" d="M1643.64,986.42l-41.39.88a3.5,3.5,0,0,1-3.45-3.69l.08-7.8a3.79,3.79,0,0,1,3.53-3.85l41.42-1a3.51,3.51,0,0,1,3.5,3.71l-.09,7.88A3.84,3.84,0,0,1,1643.64,986.42Z"/><path class="cls-9" d="M1363.63,1021.79l-37,.56a3.3,3.3,0,0,1-3.13-3.5l0-7.36a3.42,3.42,0,0,1,3.11-3.61l37-.67a3.34,3.34,0,0,1,3.18,3.53l0,7.42A3.46,3.46,0,0,1,1363.63,1021.79Z"/><path class="cls-9" d="M1430.68,1020.76l-38,.58a3.36,3.36,0,0,1-3.21-3.54v-7.46a3.48,3.48,0,0,1,3.2-3.66l38-.7a3.39,3.39,0,0,1,3.26,3.58v7.52A3.52,3.52,0,0,1,1430.68,1020.76Z"/><path class="cls-9" d="M1499.59,1019.71l-39.08.6a3.4,3.4,0,0,1-3.28-3.6l0-7.56a3.57,3.57,0,0,1,3.3-3.71l39.11-.71a3.43,3.43,0,0,1,3.33,3.62l0,7.63A3.62,3.62,0,0,1,1499.59,1019.71Z"/><path class="cls-9" d="M1570.42,1018.63l-40.17.61a3.46,3.46,0,0,1-3.37-3.64l0-7.67a3.66,3.66,0,0,1,3.41-3.76l40.21-.74a3.49,3.49,0,0,1,3.41,3.68l-.06,7.73A3.71,3.71,0,0,1,1570.42,1018.63Z"/><path class="cls-9" d="M1643.26,1017.52l-41.31.63a3.52,3.52,0,0,1-3.45-3.7l.08-7.77a3.74,3.74,0,0,1,3.52-3.82l41.35-.76a3.55,3.55,0,0,1,3.5,3.73l-.1,7.85A3.79,3.79,0,0,1,1643.26,1017.52Z"/><path class="cls-9" d="M1363.7,1051.11l-37,.35a3.33,3.33,0,0,1-3.13-3.51l0-7.34a3.38,3.38,0,0,1,3.11-3.58l37-.45a3.35,3.35,0,0,1,3.18,3.53v7.4A3.4,3.4,0,0,1,1363.7,1051.11Z"/><path class="cls-9" d="M1430.65,1050.49l-38,.35a3.38,3.38,0,0,1-3.21-3.55v-7.44a3.46,3.46,0,0,1,3.2-3.63l38-.46a3.4,3.4,0,0,1,3.25,3.58v7.5A3.49,3.49,0,0,1,1430.65,1050.49Z"/><path class="cls-9" d="M1499.45,1049.85l-39,.36a3.43,3.43,0,0,1-3.28-3.6l0-7.54a3.54,3.54,0,0,1,3.3-3.68l39-.48a3.46,3.46,0,0,1,3.33,3.63l0,7.61A3.58,3.58,0,0,1,1499.45,1049.85Z"/><path class="cls-9" d="M1570.17,1049.19l-40.11.37a3.47,3.47,0,0,1-3.36-3.65l0-7.64a3.61,3.61,0,0,1,3.4-3.73l40.14-.5a3.51,3.51,0,0,1,3.41,3.69l-.06,7.71A3.68,3.68,0,0,1,1570.17,1049.19Z"/><path class="cls-9" d="M1642.89,1048.51l-41.25.39a3.54,3.54,0,0,1-3.44-3.71l.08-7.75a3.71,3.71,0,0,1,3.51-3.78l41.28-.51a3.57,3.57,0,0,1,3.5,3.74l-.1,7.82A3.75,3.75,0,0,1,1642.89,1048.51Z"/><path class="cls-15" d="M504.32,1105.71c-98.32-1.26-196.51-6.39-294.82-7.68a18.55,18.55,0,0,1-18.56-18.13c-2.75-120.19-13.25-240-16-360.21-.15-10.07,7.92-19.3,18.59-20.67,114-14.62,228.21-28.25,342.26-42.76,13-1.67,23.31,6.18,23.09,17.57-4.54,137.81-27.55,274.07-32.12,411.87C526.54,1096.84,516.51,1105.8,504.32,1105.71Z"/><path class="cls-9" d="M247.47,750.27,216,753.64a2.87,2.87,0,0,1-3.37-2.63c-.11-3.53-.16-5.29-.26-8.82a3.49,3.49,0,0,1,3.2-3.36c12.25-1.38,18.57-2.09,31.52-3.53a3,3,0,0,1,3.55,2.64c.08,3.57.13,5.36.21,8.94A3.62,3.62,0,0,1,247.47,750.27Z"/><path class="cls-9" d="M309.21,743.77l-34.06,3.57c-2,.21-3.61-1-3.65-2.67-.06-3.6-.09-5.4-.16-9a3.76,3.76,0,0,1,3.55-3.45l34.21-3.76c2.06-.23,3.75,1,3.76,2.68,0,3.65,0,5.48.06,9.14C312.93,742,311.26,743.55,309.21,743.77Z"/><path class="cls-9" d="M374.4,737l-35.71,3.73c-2.1.22-3.8-1-3.79-2.73,0-3.69,0-5.53,0-9.22,0-1.72,1.7-3.3,3.81-3.53l35.9-3.93c2.15-.24,3.87,1,3.85,2.74-.05,3.74-.08,5.61-.14,9.36C378.3,735.13,376.54,736.73,374.4,737Z"/><path class="cls-9" d="M441.27,729.93c-14.57,1.55-21.87,2.31-36.4,3.84-2.16.22-3.87-1-3.83-2.79.09-3.78.13-5.67.21-9.44,0-1.76,1.82-3.38,4-3.62l36.57-4c2.17-.24,3.89,1,3.83,2.81-.12,3.83-.18,5.75-.32,9.58C445.24,728.07,443.44,729.71,441.27,729.93Z"/><path class="cls-9" d="M508.05,722.8l-36.13,3.88c-2.16.23-3.84-1-3.77-2.85.16-3.87.24-5.8.38-9.66.06-1.81,1.87-3.46,4-3.71,14.57-1.62,21.84-2.44,36.23-4.07,2.14-.24,3.81,1,3.73,2.87-.17,3.92-.26,5.88-.45,9.8A4.4,4.4,0,0,1,508.05,722.8Z"/><path class="cls-9" d="M248.26,780.5c-12.8,1.22-19.06,1.83-31.23,3a2.91,2.91,0,0,1-3.37-2.67c-.13-3.53-.19-5.29-.32-8.83a3.41,3.41,0,0,1,3.17-3.32c12.2-1.26,18.49-1.9,31.35-3.2a3,3,0,0,1,3.53,2.68c.1,3.58.14,5.37.24,9A3.57,3.57,0,0,1,248.26,780.5Z"/><path class="cls-9" d="M309.37,774.7l-33.69,3.18c-2,.19-3.58-1-3.61-2.72-.07-3.61-.1-5.41-.17-9a3.7,3.7,0,0,1,3.52-3.41c13.31-1.34,20.11-2,33.88-3.38,2-.2,3.71,1,3.71,2.73,0,3.67,0,5.5,0,9.17C313.05,773,311.4,774.51,309.37,774.7Z"/><path class="cls-9" d="M373.77,768.65,338.49,772c-2.07.2-3.74-1.05-3.73-2.78,0-3.69,0-5.54.06-9.24,0-1.73,1.7-3.29,3.79-3.5l35.51-3.52c2.12-.21,3.81,1,3.78,2.79-.09,3.76-.13,5.64-.22,9.4C377.63,766.87,375.88,768.45,373.77,768.65Z"/><path class="cls-9" d="M439.88,762.4c-14.42,1.38-21.64,2.06-36,3.41-2.13.21-3.81-1.07-3.75-2.84l.3-9.47c.05-1.77,1.83-3.38,4-3.59l36.21-3.63c2.15-.21,3.83,1.07,3.75,2.86-.17,3.85-.26,5.78-.45,9.63C443.83,760.57,442,762.2,439.88,762.4Z"/><path class="cls-9" d="M506.1,756c-14.28,1.4-21.47,2.1-35.87,3.49-2.13.2-3.78-1.1-3.68-2.91.22-3.89.32-5.83.52-9.71.1-1.81,1.91-3.45,4.06-3.67,14.47-1.47,21.69-2.21,36-3.69,2.12-.22,3.76,1.09,3.64,2.93-.24,3.94-.36,5.9-.62,9.84A4.42,4.42,0,0,1,506.1,756Z"/><path class="cls-9" d="M249.13,810.75c-12.66,1.07-18.86,1.61-30.94,2.66a3,3,0,0,1-3.36-2.7c-.15-3.53-.22-5.3-.36-8.83a3.33,3.33,0,0,1,3.13-3.29c12.12-1.13,18.36-1.7,31.09-2.85a3,3,0,0,1,3.51,2.72l.25,9A3.49,3.49,0,0,1,249.13,810.75Z"/><path class="cls-9" d="M309.46,805.68l-33.24,2.77a3.05,3.05,0,0,1-3.56-2.76c-.07-3.61-.11-5.42-.18-9a3.61,3.61,0,0,1,3.47-3.37l33.47-3c2-.18,3.66,1.06,3.66,2.78,0,3.67,0,5.51,0,9.18A3.77,3.77,0,0,1,309.46,805.68Z"/><path class="cls-9" d="M372.93,800.42l-34.77,2.88c-2,.17-3.68-1.1-3.66-2.83,0-3.7.06-5.56.09-9.26a3.9,3.9,0,0,1,3.75-3.46l35-3.1c2.1-.18,3.76,1.09,3.71,2.85-.11,3.77-.17,5.65-.28,9.42A4,4,0,0,1,372.93,800.42Z"/><path class="cls-9" d="M438.13,795l-35.52,3c-2.11.18-3.75-1.12-3.68-2.9.16-3.8.23-5.7.38-9.49.07-1.78,1.84-3.37,4-3.56L439,778.8c2.13-.19,3.77,1.12,3.67,2.92-.22,3.86-.33,5.79-.56,9.66A4.26,4.26,0,0,1,438.13,795Z"/><path class="cls-9" d="M503.65,789.33c-14.16,1.24-21.28,1.86-35.52,3.08-2.12.18-3.73-1.14-3.61-3,.26-3.9.39-5.85.64-9.74a4.35,4.35,0,0,1,4.06-3.64c14.32-1.31,21.48-2,35.7-3.29,2.11-.2,3.71,1.14,3.57,3-.3,4-.46,5.92-.77,9.88A4.43,4.43,0,0,1,503.65,789.33Z"/><path class="cls-9" d="M250.05,841c-12.5.93-18.63,1.39-30.59,2.3a3,3,0,0,1-3.34-2.74c-.15-3.53-.23-5.3-.39-8.83a3.28,3.28,0,0,1,3.09-3.26c12-1,18.19-1.48,30.76-2.48a3,3,0,0,1,3.48,2.76c.1,3.59.15,5.38.26,9A3.4,3.4,0,0,1,250.05,841Z"/><path class="cls-9" d="M309.49,836.69c-13.28.95-19.83,1.42-32.72,2.36a3.09,3.09,0,0,1-3.52-2.81c-.07-3.61-.1-5.42-.17-9a3.52,3.52,0,0,1,3.42-3.33l33-2.56c2-.16,3.6,1.11,3.6,2.83,0,3.67,0,5.51,0,9.19A3.68,3.68,0,0,1,309.49,836.69Z"/><path class="cls-9" d="M371.93,832.24l-34.19,2.43c-2,.15-3.62-1.14-3.6-2.87.05-3.71.07-5.56.12-9.27a3.82,3.82,0,0,1,3.7-3.42l34.48-2.66c2.07-.16,3.69,1.14,3.63,2.9-.12,3.77-.19,5.66-.32,9.43A4,4,0,0,1,371.93,832.24Z"/><path class="cls-9" d="M436.12,827.6c-14,1-21.05,1.54-35,2.54-2.07.15-3.68-1.17-3.6-2.95.18-3.8.27-5.7.44-9.51a4.1,4.1,0,0,1,3.91-3.51c14.05-1.09,21.12-1.64,35.27-2.76,2.09-.17,3.7,1.16,3.59,3-.25,3.87-.37,5.8-.63,9.67A4.21,4.21,0,0,1,436.12,827.6Z"/><path class="cls-9" d="M500.83,822.74c-14,1.08-21.05,1.61-35.12,2.67-2.09.15-3.67-1.2-3.53-3,.29-3.9.44-5.85.72-9.75a4.31,4.31,0,0,1,4-3.6c14.16-1.14,21.24-1.72,35.33-2.88,2.09-.18,3.65,1.18,3.49,3-.34,4-.51,5.94-.86,9.9A4.41,4.41,0,0,1,500.83,822.74Z"/><path class="cls-9" d="M251,871.27c-12.32.77-18.37,1.16-30.19,1.93a3,3,0,0,1-3.31-2.77c-.17-3.54-.25-5.3-.41-8.84a3.17,3.17,0,0,1,3-3.21c11.9-.85,18-1.27,30.39-2.12a3.06,3.06,0,0,1,3.43,2.81c.11,3.58.17,5.38.27,9A3.3,3.3,0,0,1,251,871.27Z"/><path class="cls-9" d="M309.5,867.71l-32.18,1.94a3.09,3.09,0,0,1-3.46-2.85c-.07-3.62-.11-5.42-.18-9a3.45,3.45,0,0,1,3.37-3.29l32.45-2.14A3.08,3.08,0,0,1,313,855.2c0,3.68,0,5.52,0,9.19A3.58,3.58,0,0,1,309.5,867.71Z"/><path class="cls-9" d="M370.83,864.07l-33.59,2a3.08,3.08,0,0,1-3.52-2.92c0-3.71.07-5.56.13-9.27a3.73,3.73,0,0,1,3.64-3.38l33.89-2.21c2-.13,3.63,1.19,3.56,3l-.35,9.43A3.88,3.88,0,0,1,370.83,864.07Z"/><path class="cls-9" d="M433.94,860.26c-13.82.85-20.72,1.27-34.42,2.09-2,.13-3.61-1.22-3.52-3,.19-3.81.28-5.71.46-9.52a4,4,0,0,1,3.87-3.46L435,844.06c2.06-.14,3.64,1.21,3.52,3-.27,3.87-.41,5.8-.68,9.67A4.13,4.13,0,0,1,433.94,860.26Z"/><path class="cls-9" d="M497.77,856.18c-13.86.92-20.81,1.37-34.68,2.25-2.06.13-3.61-1.24-3.46-3.06.31-3.91.46-5.86.77-9.76a4.25,4.25,0,0,1,4-3.56c14-1,21-1.46,34.9-2.46,2.07-.15,3.61,1.23,3.44,3.08-.37,4-.56,6-.93,9.91A4.34,4.34,0,0,1,497.77,856.18Z"/><path class="cls-9" d="M252,901.52c-12.13.62-18.1.93-29.79,1.56a3,3,0,0,1-3.27-2.81c-.17-3.53-.25-5.3-.42-8.83a3.13,3.13,0,0,1,3-3.18c11.76-.7,17.76-1,30-1.74a3.08,3.08,0,0,1,3.38,2.84c.11,3.59.17,5.38.28,9A3.24,3.24,0,0,1,252,901.52Z"/><path class="cls-9" d="M309.48,898.71c-12.81.61-19.14.91-31.61,1.52a3.09,3.09,0,0,1-3.4-2.89c-.08-3.61-.11-5.42-.18-9a3.35,3.35,0,0,1,3.31-3.24c12.57-.69,19-1,31.89-1.73a3.1,3.1,0,0,1,3.47,2.92c0,3.68,0,5.51,0,9.19A3.5,3.5,0,0,1,309.48,898.71Z"/><path class="cls-9" d="M369.68,895.89l-33,1.54a3.1,3.1,0,0,1-3.46-3c.05-3.7.08-5.55.14-9.26a3.63,3.63,0,0,1,3.58-3.32l33.27-1.77a3.07,3.07,0,0,1,3.49,3c-.15,3.77-.22,5.65-.36,9.42A3.79,3.79,0,0,1,369.68,895.89Z"/><path class="cls-9" d="M431.68,892.9l-33.83,1.65a3.05,3.05,0,0,1-3.45-3c.19-3.81.28-5.71.47-9.51a3.93,3.93,0,0,1,3.81-3.42c13.58-.73,20.42-1.1,34.12-1.87a3,3,0,0,1,3.46,3.07c-.28,3.86-.42,5.8-.69,9.66A4,4,0,0,1,431.68,892.9Z"/><path class="cls-9" d="M494.61,889.6c-13.7.76-20.56,1.13-34.23,1.84a3,3,0,0,1-3.4-3.11c.31-3.9.47-5.85.79-9.75a4.16,4.16,0,0,1,4-3.51c13.77-.79,20.67-1.2,34.45-2a3,3,0,0,1,3.39,3.12c-.39,4-.58,5.94-1,9.9A4.23,4.23,0,0,1,494.61,889.6Z"/><path class="cls-9" d="M252.94,931.73c-11.95.47-17.84.7-29.39,1.2a3.06,3.06,0,0,1-3.23-2.85c-.17-3.53-.25-5.29-.42-8.82a3.06,3.06,0,0,1,3-3.13c11.61-.57,17.54-.84,29.58-1.38a3.09,3.09,0,0,1,3.33,2.89c.11,3.58.17,5.37.27,8.94A3.15,3.15,0,0,1,252.94,931.73Z"/><path class="cls-9" d="M309.47,929.68c-12.57.43-18.79.65-31.05,1.1a3.12,3.12,0,0,1-3.35-2.93c-.07-3.61-.1-5.41-.17-9a3.28,3.28,0,0,1,3.25-3.2l31.33-1.3a3.1,3.1,0,0,1,3.4,3c0,3.67,0,5.5,0,9.17A3.4,3.4,0,0,1,309.47,929.68Z"/><path class="cls-9" d="M368.54,927.66l-32.34,1.1a3.1,3.1,0,0,1-3.39-3c.05-3.7.08-5.55.13-9.25a3.54,3.54,0,0,1,3.52-3.27l32.64-1.32a3.07,3.07,0,0,1,3.42,3l-.35,9.4A3.67,3.67,0,0,1,368.54,927.66Z"/><path class="cls-9" d="M429.44,925.48c-13.37.5-20,.74-33.25,1.21a3.07,3.07,0,0,1-3.39-3.08c.19-3.8.28-5.69.47-9.49a3.81,3.81,0,0,1,3.74-3.36c13.33-.56,20.05-.84,33.53-1.43a3,3,0,0,1,3.4,3.11c-.27,3.86-.41,5.79-.68,9.64A3.91,3.91,0,0,1,429.44,925.48Z"/><path class="cls-9" d="M491.47,923c-13.54.59-20.31.88-33.77,1.42a3,3,0,0,1-3.36-3.15c.31-3.89.46-5.83.77-9.73a4.07,4.07,0,0,1,3.91-3.46c13.57-.62,20.37-.94,34-1.62a3,3,0,0,1,3.34,3.16c-.38,3.95-.57,5.93-.94,9.88A4.14,4.14,0,0,1,491.47,923Z"/><path class="cls-9" d="M253.88,961.9c-11.78.32-17.58.48-29,.84a3.07,3.07,0,0,1-3.2-2.88c-.16-3.52-.23-5.28-.39-8.8a3,3,0,0,1,2.94-3.1c11.48-.43,17.33-.63,29.19-1a3.1,3.1,0,0,1,3.28,2.92c.11,3.57.16,5.36.26,8.93A3.08,3.08,0,0,1,253.88,961.9Z"/><path class="cls-9" d="M309.49,960.58l-30.52.69a3.11,3.11,0,0,1-3.29-3c-.07-3.6-.11-5.41-.18-9a3.2,3.2,0,0,1,3.2-3.14c12.15-.37,18.32-.55,30.78-.9a3.12,3.12,0,0,1,3.34,3c0,3.66,0,5.49,0,9.15A3.3,3.3,0,0,1,309.49,960.58Z"/><path class="cls-9" d="M367.47,959.35l-31.74.67a3.13,3.13,0,0,1-3.34-3c.05-3.69.07-5.53.12-9.23a3.43,3.43,0,0,1,3.45-3.21l32-.89a3.09,3.09,0,0,1,3.36,3.08c-.13,3.75-.2,5.63-.33,9.38A3.55,3.55,0,0,1,367.47,959.35Z"/><path class="cls-9" d="M427.31,958c-13.16.33-19.7.49-32.69.78a3.09,3.09,0,0,1-3.34-3.12c.18-3.78.26-5.68.44-9.46a3.7,3.7,0,0,1,3.67-3.31c13.09-.38,19.69-.57,33-1a3,3,0,0,1,3.34,3.14c-.25,3.85-.38,5.78-.63,9.62A3.8,3.8,0,0,1,427.31,958Z"/><path class="cls-9" d="M488.48,956.22c-13.39.44-20.06.64-33.34,1a3,3,0,0,1-3.33-3.18c.29-3.87.44-5.81.73-9.69a3.94,3.94,0,0,1,3.84-3.4c13.37-.46,20.09-.7,33.56-1.22a3,3,0,0,1,3.31,3.2c-.35,3.93-.53,5.9-.88,9.84A4,4,0,0,1,488.48,956.22Z"/><path class="cls-9" d="M254.79,992c-11.63.17-17.37.27-28.68.5A3.07,3.07,0,0,1,223,989.6c-.15-3.52-.22-5.28-.37-8.8a3,3,0,0,1,2.92-3c11.37-.29,17.14-.42,28.83-.66a3.11,3.11,0,0,1,3.24,2.95l.25,8.91A3,3,0,0,1,254.79,992Z"/><path class="cls-9" d="M309.54,991.4c-12.14.1-18.15.16-30,.3a3.16,3.16,0,0,1-3.25-3c-.07-3.59-.1-5.38-.17-9a3.11,3.11,0,0,1,3.15-3.09c12-.21,18-.31,30.26-.5a3.14,3.14,0,0,1,3.29,3v9.12A3.21,3.21,0,0,1,309.54,991.4Z"/><path class="cls-9" d="M366.52,990.93l-31.19.25A3.15,3.15,0,0,1,332,988.1l.1-9.2a3.34,3.34,0,0,1,3.38-3.16l31.45-.46a3.12,3.12,0,0,1,3.32,3.11c-.12,3.74-.18,5.61-.29,9.35A3.43,3.43,0,0,1,366.52,990.93Z"/><path class="cls-9" d="M425.38,990.33c-13,.16-19.4.23-32.17.36a3.13,3.13,0,0,1-3.3-3.16c.15-3.76.23-5.65.39-9.42a3.57,3.57,0,0,1,3.59-3.25c12.87-.21,19.36-.32,32.42-.56a3.07,3.07,0,0,1,3.31,3.17c-.23,3.83-.35,5.75-.57,9.58A3.67,3.67,0,0,1,425.38,990.33Z"/><path class="cls-9" d="M485.78,989.31c-13.25.29-19.85.41-33,.62a3.08,3.08,0,0,1-3.3-3.2c.25-3.86.38-5.79.65-9.65a3.81,3.81,0,0,1,3.76-3.35c13.19-.29,19.83-.45,33.15-.81a3,3,0,0,1,3.31,3.22c-.32,3.92-.48,5.87-.78,9.79A3.9,3.9,0,0,1,485.78,989.31Z"/><path class="cls-9" d="M255.63,1022c-11.5,0-17.18.07-28.41.17a3.09,3.09,0,0,1-3.12-2.94c-.12-3.5-.19-5.26-.32-8.77a2.91,2.91,0,0,1,2.91-3c11.26-.17,17-.23,28.53-.33a3.13,3.13,0,0,1,3.19,3c.09,3.56.14,5.34.23,8.89A3,3,0,0,1,255.63,1022Z"/><path class="cls-9" d="M309.65,1022.11c-12-.05-17.88-.07-29.6-.08a3.18,3.18,0,0,1-3.2-3c-.06-3.58-.1-5.37-.17-9a3,3,0,0,1,3.11-3c11.79-.06,17.75-.08,29.8-.11a3.17,3.17,0,0,1,3.25,3.07c0,3.64,0,5.45,0,9.09A3.13,3.13,0,0,1,309.65,1022.11Z"/><path class="cls-9" d="M365.75,1022.37l-30.7-.15a3.18,3.18,0,0,1-3.25-3.11c0-3.66,0-5.5.06-9.16a3.23,3.23,0,0,1,3.31-3.11l30.94-.05a3.15,3.15,0,0,1,3.27,3.15c-.09,3.72-.14,5.58-.23,9.3A3.32,3.32,0,0,1,365.75,1022.37Z"/><path class="cls-9" d="M423.75,1022.51c-12.79,0-19.13,0-31.71,0a3.17,3.17,0,0,1-3.28-3.18c.12-3.75.18-5.63.31-9.38a3.46,3.46,0,0,1,3.52-3.18c12.67-.05,19.06-.08,31.93-.16a3.12,3.12,0,0,1,3.29,3.2c-.19,3.81-.28,5.71-.47,9.52A3.54,3.54,0,0,1,423.75,1022.51Z"/><path class="cls-9" d="M483.5,1022.2c-13.15.14-19.68.18-32.64.24a3.15,3.15,0,0,1-3.31-3.23c.21-3.83.32-5.75.54-9.58a3.68,3.68,0,0,1,3.69-3.29c13-.13,19.59-.21,32.79-.43a3.1,3.1,0,0,1,3.32,3.24c-.26,3.89-.39,5.84-.64,9.72A3.75,3.75,0,0,1,483.5,1022.2Z"/><path class="cls-9" d="M256.39,1052c-11.4-.1-17-.13-28.22-.14a3.09,3.09,0,0,1-3.09-3c-.1-3.5-.16-5.25-.27-8.75a2.89,2.89,0,0,1,2.91-3c11.2-.05,16.86-.05,28.3,0a3.14,3.14,0,0,1,3.15,3c.09,3.54.13,5.32.21,8.86A2.92,2.92,0,0,1,256.39,1052Z"/><path class="cls-9" d="M309.84,1052.68c-11.82-.19-17.67-.28-29.26-.43a3.17,3.17,0,0,1-3.16-3.06c-.07-3.56-.1-5.35-.17-8.92a3,3,0,0,1,3.07-3c11.65.09,17.53.14,29.42.26a3.2,3.2,0,0,1,3.21,3.1l.05,9A3,3,0,0,1,309.84,1052.68Z"/><path class="cls-9" d="M365.21,1053.63l-30.3-.52a3.23,3.23,0,0,1-3.22-3.14c0-3.64,0-5.46,0-9.11a3.13,3.13,0,0,1,3.25-3l30.49.34a3.2,3.2,0,0,1,3.25,3.17c-.07,3.7-.1,5.55-.15,9.24A3.21,3.21,0,0,1,365.21,1053.63Z"/><path class="cls-9" d="M422.52,1054.47c-12.66-.14-18.93-.23-31.36-.42a3.22,3.22,0,0,1-3.26-3.2c.08-3.72.12-5.58.22-9.31a3.32,3.32,0,0,1,3.43-3.13c12.5.12,18.81.17,31.53.24a3.18,3.18,0,0,1,3.29,3.22c-.15,3.78-.22,5.67-.34,9.45A3.4,3.4,0,0,1,422.52,1054.47Z"/><path class="cls-9" d="M481.77,1054.83c-13.08,0-19.56,0-32.41-.11a3.22,3.22,0,0,1-3.33-3.24c.15-3.81.23-5.71.4-9.52a3.53,3.53,0,0,1,3.61-3.22c12.9,0,19.4,0,32.51-.06a3.16,3.16,0,0,1,3.35,3.24c-.2,3.87-.29,5.8-.47,9.65A3.58,3.58,0,0,1,481.77,1054.83Z"/><path class="cls-6" d="M295.14,1063.25c-6.71-17.46-24.39-28.42-42.1-26.36-14.39,1.67-28.41-7.83-33.29-22.45-6.73-20.22-10.21-30.37-17.14-50.69l-1.48-4.34h0c-1.37-4-2.06-6-3.44-10.09-.71-2.08-1.07-3.12-1.78-5.21h0c-1.23-3.62-1.85-5.43-3.09-9.05l-2.12-6.25h0l-1.27-3.73c-9.59-31.66-40.22-55.82-72.91-57.81-1.51-4.88-2.27-7.32-3.76-12.2-3.9-12.72-15.27-21.13-26.95-19.88l-.22,0c-5.54-25.67-8.18-38.45-13-63.73a4.78,4.78,0,0,0-5-4.1L56,768.6a4.66,4.66,0,0,0-3.91,5c1.25,25.65,2.1,38.63,3.94,64.72l-.22,0c-11.67,1.24-20.36,11.82-20.41,25,0,5.05,0,7.58-.05,12.64-32.45,8.42-52.27,39.47-52.76,72,0,1.56,0,2.34-.06,3.91h0c-.07,4-.1,6-.17,10l-.1,6h0c-.07,4-.1,6-.18,10.05h0l-.1,6h0l-.2,10h0c-.37,19.11-.58,28.66-1.06,47.68-.4,15.33-11.29,27.78-25.68,29.45h0c-17.72,2.06-31.65,16.81-33.55,35.35-1.72,16.75-2.59,25.07-4.32,41.56l392.44-45.65C304.12,1086.87,301.2,1079,295.14,1063.25Z"/><path class="cls-6" d="M873,905.15a6.91,6.91,0,0,0,1.14-10.23c-21.8-25-47-48.17-75.36-65a32.06,32.06,0,0,0-25.13-3.27c-7.28,1.78-10.94,2.66-18.3,4.42-.05,0-.1,0-.09-.07.3-10.41.46-15.62.77-26a.09.09,0,0,1,.08-.06c18,2.32,26.9,3.46,44.52,5.61a.08.08,0,0,0,.07,0c1.56-3.55,2.34-5.33,3.89-8.89h0C812,797,815.69,794.74,823,790.14a6.7,6.7,0,0,0,1.22-10.24c-14.71-16.36-33.13-33-49.35-42.65A21.09,21.09,0,0,0,758.34,735a.06.06,0,0,1-.08-.07c.29-8.8.43-13.21.73-22a.08.08,0,0,1,.08-.07c12.53,1.63,18.77,2.43,31.19,4a.08.08,0,0,0,.07,0c1.27-2.89,1.9-4.33,3.16-7.22h0c5.5-3.39,8.23-5.09,13.67-8.5a6.74,6.74,0,0,0,1.27-10.25c-11.6-13-25.79-26-38.33-33.59a16.49,16.49,0,0,0-9-2.44.07.07,0,0,1-.07-.07c.45-12.92.68-19.39,1.14-32.31a.06.06,0,0,1,.07-.06c11.39,1.47,17.08,2.2,28.41,3.62,0,0,0,0,.06,0l2.86-6.93h0c4.85-3.25,7.26-4.89,12.07-8.16a6.8,6.8,0,0,0,1.26-10c-10.17-12.31-22.6-24.56-33.6-31.72a13.44,13.44,0,0,0-9.06-2.17.07.07,0,0,1-.07-.07c.25-7.13.38-10.7.63-17.83a.08.08,0,0,1,0,0c6.83-5.49,10.23-8.23,17-13.73a6.85,6.85,0,0,0,2-7.77c-8.6-22.83-22.28-40.53-40.88-53.3a.09.09,0,0,1,0-.07c.36-3.86.55-5.8.91-9.66a7.49,7.49,0,0,0-4.85-7.89,6.56,6.56,0,0,0-8.57,5.73c-.38,4-.57,6-1,10.06a.07.07,0,0,1,0,.05c-20.55,7.64-37.27,21.41-50.19,41.48a7,7,0,0,0,.35,8.06c5.5,7.07,8.26,10.61,13.79,17.69a.11.11,0,0,1,0,.05c-1.2,7-1.81,10.52-3,17.53a.07.07,0,0,1-.09,0,13.22,13.22,0,0,0-9.28-.21c-12.19,4.17-26.84,13-39.32,22.51a6.83,6.83,0,0,0-.88,10c4,4.35,6,6.52,10,10.89l-.35,0,1.3,7.44a.09.09,0,0,0,.06.06c11.47,1.44,17.22,2.18,28.75,3.67,0,0,.06,0,.06.08-2.32,12.68-3.49,19-5.85,31.69a.07.07,0,0,1-.08,0,16.14,16.14,0,0,0-9.31.08c-13.85,4.23-30.48,13.32-44.62,23.16a6.73,6.73,0,0,0-1,10.26c4.54,4.62,6.83,6.94,11.42,11.58l-.39,0c.59,3.11.88,4.67,1.47,7.79a.06.06,0,0,0,.06,0c12.58,1.57,18.9,2.38,31.59,4,0,0,.07,0,.06.08-1.66,8.63-2.5,13-4.18,21.57,0,0-.06.07-.1,0a21,21,0,0,0-16.6-2c-17.92,5.32-39.54,17-57.53,29.52a6.68,6.68,0,0,0-1.1,10.23c6.1,6.16,9.19,9.25,15.42,15.45l-.5-.06,1.8,9.57s0,0,.06,0c17.81,2.17,26.84,3.32,45,5.67a.06.06,0,0,1,.06.08c-2,10.19-3,15.28-5.06,25.47a.08.08,0,0,1-.11.05l-16.84-8.94a31.78,31.78,0,0,0-25.17-3c-31.65,9.6-61.45,26.83-88,46.8a6.87,6.87,0,0,0-1.14,10.19C519.45,871,524.36,876,534.43,886l-.71-.08c1,5.63,1.52,8.45,2.56,14.08a.06.06,0,0,0,.06.05c15.59,1.71,23.58,2.64,39.79,4.6a.06.06,0,0,1,.06.07c-.4,2.82-.59,4.23-1,7.06l2.89.35c-1.47,10.54-2.19,15.81-3.62,26.36l-2.9-.35c-1.94,14.25-2.9,21.37-4.75,35.63a.08.08,0,0,1-.08.06c-10-1.21-14.89-1.79-24.6-2.9a7.1,7.1,0,0,0-8,5.89q-7.32,56.58-13.39,113.29a7.09,7.09,0,0,0,6.45,7.54c93.18,11.08,186.06,24.52,279.24,35.62a6.74,6.74,0,0,0,7.72-5.92q4.91-56.92,9.41-113.88A7.26,7.26,0,0,0,817,1006c-7.48-.85-11.26-1.3-18.89-2.22a.07.07,0,0,1-.07-.07c1.17-14.36,1.74-21.54,2.89-35.9l-2.89-.35c.86-10.63,1.29-15.95,2.14-26.58l2.87.34c.23-2.85.34-4.27.57-7.12a.07.07,0,0,1,.07-.06c13.89,1.67,20.75,2.46,34.18,3.93a.08.08,0,0,0,.07,0c2.24-5.29,3.36-7.94,5.58-13.23h0C855.52,916.94,861.42,913,873,905.15ZM580.51,939.27c1.42-10.55,2.14-15.82,3.59-26.37l2.91.36c.39-2.83.58-4.24,1-7.06,0,0,0-.06.08-.06l17.84,2.23a.08.08,0,0,1,.06.08c-3,22.16-4.41,33.24-7.22,55.42a.06.06,0,0,1-.08,0l-3.63-.46-.06,0c-5.58,4.85-8.37,7.28-13.93,12.14l-2.28-.28c1.83-14.29,2.77-21.43,4.68-35.71Zm213.69.83c-.86,10.63-1.3,15.95-2.17,26.58l-2.91-.36c-1.18,14.36-1.78,21.54-3,35.9a.06.06,0,0,1-.08,0l-7.94-1a.06.06,0,0,1-.06,0c-4.39-6.09-6.59-9.15-11-15.25a.05.05,0,0,0-.05,0l-3-.38c2-22.33,2.93-33.5,4.88-55.83,0,0,0-.06.08-.06,9.19,1.17,13.76,1.74,22.83,2.85a.06.06,0,0,1,.06.07c-.23,2.85-.35,4.27-.58,7.12Z"/><path class="cls-6" d="M2036.76,989.52c-49.12,6-90.2,10.05-139.2,15.7-22.38-146.17-47.38-286.22-70.77-422.61l8.28-.73a5.13,5.13,0,0,0,4-2.19l7.31-12.49a2.62,2.62,0,0,0,.37-1.62c-.45-4-.67-6-1.13-10-.21-1.87-2.52-3.19-5.16-3l-9.11.79c-16.56-27.94-33.62-55.34-50.95-82.31-3-4.67-13.12-3.8-14.66,1.25-9,29.46-18.1,59.1-26.92,89l-9.1.79c-2.64.22-4.55,1.92-4.27,3.79.6,4,.9,6,1.49,10a2.85,2.85,0,0,0,.78,1.53c4.13,4.39,6.2,6.58,10.32,11a5.59,5.59,0,0,0,4.47,1.45l8.28-.72c10.91,138.47,13.37,279.95,28.67,427.73-51.79,6-94,13.57-145.52,19.88a4.2,4.2,0,0,0-3.5,5c.49,2.92.74,4.38,1.23,7.3a4.68,4.68,0,0,0,5,4l7.4-.92q37.76,39.11,75.73,79.14a8.63,8.63,0,0,0,7.25,2.73l245.36-29a8.18,8.18,0,0,0,6.27-4.33c16.91-31.84,34.36-63.13,52.1-94l7.51-.93a4.58,4.58,0,0,0,3.89-5c-.28-2.92-.43-4.37-.7-7.28A4.29,4.29,0,0,0,2036.76,989.52Z"/><path class="cls-6" d="M1132.35,1090.47c-3.74-13.78-15.85-23.67-29.27-23-10.89.54-20.92-7.62-23.54-19.66-3.63-16.63-5.5-25.15-9.25-42.2l-.8-3.66h0c-.74-3.38-1.11-5.08-1.86-8.47-.38-1.76-.57-2.63-1-4.39h0c-.67-3.05-1-4.57-1.67-7.61l-1.15-5.26h0l-.68-3.13c-5.5-25.77-25.72-47.8-53-49.12-.84-4-1.26-5.94-2.08-9.86-2.15-10.24-10.69-16.9-20.23-15.94l-.18,0c-2.56-20.22-3.77-30.06-5.93-48.57a3.35,3.35,0,0,0-3.77-3l-9.58,1a4,4,0,0,0-3.52,3.73c-.73,18.8-1,28.77-1.37,49.21l-.19,0c-9.53,1-17.29,9.16-18.28,19.59-.37,4-.56,6-.94,10-26.36,6.27-44.12,30-46.68,56.41l-.3,3.11h0c-.31,3.19-.47,4.79-.77,8-.19,1.93-.29,2.89-.47,4.82h0c-.31,3.21-.47,4.81-.78,8h0c-.19,1.9-.28,2.86-.47,4.76h0c-.32,3.2-.47,4.79-.79,8h0c-1.5,15.15-2.26,22.7-3.82,37.51-1.26,12-10.37,21-21.27,21.56h0c-13.41.66-24.4,11.15-26.83,24.91-2.2,12.43-3.3,18.52-5.49,30.31,101.42-4.33,202.6-12.72,304-17C1137.37,1109,1135.74,1102.92,1132.35,1090.47Z"/><path class="cls-6" d="M1250.61,640.07l-2.74-6.09c-1.21-2.69-4.78-4.16-8-3.28l-4.26,1.17q-3.18-4.95-6.38-9.89c13.61-4.53,15.58-8.57,15.06-12.11-.78-5.41-7.58-11.26-52.29-13.78-28.7-1.61-66.33-1.38-106.81.66l-1.33-9.24A3,3,0,0,0,1081,585c-2.68,0-5.54.21-8.53.49a2.54,2.54,0,0,0-2.29,2.81l.93,9.25C1030,600,991.33,604,961.7,609c-47.17,7.89-53,14.77-52.46,20.46.48,4.92,5.89,10.18,38.48,13L943.55,654l-24.34-2.46c-4.87-.49-9.33,2.25-10,6.14l-3.65,22.82c-.63,3.92,2.84,7.49,7.75,8l53.85,5.2c4.84.47,9.22-2.31,9.8-6.21l3.34-22.66c.56-3.86-2.87-7.37-7.67-7.86l-25.61-2.58,4.18-11.6c4.27.33,8.94.62,14.1.87,15.63.76,33.59,1,52.95.73.47,3.68,1,7.38,1.42,11.07-10.37,2.13-17.6,10-16.61,19,1.11,10,12.09,17.53,24.48,16.69s21.38-9.64,20.22-19.62-12-17.38-24.33-16.61l-.36,0q-.68-5.33-1.37-10.64c17.11-.29,35.24-1,53.8-2l45.81,458.18a3,3,0,0,0,3.28,2.85l30.18-3.92a3.06,3.06,0,0,0,2.47-3.57l-65.64-454.53c28.14-1.89,54.64-4.49,77.54-7.56l1.92,8.56-10.87,1.32c-3.3.4-5.5,2.93-4.9,5.66L1160,670.5c.6,2.75,3.78,4.64,7.09,4.22l28.31-3.58c3.28-.41,5.45-3,4.83-5.69l-4.71-21c-.61-2.71-3.75-4.58-7-4.19l-14.12,1.71c-.64-2.86-1.29-5.73-1.94-8.59,8.68-1.2,16.8-2.46,24.25-3.78a268.61,268.61,0,0,0,29.61-6.64l6.32,9.79-1.36.37c-3.21.88-4.84,3.78-3.63,6.49l2.74,6.11c1.21,2.71,4.81,4.18,8,3.29l8.66-2.41C1250.21,645.67,1251.82,642.77,1250.61,640.07Zm-82.25-36.4c27.33.53,47.05,2.28,57.63,4.45l-107.55,6.24Zm-27-.13L1087.84,615l-1.4-9.68C1106.57,604.23,1125,603.69,1141.37,603.54Zm-69.44,2.55,1,9.73-56.69-5.2C1033,608.88,1051.63,607.33,1071.93,606.09Zm-83.52,7.8,53.77,4.89L928.6,625.36C939.39,621.84,959.9,617.67,988.41,613.89Zm2.38,21.73c-29-.43-50.19-2.17-61.58-4.41l113.63-6.68Zm28.27,0,54.65-11.71,1,9.75C1054.52,634.78,1035.88,635.41,1019.06,635.63Zm71.35-2.91L1089,623l55.55,5.05C1128.46,629.82,1110.34,631.41,1090.41,632.72Zm80.78-7.91-52-4.77,107.61-6.33C1217,617.08,1198,621.1,1171.19,624.81Z"/><path class="cls-6" d="M110.53,666.68l7.2,3.27a4.94,4.94,0,0,0,6.71-2.23l2.39-5.55a5.25,5.25,0,0,0-2.9-6.67L122.8,655l5.46-8.76a216.06,216.06,0,0,0,24.34,9.9c6.05,2.12,12.61,4.26,19.58,6.37q-1,4-1.91,7.9l-11.34-3.18a4.56,4.56,0,0,0-5.84,3.18l-4.46,19.18a5,5,0,0,0,3.71,5.75l22.4,6.12a4.54,4.54,0,0,0,5.76-3.13l4.62-19a5,5,0,0,0-3.63-5.8l-8.64-2.42c.64-2.61,1.27-5.22,1.91-7.84,18.13,5.43,38.83,10.72,60.46,15.45l-87.85,448.74a1.68,1.68,0,0,0,1.47,2l18.81,2.08a2,2,0,0,0,2.14-1.65l77.64-448.64c13.94,2.86,27.43,5.31,40.06,7.28q-1,4.67-2,9.3l-.26-.07c-9-1.88-17.65,3.63-19.33,12.27s4.22,17,13.12,18.8,17.44-3.62,19.19-12.13A16.16,16.16,0,0,0,288,698.64L290,689c14.12,2.16,27.14,3.72,38.41,4.58,3.71.28,7.05.47,10.12.6q.81,5.24,1.63,10.44l-18.41-.16a6.14,6.14,0,0,0-6.29,6.07l0,19.63a6.19,6.19,0,0,0,6.25,6l37.77.15a6.15,6.15,0,0,0,6.24-6l.31-19.47a6.09,6.09,0,0,0-6.12-6.13l-17.27-.16q-.81-5.18-1.61-10.38c23.19.65,27.61-3.37,28.57-7.59,1.11-4.91-2.1-11.54-34.73-23.51-21.06-7.72-49.46-15.78-80.6-22.85l1.46-8.68a2.53,2.53,0,0,0-1.55-3,65.08,65.08,0,0,0-6.61-1.52,2.32,2.32,0,0,0-2.47,2.07l-1.74,8.67c-31.79-6.84-62.17-11.73-85.88-13.77-37.66-3.23-43.54,1.76-44.28,7-.49,3.46,1.13,7.7,12.53,13.8-1.84,3-3.69,5.91-5.52,8.86l-3.55-1.64a5,5,0,0,0-6.76,2.25L107.59,660A5.26,5.26,0,0,0,110.53,666.68Zm66.19-32.18,39.46,16.2-87.38-19C137.74,630.91,154.23,631.64,176.72,634.5Zm65.11,11.3-1.79,9-41.47-17.09C211.68,639.77,226.17,642.46,241.83,645.8ZM253,648.25c15.45,3.48,29.41,7,41.79,10.49l-43.3-1.5ZM356.6,681.18l-82-17.8L315,664.74C335.24,671.16,349.4,677,356.6,681.18ZM311,684l-37.39-15.41,81.88,17.67C347.17,687.07,331.93,686.51,311,684Zm-62.23-10.45,1.49-8.86,40,16.44C277.83,679.17,263.94,676.68,248.74,673.53Zm-12-2.56c-15.34-3.37-29.41-6.85-42.06-10.3l43.83,1.48ZM128,637.15,215.26,656l-41.74-1.45C151.77,647.83,136.17,641.65,128,637.15Z"/></g><path class="cls-7" d="M-57.09,77.38c4.36,17.67,11.37,33.76,22.3,47a7.31,7.31,0,0,0,10,.84A162,162,0,0,0,7.75,84.71,542.42,542.42,0,0,1-57.09,77.38Z"/><path class="cls-9" d="M7.75,84.71c6.36,17,15.12,32.13,27.42,43.93a7.21,7.21,0,0,0,10-.37,162.79,162.79,0,0,0,27.25-44A544.11,544.11,0,0,1,7.75,84.71Z"/><path class="cls-8" d="M63,90.44A102.17,102.17,0,0,1,43.28,123"/><path class="cls-7" d="M72.38,84.24c8.27,16.14,18.69,30.13,32.22,40.4a7.13,7.13,0,0,0,9.79-1.53c9.5-13.81,16.67-29.59,21.74-46.9A544.07,544.07,0,0,1,72.38,84.24Z"/><path class="cls-8" d="M127.59,83.46a102.29,102.29,0,0,1-15.66,34.6"/><path class="cls-9" d="M136.13,76.21c10.08,15.06,22,27.74,36.63,36.36a7.1,7.1,0,0,0,9.52-2.65,163.24,163.24,0,0,0,16-49.09A547.06,547.06,0,0,1,136.13,76.21Z"/><path class="cls-8" d="M190.7,69a102.47,102.47,0,0,1-11.44,36.18"/><path class="cls-7" d="M198.32,60.83c11.77,13.78,25.12,25,40.62,31.84a7.09,7.09,0,0,0,9.14-3.75A163.47,163.47,0,0,0,258.29,38.3,551.28,551.28,0,0,1,198.32,60.83Z"/><path class="cls-8" d="M251.67,47.32a102.25,102.25,0,0,1-7.15,37.26"/><path class="cls-9" d="M258.29,38.3c13.3,12.31,27.89,21.87,44.12,26.86a7.13,7.13,0,0,0,8.66-4.8,163.55,163.55,0,0,0,4.28-51.51A549.43,549.43,0,0,1,258.29,38.3Z"/><path class="cls-8" d="M309.8,18.6A102.33,102.33,0,0,1,307,56.46"/><path class="cls-7" d="M315.35,8.85C330,19.5,345.68,27.26,362.44,30.27a7.18,7.18,0,0,0,8.07-5.81,163.91,163.91,0,0,0-1.67-51.78A545.36,545.36,0,0,1,315.35,8.85Z"/><path class="cls-8" d="M364.43-16.93a102.37,102.37,0,0,1,1.6,38"/><path class="cls-10" d="M-196.54,33.11c259.23,122.39,569,23.38,709.22-226.66"/><path class="cls-9" d="M1561.74-32.63c-6,16.75-9.31,33.52-8.11,49.9a6.25,6.25,0,0,0,7,5.75c15.31-2.82,30.55-8.6,45.55-16.88A466.14,466.14,0,0,1,1561.74-32.63Z"/><path class="cls-8" d="M1596,5.16a95.4,95.4,0,0,1-33.37,12.72"/><path class="cls-7" d="M1606.21,6.14c-4.21,17.23-5.64,34.14-2.67,50.11a6.14,6.14,0,0,0,7.63,4.77c14.93-4.73,29.49-12.35,43.53-22.4A461,461,0,0,1,1606.21,6.14Z"/><path class="cls-8" d="M1644.43,39a98,98,0,0,1-31.85,16.75"/><path class="cls-9" d="M1654.7,38.62c-2.32,17.52-1.89,34.36,2.82,49.73a6.08,6.08,0,0,0,8.13,3.75c14.38-6.52,28.07-15.85,41-27.51A458.15,458.15,0,0,1,1654.7,38.62Z"/><path class="cls-8" d="M1696.41,66.19a100.8,100.8,0,0,1-29.94,20.49"/><path class="cls-7" d="M1706.63,64.59c-.39,17.57,1.9,34.14,8.3,48.72a6.08,6.08,0,0,0,8.54,2.69c13.65-8.21,26.3-19.1,37.92-32.2A458.33,458.33,0,0,1,1706.63,64.59Z"/><path class="cls-8" d="M1751.35,86.64a103.34,103.34,0,0,1-27.66,23.92"/><path class="cls-9" d="M1761.39,83.8c1.57,17.39,5.7,33.46,13.75,47.06a6.15,6.15,0,0,0,8.85,1.61c12.76-9.79,24.23-22.1,34.42-36.46A462,462,0,0,1,1761.39,83.8Z"/><path class="cls-8" d="M1808.65,100a105.32,105.32,0,0,1-25,27"/><path class="cls-7" d="M1818.41,96c3.52,17,9.47,32.3,19.09,44.73a6.28,6.28,0,0,0,9.08.48,171,171,0,0,0,30.5-40.26A466.41,466.41,0,0,1,1818.41,96Z"/><path class="cls-8" d="M1867.72,106.16a107,107,0,0,1-22.14,29.78"/><path class="cls-9" d="M1877.08,101c5.47,16.29,13.2,30.68,24.3,41.72,2.42,2.42,6.9,2.08,9.21-.67a173.2,173.2,0,0,0,26.23-43.59A472.14,472.14,0,0,1,1877.08,101Z"/><path class="cls-8" d="M1928,104.75a108.21,108.21,0,0,1-19,32.18"/><path class="cls-10" d="M1453.61-195.36C1556,54.29,1828.34,166.7,2077,62"/></g></svg>