<svg width="39" height="69" viewBox="0 0 39 69" fill="none" xmlns="http://www.w3.org/2000/svg">
                            <rect width="39" height="69"/>
                            <mask id="path-1-inside-1_0_1" fill="white">
                                <path d="M1.20322 52.611C1.12513 53.699 1.67175 54.5562 2.43702 55.124C2.75512 55.3653 3.5138 55.1113 4.04591 54.9332L4.0889 54.9188C4.46252 54.7833 4.86256 54.4768 5.05598 54.1361C5.2446 53.8125 5.1545 53.3363 5.23619 52.9383C5.28304 52.6672 5.4128 52.4181 5.50291 52.1604C5.94141 51.4473 4.76766 50.8221 5.53774 49.9136C5.26263 49.8489 5.05119 49.7476 4.84095 49.761C4.5358 49.783 4.23907 49.9136 3.93392 49.9491C2.37214 50.1249 1.30173 51.1689 1.20322 52.611Z"/>
                                <path d="M4.179 58.6492C4.32557 59.7946 4.63432 60.0742 5.57619 59.6505C5.96783 59.4759 6.36308 59.2048 6.62618 58.8641C7.36142 57.9068 7.31817 57.5441 6.58293 56.8274C6.23454 56.4855 5.90776 56.1326 5.52092 55.7431C4.93585 55.9177 4.40246 56.2413 4.179 56.919C4.16098 56.9629 4.4493 57.1156 4.531 57.1681C4.40726 57.6479 4.11053 58.173 4.179 58.6492Z"/>
                                <path d="M12.3567 61.8582C12.3183 61.6091 12.3915 61.3197 12.4817 61.0755C12.615 60.7043 12.6534 60.3844 12.2017 60.2513C11.875 60.1597 11.5314 60.1108 11.0712 60.0193C10.7709 60.5517 10.1522 60.4161 9.57554 60.421C8.32011 60.4247 7.44311 61.045 7.01302 62.2209C6.6478 63.2002 6.9049 64.1343 7.62331 64.8559C7.88041 65.1136 8.50031 65.3456 8.76221 65.2052C9.56593 64.7729 10.2879 64.1441 11.0448 63.6019C11.1349 63.5311 11.2514 63.514 11.4316 63.431C11.4833 63.7411 11.5266 63.9865 11.565 64.2613C12.2618 63.1782 12.4552 62.4834 12.3567 61.8582Z"/>
                                <path d="M19.2706 67.7792C20.5512 66.9709 21.2564 65.7425 21.5147 64.2918C21.7466 62.9499 21.2048 62.2331 19.9578 61.8069C19.4676 61.636 19.0039 61.3527 18.5305 61.1207C18.5485 61.0682 18.5786 61.0242 18.5954 60.9717C19.0339 61.0938 19.4724 61.2123 19.9157 61.3344C19.9073 61.2733 19.8905 61.2123 19.8857 61.1512C20.1223 61.0682 20.3722 60.9974 20.5957 60.8887C20.8456 60.7751 21.1507 60.6701 21.2841 60.465C21.3525 60.3636 21.0906 60.0364 20.9525 59.8178C20.8492 59.6688 20.7194 59.5418 20.5608 59.3672C20.7495 59.1181 20.9429 58.869 21.2012 58.532C20.2893 58.5845 19.3691 58.0301 18.5822 58.9606C18.384 59.1963 18.0452 59.3404 17.7436 59.4673C17.2367 59.6774 17.1201 60.0791 17.5034 60.4992C17.6535 60.6567 17.8734 60.7519 18.0536 60.8704C17.9719 60.9583 17.907 61.0413 17.7869 61.1854C18.3275 61.382 18.784 61.5481 19.2309 61.7141C19.2141 61.7715 19.1877 61.824 19.1709 61.8851C18.2122 61.8326 17.2487 61.8411 16.3032 61.7141C15.5764 61.614 15.0646 61.9156 14.7126 62.4394C14.3041 63.0158 13.9389 63.6849 13.7371 64.3663C13.5785 64.9036 13.5701 65.5593 13.7203 66.1014C13.9485 66.9623 14.4255 67.6791 15.1475 68.2908C16.0761 69.0821 16.8714 69.2482 17.9334 68.601C18.3852 68.325 18.8237 68.0503 19.2706 67.7792Z"/>
                                <path d="M64.0707 45.265C65.1328 45.9195 65.9281 45.7534 66.8615 44.9585C67.5799 44.3468 68.0569 43.6263 68.2936 42.7655C68.4401 42.2233 68.4305 41.5725 68.2719 41.0303C68.0701 40.349 67.7037 39.6932 67.3 39.0986C66.9468 38.587 66.4314 38.2805 65.7046 38.3769C64.7591 38.5076 63.7956 38.4942 62.8369 38.5515C62.8201 38.4893 62.7937 38.438 62.7769 38.3806C63.2274 38.2096 63.6791 38.0485 64.2209 37.847C64.096 37.7066 64.0359 37.6235 63.9542 37.5319C64.1344 37.4184 64.3543 37.3219 64.5044 37.1644C64.8877 36.7456 64.7711 36.3426 64.2642 36.1289L64.248 36.1223C63.9506 36.0007 63.6203 35.8657 63.4256 35.6258C62.6423 34.6942 61.7185 35.2497 60.8066 35.1972C61.0601 35.5294 61.2583 35.7785 61.447 36.0276C61.2872 36.2107 61.1538 36.3292 61.0553 36.4818C60.9172 36.687 60.6553 37.024 60.7237 37.1241C60.8571 37.3292 61.1586 37.4343 61.4121 37.5478C61.6368 37.6577 61.8855 37.7224 62.1221 37.8103C62.1173 37.8665 62.1005 37.9276 62.0921 37.9935C62.5354 37.8714 62.9739 37.753 63.4124 37.6308C63.4304 37.6785 63.4605 37.7273 63.4773 37.7749C63.0051 38.0069 62.5402 38.2902 62.05 38.4612C60.7994 38.902 60.2528 39.6188 60.4895 40.9607C60.743 42.4065 61.4482 43.6385 62.7336 44.4432C63.1805 44.7229 63.6238 44.9939 64.0707 45.265Z"/>
                                <path d="M73.242 41.8778C73.5003 42.0133 74.119 41.7898 74.3773 41.5236C75.0945 40.8069 75.3492 39.863 74.9912 38.8837C74.5563 37.7163 73.6793 37.0924 72.4239 37.0875C71.8484 37.0826 71.2249 37.2145 70.9282 36.6809C70.468 36.7724 70.1244 36.8249 69.7977 36.9214C69.3459 37.0569 69.3844 37.372 69.5177 37.7432C69.6042 37.9923 69.6811 38.2817 69.6427 38.5259C69.5442 39.1548 69.7424 39.8495 70.4344 40.929C70.4728 40.6542 70.5113 40.4137 70.5677 40.1035C70.7491 40.1829 70.8693 40.2049 70.9594 40.2745C71.7114 40.8154 72.4335 41.4369 73.242 41.8778Z"/>
                                <path d="M75.3744 35.5404C75.6315 35.8774 76.0316 36.1436 76.4232 36.3231C77.3651 36.7517 77.675 36.4672 77.8264 35.3218C77.8913 34.8505 77.5945 34.3217 77.4696 33.8492C77.5513 33.7918 77.8384 33.6428 77.8216 33.5952C77.6017 32.9089 77.0683 32.5866 76.4797 32.4156C76.0964 32.8088 75.7661 33.1678 75.4177 33.5085C74.6824 34.2204 74.6392 34.583 75.3744 35.5404Z"/>
                                <path d="M77.9117 31.5829C78.4487 31.766 79.2356 32.0456 79.5624 31.7965C80.3228 31.2275 80.8695 30.3716 80.7938 29.2811C80.6941 27.8427 79.62 26.7987 78.0631 26.6192C77.7579 26.5838 77.4612 26.4531 77.156 26.4311C76.9494 26.4189 76.7344 26.5142 76.4592 26.5801C77.2281 27.4935 76.0592 28.1187 76.4977 28.8306C76.5878 29.0833 76.7127 29.3373 76.7596 29.6035C76.8413 30.0052 76.7548 30.4863 76.9398 30.805C77.138 31.1457 77.5333 31.4559 77.9117 31.5829Z"/>
                                <path d="M80.7649 22.4626C80.5931 22.1781 80.288 21.6054 79.9228 21.0682C79.5239 20.4955 79.1323 20.4552 78.6493 20.9387C78.1111 21.4846 77.5225 22.0084 77.1356 22.6556C76.9158 23.0317 76.9554 23.6471 77.0323 24.1282C77.2221 25.4604 78.379 26.1637 79.6597 25.784C80.7818 25.4567 81.3536 24.0403 80.7649 22.4626Z"/>
                                <path d="M44.3191 -18.049C44.2073 -18.0136 44.0704 -17.668 44.1172 -17.5984C44.6591 -16.8511 43.9022 -16.2918 43.8662 -15.6398C43.8397 -15.1294 43.8878 -14.6263 43.9046 -14.1196C43.9046 -13.8961 43.9046 -13.6604 43.9731 -13.4809C44.5581 -11.7641 45.1901 -10.0546 46.4239 -8.52092C46.5921 -8.50749 46.9657 -8.4904 47.3441 -8.46842C47.3189 -8.78712 47.2973 -9.01913 47.2756 -9.34271C47.9112 -8.96296 48.4494 -8.63937 48.978 -8.32433C49.163 -8.39882 49.4165 -8.55145 49.6964 -8.60884C49.9331 -8.65158 50.195 -8.58199 50.5301 -8.55146C50.5385 -8.31458 50.547 -7.9397 50.5602 -7.57215C50.8569 -7.58925 51.1705 -7.55872 51.4456 -7.64664C51.609 -7.69548 51.7075 -7.94457 51.8192 -8.10575C52.0643 -8.44155 52.2793 -8.72118 52.7046 -8.29747C52.8127 -8.19246 53.1083 -8.27549 53.2464 -8.17536C53.3762 -8.0789 53.4879 -7.71623 53.4663 -7.69913C52.6746 -7.2046 53.4062 -6.61117 53.363 -6.07756C53.3497 -5.91637 53.548 -5.74054 53.6981 -5.49632C54.2352 -6.06046 54.7385 -6.59773 55.4089 -7.30107C55.5206 -6.72839 55.5074 -6.3523 55.6624 -6.07756C55.8462 -5.75031 56.1477 -5.34369 56.4745 -5.26066C57.0211 -5.12878 57.6278 -5.15931 58.1949 -5.24723C58.6201 -5.3034 59.0118 -5.59645 59.4371 -5.71001C59.6137 -5.75763 59.8371 -5.62698 60.0438 -5.57447C59.9188 -5.33025 59.8407 -5.04208 59.6521 -4.86259C59.5152 -4.72216 59.2437 -4.73925 58.81 -4.63058C59.2268 -4.50847 59.4635 -4.43764 59.7002 -4.3595C59.8852 -4.29478 60.0738 -4.22396 60.2588 -4.15437C60.1567 -4.00172 60.0438 -3.84909 59.9368 -3.70866C59.89 -3.65616 59.8167 -3.62197 59.7434 -3.56458C59.8804 -3.28984 60.0089 -3.01388 60.1471 -2.73425C60.8258 -3.32892 61.3845 -3.16774 61.7161 -2.28001C61.5046 -2.17989 61.3028 -2.0883 61.101 -1.99184V-1.74274C61.4241 -1.71709 61.7425 -1.68168 61.9744 -1.66459C62.3143 -0.964912 62.6832 -0.227379 63.0964 0.607834C62.8814 1.00468 63.04 1.45527 63.6467 1.79594C63.4196 1.94125 63.1697 2.089 62.8345 2.29902C63.1661 2.51271 63.386 2.6568 63.6563 2.8363C63.5397 2.95352 63.4496 3.05365 63.3163 3.19408C63.4797 3.29909 63.6395 3.49568 63.7896 3.49568C64.5501 3.49202 64.6618 4.00243 64.7135 4.59709C64.7171 4.71432 64.6955 4.93777 64.7303 4.95487C65.737 5.23449 65.212 6.17838 65.4703 6.77671C65.6085 7.09175 65.5052 7.51546 65.5136 7.99168C66.3005 8.26765 66.0338 9.10164 65.9605 9.71828C65.8656 10.5877 65.492 11.418 65.307 12.2838C65.2036 12.7551 65.2721 13.2667 65.2205 13.7515C65.194 13.9786 65.0523 14.1972 65.0006 14.4292C64.9453 14.7345 64.9237 15.0532 64.8889 15.3682C65.2156 15.3059 65.5424 15.2669 65.8608 15.1973C65.9773 15.1667 66.0674 15.08 66.1191 15.0446C66.089 15.599 66.0926 16.1546 65.9941 16.6918C65.9593 16.8799 65.6722 17.0679 65.4523 17.1595C65.0655 17.3341 64.9057 17.5356 64.9105 18.0118C64.9189 18.2646 64.5189 18.5271 64.2353 18.6932C64.2053 18.8934 64.1717 19.09 64.1368 19.2915C64.6222 19.3135 65.1472 19.344 65.719 19.366C65.6854 20.244 64.9838 20.0437 64.7219 19.9033C63.8533 19.4319 63.2863 19.9082 62.6627 20.3624C62.6279 20.3844 62.5678 20.3673 62.4693 20.3673C62.3924 20.0657 62.3143 19.7519 62.2242 19.3758C61.7305 19.1572 61.0974 18.9704 60.8571 18.0827C60.4787 18.3843 60.1086 18.6773 59.7302 18.9789C59.7302 18.9704 59.7338 18.9667 59.7386 18.9533C59.2352 19.4393 58.4147 19.7189 58.7499 20.7104C58.8015 20.8667 58.6982 21.1121 58.6081 21.2868L58.6078 21.2874C58.4481 21.6096 58.2812 21.9463 58.0615 22.2258C57.7227 22.6409 57.8248 23.0561 57.7996 23.5372C57.7528 24.2759 57.8729 25.2333 57.0343 25.8316C57.2193 25.9891 57.4044 26.1417 57.5846 26.2993C57.3863 27.1296 57.6927 28.5888 58.0447 29.7293C58.4231 30.965 58.6778 32.2374 59.765 33.0457C59.6918 33.3522 59.6269 33.6453 59.5584 33.942C60.0005 33.5671 60.3069 33.6147 60.7922 33.8638C61.6091 34.2875 62.4909 33.8895 63.1745 33.4877C63.9878 33.0103 64.8865 32.5646 65.3634 31.5731C65.5652 31.1543 66.2368 31.0358 66.7954 31.2153C67.139 31.3289 67.5523 31.6048 67.6508 30.9357C68.1109 31.0395 68.1926 30.573 68.4461 30.4326C68.6864 30.3019 69.1165 30.5327 69.4649 30.5901C69.8337 30.6475 70.2037 30.6915 70.2986 30.1798C70.3887 29.6255 70.6386 29.2445 71.3006 29.3324C70.8621 28.7988 70.9906 28.5937 72.0875 28.1089C71.8556 27.9123 71.667 27.7511 71.4688 27.5802C71.6922 27.4886 71.9037 27.3616 72.1355 27.3005C72.3373 27.248 72.5608 27.2651 72.7807 27.248C72.7458 27.187 72.7026 27.1296 72.6641 27.0685C73.0209 26.7975 73.3561 26.5056 73.7478 26.2736C74.5479 25.8108 74.9347 25.011 74.9431 24.1892C74.9563 23.2979 75.4032 22.7032 75.8934 22.122C76.5686 21.3234 77.329 20.6017 78.0258 19.8239C78.1424 19.6969 78.1856 19.4478 78.164 19.2647C78.0342 17.9056 77.8889 16.5514 77.7123 15.2009C77.6906 15.0141 77.5056 14.7552 77.3471 14.7076C77.2101 14.6649 76.9854 14.87 76.8269 14.9921C76.6899 15.0874 76.5866 15.2363 76.3199 15.516C76.1685 14.8297 76.0484 14.2973 75.9282 13.7246C75.7084 13.7771 75.5066 13.8199 75.2999 13.8773C75.2014 13.2264 75.1065 12.6196 75.0032 11.9504C74.8182 11.9553 74.5383 11.9675 74.113 11.9809C74.4181 11.7318 74.6115 11.5743 74.8698 11.3692C74.6764 11.3692 74.5431 11.3741 74.3965 11.3692C74.5815 11.2251 74.7485 11.0896 74.9683 10.9101C74.7966 10.9101 74.6884 10.9015 74.495 10.8966C74.6151 10.7782 74.692 10.7 74.8086 10.5865C74.4434 10.639 74.1082 10.6732 73.648 10.7306C73.9015 10.5559 74.0517 10.4509 74.2067 10.3459C74.1983 10.3105 74.1851 10.2885 74.1766 10.258C73.6733 10.446 73.1747 10.6341 72.6845 10.8136C72.6671 10.7924 72.6587 10.7666 72.6506 10.7417L72.6497 10.7391C73.1266 10.468 73.6036 10.2018 74.0986 9.91731C73.8066 9.87701 73.5519 9.83795 73.1182 9.77689C73.4186 9.64135 73.5603 9.5803 73.8619 9.45331C73.4534 9.41912 73.2216 9.4008 73.0017 9.38371C72.9849 9.07355 72.9765 8.81103 72.9633 8.4618C72.8864 8.43494 72.7362 8.38731 72.5164 8.32137C72.6365 8.19926 72.7362 8.10279 72.753 8.0857C72.228 7.74013 71.7379 7.40801 71.2309 7.08076C71.3042 6.99773 71.3679 6.92812 71.4628 6.83654C71.2297 6.82311 71.0243 6.81945 70.7143 6.80602C70.9077 6.65338 71.0146 6.56669 71.2213 6.39574C70.5725 6.50075 70.1124 6.40428 70.1593 5.67896C70.289 5.63134 70.4692 5.56174 70.7359 5.46528C70.3539 5.06355 69.9923 4.73996 69.6871 4.36386C68.6299 3.11348 67.598 1.83746 66.566 0.574867C65.9293 -0.198074 65.2805 -0.953918 64.6738 -1.74518C63.7187 -2.99556 62.7348 -4.23618 61.8662 -5.54761C61.3412 -6.34253 60.9892 -7.26078 60.5892 -8.13019C60.3393 -8.66747 60.1855 -9.26212 59.9056 -9.7823C59.7939 -9.9911 59.4539 -10.079 59.2172 -10.2146C59.0803 -10.2939 58.9385 -10.3635 58.7102 -10.4856C58.9253 -10.6468 59.0671 -10.7299 59.1836 -10.8434C59.5104 -11.1487 59.4287 -11.6163 59.007 -11.7873C58.8088 -11.8606 58.5805 -11.8789 58.3787 -11.9485C57.5137 -12.2538 57.5137 -12.2586 57.772 -13.0536C57.3287 -13.2196 56.8818 -13.3857 56.4 -13.5566C56.6054 -13.7007 56.7568 -13.8179 56.9154 -13.9364C56.6835 -14.2734 55.9915 -14.5311 56.7736 -14.9633C56.1201 -14.9633 56.9635 -15.4005 56.6235 -15.5091C56.3652 -15.5922 56.1201 -15.7228 55.7933 -15.8669C56.0949 -15.9329 56.3484 -15.9805 56.6235 -16.0415C56.2835 -16.7888 56.2931 -16.7681 55.5014 -16.5141C55.3212 -16.4567 55.0761 -16.6105 54.8611 -16.6362C54.616 -16.6618 54.3757 -16.6447 53.9372 -16.6447C54.6508 -16.9109 55.1842 -17.1039 55.8978 -17.3701C55.4041 -17.7633 55.0389 -18.0514 54.7289 -18.3005C55.0161 -18.5195 55.4398 -18.8497 55.9265 -19.2292L56.1309 -19.3885C56.1826 -19.3397 56.3892 -19.1736 56.6127 -18.999C56.4661 -19.7902 56.1141 -19.9429 55.529 -19.5277C55.3224 -19.3836 55.0557 -19.3445 54.819 -19.2566C54.7638 -19.7365 54.7337 -20.1346 54.6688 -20.7378C54.9175 -20.4276 55.0809 -20.2262 55.3308 -19.916C55.3392 -20.3263 55.3428 -20.6413 55.356 -21.0565C54.986 -20.96 54.7145 -20.8855 54.3709 -20.794C54.6592 -22.1396 53.4771 -22.2446 52.8236 -22.5242C51.9213 -22.904 50.8593 -23.0359 49.8742 -22.9919C49.2555 -22.9785 48.6704 -22.2446 48.0385 -22.1701C47.0101 -22.0529 46.6713 -21.065 45.8496 -20.6889C45.3775 -20.4704 45.1492 -19.6486 44.8741 -19.0674C44.7107 -18.7218 44.8561 -18.2199 44.3191 -18.049Z"/>
                                <path d="M63.6671 18.8873C63.7956 18.4893 63.9122 18.14 64.0323 17.7505C63.7308 17.7371 63.4472 17.7249 62.9451 17.7041C63.2022 17.328 63.3752 17.0753 63.5638 16.8042C63.2754 16.367 62.9739 16.3365 62.4669 16.8396C62.1401 17.1534 61.8867 17.5466 61.5815 17.9361C62.0681 18.0399 62.7901 17.6565 62.8802 18.5955C63.0904 18.4905 63.2106 18.4331 63.3571 18.3635C63.4568 18.5418 63.5686 18.7164 63.6671 18.8873Z"/>
                                <path d="M4.65113 38.0375C4.49255 38.0802 4.31114 38.3427 4.28591 38.5308C4.11051 39.8849 3.96395 41.2391 3.82339 42.5786C3.80177 42.7618 3.84863 43.0109 3.96516 43.1379C4.65714 43.9157 5.41882 44.641 6.09759 45.436C6.58775 46.0172 7.02985 46.6106 7.04307 47.5069C7.05628 48.3324 7.4347 49.1236 8.23842 49.5913C8.63007 49.8184 8.96524 50.1163 9.32204 50.3825C9.29202 50.4485 9.24396 50.501 9.20551 50.5706C9.42056 50.5791 9.64402 50.5608 9.85065 50.6182C10.0789 50.6695 10.2892 50.8014 10.5174 50.8929C10.3204 51.0639 10.1306 51.2251 9.89871 51.4217C10.9956 51.9077 11.1289 52.1128 10.6856 52.6501C11.3476 52.5622 11.5974 52.9382 11.6875 53.489C11.786 54.0055 12.1561 53.9664 12.5261 53.909C12.8709 53.848 13.2962 53.6208 13.5413 53.7478C13.7995 53.887 13.8812 54.351 14.3366 54.2546C14.4363 54.9188 14.8483 54.6429 15.1967 54.5293C15.7506 54.3498 16.4221 54.467 16.624 54.8871C17.1057 55.8713 18.0043 56.3255 18.8129 56.8017C19.4964 57.2035 20.383 57.6015 21.1952 57.1778C21.6817 56.9324 21.9869 56.8799 22.4338 57.256C22.3617 56.9666 22.2968 56.6662 22.2235 56.3597C23.312 55.5465 23.5606 54.279 23.9439 53.0384C24.2971 51.9028 24.6022 50.4424 24.404 49.6169C24.5842 49.4545 24.7692 49.3019 24.9542 49.1444C24.1121 48.5546 24.2358 47.5924 24.189 46.85C24.1637 46.3701 24.2622 45.9586 23.9271 45.5349C23.7072 45.2552 23.539 44.9231 23.3804 44.5995C23.2952 44.4213 23.187 44.1807 23.2387 44.0232C23.5787 43.0402 22.7533 42.752 22.25 42.2709C22.2536 42.2758 22.2584 42.2929 22.2584 42.2929C21.8799 41.9962 21.5099 41.6946 21.1315 41.4015C20.8948 42.288 20.2593 42.4761 19.7643 42.6946C19.6742 43.0695 19.5961 43.3846 19.5193 43.6862C19.4159 43.6813 19.3607 43.7033 19.3258 43.6813C18.7071 43.2319 18.1353 42.7508 17.2667 43.2185C17.0096 43.3626 16.308 43.5628 16.2696 42.6849C16.8414 42.6544 17.3664 42.6324 17.8517 42.6018C17.8217 42.4101 17.7881 42.2038 17.7532 42.0121C17.4649 41.846 17.0697 41.5884 17.0781 41.3307C17.0829 40.8508 16.9231 40.6542 16.5363 40.4747C16.3164 40.3832 16.0293 40.1951 15.9944 40.0071C15.8947 39.4734 15.8995 38.9142 15.8695 38.3635C15.9212 38.3989 16.0161 38.4819 16.1278 38.5125C16.451 38.5833 16.7777 38.6224 17.0997 38.6834C17.0697 38.3696 17.048 38.0509 16.988 37.7444C16.9363 37.5173 16.7933 37.2987 16.7681 37.0716C16.7165 36.5832 16.7801 36.0667 16.6816 35.6039C16.4966 34.7393 16.123 33.9041 16.0281 33.0433C15.9596 32.4266 15.6881 31.5877 16.475 31.3081C16.4834 30.8404 16.3801 30.4167 16.5182 30.098C16.7765 29.4997 16.2563 28.5595 17.2583 28.2713C17.2919 28.2579 17.2703 28.0356 17.2751 27.9172C17.3256 27.3274 17.4385 26.8109 18.199 26.8158C18.3503 26.8158 18.5089 26.6228 18.6723 26.5093C18.5389 26.3737 18.4488 26.2773 18.3323 26.1552C18.6038 25.9757 18.8225 25.8365 19.154 25.6179C18.8189 25.4115 18.5738 25.2638 18.3419 25.1148C18.9486 24.7741 19.1072 24.3284 18.8921 23.9304C19.3042 23.0866 19.6742 22.3479 20.0142 21.658C20.2473 21.636 20.5656 21.6103 20.8876 21.5749V21.3258C20.6858 21.233 20.4827 21.1329 20.2725 21.0413C20.6029 20.1548 21.1627 19.9887 21.8415 20.5871C21.9784 20.3074 22.1118 20.0315 22.2452 19.7567C22.1719 19.7042 22.0986 19.6688 22.0517 19.6163C21.9448 19.4722 21.8331 19.3196 21.7298 19.1706C21.9184 19.101 22.0998 19.0314 22.2884 18.9655C22.5251 18.8861 22.7617 18.8129 23.1786 18.6944C22.7497 18.5808 22.4782 18.5894 22.3365 18.4587C22.1466 18.2841 22.065 17.9911 21.9448 17.7505C22.1515 17.7017 22.3749 17.5661 22.5515 17.6101C22.9768 17.7285 23.3684 18.0118 23.7937 18.0778C24.3572 18.1608 24.9675 18.1962 25.5141 18.0607C25.8408 17.9862 26.1376 17.571 26.3262 17.2438C26.4848 16.9727 26.4728 16.5929 26.5797 16.0202C27.25 16.7285 27.7534 17.2621 28.2904 17.8299C28.4406 17.5808 28.6388 17.405 28.6256 17.2438C28.5872 16.715 29.3176 16.1118 28.5223 15.6271C28.5007 15.61 28.6124 15.2424 28.7457 15.1508C28.8791 15.0495 29.1758 15.1325 29.2828 15.0239C29.708 14.5953 29.9231 14.8834 30.1682 15.2204C30.2799 15.3816 30.3784 15.6173 30.5418 15.6747C30.8169 15.7663 31.1305 15.7406 31.4272 15.7577C31.4404 15.3829 31.4488 15.0068 31.4572 14.7662C31.7924 14.7442 32.0507 14.6697 32.291 14.7137C32.5709 14.7625 32.8244 14.9237 33.0094 14.9982C33.5428 14.6832 34.0798 14.3645 34.7117 13.9798C34.6901 14.3022 34.6685 14.5342 34.6433 14.8578C35.0217 14.8309 35.3953 14.8138 35.5635 14.8053C36.7973 13.2716 37.4256 11.5621 38.0143 9.84527C38.0828 9.66089 38.0828 9.43378 38.0828 9.20666C38.0996 8.69503 38.1464 8.18828 38.1212 7.68153C38.096 7.0307 37.3391 6.47144 37.8809 5.72414C37.929 5.64966 37.786 5.30898 37.6791 5.27357C37.1409 5.10262 37.2875 4.60076 37.1241 4.2552C36.8454 3.67397 36.6171 2.84729 36.1486 2.63361C35.322 2.25385 34.9869 1.25745 33.9597 1.15244C33.323 1.07796 32.7427 0.352638 32.124 0.322113C31.1401 0.283035 30.0781 0.413689 29.1746 0.798325C28.5211 1.07795 27.3438 1.17931 27.6273 2.52493C27.2825 2.43335 27.0158 2.35886 26.6422 2.26727C26.6542 2.67756 26.659 2.99749 26.6674 3.40777C26.9125 3.09274 27.0758 2.89246 27.3293 2.58598C27.2693 3.1843 27.2356 3.58237 27.1792 4.06714C26.9425 3.98411 26.6758 3.94138 26.4692 3.7924C25.8841 3.37724 25.5321 3.5311 25.3855 4.32601C25.6054 4.14651 25.8108 3.98045 25.8673 3.93649C26.4391 4.38218 26.9425 4.77048 27.2693 5.02447C26.9605 5.27357 26.5953 5.55686 26.1003 5.95493C26.814 6.21746 27.3474 6.41405 28.061 6.67658C27.6225 6.67658 27.3822 6.65948 27.1371 6.69001C26.9269 6.70833 26.677 6.87439 26.4968 6.80846C25.7063 6.55081 25.7147 6.53249 25.3747 7.28468C25.6498 7.34206 25.9033 7.38969 26.2049 7.45562C25.8781 7.59971 25.6366 7.73037 25.3747 7.8134C25.0359 7.92696 25.8781 8.35923 25.2245 8.35923C26.0066 8.79271 25.3147 9.05402 25.0828 9.39103C25.2414 9.50826 25.3963 9.62182 25.5982 9.77079C25.1164 9.9454 24.6731 10.1029 24.2262 10.269C24.4797 11.0639 24.4797 11.0724 23.6195 11.3741C23.4213 11.4485 23.193 11.462 22.9912 11.5401C22.5695 11.7147 22.4878 12.1824 22.8146 12.484C22.9311 12.5878 23.0681 12.6757 23.2879 12.8418C23.0609 12.9688 22.9191 13.0347 22.781 13.1129C22.5443 13.257 22.2043 13.34 22.0926 13.55C21.8175 14.0653 21.6625 14.66 21.409 15.2021C21.009 16.0764 20.6569 16.9898 20.132 17.7847C19.2634 19.0949 18.283 20.327 17.3244 21.5774C16.7225 22.3735 16.0689 23.1294 15.4322 23.9072C14.3966 25.1698 13.3646 26.4372 12.3111 27.6998C12.0059 28.0625 11.6491 28.3897 11.2623 28.7964C11.5338 28.8977 11.7104 28.9588 11.8389 29.0064C11.8858 29.7329 11.4305 29.8282 10.7769 29.728L10.8433 29.7817C11.0079 29.9149 11.1124 29.9993 11.2839 30.1347C10.9787 30.1481 10.7685 30.1566 10.5402 30.1652C10.6351 30.2653 10.6952 30.3313 10.7685 30.4057C10.2567 30.7428 9.76656 31.07 9.24637 31.4156C9.26318 31.4327 9.3665 31.5377 9.48303 31.6512C9.26799 31.7135 9.11783 31.766 9.03133 31.7917C9.01811 32.1409 9.0097 32.4071 8.99648 32.7136C8.77783 32.7307 8.54597 32.7478 8.1327 32.7832C8.43424 32.9102 8.57601 32.9749 8.88116 33.1019C8.44266 33.1629 8.18436 33.2069 7.89603 33.2509C8.391 33.5354 8.86794 33.8015 9.34969 34.0726C9.33646 34.0946 9.32806 34.1203 9.31485 34.1422L9.31288 34.1415C8.81497 33.9586 8.31705 33.7757 7.81915 33.5964C7.81074 33.6135 7.80231 33.6489 7.7891 33.6709C7.94408 33.7845 8.09425 33.8895 8.34774 34.0641C7.88401 34.0067 7.55244 33.9676 7.18722 33.9151C7.30376 34.025 7.38063 34.1117 7.50558 34.2302C7.31216 34.2338 7.20044 34.2338 7.02865 34.2387C7.2485 34.4182 7.41548 34.5537 7.60049 34.6978C7.45393 34.7027 7.32058 34.6978 7.13197 34.6978C7.38545 34.903 7.58727 35.0654 7.88401 35.3096C7.45872 35.2974 7.17881 35.2888 6.9938 35.2839C6.89048 35.9531 6.79558 36.5514 6.69707 37.2071C6.49043 37.1497 6.2934 37.107 6.07355 37.0496C5.945 37.6272 5.82847 38.1645 5.6783 38.8458C5.4164 38.5662 5.30948 38.4221 5.17133 38.322C5.01274 38.2035 4.78929 37.9984 4.65113 38.0375Z"/>
                                <path d="M19.5325 40.1646C19.0255 39.6615 18.7204 39.692 18.4404 40.1292C18.6254 40.4002 18.7972 40.6542 19.0543 41.0254C18.6048 41.0497 18.3272 41.062 18.0559 41.074L17.9671 41.0779C18.0872 41.4662 18.2038 41.8204 18.3323 42.2184C18.432 42.0475 18.5437 41.8643 18.6423 41.6897C18.7876 41.7593 18.909 41.8252 19.1192 41.9254C19.2093 40.9864 19.9361 41.3661 20.4179 41.266C20.1127 40.8728 19.8592 40.4796 19.5325 40.1646Z"/>
                                <path d="M2.07661 44.3993C1.7114 44.9329 1.40624 45.5043 1.23805 45.7889C0.644577 47.3714 1.21643 48.7866 2.33731 49.1187C3.61916 49.4948 4.77608 48.7964 4.96469 47.4629C5.04278 46.977 5.08604 46.3615 4.86618 45.9854C4.47574 45.3395 3.88586 44.8144 3.34885 44.2686C2.8683 43.779 2.47666 43.8229 2.07661 44.3993Z"/>
                            </mask>
                            <path d="M1.20322 52.611C1.12513 53.699 1.67175 54.5562 2.43702 55.124C2.75512 55.3653 3.5138 55.1113 4.04591 54.9332L4.0889 54.9188C4.46252 54.7833 4.86256 54.4768 5.05598 54.1361C5.2446 53.8125 5.1545 53.3363 5.23619 52.9383C5.28304 52.6672 5.4128 52.4181 5.50291 52.1604C5.94141 51.4473 4.76766 50.8221 5.53774 49.9136C5.26263 49.8489 5.05119 49.7476 4.84095 49.761C4.5358 49.783 4.23907 49.9136 3.93392 49.9491C2.37214 50.1249 1.30173 51.1689 1.20322 52.611Z" fill="black"/>
                            <path d="M4.179 58.6492C4.32557 59.7946 4.63432 60.0742 5.57619 59.6505C5.96783 59.4759 6.36308 59.2048 6.62618 58.8641C7.36142 57.9068 7.31817 57.5441 6.58293 56.8274C6.23454 56.4855 5.90776 56.1326 5.52092 55.7431C4.93585 55.9177 4.40246 56.2413 4.179 56.919C4.16098 56.9629 4.4493 57.1156 4.531 57.1681C4.40726 57.6479 4.11053 58.173 4.179 58.6492Z" fill="black"/>
                            <path d="M12.3567 61.8582C12.3183 61.6091 12.3915 61.3197 12.4817 61.0755C12.615 60.7043 12.6534 60.3844 12.2017 60.2513C11.875 60.1597 11.5314 60.1108 11.0712 60.0193C10.7709 60.5517 10.1522 60.4161 9.57554 60.421C8.32011 60.4247 7.44311 61.045 7.01302 62.2209C6.6478 63.2002 6.9049 64.1343 7.62331 64.8559C7.88041 65.1136 8.50031 65.3456 8.76221 65.2052C9.56593 64.7729 10.2879 64.1441 11.0448 63.6019C11.1349 63.5311 11.2514 63.514 11.4316 63.431C11.4833 63.7411 11.5266 63.9865 11.565 64.2613C12.2618 63.1782 12.4552 62.4834 12.3567 61.8582Z" fill="black"/>
                            <path d="M19.2706 67.7792C20.5512 66.9709 21.2564 65.7425 21.5147 64.2918C21.7466 62.9499 21.2048 62.2331 19.9578 61.8069C19.4676 61.636 19.0039 61.3527 18.5305 61.1207C18.5485 61.0682 18.5786 61.0242 18.5954 60.9717C19.0339 61.0938 19.4724 61.2123 19.9157 61.3344C19.9073 61.2733 19.8905 61.2123 19.8857 61.1512C20.1223 61.0682 20.3722 60.9974 20.5957 60.8887C20.8456 60.7751 21.1507 60.6701 21.2841 60.465C21.3525 60.3636 21.0906 60.0364 20.9525 59.8178C20.8492 59.6688 20.7194 59.5418 20.5608 59.3672C20.7495 59.1181 20.9429 58.869 21.2012 58.532C20.2893 58.5845 19.3691 58.0301 18.5822 58.9606C18.384 59.1963 18.0452 59.3404 17.7436 59.4673C17.2367 59.6774 17.1201 60.0791 17.5034 60.4992C17.6535 60.6567 17.8734 60.7519 18.0536 60.8704C17.9719 60.9583 17.907 61.0413 17.7869 61.1854C18.3275 61.382 18.784 61.5481 19.2309 61.7141C19.2141 61.7715 19.1877 61.824 19.1709 61.8851C18.2122 61.8326 17.2487 61.8411 16.3032 61.7141C15.5764 61.614 15.0646 61.9156 14.7126 62.4394C14.3041 63.0158 13.9389 63.6849 13.7371 64.3663C13.5785 64.9036 13.5701 65.5593 13.7203 66.1014C13.9485 66.9623 14.4255 67.6791 15.1475 68.2908C16.0761 69.0821 16.8714 69.2482 17.9334 68.601C18.3852 68.325 18.8237 68.0503 19.2706 67.7792Z" fill="black"/>
                            <path d="M64.0707 45.265C65.1328 45.9195 65.9281 45.7534 66.8615 44.9585C67.5799 44.3468 68.0569 43.6263 68.2936 42.7655C68.4401 42.2233 68.4305 41.5725 68.2719 41.0303C68.0701 40.349 67.7037 39.6932 67.3 39.0986C66.9468 38.587 66.4314 38.2805 65.7046 38.3769C64.7591 38.5076 63.7956 38.4942 62.8369 38.5515C62.8201 38.4893 62.7937 38.438 62.7769 38.3806C63.2274 38.2096 63.6791 38.0485 64.2209 37.847C64.096 37.7066 64.0359 37.6235 63.9542 37.5319C64.1344 37.4184 64.3543 37.3219 64.5044 37.1644C64.8877 36.7456 64.7711 36.3426 64.2642 36.1289L64.248 36.1223C63.9506 36.0007 63.6203 35.8657 63.4256 35.6258C62.6423 34.6942 61.7185 35.2497 60.8066 35.1972C61.0601 35.5294 61.2583 35.7785 61.447 36.0276C61.2872 36.2107 61.1538 36.3292 61.0553 36.4818C60.9172 36.687 60.6553 37.024 60.7237 37.1241C60.8571 37.3292 61.1586 37.4343 61.4121 37.5478C61.6368 37.6577 61.8855 37.7224 62.1221 37.8103C62.1173 37.8665 62.1005 37.9276 62.0921 37.9935C62.5354 37.8714 62.9739 37.753 63.4124 37.6308C63.4304 37.6785 63.4605 37.7273 63.4773 37.7749C63.0051 38.0069 62.5402 38.2902 62.05 38.4612C60.7994 38.902 60.2528 39.6188 60.4895 40.9607C60.743 42.4065 61.4482 43.6385 62.7336 44.4432C63.1805 44.7229 63.6238 44.9939 64.0707 45.265Z" fill="black"/>
                            <path d="M73.242 41.8778C73.5003 42.0133 74.119 41.7898 74.3773 41.5236C75.0945 40.8069 75.3492 39.863 74.9912 38.8837C74.5563 37.7163 73.6793 37.0924 72.4239 37.0875C71.8484 37.0826 71.2249 37.2145 70.9282 36.6809C70.468 36.7724 70.1244 36.8249 69.7977 36.9214C69.3459 37.0569 69.3844 37.372 69.5177 37.7432C69.6042 37.9923 69.6811 38.2817 69.6427 38.5259C69.5442 39.1548 69.7424 39.8495 70.4344 40.929C70.4728 40.6542 70.5113 40.4137 70.5677 40.1035C70.7491 40.1829 70.8693 40.2049 70.9594 40.2745C71.7114 40.8154 72.4335 41.4369 73.242 41.8778Z" fill="black"/>
                            <path d="M75.3744 35.5404C75.6315 35.8774 76.0316 36.1436 76.4232 36.3231C77.3651 36.7517 77.675 36.4672 77.8264 35.3218C77.8913 34.8505 77.5945 34.3217 77.4696 33.8492C77.5513 33.7918 77.8384 33.6428 77.8216 33.5952C77.6017 32.9089 77.0683 32.5866 76.4797 32.4156C76.0964 32.8088 75.7661 33.1678 75.4177 33.5085C74.6824 34.2204 74.6392 34.583 75.3744 35.5404Z" fill="black"/>
                            <path d="M77.9117 31.5829C78.4487 31.766 79.2356 32.0456 79.5624 31.7965C80.3228 31.2275 80.8695 30.3716 80.7938 29.2811C80.6941 27.8427 79.62 26.7987 78.0631 26.6192C77.7579 26.5838 77.4612 26.4531 77.156 26.4311C76.9494 26.4189 76.7344 26.5142 76.4592 26.5801C77.2281 27.4935 76.0592 28.1187 76.4977 28.8306C76.5878 29.0833 76.7127 29.3373 76.7596 29.6035C76.8413 30.0052 76.7548 30.4863 76.9398 30.805C77.138 31.1457 77.5333 31.4559 77.9117 31.5829Z" fill="black"/>
                            <path d="M80.7649 22.4626C80.5931 22.1781 80.288 21.6054 79.9228 21.0682C79.5239 20.4955 79.1323 20.4552 78.6493 20.9387C78.1111 21.4846 77.5225 22.0084 77.1356 22.6556C76.9158 23.0317 76.9554 23.6471 77.0323 24.1282C77.2221 25.4604 78.379 26.1637 79.6597 25.784C80.7818 25.4567 81.3536 24.0403 80.7649 22.4626Z" fill="black"/>
                            <path d="M44.3191 -18.049C44.2073 -18.0136 44.0704 -17.668 44.1172 -17.5984C44.6591 -16.8511 43.9022 -16.2918 43.8662 -15.6398C43.8397 -15.1294 43.8878 -14.6263 43.9046 -14.1196C43.9046 -13.8961 43.9046 -13.6604 43.9731 -13.4809C44.5581 -11.7641 45.1901 -10.0546 46.4239 -8.52092C46.5921 -8.50749 46.9657 -8.4904 47.3441 -8.46842C47.3189 -8.78712 47.2973 -9.01913 47.2756 -9.34271C47.9112 -8.96296 48.4494 -8.63937 48.978 -8.32433C49.163 -8.39882 49.4165 -8.55145 49.6964 -8.60884C49.9331 -8.65158 50.195 -8.58199 50.5301 -8.55146C50.5385 -8.31458 50.547 -7.9397 50.5602 -7.57215C50.8569 -7.58925 51.1705 -7.55872 51.4456 -7.64664C51.609 -7.69548 51.7075 -7.94457 51.8192 -8.10575C52.0643 -8.44155 52.2793 -8.72118 52.7046 -8.29747C52.8127 -8.19246 53.1083 -8.27549 53.2464 -8.17536C53.3762 -8.0789 53.4879 -7.71623 53.4663 -7.69913C52.6746 -7.2046 53.4062 -6.61117 53.363 -6.07756C53.3497 -5.91637 53.548 -5.74054 53.6981 -5.49632C54.2352 -6.06046 54.7385 -6.59773 55.4089 -7.30107C55.5206 -6.72839 55.5074 -6.3523 55.6624 -6.07756C55.8462 -5.75031 56.1477 -5.34369 56.4745 -5.26066C57.0211 -5.12878 57.6278 -5.15931 58.1949 -5.24723C58.6201 -5.3034 59.0118 -5.59645 59.4371 -5.71001C59.6137 -5.75763 59.8371 -5.62698 60.0438 -5.57447C59.9188 -5.33025 59.8407 -5.04208 59.6521 -4.86259C59.5152 -4.72216 59.2437 -4.73925 58.81 -4.63058C59.2268 -4.50847 59.4635 -4.43764 59.7002 -4.3595C59.8852 -4.29478 60.0738 -4.22396 60.2588 -4.15437C60.1567 -4.00172 60.0438 -3.84909 59.9368 -3.70866C59.89 -3.65616 59.8167 -3.62197 59.7434 -3.56458C59.8804 -3.28984 60.0089 -3.01388 60.1471 -2.73425C60.8258 -3.32892 61.3845 -3.16774 61.7161 -2.28001C61.5046 -2.17989 61.3028 -2.0883 61.101 -1.99184V-1.74274C61.4241 -1.71709 61.7425 -1.68168 61.9744 -1.66459C62.3143 -0.964912 62.6832 -0.227379 63.0964 0.607834C62.8814 1.00468 63.04 1.45527 63.6467 1.79594C63.4196 1.94125 63.1697 2.089 62.8345 2.29902C63.1661 2.51271 63.386 2.6568 63.6563 2.8363C63.5397 2.95352 63.4496 3.05365 63.3163 3.19408C63.4797 3.29909 63.6395 3.49568 63.7896 3.49568C64.5501 3.49202 64.6618 4.00243 64.7135 4.59709C64.7171 4.71432 64.6955 4.93777 64.7303 4.95487C65.737 5.23449 65.212 6.17838 65.4703 6.77671C65.6085 7.09175 65.5052 7.51546 65.5136 7.99168C66.3005 8.26765 66.0338 9.10164 65.9605 9.71828C65.8656 10.5877 65.492 11.418 65.307 12.2838C65.2036 12.7551 65.2721 13.2667 65.2205 13.7515C65.194 13.9786 65.0523 14.1972 65.0006 14.4292C64.9453 14.7345 64.9237 15.0532 64.8889 15.3682C65.2156 15.3059 65.5424 15.2669 65.8608 15.1973C65.9773 15.1667 66.0674 15.08 66.1191 15.0446C66.089 15.599 66.0926 16.1546 65.9941 16.6918C65.9593 16.8799 65.6722 17.0679 65.4523 17.1595C65.0655 17.3341 64.9057 17.5356 64.9105 18.0118C64.9189 18.2646 64.5189 18.5271 64.2353 18.6932C64.2053 18.8934 64.1717 19.09 64.1368 19.2915C64.6222 19.3135 65.1472 19.344 65.719 19.366C65.6854 20.244 64.9838 20.0437 64.7219 19.9033C63.8533 19.4319 63.2863 19.9082 62.6627 20.3624C62.6279 20.3844 62.5678 20.3673 62.4693 20.3673C62.3924 20.0657 62.3143 19.7519 62.2242 19.3758C61.7305 19.1572 61.0974 18.9704 60.8571 18.0827C60.4787 18.3843 60.1086 18.6773 59.7302 18.9789C59.7302 18.9704 59.7338 18.9667 59.7386 18.9533C59.2352 19.4393 58.4147 19.7189 58.7499 20.7104C58.8015 20.8667 58.6982 21.1121 58.6081 21.2868L58.6078 21.2874C58.4481 21.6096 58.2812 21.9463 58.0615 22.2258C57.7227 22.6409 57.8248 23.0561 57.7996 23.5372C57.7528 24.2759 57.8729 25.2333 57.0343 25.8316C57.2193 25.9891 57.4044 26.1417 57.5846 26.2993C57.3863 27.1296 57.6927 28.5888 58.0447 29.7293C58.4231 30.965 58.6778 32.2374 59.765 33.0457C59.6918 33.3522 59.6269 33.6453 59.5584 33.942C60.0005 33.5671 60.3069 33.6147 60.7922 33.8638C61.6091 34.2875 62.4909 33.8895 63.1745 33.4877C63.9878 33.0103 64.8865 32.5646 65.3634 31.5731C65.5652 31.1543 66.2368 31.0358 66.7954 31.2153C67.139 31.3289 67.5523 31.6048 67.6508 30.9357C68.1109 31.0395 68.1926 30.573 68.4461 30.4326C68.6864 30.3019 69.1165 30.5327 69.4649 30.5901C69.8337 30.6475 70.2037 30.6915 70.2986 30.1798C70.3887 29.6255 70.6386 29.2445 71.3006 29.3324C70.8621 28.7988 70.9906 28.5937 72.0875 28.1089C71.8556 27.9123 71.667 27.7511 71.4688 27.5802C71.6922 27.4886 71.9037 27.3616 72.1355 27.3005C72.3373 27.248 72.5608 27.2651 72.7807 27.248C72.7458 27.187 72.7026 27.1296 72.6641 27.0685C73.0209 26.7975 73.3561 26.5056 73.7478 26.2736C74.5479 25.8108 74.9347 25.011 74.9431 24.1892C74.9563 23.2979 75.4032 22.7032 75.8934 22.122C76.5686 21.3234 77.329 20.6017 78.0258 19.8239C78.1424 19.6969 78.1856 19.4478 78.164 19.2647C78.0342 17.9056 77.8889 16.5514 77.7123 15.2009C77.6906 15.0141 77.5056 14.7552 77.3471 14.7076C77.2101 14.6649 76.9854 14.87 76.8269 14.9921C76.6899 15.0874 76.5866 15.2363 76.3199 15.516C76.1685 14.8297 76.0484 14.2973 75.9282 13.7246C75.7084 13.7771 75.5066 13.8199 75.2999 13.8773C75.2014 13.2264 75.1065 12.6196 75.0032 11.9504C74.8182 11.9553 74.5383 11.9675 74.113 11.9809C74.4181 11.7318 74.6115 11.5743 74.8698 11.3692C74.6764 11.3692 74.5431 11.3741 74.3965 11.3692C74.5815 11.2251 74.7485 11.0896 74.9683 10.9101C74.7966 10.9101 74.6884 10.9015 74.495 10.8966C74.6151 10.7782 74.692 10.7 74.8086 10.5865C74.4434 10.639 74.1082 10.6732 73.648 10.7306C73.9015 10.5559 74.0517 10.4509 74.2067 10.3459C74.1983 10.3105 74.1851 10.2885 74.1766 10.258C73.6733 10.446 73.1747 10.6341 72.6845 10.8136C72.6671 10.7924 72.6587 10.7666 72.6506 10.7417L72.6497 10.7391C73.1266 10.468 73.6036 10.2018 74.0986 9.91731C73.8066 9.87701 73.5519 9.83795 73.1182 9.77689C73.4186 9.64135 73.5603 9.5803 73.8619 9.45331C73.4534 9.41912 73.2216 9.4008 73.0017 9.38371C72.9849 9.07355 72.9765 8.81103 72.9633 8.4618C72.8864 8.43494 72.7362 8.38731 72.5164 8.32137C72.6365 8.19926 72.7362 8.10279 72.753 8.0857C72.228 7.74013 71.7379 7.40801 71.2309 7.08076C71.3042 6.99773 71.3679 6.92812 71.4628 6.83654C71.2297 6.82311 71.0243 6.81945 70.7143 6.80602C70.9077 6.65338 71.0146 6.56669 71.2213 6.39574C70.5725 6.50075 70.1124 6.40428 70.1593 5.67896C70.289 5.63134 70.4692 5.56174 70.7359 5.46528C70.3539 5.06355 69.9923 4.73996 69.6871 4.36386C68.6299 3.11348 67.598 1.83746 66.566 0.574867C65.9293 -0.198074 65.2805 -0.953918 64.6738 -1.74518C63.7187 -2.99556 62.7348 -4.23618 61.8662 -5.54761C61.3412 -6.34253 60.9892 -7.26078 60.5892 -8.13019C60.3393 -8.66747 60.1855 -9.26212 59.9056 -9.7823C59.7939 -9.9911 59.4539 -10.079 59.2172 -10.2146C59.0803 -10.2939 58.9385 -10.3635 58.7102 -10.4856C58.9253 -10.6468 59.0671 -10.7299 59.1836 -10.8434C59.5104 -11.1487 59.4287 -11.6163 59.007 -11.7873C58.8088 -11.8606 58.5805 -11.8789 58.3787 -11.9485C57.5137 -12.2538 57.5137 -12.2586 57.772 -13.0536C57.3287 -13.2196 56.8818 -13.3857 56.4 -13.5566C56.6054 -13.7007 56.7568 -13.8179 56.9154 -13.9364C56.6835 -14.2734 55.9915 -14.5311 56.7736 -14.9633C56.1201 -14.9633 56.9635 -15.4005 56.6235 -15.5091C56.3652 -15.5922 56.1201 -15.7228 55.7933 -15.8669C56.0949 -15.9329 56.3484 -15.9805 56.6235 -16.0415C56.2835 -16.7888 56.2931 -16.7681 55.5014 -16.5141C55.3212 -16.4567 55.0761 -16.6105 54.8611 -16.6362C54.616 -16.6618 54.3757 -16.6447 53.9372 -16.6447C54.6508 -16.9109 55.1842 -17.1039 55.8978 -17.3701C55.4041 -17.7633 55.0389 -18.0514 54.7289 -18.3005C55.0161 -18.5195 55.4398 -18.8497 55.9265 -19.2292L56.1309 -19.3885C56.1826 -19.3397 56.3892 -19.1736 56.6127 -18.999C56.4661 -19.7902 56.1141 -19.9429 55.529 -19.5277C55.3224 -19.3836 55.0557 -19.3445 54.819 -19.2566C54.7638 -19.7365 54.7337 -20.1346 54.6688 -20.7378C54.9175 -20.4276 55.0809 -20.2262 55.3308 -19.916C55.3392 -20.3263 55.3428 -20.6413 55.356 -21.0565C54.986 -20.96 54.7145 -20.8855 54.3709 -20.794C54.6592 -22.1396 53.4771 -22.2446 52.8236 -22.5242C51.9213 -22.904 50.8593 -23.0359 49.8742 -22.9919C49.2555 -22.9785 48.6704 -22.2446 48.0385 -22.1701C47.0101 -22.0529 46.6713 -21.065 45.8496 -20.6889C45.3775 -20.4704 45.1492 -19.6486 44.8741 -19.0674C44.7107 -18.7218 44.8561 -18.2199 44.3191 -18.049Z" fill="black"/>
                            <path d="M63.6671 18.8873C63.7956 18.4893 63.9122 18.14 64.0323 17.7505C63.7308 17.7371 63.4472 17.7249 62.9451 17.7041C63.2022 17.328 63.3752 17.0753 63.5638 16.8042C63.2754 16.367 62.9739 16.3365 62.4669 16.8396C62.1401 17.1534 61.8867 17.5466 61.5815 17.9361C62.0681 18.0399 62.7901 17.6565 62.8802 18.5955C63.0904 18.4905 63.2106 18.4331 63.3571 18.3635C63.4568 18.5418 63.5686 18.7164 63.6671 18.8873Z" fill="black"/>
                            <path d="M4.65113 38.0375C4.49255 38.0802 4.31114 38.3427 4.28591 38.5308C4.11051 39.8849 3.96395 41.2391 3.82339 42.5786C3.80177 42.7618 3.84863 43.0109 3.96516 43.1379C4.65714 43.9157 5.41882 44.641 6.09759 45.436C6.58775 46.0172 7.02985 46.6106 7.04307 47.5069C7.05628 48.3324 7.4347 49.1236 8.23842 49.5913C8.63007 49.8184 8.96524 50.1163 9.32204 50.3825C9.29202 50.4485 9.24396 50.501 9.20551 50.5706C9.42056 50.5791 9.64402 50.5608 9.85065 50.6182C10.0789 50.6695 10.2892 50.8014 10.5174 50.8929C10.3204 51.0639 10.1306 51.2251 9.89871 51.4217C10.9956 51.9077 11.1289 52.1128 10.6856 52.6501C11.3476 52.5622 11.5974 52.9382 11.6875 53.489C11.786 54.0055 12.1561 53.9664 12.5261 53.909C12.8709 53.848 13.2962 53.6208 13.5413 53.7478C13.7995 53.887 13.8812 54.351 14.3366 54.2546C14.4363 54.9188 14.8483 54.6429 15.1967 54.5293C15.7506 54.3498 16.4221 54.467 16.624 54.8871C17.1057 55.8713 18.0043 56.3255 18.8129 56.8017C19.4964 57.2035 20.383 57.6015 21.1952 57.1778C21.6817 56.9324 21.9869 56.8799 22.4338 57.256C22.3617 56.9666 22.2968 56.6662 22.2235 56.3597C23.312 55.5465 23.5606 54.279 23.9439 53.0384C24.2971 51.9028 24.6022 50.4424 24.404 49.6169C24.5842 49.4545 24.7692 49.3019 24.9542 49.1444C24.1121 48.5546 24.2358 47.5924 24.189 46.85C24.1637 46.3701 24.2622 45.9586 23.9271 45.5349C23.7072 45.2552 23.539 44.9231 23.3804 44.5995C23.2952 44.4213 23.187 44.1807 23.2387 44.0232C23.5787 43.0402 22.7533 42.752 22.25 42.2709C22.2536 42.2758 22.2584 42.2929 22.2584 42.2929C21.8799 41.9962 21.5099 41.6946 21.1315 41.4015C20.8948 42.288 20.2593 42.4761 19.7643 42.6946C19.6742 43.0695 19.5961 43.3846 19.5193 43.6862C19.4159 43.6813 19.3607 43.7033 19.3258 43.6813C18.7071 43.2319 18.1353 42.7508 17.2667 43.2185C17.0096 43.3626 16.308 43.5628 16.2696 42.6849C16.8414 42.6544 17.3664 42.6324 17.8517 42.6018C17.8217 42.4101 17.7881 42.2038 17.7532 42.0121C17.4649 41.846 17.0697 41.5884 17.0781 41.3307C17.0829 40.8508 16.9231 40.6542 16.5363 40.4747C16.3164 40.3832 16.0293 40.1951 15.9944 40.0071C15.8947 39.4734 15.8995 38.9142 15.8695 38.3635C15.9212 38.3989 16.0161 38.4819 16.1278 38.5125C16.451 38.5833 16.7777 38.6224 17.0997 38.6834C17.0697 38.3696 17.048 38.0509 16.988 37.7444C16.9363 37.5173 16.7933 37.2987 16.7681 37.0716C16.7165 36.5832 16.7801 36.0667 16.6816 35.6039C16.4966 34.7393 16.123 33.9041 16.0281 33.0433C15.9596 32.4266 15.6881 31.5877 16.475 31.3081C16.4834 30.8404 16.3801 30.4167 16.5182 30.098C16.7765 29.4997 16.2563 28.5595 17.2583 28.2713C17.2919 28.2579 17.2703 28.0356 17.2751 27.9172C17.3256 27.3274 17.4385 26.8109 18.199 26.8158C18.3503 26.8158 18.5089 26.6228 18.6723 26.5093C18.5389 26.3737 18.4488 26.2773 18.3323 26.1552C18.6038 25.9757 18.8225 25.8365 19.154 25.6179C18.8189 25.4115 18.5738 25.2638 18.3419 25.1148C18.9486 24.7741 19.1072 24.3284 18.8921 23.9304C19.3042 23.0866 19.6742 22.3479 20.0142 21.658C20.2473 21.636 20.5656 21.6103 20.8876 21.5749V21.3258C20.6858 21.233 20.4827 21.1329 20.2725 21.0413C20.6029 20.1548 21.1627 19.9887 21.8415 20.5871C21.9784 20.3074 22.1118 20.0315 22.2452 19.7567C22.1719 19.7042 22.0986 19.6688 22.0517 19.6163C21.9448 19.4722 21.8331 19.3196 21.7298 19.1706C21.9184 19.101 22.0998 19.0314 22.2884 18.9655C22.5251 18.8861 22.7617 18.8129 23.1786 18.6944C22.7497 18.5808 22.4782 18.5894 22.3365 18.4587C22.1466 18.2841 22.065 17.9911 21.9448 17.7505C22.1515 17.7017 22.3749 17.5661 22.5515 17.6101C22.9768 17.7285 23.3684 18.0118 23.7937 18.0778C24.3572 18.1608 24.9675 18.1962 25.5141 18.0607C25.8408 17.9862 26.1376 17.571 26.3262 17.2438C26.4848 16.9727 26.4728 16.5929 26.5797 16.0202C27.25 16.7285 27.7534 17.2621 28.2904 17.8299C28.4406 17.5808 28.6388 17.405 28.6256 17.2438C28.5872 16.715 29.3176 16.1118 28.5223 15.6271C28.5007 15.61 28.6124 15.2424 28.7457 15.1508C28.8791 15.0495 29.1758 15.1325 29.2828 15.0239C29.708 14.5953 29.9231 14.8834 30.1682 15.2204C30.2799 15.3816 30.3784 15.6173 30.5418 15.6747C30.8169 15.7663 31.1305 15.7406 31.4272 15.7577C31.4404 15.3829 31.4488 15.0068 31.4572 14.7662C31.7924 14.7442 32.0507 14.6697 32.291 14.7137C32.5709 14.7625 32.8244 14.9237 33.0094 14.9982C33.5428 14.6832 34.0798 14.3645 34.7117 13.9798C34.6901 14.3022 34.6685 14.5342 34.6433 14.8578C35.0217 14.8309 35.3953 14.8138 35.5635 14.8053C36.7973 13.2716 37.4256 11.5621 38.0143 9.84527C38.0828 9.66089 38.0828 9.43378 38.0828 9.20666C38.0996 8.69503 38.1464 8.18828 38.1212 7.68153C38.096 7.0307 37.3391 6.47144 37.8809 5.72414C37.929 5.64966 37.786 5.30898 37.6791 5.27357C37.1409 5.10262 37.2875 4.60076 37.1241 4.2552C36.8454 3.67397 36.6171 2.84729 36.1486 2.63361C35.322 2.25385 34.9869 1.25745 33.9597 1.15244C33.323 1.07796 32.7427 0.352638 32.124 0.322113C31.1401 0.283035 30.0781 0.413689 29.1746 0.798325C28.5211 1.07795 27.3438 1.17931 27.6273 2.52493C27.2825 2.43335 27.0158 2.35886 26.6422 2.26727C26.6542 2.67756 26.659 2.99749 26.6674 3.40777C26.9125 3.09274 27.0758 2.89246 27.3293 2.58598C27.2693 3.1843 27.2356 3.58237 27.1792 4.06714C26.9425 3.98411 26.6758 3.94138 26.4692 3.7924C25.8841 3.37724 25.5321 3.5311 25.3855 4.32601C25.6054 4.14651 25.8108 3.98045 25.8673 3.93649C26.4391 4.38218 26.9425 4.77048 27.2693 5.02447C26.9605 5.27357 26.5953 5.55686 26.1003 5.95493C26.814 6.21746 27.3474 6.41405 28.061 6.67658C27.6225 6.67658 27.3822 6.65948 27.1371 6.69001C26.9269 6.70833 26.677 6.87439 26.4968 6.80846C25.7063 6.55081 25.7147 6.53249 25.3747 7.28468C25.6498 7.34206 25.9033 7.38969 26.2049 7.45562C25.8781 7.59971 25.6366 7.73037 25.3747 7.8134C25.0359 7.92696 25.8781 8.35923 25.2245 8.35923C26.0066 8.79271 25.3147 9.05402 25.0828 9.39103C25.2414 9.50826 25.3963 9.62182 25.5982 9.77079C25.1164 9.9454 24.6731 10.1029 24.2262 10.269C24.4797 11.0639 24.4797 11.0724 23.6195 11.3741C23.4213 11.4485 23.193 11.462 22.9912 11.5401C22.5695 11.7147 22.4878 12.1824 22.8146 12.484C22.9311 12.5878 23.0681 12.6757 23.2879 12.8418C23.0609 12.9688 22.9191 13.0347 22.781 13.1129C22.5443 13.257 22.2043 13.34 22.0926 13.55C21.8175 14.0653 21.6625 14.66 21.409 15.2021C21.009 16.0764 20.6569 16.9898 20.132 17.7847C19.2634 19.0949 18.283 20.327 17.3244 21.5774C16.7225 22.3735 16.0689 23.1294 15.4322 23.9072C14.3966 25.1698 13.3646 26.4372 12.3111 27.6998C12.0059 28.0625 11.6491 28.3897 11.2623 28.7964C11.5338 28.8977 11.7104 28.9588 11.8389 29.0064C11.8858 29.7329 11.4305 29.8282 10.7769 29.728L10.8433 29.7817C11.0079 29.9149 11.1124 29.9993 11.2839 30.1347C10.9787 30.1481 10.7685 30.1566 10.5402 30.1652C10.6351 30.2653 10.6952 30.3313 10.7685 30.4057C10.2567 30.7428 9.76656 31.07 9.24637 31.4156C9.26318 31.4327 9.3665 31.5377 9.48303 31.6512C9.26799 31.7135 9.11783 31.766 9.03133 31.7917C9.01811 32.1409 9.0097 32.4071 8.99648 32.7136C8.77783 32.7307 8.54597 32.7478 8.1327 32.7832C8.43424 32.9102 8.57601 32.9749 8.88116 33.1019C8.44266 33.1629 8.18436 33.2069 7.89603 33.2509C8.391 33.5354 8.86794 33.8015 9.34969 34.0726C9.33646 34.0946 9.32806 34.1203 9.31485 34.1422L9.31288 34.1415C8.81497 33.9586 8.31705 33.7757 7.81915 33.5964C7.81074 33.6135 7.80231 33.6489 7.7891 33.6709C7.94408 33.7845 8.09425 33.8895 8.34774 34.0641C7.88401 34.0067 7.55244 33.9676 7.18722 33.9151C7.30376 34.025 7.38063 34.1117 7.50558 34.2302C7.31216 34.2338 7.20044 34.2338 7.02865 34.2387C7.2485 34.4182 7.41548 34.5537 7.60049 34.6978C7.45393 34.7027 7.32058 34.6978 7.13197 34.6978C7.38545 34.903 7.58727 35.0654 7.88401 35.3096C7.45872 35.2974 7.17881 35.2888 6.9938 35.2839C6.89048 35.9531 6.79558 36.5514 6.69707 37.2071C6.49043 37.1497 6.2934 37.107 6.07355 37.0496C5.945 37.6272 5.82847 38.1645 5.6783 38.8458C5.4164 38.5662 5.30948 38.4221 5.17133 38.322C5.01274 38.2035 4.78929 37.9984 4.65113 38.0375Z" fill="black"/>
                            <path d="M19.5325 40.1646C19.0255 39.6615 18.7204 39.692 18.4404 40.1292C18.6254 40.4002 18.7972 40.6542 19.0543 41.0254C18.6048 41.0497 18.3272 41.062 18.0559 41.074L17.9671 41.0779C18.0872 41.4662 18.2038 41.8204 18.3323 42.2184C18.432 42.0475 18.5437 41.8643 18.6423 41.6897C18.7876 41.7593 18.909 41.8252 19.1192 41.9254C19.2093 40.9864 19.9361 41.3661 20.4179 41.266C20.1127 40.8728 19.8592 40.4796 19.5325 40.1646Z" fill="black"/>
                            <path d="M2.07661 44.3993C1.7114 44.9329 1.40624 45.5043 1.23805 45.7889C0.644577 47.3714 1.21643 48.7866 2.33731 49.1187C3.61916 49.4948 4.77608 48.7964 4.96469 47.4629C5.04278 46.977 5.08604 46.3615 4.86618 45.9854C4.47574 45.3395 3.88586 44.8144 3.34885 44.2686C2.8683 43.779 2.47666 43.8229 2.07661 44.3993Z" fill="black"/>
                            <path d="M1.20322 52.611C1.12513 53.699 1.67175 54.5562 2.43702 55.124C2.75512 55.3653 3.5138 55.1113 4.04591 54.9332L4.0889 54.9188C4.46252 54.7833 4.86256 54.4768 5.05598 54.1361C5.2446 53.8125 5.1545 53.3363 5.23619 52.9383C5.28304 52.6672 5.4128 52.4181 5.50291 52.1604C5.94141 51.4473 4.76766 50.8221 5.53774 49.9136C5.26263 49.8489 5.05119 49.7476 4.84095 49.761C4.5358 49.783 4.23907 49.9136 3.93392 49.9491C2.37214 50.1249 1.30173 51.1689 1.20322 52.611Z" stroke="black" stroke-width="2" mask="url(#path-1-inside-1_0_1)"/>
                            <path d="M4.179 58.6492C4.32557 59.7946 4.63432 60.0742 5.57619 59.6505C5.96783 59.4759 6.36308 59.2048 6.62618 58.8641C7.36142 57.9068 7.31817 57.5441 6.58293 56.8274C6.23454 56.4855 5.90776 56.1326 5.52092 55.7431C4.93585 55.9177 4.40246 56.2413 4.179 56.919C4.16098 56.9629 4.4493 57.1156 4.531 57.1681C4.40726 57.6479 4.11053 58.173 4.179 58.6492Z" stroke="black" stroke-width="2" mask="url(#path-1-inside-1_0_1)"/>
                            <path d="M12.3567 61.8582C12.3183 61.6091 12.3915 61.3197 12.4817 61.0755C12.615 60.7043 12.6534 60.3844 12.2017 60.2513C11.875 60.1597 11.5314 60.1108 11.0712 60.0193C10.7709 60.5517 10.1522 60.4161 9.57554 60.421C8.32011 60.4247 7.44311 61.045 7.01302 62.2209C6.6478 63.2002 6.9049 64.1343 7.62331 64.8559C7.88041 65.1136 8.50031 65.3456 8.76221 65.2052C9.56593 64.7729 10.2879 64.1441 11.0448 63.6019C11.1349 63.5311 11.2514 63.514 11.4316 63.431C11.4833 63.7411 11.5266 63.9865 11.565 64.2613C12.2618 63.1782 12.4552 62.4834 12.3567 61.8582Z" stroke="black" stroke-width="2" mask="url(#path-1-inside-1_0_1)"/>
                            <path d="M19.2706 67.7792C20.5512 66.9709 21.2564 65.7425 21.5147 64.2918C21.7466 62.9499 21.2048 62.2331 19.9578 61.8069C19.4676 61.636 19.0039 61.3527 18.5305 61.1207C18.5485 61.0682 18.5786 61.0242 18.5954 60.9717C19.0339 61.0938 19.4724 61.2123 19.9157 61.3344C19.9073 61.2733 19.8905 61.2123 19.8857 61.1512C20.1223 61.0682 20.3722 60.9974 20.5957 60.8887C20.8456 60.7751 21.1507 60.6701 21.2841 60.465C21.3525 60.3636 21.0906 60.0364 20.9525 59.8178C20.8492 59.6688 20.7194 59.5418 20.5608 59.3672C20.7495 59.1181 20.9429 58.869 21.2012 58.532C20.2893 58.5845 19.3691 58.0301 18.5822 58.9606C18.384 59.1963 18.0452 59.3404 17.7436 59.4673C17.2367 59.6774 17.1201 60.0791 17.5034 60.4992C17.6535 60.6567 17.8734 60.7519 18.0536 60.8704C17.9719 60.9583 17.907 61.0413 17.7869 61.1854C18.3275 61.382 18.784 61.5481 19.2309 61.7141C19.2141 61.7715 19.1877 61.824 19.1709 61.8851C18.2122 61.8326 17.2487 61.8411 16.3032 61.7141C15.5764 61.614 15.0646 61.9156 14.7126 62.4394C14.3041 63.0158 13.9389 63.6849 13.7371 64.3663C13.5785 64.9036 13.5701 65.5593 13.7203 66.1014C13.9485 66.9623 14.4255 67.6791 15.1475 68.2908C16.0761 69.0821 16.8714 69.2482 17.9334 68.601C18.3852 68.325 18.8237 68.0503 19.2706 67.7792Z" stroke="black" stroke-width="2" mask="url(#path-1-inside-1_0_1)"/>
                            <path d="M64.0707 45.265C65.1328 45.9195 65.9281 45.7534 66.8615 44.9585C67.5799 44.3468 68.0569 43.6263 68.2936 42.7655C68.4401 42.2233 68.4305 41.5725 68.2719 41.0303C68.0701 40.349 67.7037 39.6932 67.3 39.0986C66.9468 38.587 66.4314 38.2805 65.7046 38.3769C64.7591 38.5076 63.7956 38.4942 62.8369 38.5515C62.8201 38.4893 62.7937 38.438 62.7769 38.3806C63.2274 38.2096 63.6791 38.0485 64.2209 37.847C64.096 37.7066 64.0359 37.6235 63.9542 37.5319C64.1344 37.4184 64.3543 37.3219 64.5044 37.1644C64.8877 36.7456 64.7711 36.3426 64.2642 36.1289L64.248 36.1223C63.9506 36.0007 63.6203 35.8657 63.4256 35.6258C62.6423 34.6942 61.7185 35.2497 60.8066 35.1972C61.0601 35.5294 61.2583 35.7785 61.447 36.0276C61.2872 36.2107 61.1538 36.3292 61.0553 36.4818C60.9172 36.687 60.6553 37.024 60.7237 37.1241C60.8571 37.3292 61.1586 37.4343 61.4121 37.5478C61.6368 37.6577 61.8855 37.7224 62.1221 37.8103C62.1173 37.8665 62.1005 37.9276 62.0921 37.9935C62.5354 37.8714 62.9739 37.753 63.4124 37.6308C63.4304 37.6785 63.4605 37.7273 63.4773 37.7749C63.0051 38.0069 62.5402 38.2902 62.05 38.4612C60.7994 38.902 60.2528 39.6188 60.4895 40.9607C60.743 42.4065 61.4482 43.6385 62.7336 44.4432C63.1805 44.7229 63.6238 44.9939 64.0707 45.265Z" stroke="black" stroke-width="2" mask="url(#path-1-inside-1_0_1)"/>
                            <path d="M73.242 41.8778C73.5003 42.0133 74.119 41.7898 74.3773 41.5236C75.0945 40.8069 75.3492 39.863 74.9912 38.8837C74.5563 37.7163 73.6793 37.0924 72.4239 37.0875C71.8484 37.0826 71.2249 37.2145 70.9282 36.6809C70.468 36.7724 70.1244 36.8249 69.7977 36.9214C69.3459 37.0569 69.3844 37.372 69.5177 37.7432C69.6042 37.9923 69.6811 38.2817 69.6427 38.5259C69.5442 39.1548 69.7424 39.8495 70.4344 40.929C70.4728 40.6542 70.5113 40.4137 70.5677 40.1035C70.7491 40.1829 70.8693 40.2049 70.9594 40.2745C71.7114 40.8154 72.4335 41.4369 73.242 41.8778Z" stroke="black" stroke-width="2" mask="url(#path-1-inside-1_0_1)"/>
                            <path d="M75.3744 35.5404C75.6315 35.8774 76.0316 36.1436 76.4232 36.3231C77.3651 36.7517 77.675 36.4672 77.8264 35.3218C77.8913 34.8505 77.5945 34.3217 77.4696 33.8492C77.5513 33.7918 77.8384 33.6428 77.8216 33.5952C77.6017 32.9089 77.0683 32.5866 76.4797 32.4156C76.0964 32.8088 75.7661 33.1678 75.4177 33.5085C74.6824 34.2204 74.6392 34.583 75.3744 35.5404Z" stroke="black" stroke-width="2" mask="url(#path-1-inside-1_0_1)"/>
                            <path d="M77.9117 31.5829C78.4487 31.766 79.2356 32.0456 79.5624 31.7965C80.3228 31.2275 80.8695 30.3716 80.7938 29.2811C80.6941 27.8427 79.62 26.7987 78.0631 26.6192C77.7579 26.5838 77.4612 26.4531 77.156 26.4311C76.9494 26.4189 76.7344 26.5142 76.4592 26.5801C77.2281 27.4935 76.0592 28.1187 76.4977 28.8306C76.5878 29.0833 76.7127 29.3373 76.7596 29.6035C76.8413 30.0052 76.7548 30.4863 76.9398 30.805C77.138 31.1457 77.5333 31.4559 77.9117 31.5829Z" stroke="black" stroke-width="2" mask="url(#path-1-inside-1_0_1)"/>
                            <path d="M80.7649 22.4626C80.5931 22.1781 80.288 21.6054 79.9228 21.0682C79.5239 20.4955 79.1323 20.4552 78.6493 20.9387C78.1111 21.4846 77.5225 22.0084 77.1356 22.6556C76.9158 23.0317 76.9554 23.6471 77.0323 24.1282C77.2221 25.4604 78.379 26.1637 79.6597 25.784C80.7818 25.4567 81.3536 24.0403 80.7649 22.4626Z" stroke="black" stroke-width="2" mask="url(#path-1-inside-1_0_1)"/>
                            <path d="M44.3191 -18.049C44.2073 -18.0136 44.0704 -17.668 44.1172 -17.5984C44.6591 -16.8511 43.9022 -16.2918 43.8662 -15.6398C43.8397 -15.1294 43.8878 -14.6263 43.9046 -14.1196C43.9046 -13.8961 43.9046 -13.6604 43.9731 -13.4809C44.5581 -11.7641 45.1901 -10.0546 46.4239 -8.52092C46.5921 -8.50749 46.9657 -8.4904 47.3441 -8.46842C47.3189 -8.78712 47.2973 -9.01913 47.2756 -9.34271C47.9112 -8.96296 48.4494 -8.63937 48.978 -8.32433C49.163 -8.39882 49.4165 -8.55145 49.6964 -8.60884C49.9331 -8.65158 50.195 -8.58199 50.5301 -8.55146C50.5385 -8.31458 50.547 -7.9397 50.5602 -7.57215C50.8569 -7.58925 51.1705 -7.55872 51.4456 -7.64664C51.609 -7.69548 51.7075 -7.94457 51.8192 -8.10575C52.0643 -8.44155 52.2793 -8.72118 52.7046 -8.29747C52.8127 -8.19246 53.1083 -8.27549 53.2464 -8.17536C53.3762 -8.0789 53.4879 -7.71623 53.4663 -7.69913C52.6746 -7.2046 53.4062 -6.61117 53.363 -6.07756C53.3497 -5.91637 53.548 -5.74054 53.6981 -5.49632C54.2352 -6.06046 54.7385 -6.59773 55.4089 -7.30107C55.5206 -6.72839 55.5074 -6.3523 55.6624 -6.07756C55.8462 -5.75031 56.1477 -5.34369 56.4745 -5.26066C57.0211 -5.12878 57.6278 -5.15931 58.1949 -5.24723C58.6201 -5.3034 59.0118 -5.59645 59.4371 -5.71001C59.6137 -5.75763 59.8371 -5.62698 60.0438 -5.57447C59.9188 -5.33025 59.8407 -5.04208 59.6521 -4.86259C59.5152 -4.72216 59.2437 -4.73925 58.81 -4.63058C59.2268 -4.50847 59.4635 -4.43764 59.7002 -4.3595C59.8852 -4.29478 60.0738 -4.22396 60.2588 -4.15437C60.1567 -4.00172 60.0438 -3.84909 59.9368 -3.70866C59.89 -3.65616 59.8167 -3.62197 59.7434 -3.56458C59.8804 -3.28984 60.0089 -3.01388 60.1471 -2.73425C60.8258 -3.32892 61.3845 -3.16774 61.7161 -2.28001C61.5046 -2.17989 61.3028 -2.0883 61.101 -1.99184V-1.74274C61.4241 -1.71709 61.7425 -1.68168 61.9744 -1.66459C62.3143 -0.964912 62.6832 -0.227379 63.0964 0.607834C62.8814 1.00468 63.04 1.45527 63.6467 1.79594C63.4196 1.94125 63.1697 2.089 62.8345 2.29902C63.1661 2.51271 63.386 2.6568 63.6563 2.8363C63.5397 2.95352 63.4496 3.05365 63.3163 3.19408C63.4797 3.29909 63.6395 3.49568 63.7896 3.49568C64.5501 3.49202 64.6618 4.00243 64.7135 4.59709C64.7171 4.71432 64.6955 4.93777 64.7303 4.95487C65.737 5.23449 65.212 6.17838 65.4703 6.77671C65.6085 7.09175 65.5052 7.51546 65.5136 7.99168C66.3005 8.26765 66.0338 9.10164 65.9605 9.71828C65.8656 10.5877 65.492 11.418 65.307 12.2838C65.2036 12.7551 65.2721 13.2667 65.2205 13.7515C65.194 13.9786 65.0523 14.1972 65.0006 14.4292C64.9453 14.7345 64.9237 15.0532 64.8889 15.3682C65.2156 15.3059 65.5424 15.2669 65.8608 15.1973C65.9773 15.1667 66.0674 15.08 66.1191 15.0446C66.089 15.599 66.0926 16.1546 65.9941 16.6918C65.9593 16.8799 65.6722 17.0679 65.4523 17.1595C65.0655 17.3341 64.9057 17.5356 64.9105 18.0118C64.9189 18.2646 64.5189 18.5271 64.2353 18.6932C64.2053 18.8934 64.1717 19.09 64.1368 19.2915C64.6222 19.3135 65.1472 19.344 65.719 19.366C65.6854 20.244 64.9838 20.0437 64.7219 19.9033C63.8533 19.4319 63.2863 19.9082 62.6627 20.3624C62.6279 20.3844 62.5678 20.3673 62.4693 20.3673C62.3924 20.0657 62.3143 19.7519 62.2242 19.3758C61.7305 19.1572 61.0974 18.9704 60.8571 18.0827C60.4787 18.3843 60.1086 18.6773 59.7302 18.9789C59.7302 18.9704 59.7338 18.9667 59.7386 18.9533C59.2352 19.4393 58.4147 19.7189 58.7499 20.7104C58.8015 20.8667 58.6982 21.1121 58.6081 21.2868L58.6078 21.2874C58.4481 21.6096 58.2812 21.9463 58.0615 22.2258C57.7227 22.6409 57.8248 23.0561 57.7996 23.5372C57.7528 24.2759 57.8729 25.2333 57.0343 25.8316C57.2193 25.9891 57.4044 26.1417 57.5846 26.2993C57.3863 27.1296 57.6927 28.5888 58.0447 29.7293C58.4231 30.965 58.6778 32.2374 59.765 33.0457C59.6918 33.3522 59.6269 33.6453 59.5584 33.942C60.0005 33.5671 60.3069 33.6147 60.7922 33.8638C61.6091 34.2875 62.4909 33.8895 63.1745 33.4877C63.9878 33.0103 64.8865 32.5646 65.3634 31.5731C65.5652 31.1543 66.2368 31.0358 66.7954 31.2153C67.139 31.3289 67.5523 31.6048 67.6508 30.9357C68.1109 31.0395 68.1926 30.573 68.4461 30.4326C68.6864 30.3019 69.1165 30.5327 69.4649 30.5901C69.8337 30.6475 70.2037 30.6915 70.2986 30.1798C70.3887 29.6255 70.6386 29.2445 71.3006 29.3324C70.8621 28.7988 70.9906 28.5937 72.0875 28.1089C71.8556 27.9123 71.667 27.7511 71.4688 27.5802C71.6922 27.4886 71.9037 27.3616 72.1355 27.3005C72.3373 27.248 72.5608 27.2651 72.7807 27.248C72.7458 27.187 72.7026 27.1296 72.6641 27.0685C73.0209 26.7975 73.3561 26.5056 73.7478 26.2736C74.5479 25.8108 74.9347 25.011 74.9431 24.1892C74.9563 23.2979 75.4032 22.7032 75.8934 22.122C76.5686 21.3234 77.329 20.6017 78.0258 19.8239C78.1424 19.6969 78.1856 19.4478 78.164 19.2647C78.0342 17.9056 77.8889 16.5514 77.7123 15.2009C77.6906 15.0141 77.5056 14.7552 77.3471 14.7076C77.2101 14.6649 76.9854 14.87 76.8269 14.9921C76.6899 15.0874 76.5866 15.2363 76.3199 15.516C76.1685 14.8297 76.0484 14.2973 75.9282 13.7246C75.7084 13.7771 75.5066 13.8199 75.2999 13.8773C75.2014 13.2264 75.1065 12.6196 75.0032 11.9504C74.8182 11.9553 74.5383 11.9675 74.113 11.9809C74.4181 11.7318 74.6115 11.5743 74.8698 11.3692C74.6764 11.3692 74.5431 11.3741 74.3965 11.3692C74.5815 11.2251 74.7485 11.0896 74.9683 10.9101C74.7966 10.9101 74.6884 10.9015 74.495 10.8966C74.6151 10.7782 74.692 10.7 74.8086 10.5865C74.4434 10.639 74.1082 10.6732 73.648 10.7306C73.9015 10.5559 74.0517 10.4509 74.2067 10.3459C74.1983 10.3105 74.1851 10.2885 74.1766 10.258C73.6733 10.446 73.1747 10.6341 72.6845 10.8136C72.6671 10.7924 72.6587 10.7666 72.6506 10.7417L72.6497 10.7391C73.1266 10.468 73.6036 10.2018 74.0986 9.91731C73.8066 9.87701 73.5519 9.83795 73.1182 9.77689C73.4186 9.64135 73.5603 9.5803 73.8619 9.45331C73.4534 9.41912 73.2216 9.4008 73.0017 9.38371C72.9849 9.07355 72.9765 8.81103 72.9633 8.4618C72.8864 8.43494 72.7362 8.38731 72.5164 8.32137C72.6365 8.19926 72.7362 8.10279 72.753 8.0857C72.228 7.74013 71.7379 7.40801 71.2309 7.08076C71.3042 6.99773 71.3679 6.92812 71.4628 6.83654C71.2297 6.82311 71.0243 6.81945 70.7143 6.80602C70.9077 6.65338 71.0146 6.56669 71.2213 6.39574C70.5725 6.50075 70.1124 6.40428 70.1593 5.67896C70.289 5.63134 70.4692 5.56174 70.7359 5.46528C70.3539 5.06355 69.9923 4.73996 69.6871 4.36386C68.6299 3.11348 67.598 1.83746 66.566 0.574867C65.9293 -0.198074 65.2805 -0.953918 64.6738 -1.74518C63.7187 -2.99556 62.7348 -4.23618 61.8662 -5.54761C61.3412 -6.34253 60.9892 -7.26078 60.5892 -8.13019C60.3393 -8.66747 60.1855 -9.26212 59.9056 -9.7823C59.7939 -9.9911 59.4539 -10.079 59.2172 -10.2146C59.0803 -10.2939 58.9385 -10.3635 58.7102 -10.4856C58.9253 -10.6468 59.0671 -10.7299 59.1836 -10.8434C59.5104 -11.1487 59.4287 -11.6163 59.007 -11.7873C58.8088 -11.8606 58.5805 -11.8789 58.3787 -11.9485C57.5137 -12.2538 57.5137 -12.2586 57.772 -13.0536C57.3287 -13.2196 56.8818 -13.3857 56.4 -13.5566C56.6054 -13.7007 56.7568 -13.8179 56.9154 -13.9364C56.6835 -14.2734 55.9915 -14.5311 56.7736 -14.9633C56.1201 -14.9633 56.9635 -15.4005 56.6235 -15.5091C56.3652 -15.5922 56.1201 -15.7228 55.7933 -15.8669C56.0949 -15.9329 56.3484 -15.9805 56.6235 -16.0415C56.2835 -16.7888 56.2931 -16.7681 55.5014 -16.5141C55.3212 -16.4567 55.0761 -16.6105 54.8611 -16.6362C54.616 -16.6618 54.3757 -16.6447 53.9372 -16.6447C54.6508 -16.9109 55.1842 -17.1039 55.8978 -17.3701C55.4041 -17.7633 55.0389 -18.0514 54.7289 -18.3005C55.0161 -18.5195 55.4398 -18.8497 55.9265 -19.2292L56.1309 -19.3885C56.1826 -19.3397 56.3892 -19.1736 56.6127 -18.999C56.4661 -19.7902 56.1141 -19.9429 55.529 -19.5277C55.3224 -19.3836 55.0557 -19.3445 54.819 -19.2566C54.7638 -19.7365 54.7337 -20.1346 54.6688 -20.7378C54.9175 -20.4276 55.0809 -20.2262 55.3308 -19.916C55.3392 -20.3263 55.3428 -20.6413 55.356 -21.0565C54.986 -20.96 54.7145 -20.8855 54.3709 -20.794C54.6592 -22.1396 53.4771 -22.2446 52.8236 -22.5242C51.9213 -22.904 50.8593 -23.0359 49.8742 -22.9919C49.2555 -22.9785 48.6704 -22.2446 48.0385 -22.1701C47.0101 -22.0529 46.6713 -21.065 45.8496 -20.6889C45.3775 -20.4704 45.1492 -19.6486 44.8741 -19.0674C44.7107 -18.7218 44.8561 -18.2199 44.3191 -18.049Z" stroke="black" stroke-width="2" mask="url(#path-1-inside-1_0_1)"/>
                            <path d="M63.6671 18.8873C63.7956 18.4893 63.9122 18.14 64.0323 17.7505C63.7308 17.7371 63.4472 17.7249 62.9451 17.7041C63.2022 17.328 63.3752 17.0753 63.5638 16.8042C63.2754 16.367 62.9739 16.3365 62.4669 16.8396C62.1401 17.1534 61.8867 17.5466 61.5815 17.9361C62.0681 18.0399 62.7901 17.6565 62.8802 18.5955C63.0904 18.4905 63.2106 18.4331 63.3571 18.3635C63.4568 18.5418 63.5686 18.7164 63.6671 18.8873Z" stroke="black" stroke-width="2" mask="url(#path-1-inside-1_0_1)"/>
                            <path d="M4.65113 38.0375C4.49255 38.0802 4.31114 38.3427 4.28591 38.5308C4.11051 39.8849 3.96395 41.2391 3.82339 42.5786C3.80177 42.7618 3.84863 43.0109 3.96516 43.1379C4.65714 43.9157 5.41882 44.641 6.09759 45.436C6.58775 46.0172 7.02985 46.6106 7.04307 47.5069C7.05628 48.3324 7.4347 49.1236 8.23842 49.5913C8.63007 49.8184 8.96524 50.1163 9.32204 50.3825C9.29202 50.4485 9.24396 50.501 9.20551 50.5706C9.42056 50.5791 9.64402 50.5608 9.85065 50.6182C10.0789 50.6695 10.2892 50.8014 10.5174 50.8929C10.3204 51.0639 10.1306 51.2251 9.89871 51.4217C10.9956 51.9077 11.1289 52.1128 10.6856 52.6501C11.3476 52.5622 11.5974 52.9382 11.6875 53.489C11.786 54.0055 12.1561 53.9664 12.5261 53.909C12.8709 53.848 13.2962 53.6208 13.5413 53.7478C13.7995 53.887 13.8812 54.351 14.3366 54.2546C14.4363 54.9188 14.8483 54.6429 15.1967 54.5293C15.7506 54.3498 16.4221 54.467 16.624 54.8871C17.1057 55.8713 18.0043 56.3255 18.8129 56.8017C19.4964 57.2035 20.383 57.6015 21.1952 57.1778C21.6817 56.9324 21.9869 56.8799 22.4338 57.256C22.3617 56.9666 22.2968 56.6662 22.2235 56.3597C23.312 55.5465 23.5606 54.279 23.9439 53.0384C24.2971 51.9028 24.6022 50.4424 24.404 49.6169C24.5842 49.4545 24.7692 49.3019 24.9542 49.1444C24.1121 48.5546 24.2358 47.5924 24.189 46.85C24.1637 46.3701 24.2622 45.9586 23.9271 45.5349C23.7072 45.2552 23.539 44.9231 23.3804 44.5995C23.2952 44.4213 23.187 44.1807 23.2387 44.0232C23.5787 43.0402 22.7533 42.752 22.25 42.2709C22.2536 42.2758 22.2584 42.2929 22.2584 42.2929C21.8799 41.9962 21.5099 41.6946 21.1315 41.4015C20.8948 42.288 20.2593 42.4761 19.7643 42.6946C19.6742 43.0695 19.5961 43.3846 19.5193 43.6862C19.4159 43.6813 19.3607 43.7033 19.3258 43.6813C18.7071 43.2319 18.1353 42.7508 17.2667 43.2185C17.0096 43.3626 16.308 43.5628 16.2696 42.6849C16.8414 42.6544 17.3664 42.6324 17.8517 42.6018C17.8217 42.4101 17.7881 42.2038 17.7532 42.0121C17.4649 41.846 17.0697 41.5884 17.0781 41.3307C17.0829 40.8508 16.9231 40.6542 16.5363 40.4747C16.3164 40.3832 16.0293 40.1951 15.9944 40.0071C15.8947 39.4734 15.8995 38.9142 15.8695 38.3635C15.9212 38.3989 16.0161 38.4819 16.1278 38.5125C16.451 38.5833 16.7777 38.6224 17.0997 38.6834C17.0697 38.3696 17.048 38.0509 16.988 37.7444C16.9363 37.5173 16.7933 37.2987 16.7681 37.0716C16.7165 36.5832 16.7801 36.0667 16.6816 35.6039C16.4966 34.7393 16.123 33.9041 16.0281 33.0433C15.9596 32.4266 15.6881 31.5877 16.475 31.3081C16.4834 30.8404 16.3801 30.4167 16.5182 30.098C16.7765 29.4997 16.2563 28.5595 17.2583 28.2713C17.2919 28.2579 17.2703 28.0356 17.2751 27.9172C17.3256 27.3274 17.4385 26.8109 18.199 26.8158C18.3503 26.8158 18.5089 26.6228 18.6723 26.5093C18.5389 26.3737 18.4488 26.2773 18.3323 26.1552C18.6038 25.9757 18.8225 25.8365 19.154 25.6179C18.8189 25.4115 18.5738 25.2638 18.3419 25.1148C18.9486 24.7741 19.1072 24.3284 18.8921 23.9304C19.3042 23.0866 19.6742 22.3479 20.0142 21.658C20.2473 21.636 20.5656 21.6103 20.8876 21.5749V21.3258C20.6858 21.233 20.4827 21.1329 20.2725 21.0413C20.6029 20.1548 21.1627 19.9887 21.8415 20.5871C21.9784 20.3074 22.1118 20.0315 22.2452 19.7567C22.1719 19.7042 22.0986 19.6688 22.0517 19.6163C21.9448 19.4722 21.8331 19.3196 21.7298 19.1706C21.9184 19.101 22.0998 19.0314 22.2884 18.9655C22.5251 18.8861 22.7617 18.8129 23.1786 18.6944C22.7497 18.5808 22.4782 18.5894 22.3365 18.4587C22.1466 18.2841 22.065 17.9911 21.9448 17.7505C22.1515 17.7017 22.3749 17.5661 22.5515 17.6101C22.9768 17.7285 23.3684 18.0118 23.7937 18.0778C24.3572 18.1608 24.9675 18.1962 25.5141 18.0607C25.8408 17.9862 26.1376 17.571 26.3262 17.2438C26.4848 16.9727 26.4728 16.5929 26.5797 16.0202C27.25 16.7285 27.7534 17.2621 28.2904 17.8299C28.4406 17.5808 28.6388 17.405 28.6256 17.2438C28.5872 16.715 29.3176 16.1118 28.5223 15.6271C28.5007 15.61 28.6124 15.2424 28.7457 15.1508C28.8791 15.0495 29.1758 15.1325 29.2828 15.0239C29.708 14.5953 29.9231 14.8834 30.1682 15.2204C30.2799 15.3816 30.3784 15.6173 30.5418 15.6747C30.8169 15.7663 31.1305 15.7406 31.4272 15.7577C31.4404 15.3829 31.4488 15.0068 31.4572 14.7662C31.7924 14.7442 32.0507 14.6697 32.291 14.7137C32.5709 14.7625 32.8244 14.9237 33.0094 14.9982C33.5428 14.6832 34.0798 14.3645 34.7117 13.9798C34.6901 14.3022 34.6685 14.5342 34.6433 14.8578C35.0217 14.8309 35.3953 14.8138 35.5635 14.8053C36.7973 13.2716 37.4256 11.5621 38.0143 9.84527C38.0828 9.66089 38.0828 9.43378 38.0828 9.20666C38.0996 8.69503 38.1464 8.18828 38.1212 7.68153C38.096 7.0307 37.3391 6.47144 37.8809 5.72414C37.929 5.64966 37.786 5.30898 37.6791 5.27357C37.1409 5.10262 37.2875 4.60076 37.1241 4.2552C36.8454 3.67397 36.6171 2.84729 36.1486 2.63361C35.322 2.25385 34.9869 1.25745 33.9597 1.15244C33.323 1.07796 32.7427 0.352638 32.124 0.322113C31.1401 0.283035 30.0781 0.413689 29.1746 0.798325C28.5211 1.07795 27.3438 1.17931 27.6273 2.52493C27.2825 2.43335 27.0158 2.35886 26.6422 2.26727C26.6542 2.67756 26.659 2.99749 26.6674 3.40777C26.9125 3.09274 27.0758 2.89246 27.3293 2.58598C27.2693 3.1843 27.2356 3.58237 27.1792 4.06714C26.9425 3.98411 26.6758 3.94138 26.4692 3.7924C25.8841 3.37724 25.5321 3.5311 25.3855 4.32601C25.6054 4.14651 25.8108 3.98045 25.8673 3.93649C26.4391 4.38218 26.9425 4.77048 27.2693 5.02447C26.9605 5.27357 26.5953 5.55686 26.1003 5.95493C26.814 6.21746 27.3474 6.41405 28.061 6.67658C27.6225 6.67658 27.3822 6.65948 27.1371 6.69001C26.9269 6.70833 26.677 6.87439 26.4968 6.80846C25.7063 6.55081 25.7147 6.53249 25.3747 7.28468C25.6498 7.34206 25.9033 7.38969 26.2049 7.45562C25.8781 7.59971 25.6366 7.73037 25.3747 7.8134C25.0359 7.92696 25.8781 8.35923 25.2245 8.35923C26.0066 8.79271 25.3147 9.05402 25.0828 9.39103C25.2414 9.50826 25.3963 9.62182 25.5982 9.77079C25.1164 9.9454 24.6731 10.1029 24.2262 10.269C24.4797 11.0639 24.4797 11.0724 23.6195 11.3741C23.4213 11.4485 23.193 11.462 22.9912 11.5401C22.5695 11.7147 22.4878 12.1824 22.8146 12.484C22.9311 12.5878 23.0681 12.6757 23.2879 12.8418C23.0609 12.9688 22.9191 13.0347 22.781 13.1129C22.5443 13.257 22.2043 13.34 22.0926 13.55C21.8175 14.0653 21.6625 14.66 21.409 15.2021C21.009 16.0764 20.6569 16.9898 20.132 17.7847C19.2634 19.0949 18.283 20.327 17.3244 21.5774C16.7225 22.3735 16.0689 23.1294 15.4322 23.9072C14.3966 25.1698 13.3646 26.4372 12.3111 27.6998C12.0059 28.0625 11.6491 28.3897 11.2623 28.7964C11.5338 28.8977 11.7104 28.9588 11.8389 29.0064C11.8858 29.7329 11.4305 29.8282 10.7769 29.728L10.8433 29.7817C11.0079 29.9149 11.1124 29.9993 11.2839 30.1347C10.9787 30.1481 10.7685 30.1566 10.5402 30.1652C10.6351 30.2653 10.6952 30.3313 10.7685 30.4057C10.2567 30.7428 9.76656 31.07 9.24637 31.4156C9.26318 31.4327 9.3665 31.5377 9.48303 31.6512C9.26799 31.7135 9.11783 31.766 9.03133 31.7917C9.01811 32.1409 9.0097 32.4071 8.99648 32.7136C8.77783 32.7307 8.54597 32.7478 8.1327 32.7832C8.43424 32.9102 8.57601 32.9749 8.88116 33.1019C8.44266 33.1629 8.18436 33.2069 7.89603 33.2509C8.391 33.5354 8.86794 33.8015 9.34969 34.0726C9.33646 34.0946 9.32806 34.1203 9.31485 34.1422L9.31288 34.1415C8.81497 33.9586 8.31705 33.7757 7.81915 33.5964C7.81074 33.6135 7.80231 33.6489 7.7891 33.6709C7.94408 33.7845 8.09425 33.8895 8.34774 34.0641C7.88401 34.0067 7.55244 33.9676 7.18722 33.9151C7.30376 34.025 7.38063 34.1117 7.50558 34.2302C7.31216 34.2338 7.20044 34.2338 7.02865 34.2387C7.2485 34.4182 7.41548 34.5537 7.60049 34.6978C7.45393 34.7027 7.32058 34.6978 7.13197 34.6978C7.38545 34.903 7.58727 35.0654 7.88401 35.3096C7.45872 35.2974 7.17881 35.2888 6.9938 35.2839C6.89048 35.9531 6.79558 36.5514 6.69707 37.2071C6.49043 37.1497 6.2934 37.107 6.07355 37.0496C5.945 37.6272 5.82847 38.1645 5.6783 38.8458C5.4164 38.5662 5.30948 38.4221 5.17133 38.322C5.01274 38.2035 4.78929 37.9984 4.65113 38.0375Z" stroke="black" stroke-width="2" mask="url(#path-1-inside-1_0_1)"/>
                            <path d="M19.5325 40.1646C19.0255 39.6615 18.7204 39.692 18.4404 40.1292C18.6254 40.4002 18.7972 40.6542 19.0543 41.0254C18.6048 41.0497 18.3272 41.062 18.0559 41.074L17.9671 41.0779C18.0872 41.4662 18.2038 41.8204 18.3323 42.2184C18.432 42.0475 18.5437 41.8643 18.6423 41.6897C18.7876 41.7593 18.909 41.8252 19.1192 41.9254C19.2093 40.9864 19.9361 41.3661 20.4179 41.266C20.1127 40.8728 19.8592 40.4796 19.5325 40.1646Z" stroke="black" stroke-width="2" mask="url(#path-1-inside-1_0_1)"/>
                            <path d="M2.07661 44.3993C1.7114 44.9329 1.40624 45.5043 1.23805 45.7889C0.644577 47.3714 1.21643 48.7866 2.33731 49.1187C3.61916 49.4948 4.77608 48.7964 4.96469 47.4629C5.04278 46.977 5.08604 46.3615 4.86618 45.9854C4.47574 45.3395 3.88586 44.8144 3.34885 44.2686C2.8683 43.779 2.47666 43.8229 2.07661 44.3993Z" stroke="black" stroke-width="2" mask="url(#path-1-inside-1_0_1)"/>
                            <path d="M22.2803 42.3185L22.2754 42.31V42.3149L22.2803 42.3185Z" fill="black"/>
                            <mask id="path-3-inside-2_0_1" fill="white">
                                <path d="M21.4416 42.6165C21.7983 42.6641 22.0902 42.6995 22.3965 42.73C22.358 42.5774 22.3148 42.4456 22.2764 42.3101C22.0229 42.188 21.7695 42.061 21.4127 41.8901C21.4247 42.2185 21.4331 42.4236 21.4416 42.6165Z"/>
                            </mask>
                            <path d="M21.4416 42.6165C21.7983 42.6641 22.0902 42.6995 22.3965 42.73C22.358 42.5774 22.3148 42.4456 22.2764 42.3101C22.0229 42.188 21.7695 42.061 21.4127 41.8901C21.4247 42.2185 21.4331 42.4236 21.4416 42.6165Z" fill="black"/>
                            <path d="M21.4416 42.6165L20.4425 42.66L20.479 43.4969L21.3093 43.6077L21.4416 42.6165ZM22.3965 42.73L22.2973 43.7251L23.7139 43.8663L23.3662 42.4858L22.3965 42.73ZM22.2764 42.3101L23.2384 42.0372L23.1157 41.6044L22.7104 41.4091L22.2764 42.3101ZM21.4127 41.8901L21.8448 40.9882L20.3529 40.2735L20.4134 41.9266L21.4127 41.8901ZM21.3093 43.6077C21.6729 43.6562 21.9765 43.6931 22.2973 43.7251L22.4956 41.735C22.2039 41.7059 21.9237 41.672 21.5738 41.6253L21.3093 43.6077ZM23.3662 42.4858C23.3244 42.3197 23.2615 42.1187 23.2384 42.0372L21.3143 42.5829C21.3681 42.7724 21.3917 42.8351 21.4268 42.9743L23.3662 42.4858ZM22.7104 41.4091C22.4969 41.3063 22.1794 41.1486 21.8448 40.9882L20.9806 42.7919C21.3595 42.9734 21.5489 43.0696 21.8424 43.211L22.7104 41.4091ZM20.4134 41.9266C20.4255 42.2572 20.434 42.4647 20.4425 42.66L22.4406 42.573C22.4323 42.3825 22.424 42.1798 22.4121 41.8535L20.4134 41.9266Z" fill="black" mask="url(#path-3-inside-2_0_1)"/>
                        </svg>