<svg width="32" height="32" viewBox="0 0 32 32" fill="none" xmlns="http://www.w3.org/2000/svg">
<path d="M20.1621 11.7793C19.9805 11.7793 19.7402 11.8232 19.4414 11.9111C19.1426 11.9932 18.8789 12.1602 18.6504 12.4121C18.3633 12.7227 18.1699 13.1533 18.0703 13.7041C17.9766 14.2549 17.9297 15.0107 17.9297 15.9717C17.9297 16.335 17.9355 16.6631 17.9473 16.9561C17.959 17.249 17.9707 17.5508 17.9824 17.8613C17.9941 18.166 18.0059 18.4912 18.0176 18.8369C18.0293 19.1826 18.0352 19.5898 18.0352 20.0586C18.0352 20.3457 18.0293 20.6475 18.0176 20.9639C18.0059 21.2744 17.9795 21.582 17.9385 21.8867C17.8975 22.1914 17.8389 22.4873 17.7627 22.7744C17.6924 23.0557 17.6045 23.3018 17.499 23.5127C17.3174 23.876 17.0625 24.2305 16.7344 24.5762C16.4121 24.916 16.0049 25.1504 15.5127 25.2793V25.4639H17.9648C18.2871 25.4639 18.542 25.4023 18.7295 25.2793C18.917 25.1504 19.0605 24.9863 19.1602 24.7871C19.2656 24.5879 19.333 24.374 19.3623 24.1455C19.3916 23.917 19.4062 23.6943 19.4062 23.4775V22.9062H19.9775V23.4775C19.9775 23.8408 19.9482 24.1748 19.8896 24.4795C19.8311 24.7842 19.7227 25.0508 19.5645 25.2793C19.4121 25.5078 19.1982 25.6865 18.9229 25.8154C18.6533 25.9385 18.3105 26 17.8945 26H13.5879V25.4639C14.0215 25.4639 14.4346 25.4023 14.8271 25.2793C15.2256 25.1504 15.5449 24.9658 15.7852 24.7256C16.0371 24.4736 16.2305 24.1982 16.3652 23.8994C16.5059 23.5947 16.6084 23.2725 16.6729 22.9326C16.7432 22.5869 16.7842 22.2295 16.7959 21.8604C16.8076 21.4854 16.8135 21.1133 16.8135 20.7441C16.8135 20.4336 16.8076 20.1377 16.7959 19.8564C16.7842 19.5693 16.7754 19.2852 16.7695 19.0039C16.7637 18.7227 16.7549 18.4268 16.7432 18.1162C16.7314 17.8057 16.7256 17.4629 16.7256 17.0879C16.7256 15.7695 16.8018 14.7559 16.9541 14.0469C17.0889 13.4727 17.3086 13.0156 17.6133 12.6758C17.918 12.3301 18.2812 12.0928 18.7031 11.9639V11.7793C18.2578 11.7793 17.8359 11.9229 17.4375 12.21C17.0449 12.4971 16.7109 12.8633 16.4355 13.3086C16.1953 13.6953 15.9814 14.1436 15.7939 14.6533C15.6064 15.1631 15.4277 15.7256 15.2578 16.3408C15.0938 16.9502 14.9355 17.6006 14.7832 18.292C14.6367 18.9775 14.4902 19.6924 14.3438 20.4365C14.2852 20.7588 14.2148 21.0928 14.1328 21.4385C14.0566 21.7783 13.9775 22.1182 13.8955 22.458C13.8135 22.792 13.7227 23.1201 13.623 23.4424C13.5293 23.7646 13.4297 24.0605 13.3242 24.3301C13.1191 24.8457 12.8467 25.2529 12.5068 25.5518C12.1729 25.8506 11.7363 26 11.1973 26H10.5645V25.4639H11.1797C11.8008 25.4229 12.1113 25.1709 12.1113 24.708C12.1113 24.4268 12.0645 23.9873 11.9707 23.3896C11.877 22.792 11.7568 22.124 11.6104 21.3857C11.4639 20.6475 11.3057 19.8945 11.1357 19.127C10.9717 18.3594 10.8164 17.668 10.6699 17.0527C10.6113 16.8125 10.5146 16.4521 10.3799 15.9717C10.251 15.4912 10.0898 14.9814 9.89648 14.4424C9.7793 14.9346 9.67969 15.4678 9.59766 16.042C9.52148 16.6104 9.4541 17.1875 9.39551 17.7734C9.33691 18.3594 9.27246 18.9424 9.20215 19.5225C9.1377 20.0967 9.06445 20.6299 8.98242 21.1221C8.83594 21.9014 8.6543 22.6162 8.4375 23.2666C8.22656 23.9111 7.93359 24.4619 7.55859 24.9189C7.18945 25.376 6.72363 25.7305 6.16113 25.9824C5.60449 26.2344 4.91895 26.3604 4.10449 26.3604C3.55371 26.3604 3.05273 26.2666 2.60156 26.0791C2.15039 25.8916 1.7666 25.6338 1.4502 25.3057C1.13379 24.9775 0.887695 24.582 0.711914 24.1191C0.536133 23.6562 0.448242 23.1436 0.448242 22.5811C0.448242 21.9658 0.550781 21.4443 0.755859 21.0166C0.960938 20.583 1.21875 20.2314 1.5293 19.9619C1.83984 19.6924 2.17676 19.499 2.54004 19.3818C2.90918 19.2588 3.26367 19.1973 3.60352 19.1973C4.01953 19.1973 4.3916 19.2617 4.71973 19.3906C5.05371 19.5137 5.33203 19.6895 5.55469 19.918C5.77734 20.1465 5.94727 20.4102 6.06445 20.709C6.1875 21.0078 6.24902 21.3242 6.24902 21.6582C6.24902 21.8984 6.21094 22.1475 6.13477 22.4053C6.06445 22.6631 5.9502 22.8975 5.79199 23.1084C5.63965 23.3193 5.44043 23.4951 5.19434 23.6357C4.94824 23.7705 4.6582 23.8379 4.32422 23.8379C3.63867 23.8379 3.16113 23.6211 2.8916 23.1875C2.62207 22.748 2.4873 22.2031 2.4873 21.5527H3.05859C3.05859 21.7812 3.07617 22.001 3.11133 22.2119C3.14648 22.4229 3.21094 22.6104 3.30469 22.7744C3.4043 22.9326 3.53613 23.0615 3.7002 23.1611C3.86426 23.2549 4.07227 23.3018 4.32422 23.3018C4.66992 23.3018 4.98047 23.1729 5.25586 22.915C5.53125 22.6572 5.66895 22.2383 5.66895 21.6582C5.66895 21.0605 5.47266 20.5918 5.08008 20.252C4.69336 19.9062 4.20117 19.7334 3.60352 19.7334C3.27539 19.7334 2.95898 19.7861 2.6543 19.8916C2.34961 19.9912 2.07715 20.1553 1.83691 20.3838C1.59668 20.6123 1.40039 20.9082 1.24805 21.2715C1.10156 21.6289 1.02832 22.0654 1.02832 22.5811C1.02832 23.1904 1.13086 23.7031 1.33594 24.1191C1.54688 24.5352 1.81055 24.8691 2.12695 25.1211C2.44922 25.373 2.78906 25.5547 3.14648 25.666C3.50977 25.7715 3.84082 25.8242 4.13965 25.8242C4.86035 25.8242 5.4668 25.707 5.95898 25.4727C6.45117 25.2383 6.8584 24.9131 7.18066 24.4971C7.50293 24.0811 7.75781 23.583 7.94531 23.0029C8.13281 22.4229 8.29102 21.7783 8.41992 21.0693C8.53125 20.4775 8.62207 19.8477 8.69238 19.1797C8.7627 18.5059 8.83594 17.835 8.91211 17.167C8.99414 16.4932 9.08203 15.8486 9.17578 15.2334C9.27539 14.6123 9.40137 14.0615 9.55371 13.5811L9.46582 13.3438C9.20215 12.7578 8.88574 12.292 8.5166 11.9463C8.15332 11.5947 7.68457 11.4189 7.11035 11.4189C6.61816 11.4189 6.24902 11.5537 6.00293 11.8232C5.75684 12.0928 5.63379 12.4326 5.63379 12.8428C5.63379 13.2529 5.72168 13.5605 5.89746 13.7656C6.0791 13.9648 6.31641 14.0645 6.60938 14.0645C6.84961 14.0645 7.04004 13.9941 7.18066 13.8535C7.32715 13.707 7.40039 13.5195 7.40039 13.291C7.40039 13.0273 7.31543 12.8486 7.14551 12.7549C6.97559 12.6553 6.80859 12.6055 6.64453 12.6055V12.0693C7.02539 12.0693 7.3418 12.1748 7.59375 12.3857C7.8457 12.5967 7.97168 12.8984 7.97168 13.291C7.97168 13.6777 7.83984 13.9941 7.57617 14.2402C7.3125 14.4863 6.99023 14.6094 6.60938 14.6094C6.10547 14.6094 5.71875 14.4541 5.44922 14.1436C5.18555 13.8271 5.05371 13.3994 5.05371 12.8604C5.05371 12.251 5.25293 11.7705 5.65137 11.4189C6.0498 11.0615 6.55371 10.8828 7.16309 10.8828C7.83691 10.8828 8.41992 11.0176 8.91211 11.2871C9.4043 11.5566 9.82617 11.9258 10.1777 12.3945C10.5352 12.8633 10.8369 13.4111 11.083 14.0381C11.3291 14.6592 11.54 15.3154 11.7158 16.0068C11.8623 16.5635 12 17.1055 12.1289 17.6328C12.2637 18.1602 12.3896 18.6963 12.5068 19.2412C12.6299 19.7861 12.7441 20.3457 12.8496 20.9199C12.9609 21.4883 13.0635 22.0947 13.1572 22.7393H13.2979C13.3506 22.5518 13.4004 22.3467 13.4473 22.124C13.4941 21.9014 13.5381 21.6729 13.5791 21.4385C13.6201 21.2041 13.6641 20.9727 13.7109 20.7441C13.7637 20.5156 13.8076 20.3047 13.8428 20.1113C14.1299 18.6582 14.4199 17.3428 14.7129 16.165C15.0059 14.9814 15.3867 14 15.8555 13.2207C16.3477 12.418 16.9131 11.8789 17.5518 11.6035C18.1025 11.3633 18.7793 11.2432 19.582 11.2432H20.1621V11.7793Z" fill="#DCAF6C"/>
<path d="M11.8379 11.7793C12.0195 11.7793 12.2598 11.8232 12.5586 11.9111C12.8574 11.9932 13.1211 12.1602 13.3496 12.4121C13.6367 12.7227 13.8301 13.1533 13.9297 13.7041C14.0234 14.2549 14.0703 15.0107 14.0703 15.9717C14.0703 16.335 14.0645 16.6631 14.0527 16.9561C14.041 17.249 14.0293 17.5508 14.0176 17.8613C14.0059 18.166 13.9941 18.4912 13.9824 18.8369C13.9707 19.1826 13.9648 19.5898 13.9648 20.0586C13.9648 20.3457 13.9707 20.6475 13.9824 20.9639C13.9941 21.2744 14.0205 21.582 14.0615 21.8867C14.1025 22.1914 14.1611 22.4873 14.2373 22.7744C14.3076 23.0557 14.3955 23.3018 14.501 23.5127C14.6826 23.876 14.9375 24.2305 15.2656 24.5762C15.5879 24.916 15.9951 25.1504 16.4873 25.2793V25.4639H14.0352C13.7129 25.4639 13.458 25.4023 13.2705 25.2793C13.083 25.1504 12.9395 24.9863 12.8398 24.7871C12.7344 24.5879 12.667 24.374 12.6377 24.1455C12.6084 23.917 12.5938 23.6943 12.5938 23.4775V22.9062H12.0225V23.4775C12.0225 23.8408 12.0518 24.1748 12.1104 24.4795C12.1689 24.7842 12.2773 25.0508 12.4355 25.2793C12.5879 25.5078 12.8018 25.6865 13.0771 25.8154C13.3467 25.9385 13.6895 26 14.1055 26H18.4121V25.4639C17.9785 25.4639 17.5654 25.4023 17.1729 25.2793C16.7744 25.1504 16.4551 24.9658 16.2148 24.7256C15.9629 24.4736 15.7695 24.1982 15.6348 23.8994C15.4941 23.5947 15.3916 23.2725 15.3271 22.9326C15.2568 22.5869 15.2158 22.2295 15.2041 21.8604C15.1924 21.4854 15.1865 21.1133 15.1865 20.7441C15.1865 20.4336 15.1924 20.1377 15.2041 19.8564C15.2158 19.5693 15.2246 19.2852 15.2305 19.0039C15.2363 18.7227 15.2451 18.4268 15.2568 18.1162C15.2686 17.8057 15.2744 17.4629 15.2744 17.0879C15.2744 15.7695 15.1982 14.7559 15.0459 14.0469C14.9111 13.4727 14.6914 13.0156 14.3867 12.6758C14.082 12.3301 13.7188 12.0928 13.2969 11.9639V11.7793C13.7422 11.7793 14.1641 11.9229 14.5625 12.21C14.9551 12.4971 15.2891 12.8633 15.5645 13.3086C15.8047 13.6953 16.0186 14.1436 16.2061 14.6533C16.3936 15.1631 16.5723 15.7256 16.7422 16.3408C16.9062 16.9502 17.0645 17.6006 17.2168 18.292C17.3633 18.9775 17.5098 19.6924 17.6562 20.4365C17.7148 20.7588 17.7852 21.0928 17.8672 21.4385C17.9434 21.7783 18.0225 22.1182 18.1045 22.458C18.1865 22.792 18.2773 23.1201 18.377 23.4424C18.4707 23.7646 18.5703 24.0605 18.6758 24.3301C18.8809 24.8457 19.1533 25.2529 19.4932 25.5518C19.8271 25.8506 20.2637 26 20.8027 26H21.4355V25.4639H20.8203C20.1992 25.4229 19.8887 25.1709 19.8887 24.708C19.8887 24.4268 19.9355 23.9873 20.0293 23.3896C20.123 22.792 20.2432 22.124 20.3896 21.3857C20.5361 20.6475 20.6943 19.8945 20.8643 19.127C21.0283 18.3594 21.1836 17.668 21.3301 17.0527C21.3887 16.8125 21.4854 16.4521 21.6201 15.9717C21.749 15.4912 21.9102 14.9814 22.1035 14.4424C22.2207 14.9346 22.3203 15.4678 22.4023 16.042C22.4785 16.6104 22.5459 17.1875 22.6045 17.7734C22.6631 18.3594 22.7275 18.9424 22.7979 19.5225C22.8623 20.0967 22.9355 20.6299 23.0176 21.1221C23.1641 21.9014 23.3457 22.6162 23.5625 23.2666C23.7734 23.9111 24.0664 24.4619 24.4414 24.9189C24.8105 25.376 25.2764 25.7305 25.8389 25.9824C26.3955 26.2344 27.0811 26.3604 27.8955 26.3604C28.4463 26.3604 28.9473 26.2666 29.3984 26.0791C29.8496 25.8916 30.2334 25.6338 30.5498 25.3057C30.8662 24.9775 31.1123 24.582 31.2881 24.1191C31.4639 23.6562 31.5518 23.1436 31.5518 22.5811C31.5518 21.9658 31.4492 21.4443 31.2441 21.0166C31.0391 20.583 30.7812 20.2314 30.4707 19.9619C30.1602 19.6924 29.8232 19.499 29.46 19.3818C29.0908 19.2588 28.7363 19.1973 28.3965 19.1973C27.9805 19.1973 27.6084 19.2617 27.2803 19.3906C26.9463 19.5137 26.668 19.6895 26.4453 19.918C26.2227 20.1465 26.0527 20.4102 25.9355 20.709C25.8125 21.0078 25.751 21.3242 25.751 21.6582C25.751 21.8984 25.7891 22.1475 25.8652 22.4053C25.9355 22.6631 26.0498 22.8975 26.208 23.1084C26.3604 23.3193 26.5596 23.4951 26.8057 23.6357C27.0518 23.7705 27.3418 23.8379 27.6758 23.8379C28.3613 23.8379 28.8389 23.6211 29.1084 23.1875C29.3779 22.748 29.5127 22.2031 29.5127 21.5527H28.9414C28.9414 21.7812 28.9238 22.001 28.8887 22.2119C28.8535 22.4229 28.7891 22.6104 28.6953 22.7744C28.5957 22.9326 28.4639 23.0615 28.2998 23.1611C28.1357 23.2549 27.9277 23.3018 27.6758 23.3018C27.3301 23.3018 27.0195 23.1729 26.7441 22.915C26.4688 22.6572 26.3311 22.2383 26.3311 21.6582C26.3311 21.0605 26.5273 20.5918 26.9199 20.252C27.3066 19.9062 27.7988 19.7334 28.3965 19.7334C28.7246 19.7334 29.041 19.7861 29.3457 19.8916C29.6504 19.9912 29.9229 20.1553 30.1631 20.3838C30.4033 20.6123 30.5996 20.9082 30.752 21.2715C30.8984 21.6289 30.9717 22.0654 30.9717 22.5811C30.9717 23.1904 30.8691 23.7031 30.6641 24.1191C30.4531 24.5352 30.1895 24.8691 29.873 25.1211C29.5508 25.373 29.2109 25.5547 28.8535 25.666C28.4902 25.7715 28.1592 25.8242 27.8604 25.8242C27.1396 25.8242 26.5332 25.707 26.041 25.4727C25.5488 25.2383 25.1416 24.9131 24.8193 24.4971C24.4971 24.0811 24.2422 23.583 24.0547 23.0029C23.8672 22.4229 23.709 21.7783 23.5801 21.0693C23.4688 20.4775 23.3779 19.8477 23.3076 19.1797C23.2373 18.5059 23.1641 17.835 23.0879 17.167C23.0059 16.4932 22.918 15.8486 22.8242 15.2334C22.7246 14.6123 22.5986 14.0615 22.4463 13.5811L22.5342 13.3438C22.7979 12.7578 23.1143 12.292 23.4834 11.9463C23.8467 11.5947 24.3154 11.4189 24.8896 11.4189C25.3818 11.4189 25.751 11.5537 25.9971 11.8232C26.2432 12.0928 26.3662 12.4326 26.3662 12.8428C26.3662 13.2529 26.2783 13.5605 26.1025 13.7656C25.9209 13.9648 25.6836 14.0645 25.3906 14.0645C25.1504 14.0645 24.96 13.9941 24.8193 13.8535C24.6729 13.707 24.5996 13.5195 24.5996 13.291C24.5996 13.0273 24.6846 12.8486 24.8545 12.7549C25.0244 12.6553 25.1914 12.6055 25.3555 12.6055V12.0693C24.9746 12.0693 24.6582 12.1748 24.4062 12.3857C24.1543 12.5967 24.0283 12.8984 24.0283 13.291C24.0283 13.6777 24.1602 13.9941 24.4238 14.2402C24.6875 14.4863 25.0098 14.6094 25.3906 14.6094C25.8945 14.6094 26.2812 14.4541 26.5508 14.1436C26.8145 13.8271 26.9463 13.3994 26.9463 12.8604C26.9463 12.251 26.7471 11.7705 26.3486 11.4189C25.9502 11.0615 25.4463 10.8828 24.8369 10.8828C24.1631 10.8828 23.5801 11.0176 23.0879 11.2871C22.5957 11.5566 22.1738 11.9258 21.8223 12.3945C21.4648 12.8633 21.1631 13.4111 20.917 14.0381C20.6709 14.6592 20.46 15.3154 20.2842 16.0068C20.1377 16.5635 20 17.1055 19.8711 17.6328C19.7363 18.1602 19.6104 18.6963 19.4932 19.2412C19.3701 19.7861 19.2559 20.3457 19.1504 20.9199C19.0391 21.4883 18.9365 22.0947 18.8428 22.7393H18.7021C18.6494 22.5518 18.5996 22.3467 18.5527 22.124C18.5059 21.9014 18.4619 21.6729 18.4209 21.4385C18.3799 21.2041 18.3359 20.9727 18.2891 20.7441C18.2363 20.5156 18.1924 20.3047 18.1572 20.1113C17.8701 18.6582 17.5801 17.3428 17.2871 16.165C16.9941 14.9814 16.6133 14 16.1445 13.2207C15.6523 12.418 15.0869 11.8789 14.4482 11.6035C13.8975 11.3633 13.2207 11.2432 12.418 11.2432H11.8379V11.7793Z" fill="#DCAF6C"/>
<circle cx="16" cy="9" r="2" fill="#DCAF6C"/>
<path d="M12.5 25.3L4.8559 27.7139C4.52876 27.8172 4.60318 28.3 4.94624 28.3H16H27.0538C27.3968 28.3 27.4712 27.8172 27.1441 27.7139L19.5 25.3" stroke="#DCAF6C" stroke-width="0.8" stroke-linecap="round"/>
</svg>
