<svg width="38" height="69" viewBox="0 0 38 69" fill="none" xmlns="http://www.w3.org/2000/svg">
                            <rect width="38" height="69"/>
                            <mask id="path-1-inside-1_0_1" fill="white">
                                <path d="M17.5648 42.2619C17.5732 42.0654 17.5816 41.8603 17.5996 41.5319C17.2429 41.7064 16.9846 41.8285 16.736 41.9555C16.6927 42.091 16.6495 42.2265 16.6159 42.3706C16.9113 42.3352 17.208 42.301 17.5648 42.2619Z"/>
                            </mask>
                            <path d="M17.5648 42.2619C17.5732 42.0654 17.5816 41.8603 17.5996 41.5319C17.2429 41.7064 16.9846 41.8285 16.736 41.9555C16.6927 42.091 16.6495 42.2265 16.6159 42.3706C16.9113 42.3352 17.208 42.301 17.5648 42.2619Z" fill="black"/>
                            <path d="M17.5648 42.2619L17.6736 43.256L18.5272 43.1625L18.5639 42.3047L17.5648 42.2619ZM17.5996 41.5319L18.5981 41.5866L18.6915 39.8842L17.16 40.6337L17.5996 41.5319ZM16.736 41.9555L16.2812 41.0649L15.91 41.2545L15.7833 41.6515L16.736 41.9555ZM16.6159 42.3706L15.642 42.1433L15.3175 43.5333L16.7348 43.3635L16.6159 42.3706ZM18.5639 42.3047C18.5723 42.108 18.5805 41.9083 18.5981 41.5866L16.6011 41.4771C16.5827 41.8122 16.5741 42.0228 16.5657 42.2192L18.5639 42.3047ZM17.16 40.6337C16.8196 40.8003 16.5395 40.933 16.2812 41.0649L17.1908 42.8461C17.4297 42.7241 17.6661 42.6126 18.0392 42.4301L17.16 40.6337ZM15.7833 41.6515C15.7417 41.7818 15.6861 41.9544 15.642 42.1433L17.5897 42.598C17.6128 42.4987 17.6437 42.4002 17.6886 42.2595L15.7833 41.6515ZM16.7348 43.3635C17.027 43.3285 17.3203 43.2947 17.6736 43.256L17.4559 41.2679C17.0958 41.3073 16.7957 41.3419 16.4969 41.3777L16.7348 43.3635Z" fill="black" mask="url(#path-1-inside-1_0_1)"/>
                            <mask id="path-3-inside-2_0_1" fill="white">
                                <path d="M-41.7968 75.611C-41.8749 76.699 -41.3283 77.5562 -40.563 78.124C-40.2449 78.3653 -39.4862 78.1113 -38.9541 77.9332L-38.9111 77.9188C-38.5375 77.7833 -38.1374 77.4768 -37.944 77.1361C-37.7554 76.8125 -37.8455 76.3363 -37.7638 75.9383C-37.717 75.6672 -37.5872 75.4181 -37.4971 75.1604C-37.0586 74.4473 -38.2323 73.8221 -37.4623 72.9136C-37.7374 72.8489 -37.9488 72.7476 -38.159 72.761C-38.4642 72.783 -38.7609 72.9136 -39.0661 72.9491C-40.6279 73.1249 -41.6983 74.1689 -41.7968 75.611Z"/>
                                <path d="M-38.821 81.6492C-38.6744 82.7946 -38.3657 83.0742 -37.4238 82.6505C-37.0322 82.4759 -36.6369 82.2048 -36.3738 81.8641C-35.6386 80.9068 -35.6818 80.5441 -36.4171 79.8274C-36.7655 79.4855 -37.0922 79.1326 -37.4791 78.7431C-38.0641 78.9177 -38.5975 79.2413 -38.821 79.919C-38.839 79.9629 -38.5507 80.1156 -38.469 80.1681C-38.5927 80.6479 -38.8895 81.173 -38.821 81.6492Z"/>
                                <path d="M-30.6433 84.8582C-30.6817 84.6091 -30.6085 84.3197 -30.5183 84.0755C-30.385 83.7043 -30.3466 83.3844 -30.7983 83.2513C-31.125 83.1597 -31.4686 83.1108 -31.9288 83.0193C-32.2291 83.5517 -32.8478 83.4161 -33.4245 83.421C-34.6799 83.4247 -35.5569 84.045 -35.987 85.2209C-36.3522 86.2002 -36.0951 87.1343 -35.3767 87.8559C-35.1196 88.1136 -34.4997 88.3456 -34.2378 88.2052C-33.4341 87.7729 -32.7121 87.1441 -31.9552 86.6019C-31.8651 86.5311 -31.7486 86.514 -31.5684 86.431C-31.5167 86.7411 -31.4734 86.9865 -31.435 87.2613C-30.7382 86.1782 -30.5448 85.4834 -30.6433 84.8582Z"/>
                                <path d="M-23.7294 90.7792C-22.4488 89.9709 -21.7436 88.7425 -21.4853 87.2918C-21.2534 85.9499 -21.7952 85.2331 -23.0422 84.8069C-23.5324 84.636 -23.9961 84.3527 -24.4695 84.1207C-24.4515 84.0682 -24.4214 84.0242 -24.4046 83.9717C-23.9661 84.0938 -23.5276 84.2123 -23.0843 84.3344C-23.0927 84.2733 -23.1095 84.2123 -23.1143 84.1512C-22.8777 84.0682 -22.6278 83.9974 -22.4043 83.8887C-22.1544 83.7751 -21.8493 83.6701 -21.7159 83.465C-21.6475 83.3636 -21.9094 83.0364 -22.0475 82.8178C-22.1508 82.6688 -22.2806 82.5418 -22.4392 82.3672C-22.2505 82.1181 -22.0571 81.869 -21.7988 81.532C-22.7107 81.5845 -23.6309 81.0301 -24.4178 81.9606C-24.616 82.1963 -24.9548 82.3404 -25.2564 82.4673C-25.7633 82.6774 -25.8799 83.0791 -25.4966 83.4992C-25.3465 83.6567 -25.1266 83.7519 -24.9464 83.8704C-25.0281 83.9583 -25.093 84.0413 -25.2131 84.1854C-24.6725 84.382 -24.216 84.5481 -23.7691 84.7141C-23.7859 84.7715 -23.8123 84.824 -23.8291 84.8851C-24.7878 84.8326 -25.7513 84.8411 -26.6968 84.7141C-27.4236 84.614 -27.9354 84.9156 -28.2874 85.4394C-28.6959 86.0158 -29.0611 86.6849 -29.2629 87.3663C-29.4215 87.9036 -29.4299 88.5593 -29.2797 89.1014C-29.0515 89.9623 -28.5745 90.6791 -27.8525 91.2908C-26.9239 92.0821 -26.1286 92.2482 -25.0666 91.601C-24.6148 91.325 -24.1763 91.0503 -23.7294 90.7792Z"/>
                                <path d="M21.0707 68.265C22.1328 68.9195 22.9281 68.7534 23.8615 67.9585C24.5799 67.3468 25.0569 66.6263 25.2936 65.7655C25.4401 65.2233 25.4305 64.5725 25.2719 64.0303C25.0701 63.349 24.7037 62.6932 24.3 62.0986C23.9468 61.587 23.4314 61.2805 22.7046 61.3769C21.7591 61.5076 20.7956 61.4942 19.8369 61.5515C19.8201 61.4893 19.7937 61.438 19.7769 61.3806C20.2274 61.2096 20.6791 61.0485 21.2209 60.847C21.096 60.7066 21.0359 60.6235 20.9542 60.5319C21.1344 60.4184 21.3543 60.3219 21.5044 60.1644C21.8877 59.7456 21.7711 59.3426 21.2642 59.1289L21.248 59.1223C20.9506 59.0007 20.6203 58.8657 20.4256 58.6258C19.6423 57.6942 18.7185 58.2497 17.8066 58.1972C18.0601 58.5294 18.2583 58.7785 18.447 59.0276C18.2872 59.2107 18.1538 59.3292 18.0553 59.4818C17.9172 59.687 17.6553 60.024 17.7237 60.1241C17.8571 60.3292 18.1586 60.4343 18.4121 60.5478C18.6368 60.6577 18.8855 60.7224 19.1221 60.8103C19.1173 60.8665 19.1005 60.9276 19.0921 60.9935C19.5354 60.8714 19.9739 60.753 20.4124 60.6308C20.4304 60.6785 20.4605 60.7273 20.4773 60.7749C20.0051 61.0069 19.5402 61.2902 19.05 61.4612C17.7994 61.902 17.2528 62.6188 17.4895 63.9607C17.743 65.4065 18.4482 66.6385 19.7336 67.4432C20.1805 67.7229 20.6238 67.9939 21.0707 68.265Z"/>
                                <path d="M30.242 64.8778C30.5003 65.0133 31.119 64.7898 31.3773 64.5236C32.0945 63.8069 32.3492 62.863 31.9912 61.8837C31.5563 60.7163 30.6793 60.0924 29.4239 60.0875C28.8484 60.0826 28.2249 60.2145 27.9282 59.6809C27.468 59.7724 27.1244 59.8249 26.7977 59.9214C26.3459 60.0569 26.3844 60.372 26.5177 60.7432C26.6042 60.9923 26.6811 61.2817 26.6427 61.5259C26.5442 62.1548 26.7424 62.8495 27.4344 63.929C27.4728 63.6542 27.5113 63.4137 27.5677 63.1035C27.7491 63.1829 27.8693 63.2049 27.9594 63.2745C28.7114 63.8154 29.4335 64.4369 30.242 64.8778Z"/>
                                <path d="M32.3744 58.5404C32.6315 58.8774 33.0316 59.1436 33.4232 59.3231C34.3651 59.7517 34.675 59.4672 34.8264 58.3218C34.8913 57.8505 34.5945 57.3217 34.4696 56.8492C34.5513 56.7918 34.8384 56.6428 34.8216 56.5952C34.6017 55.9089 34.0683 55.5866 33.4797 55.4156C33.0964 55.8088 32.7661 56.1678 32.4177 56.5085C31.6824 57.2204 31.6392 57.583 32.3744 58.5404Z"/>
                                <path d="M34.9117 54.5829C35.4487 54.766 36.2356 55.0456 36.5624 54.7965C37.3228 54.2275 37.8695 53.3716 37.7938 52.2811C37.6941 50.8427 36.62 49.7987 35.0631 49.6192C34.7579 49.5838 34.4612 49.4531 34.156 49.4311C33.9494 49.4189 33.7344 49.5142 33.4592 49.5801C34.2281 50.4935 33.0592 51.1187 33.4977 51.8306C33.5878 52.0833 33.7127 52.3373 33.7596 52.6035C33.8413 53.0052 33.7548 53.4863 33.9398 53.805C34.138 54.1457 34.5333 54.4559 34.9117 54.5829Z"/>
                                <path d="M37.7649 45.4626C37.5931 45.1781 37.288 44.6054 36.9228 44.0682C36.5239 43.4955 36.1323 43.4552 35.6493 43.9387C35.1111 44.4846 34.5225 45.0084 34.1356 45.6556C33.9158 46.0317 33.9554 46.6471 34.0323 47.1282C34.2221 48.4604 35.379 49.1637 36.6597 48.784C37.7818 48.4567 38.3536 47.0403 37.7649 45.4626Z"/>
                                <path d="M1.31907 4.95102C1.20734 4.98643 1.07039 5.33199 1.11724 5.4016C1.65906 6.14889 0.902195 6.70815 0.866154 7.36021C0.839722 7.87061 0.887775 8.3737 0.904598 8.88045C0.904598 9.1039 0.904598 9.33958 0.973076 9.51907C1.55814 11.2359 2.19006 12.9454 3.42386 14.4791C3.59206 14.4925 3.96568 14.5096 4.34411 14.5316C4.31889 14.2129 4.29726 13.9809 4.27563 13.6573C4.91116 14.037 5.44938 14.3606 5.97797 14.6757C6.16298 14.6012 6.41647 14.4485 6.69639 14.3912C6.93306 14.3484 7.19496 14.418 7.53014 14.4485C7.53855 14.6854 7.54696 15.0603 7.56017 15.4278C7.85691 15.4108 8.17047 15.4413 8.44558 15.3534C8.60896 15.3045 8.70748 15.0554 8.8192 14.8942C9.06428 14.5584 9.27933 14.2788 9.70461 14.7025C9.81273 14.8075 10.1083 14.7245 10.2464 14.8246C10.3762 14.9211 10.4879 15.2838 10.4663 15.3009C9.67458 15.7954 10.4062 16.3888 10.363 16.9224C10.3497 17.0836 10.548 17.2595 10.6981 17.5037C11.2352 16.9395 11.7385 16.4023 12.4089 15.6989C12.5206 16.2716 12.5074 16.6477 12.6624 16.9224C12.8462 17.2497 13.1477 17.6563 13.4745 17.7393C14.0211 17.8712 14.6278 17.8407 15.1949 17.7528C15.6201 17.6966 16.0118 17.4035 16.4371 17.29C16.6137 17.2424 16.8371 17.373 17.0438 17.4255C16.9188 17.6697 16.8407 17.9579 16.6521 18.1374C16.5152 18.2778 16.2437 18.2607 15.81 18.3694C16.2268 18.4915 16.4635 18.5624 16.7002 18.6405C16.8852 18.7052 17.0738 18.776 17.2588 18.8456C17.1567 18.9983 17.0438 19.1509 16.9368 19.2913C16.89 19.3438 16.8167 19.378 16.7434 19.4354C16.8804 19.7102 17.0089 19.9861 17.1471 20.2657C17.8258 19.6711 18.3845 19.8323 18.7161 20.72C18.5046 20.8201 18.3028 20.9117 18.101 21.0082V21.2573C18.4241 21.2829 18.7425 21.3183 18.9744 21.3354C19.3143 22.0351 19.6832 22.7726 20.0964 23.6078C19.8814 24.0047 20.04 24.4553 20.6467 24.7959C20.4196 24.9413 20.1697 25.089 19.8345 25.299C20.1661 25.5127 20.386 25.6568 20.6563 25.8363C20.5397 25.9535 20.4496 26.0536 20.3163 26.1941C20.4797 26.2991 20.6395 26.4957 20.7896 26.4957C21.5501 26.492 21.6618 27.0024 21.7135 27.5971C21.7171 27.7143 21.6955 27.9378 21.7303 27.9549C22.737 28.2345 22.212 29.1784 22.4703 29.7767C22.6085 30.0917 22.5052 30.5155 22.5136 30.9917C23.3005 31.2676 23.0338 32.1016 22.9605 32.7183C22.8656 33.5877 22.492 34.418 22.307 35.2838C22.2036 35.7551 22.2721 36.2667 22.2205 36.7515C22.194 36.9786 22.0523 37.1972 22.0006 37.4292C21.9453 37.7345 21.9237 38.0532 21.8889 38.3682C22.2156 38.3059 22.5424 38.2669 22.8608 38.1973C22.9773 38.1667 23.0674 38.08 23.1191 38.0446C23.089 38.599 23.0926 39.1546 22.9941 39.6918C22.9593 39.8799 22.6722 40.0679 22.4523 40.1595C22.0655 40.3341 21.9057 40.5356 21.9105 41.0118C21.9189 41.2646 21.5189 41.5271 21.2353 41.6932C21.2053 41.8934 21.1717 42.09 21.1368 42.2915C21.6222 42.3135 22.1472 42.344 22.719 42.366C22.6854 43.244 21.9838 43.0437 21.7219 42.9033C20.8533 42.4319 20.2863 42.9082 19.6627 43.3624C19.6279 43.3844 19.5678 43.3673 19.4693 43.3673C19.3924 43.0657 19.3143 42.7519 19.2242 42.3758C18.7305 42.1572 18.0974 41.9704 17.8571 41.0827C17.4787 41.3843 17.1086 41.6773 16.7302 41.9789C16.7302 41.9704 16.7338 41.9667 16.7386 41.9533C16.2352 42.4393 15.4147 42.7189 15.7499 43.7104C15.8015 43.8667 15.6982 44.1121 15.6081 44.2868L15.6078 44.2874C15.4481 44.6096 15.2812 44.9463 15.0615 45.2258C14.7227 45.6409 14.8248 46.0561 14.7996 46.5372C14.7528 47.2759 14.8729 48.2333 14.0343 48.8316C14.2193 48.9891 14.4044 49.1417 14.5846 49.2993C14.3863 50.1296 14.6927 51.5888 15.0447 52.7293C15.4231 53.965 15.6778 55.2374 16.765 56.0457C16.6918 56.3522 16.6269 56.6453 16.5584 56.942C17.0005 56.5671 17.3069 56.6147 17.7922 56.8638C18.6091 57.2875 19.4909 56.8895 20.1745 56.4877C20.9878 56.0103 21.8865 55.5646 22.3634 54.5731C22.5652 54.1543 23.2368 54.0358 23.7954 54.2153C24.139 54.3289 24.5523 54.6048 24.6508 53.9357C25.1109 54.0395 25.1926 53.573 25.4461 53.4326C25.6864 53.3019 26.1165 53.5327 26.4649 53.5901C26.8337 53.6475 27.2037 53.6915 27.2986 53.1798C27.3887 52.6255 27.6386 52.2445 28.3006 52.3324C27.8621 51.7988 27.9906 51.5937 29.0875 51.1089C28.8556 50.9123 28.667 50.7511 28.4688 50.5802C28.6922 50.4886 28.9037 50.3616 29.1355 50.3005C29.3373 50.248 29.5608 50.2651 29.7807 50.248C29.7458 50.187 29.7026 50.1296 29.6641 50.0685C30.0209 49.7975 30.3561 49.5056 30.7478 49.2736C31.5479 48.8108 31.9347 48.011 31.9431 47.1892C31.9563 46.2979 32.4032 45.7032 32.8934 45.122C33.5686 44.3234 34.329 43.6017 35.0258 42.8239C35.1424 42.6969 35.1856 42.4478 35.164 42.2647C35.0342 40.9056 34.8889 39.5514 34.7123 38.2009C34.6906 38.0141 34.5056 37.7552 34.3471 37.7076C34.2101 37.6649 33.9854 37.87 33.8269 37.9921C33.6899 38.0874 33.5866 38.2363 33.3199 38.516C33.1685 37.8297 33.0484 37.2973 32.9282 36.7246C32.7084 36.7771 32.5066 36.8199 32.2999 36.8773C32.2014 36.2264 32.1065 35.6196 32.0032 34.9504C31.8182 34.9553 31.5383 34.9675 31.113 34.9809C31.4181 34.7318 31.6115 34.5743 31.8698 34.3692C31.6764 34.3692 31.5431 34.3741 31.3965 34.3692C31.5815 34.2251 31.7485 34.0896 31.9683 33.9101C31.7966 33.9101 31.6884 33.9015 31.495 33.8966C31.6151 33.7782 31.692 33.7 31.8086 33.5865C31.4434 33.639 31.1082 33.6732 30.648 33.7306C30.9015 33.5559 31.0517 33.4509 31.2067 33.3459C31.1983 33.3105 31.1851 33.2885 31.1766 33.258C30.6733 33.446 30.1747 33.6341 29.6845 33.8136C29.6671 33.7924 29.6587 33.7666 29.6506 33.7417L29.6497 33.7391C30.1266 33.468 30.6036 33.2018 31.0986 32.9173C30.8066 32.877 30.5519 32.8379 30.1182 32.7769C30.4186 32.6414 30.5603 32.5803 30.8619 32.4533C30.4534 32.4191 30.2216 32.4008 30.0017 32.3837C29.9849 32.0736 29.9765 31.811 29.9633 31.4618C29.8864 31.4349 29.7362 31.3873 29.5164 31.3214C29.6365 31.1993 29.7362 31.1028 29.753 31.0857C29.228 30.7401 28.7379 30.408 28.2309 30.0808C28.3042 29.9977 28.3679 29.9281 28.4628 29.8365C28.2297 29.8231 28.0243 29.8195 27.7143 29.806C27.9077 29.6534 28.0146 29.5667 28.2213 29.3957C27.5725 29.5007 27.1124 29.4043 27.1593 28.679C27.289 28.6313 27.4692 28.5617 27.7359 28.4653C27.3539 28.0635 26.9923 27.74 26.6871 27.3639C25.6299 26.1135 24.598 24.8375 23.566 23.5749C22.9293 22.8019 22.2805 22.0461 21.6738 21.2548C20.7187 20.0044 19.7348 18.7638 18.8662 17.4524C18.3412 16.6575 17.9892 15.7392 17.5892 14.8698C17.3393 14.3325 17.1855 13.7379 16.9056 13.2177C16.7939 13.0089 16.4539 12.921 16.2172 12.7854C16.0803 12.7061 15.9385 12.6365 15.7102 12.5144C15.9253 12.3532 16.0671 12.2701 16.1836 12.1566C16.5104 11.8513 16.4287 11.3837 16.007 11.2127C15.8088 11.1394 15.5805 11.1211 15.3787 11.0515C14.5137 10.7462 14.5137 10.7414 14.772 9.94643C14.3287 9.78037 13.8818 9.6143 13.4 9.44335C13.6054 9.29926 13.7568 9.18205 13.9154 9.06361C13.6835 8.72659 12.9915 8.46893 13.7736 8.03667C13.1201 8.03667 13.9635 7.59953 13.6235 7.49085C13.3652 7.40782 13.1201 7.27717 12.7933 7.13309C13.0949 7.06715 13.3484 7.01953 13.6235 6.95847C13.2835 6.21118 13.2931 6.23193 12.5014 6.48592C12.3212 6.5433 12.0761 6.38945 11.8611 6.36381C11.616 6.33817 11.3757 6.35526 10.9372 6.35526C11.6508 6.08906 12.1842 5.89613 12.8978 5.62994C12.4041 5.23675 12.0389 4.94859 11.7289 4.69949C12.0161 4.48053 12.4398 4.15025 12.9265 3.77084L13.1309 3.6115C13.1826 3.66034 13.3892 3.82641 13.6127 4.00102C13.4661 3.20976 13.1141 3.05713 12.529 3.4723C12.3224 3.61638 12.0557 3.65546 11.819 3.74337C11.7638 3.26349 11.7337 2.86543 11.6688 2.26221C11.9175 2.57236 12.0809 2.77384 12.3308 3.084C12.3392 2.67371 12.3428 2.35867 12.356 1.94351C11.986 2.03998 11.7145 2.11446 11.3709 2.20605C11.6592 0.86042 10.4771 0.755409 9.82355 0.475777C8.92133 0.0960236 7.85931 -0.0358505 6.87419 0.00811005C6.25549 0.0215378 5.67042 0.755402 5.0385 0.829887C4.01013 0.947105 3.67135 1.93497 2.84961 2.31106C2.37748 2.52963 2.14921 3.3514 1.8741 3.93264C1.71072 4.2782 1.85608 4.78007 1.31907 4.95102Z"/>
                                <path d="M20.6671 41.8873C20.7956 41.4893 20.9122 41.14 21.0323 40.7505C20.7308 40.7371 20.4472 40.7249 19.9451 40.7041C20.2022 40.328 20.3752 40.0753 20.5638 39.8042C20.2754 39.367 19.9739 39.3365 19.4669 39.8396C19.1401 40.1534 18.8867 40.5466 18.5815 40.9361C19.0681 41.0399 19.7901 40.6565 19.8802 41.5955C20.0904 41.4905 20.2106 41.4331 20.3571 41.3635C20.4568 41.5418 20.5686 41.7164 20.6671 41.8873Z"/>
                                <path d="M-38.3489 61.0375C-38.5074 61.0802 -38.6889 61.3427 -38.7141 61.5308C-38.8895 62.8849 -39.036 64.2391 -39.1766 65.5786C-39.1982 65.7618 -39.1514 66.0109 -39.0348 66.1379C-38.3429 66.9157 -37.5812 67.641 -36.9024 68.436C-36.4123 69.0172 -35.9701 69.6106 -35.9569 70.5069C-35.9437 71.3324 -35.5653 72.1236 -34.7616 72.5913C-34.3699 72.8184 -34.0348 73.1163 -33.678 73.3825C-33.708 73.4485 -33.756 73.501 -33.7945 73.5706C-33.5794 73.5791 -33.356 73.5608 -33.1493 73.6182C-32.9211 73.6695 -32.7108 73.8014 -32.4826 73.8929C-32.6796 74.0639 -32.8694 74.2251 -33.1013 74.4217C-32.0044 74.9077 -31.8711 75.1128 -32.3144 75.6501C-31.6524 75.5622 -31.4026 75.9382 -31.3125 76.489C-31.214 77.0055 -30.8439 76.9664 -30.4739 76.909C-30.1291 76.848 -29.7038 76.6208 -29.4587 76.7478C-29.2005 76.887 -29.1188 77.351 -28.6634 77.2546C-28.5637 77.9188 -28.1517 77.6429 -27.8033 77.5293C-27.2494 77.3498 -26.5779 77.467 -26.376 77.8871C-25.8943 78.8713 -24.9957 79.3255 -24.1871 79.8017C-23.5036 80.2035 -22.617 80.6015 -21.8048 80.1778C-21.3183 79.9324 -21.0131 79.8799 -20.5662 80.256C-20.6383 79.9666 -20.7032 79.6662 -20.7765 79.3597C-19.688 78.5465 -19.4394 77.279 -19.0561 76.0384C-18.7029 74.9028 -18.3978 73.4424 -18.596 72.6169C-18.4158 72.4545 -18.2308 72.3019 -18.0458 72.1444C-18.8879 71.5546 -18.7642 70.5924 -18.811 69.85C-18.8363 69.3701 -18.7378 68.9586 -19.0729 68.5349C-19.2928 68.2552 -19.461 67.9231 -19.6196 67.5995C-19.7048 67.4213 -19.813 67.1807 -19.7613 67.0232C-19.4213 66.0402 -20.2467 65.752 -20.75 65.2709C-20.7464 65.2758 -20.7416 65.2929 -20.7416 65.2929C-21.1201 64.9962 -21.4901 64.6946 -21.8685 64.4015C-22.1052 65.288 -22.7407 65.4761 -23.2357 65.6946C-23.3258 66.0695 -23.4039 66.3846 -23.4807 66.6862C-23.5841 66.6813 -23.6393 66.7033 -23.6742 66.6813C-24.2929 66.2319 -24.8647 65.7508 -25.7333 66.2185C-25.9904 66.3626 -26.692 66.5628 -26.7304 65.6849C-26.1586 65.6544 -25.6336 65.6324 -25.1483 65.6018C-25.1783 65.4101 -25.2119 65.2038 -25.2468 65.0121C-25.5351 64.846 -25.9303 64.5884 -25.9219 64.3307C-25.9171 63.8508 -26.0769 63.6542 -26.4637 63.4747C-26.6836 63.3832 -26.9707 63.1951 -27.0056 63.0071C-27.1053 62.4734 -27.1005 61.9142 -27.1305 61.3635C-27.0788 61.3989 -26.9839 61.4819 -26.8722 61.5125C-26.549 61.5833 -26.2223 61.6224 -25.9003 61.6834C-25.9303 61.3696 -25.952 61.0509 -26.012 60.7444C-26.0637 60.5173 -26.2067 60.2987 -26.2319 60.0716C-26.2835 59.5832 -26.2199 59.0667 -26.3184 58.6039C-26.5034 57.7393 -26.877 56.9041 -26.9719 56.0433C-27.0404 55.4266 -27.3119 54.5877 -26.525 54.3081C-26.5166 53.8404 -26.6199 53.4167 -26.4818 53.098C-26.2235 52.4997 -26.7437 51.5595 -25.7417 51.2713C-25.7081 51.2579 -25.7297 51.0356 -25.7249 50.9172C-25.6744 50.3274 -25.5615 49.8109 -24.801 49.8158C-24.6497 49.8158 -24.4911 49.6228 -24.3277 49.5093C-24.4611 49.3737 -24.5512 49.2773 -24.6677 49.1552C-24.3962 48.9757 -24.1775 48.8365 -23.846 48.6179C-24.1811 48.4115 -24.4262 48.2638 -24.6581 48.1148C-24.0514 47.7741 -23.8928 47.3284 -24.1079 46.9304C-23.6958 46.0866 -23.3258 45.3479 -22.9858 44.658C-22.7527 44.636 -22.4344 44.6103 -22.1124 44.5749V44.3258C-22.3142 44.233 -22.5173 44.1329 -22.7275 44.0413C-22.3971 43.1548 -21.8373 42.9887 -21.1585 43.5871C-21.0216 43.3074 -20.8882 43.0315 -20.7548 42.7567C-20.8281 42.7042 -20.9014 42.6688 -20.9483 42.6163C-21.0552 42.4722 -21.1669 42.3196 -21.2702 42.1706C-21.0816 42.101 -20.9002 42.0314 -20.7116 41.9655C-20.4749 41.8861 -20.2383 41.8129 -19.8214 41.6944C-20.2503 41.5808 -20.5218 41.5894 -20.6635 41.4587C-20.8534 41.2841 -20.935 40.9911 -21.0552 40.7505C-20.8485 40.7017 -20.6251 40.5661 -20.4485 40.6101C-20.0232 40.7285 -19.6316 41.0118 -19.2063 41.0778C-18.6428 41.1608 -18.0325 41.1962 -17.4859 41.0607C-17.1592 40.9862 -16.8624 40.571 -16.6738 40.2438C-16.5152 39.9727 -16.5272 39.5929 -16.4203 39.0202C-15.75 39.7285 -15.2466 40.2621 -14.7096 40.8299C-14.5594 40.5808 -14.3612 40.405 -14.3744 40.2438C-14.4128 39.715 -13.6824 39.1118 -14.4777 38.6271C-14.4993 38.61 -14.3876 38.2424 -14.2543 38.1508C-14.1209 38.0495 -13.8242 38.1325 -13.7172 38.0239C-13.292 37.5953 -13.0769 37.8834 -12.8318 38.2204C-12.7201 38.3816 -12.6216 38.6173 -12.4582 38.6747C-12.1831 38.7663 -11.8695 38.7406 -11.5728 38.7577C-11.5596 38.3829 -11.5512 38.0068 -11.5428 37.7662C-11.2076 37.7442 -10.9493 37.6697 -10.709 37.7137C-10.4291 37.7625 -10.1756 37.9237 -9.9906 37.9982C-9.45719 37.6832 -8.92018 37.3645 -8.28826 36.9798C-8.30988 37.3022 -8.33151 37.5342 -8.35674 37.8578C-7.97831 37.8309 -7.60468 37.8138 -7.43649 37.8053C-6.20269 36.2716 -5.57438 34.5621 -4.9857 32.8453C-4.91722 32.6609 -4.91722 32.4338 -4.91722 32.2067C-4.90041 31.695 -4.85355 31.1883 -4.87878 30.6815C-4.90401 30.0307 -5.66087 29.4714 -5.11906 28.7241C-5.071 28.6497 -5.21396 28.309 -5.32088 28.2736C-5.8591 28.1026 -5.71254 27.6008 -5.87592 27.2552C-6.15464 26.674 -6.3829 25.8473 -6.85143 25.6336C-7.67797 25.2539 -8.01315 24.2575 -9.04031 24.1524C-9.67704 24.078 -10.2573 23.3526 -10.876 23.3221C-11.8599 23.283 -12.9219 23.4137 -13.8254 23.7983C-14.4789 24.0779 -15.6562 24.1793 -15.3727 25.5249C-15.7175 25.4333 -15.9842 25.3589 -16.3578 25.2673C-16.3458 25.6776 -16.341 25.9975 -16.3326 26.4078C-16.0875 26.0927 -15.9242 25.8925 -15.6707 25.586C-15.7307 26.1843 -15.7644 26.5824 -15.8208 27.0671C-16.0575 26.9841 -16.3242 26.9414 -16.5308 26.7924C-17.1159 26.3772 -17.4679 26.5311 -17.6145 27.326C-17.3946 27.1465 -17.1892 26.9804 -17.1327 26.9365C-16.5609 27.3822 -16.0575 27.7705 -15.7307 28.0245C-16.0395 28.2736 -16.4047 28.5569 -16.8997 28.9549C-16.186 29.2175 -15.6526 29.4141 -14.939 29.6766C-15.3775 29.6766 -15.6178 29.6595 -15.8629 29.69C-16.0731 29.7083 -16.323 29.8744 -16.5032 29.8085C-17.2937 29.5508 -17.2853 29.5325 -17.6253 30.2847C-17.3502 30.3421 -17.0967 30.3897 -16.7951 30.4556C-17.1219 30.5997 -17.3634 30.7304 -17.6253 30.8134C-17.9641 30.927 -17.1219 31.3592 -17.7755 31.3592C-16.9934 31.7927 -17.6853 32.054 -17.9172 32.391C-17.7586 32.5083 -17.6037 32.6218 -17.4018 32.7708C-17.8836 32.9454 -18.3269 33.1029 -18.7738 33.269C-18.5203 34.0639 -18.5203 34.0724 -19.3805 34.3741C-19.5787 34.4485 -19.807 34.462 -20.0088 34.5401C-20.4305 34.7147 -20.5122 35.1824 -20.1854 35.484C-20.0689 35.5878 -19.9319 35.6757 -19.7121 35.8418C-19.9391 35.9688 -20.0809 36.0347 -20.219 36.1129C-20.4557 36.257 -20.7957 36.34 -20.9074 36.55C-21.1825 37.0653 -21.3375 37.66 -21.591 38.2021C-21.991 39.0764 -22.3431 39.9898 -22.868 40.7847C-23.7366 42.0949 -24.717 43.327 -25.6756 44.5774C-26.2775 45.3735 -26.9311 46.1294 -27.5678 46.9072C-28.6034 48.1698 -29.6354 49.4372 -30.6889 50.6998C-30.9941 51.0625 -31.3509 51.3897 -31.7377 51.7964C-31.4662 51.8977 -31.2896 51.9588 -31.1611 52.0064C-31.1142 52.7329 -31.5695 52.8282 -32.2231 52.728L-32.1567 52.7817C-31.9921 52.9149 -31.8876 52.9993 -31.7161 53.1347C-32.0213 53.1481 -32.2315 53.1566 -32.4598 53.1652C-32.3649 53.2653 -32.3048 53.3313 -32.2315 53.4057C-32.7433 53.7428 -33.2334 54.07 -33.7536 54.4156C-33.7368 54.4327 -33.6335 54.5377 -33.517 54.6512C-33.732 54.7135 -33.8822 54.766 -33.9687 54.7917C-33.9819 55.1409 -33.9903 55.4071 -34.0035 55.7136C-34.2222 55.7307 -34.454 55.7478 -34.8673 55.7832C-34.5658 55.9102 -34.424 55.9749 -34.1188 56.1019C-34.5573 56.1629 -34.8156 56.2069 -35.104 56.2509C-34.609 56.5354 -34.1321 56.8015 -33.6503 57.0726C-33.6635 57.0946 -33.6719 57.1203 -33.6852 57.1422L-33.6871 57.1415C-34.185 56.9586 -34.6829 56.7757 -35.1809 56.5964C-35.1893 56.6135 -35.1977 56.6489 -35.2109 56.6709C-35.0559 56.7845 -34.9057 56.8895 -34.6523 57.0641C-35.116 57.0067 -35.4476 56.9676 -35.8128 56.9151C-35.6962 57.025 -35.6194 57.1117 -35.4944 57.2302C-35.6878 57.2338 -35.7996 57.2338 -35.9714 57.2387C-35.7515 57.4182 -35.5845 57.5537 -35.3995 57.6978C-35.5461 57.7027 -35.6794 57.6978 -35.868 57.6978C-35.6145 57.903 -35.4127 58.0654 -35.116 58.3096C-35.5413 58.2974 -35.8212 58.2888 -36.0062 58.2839C-36.1095 58.9531 -36.2044 59.5514 -36.3029 60.2071C-36.5096 60.1497 -36.7066 60.107 -36.9265 60.0496C-37.055 60.6272 -37.1715 61.1645 -37.3217 61.8458C-37.5836 61.5662 -37.6905 61.4221 -37.8287 61.322C-37.9873 61.2035 -38.2107 60.9984 -38.3489 61.0375Z"/>
                                <path d="M-23.4675 63.1646C-23.9745 62.6615 -24.2796 62.692 -24.5596 63.1292C-24.3746 63.4002 -24.2028 63.6542 -23.9457 64.0254C-24.3952 64.0497 -24.6728 64.062 -24.9441 64.074L-25.0329 64.0779C-24.9128 64.4662 -24.7962 64.8204 -24.6677 65.2184C-24.568 65.0475 -24.4563 64.8643 -24.3577 64.6897C-24.2124 64.7593 -24.091 64.8252 -23.8808 64.9254C-23.7907 63.9864 -23.0639 64.3661 -22.5821 64.266C-22.8873 63.8728 -23.1408 63.4796 -23.4675 63.1646Z"/>
                                <path d="M-40.9234 67.3993C-41.2886 67.9329 -41.5938 68.5043 -41.7619 68.7889C-42.3554 70.3714 -41.7836 71.7866 -40.6627 72.1187C-39.3808 72.4948 -38.2239 71.7964 -38.0353 70.4629C-37.9572 69.977 -37.914 69.3615 -38.1338 68.9854C-38.5243 68.3395 -39.1141 67.8144 -39.6512 67.2686C-40.1317 66.779 -40.5233 66.8229 -40.9234 67.3993Z"/>
                            </mask>
                            <path d="M-41.7968 75.611C-41.8749 76.699 -41.3283 77.5562 -40.563 78.124C-40.2449 78.3653 -39.4862 78.1113 -38.9541 77.9332L-38.9111 77.9188C-38.5375 77.7833 -38.1374 77.4768 -37.944 77.1361C-37.7554 76.8125 -37.8455 76.3363 -37.7638 75.9383C-37.717 75.6672 -37.5872 75.4181 -37.4971 75.1604C-37.0586 74.4473 -38.2323 73.8221 -37.4623 72.9136C-37.7374 72.8489 -37.9488 72.7476 -38.159 72.761C-38.4642 72.783 -38.7609 72.9136 -39.0661 72.9491C-40.6279 73.1249 -41.6983 74.1689 -41.7968 75.611Z" fill="black"/>
                            <path d="M-38.821 81.6492C-38.6744 82.7946 -38.3657 83.0742 -37.4238 82.6505C-37.0322 82.4759 -36.6369 82.2048 -36.3738 81.8641C-35.6386 80.9068 -35.6818 80.5441 -36.4171 79.8274C-36.7655 79.4855 -37.0922 79.1326 -37.4791 78.7431C-38.0641 78.9177 -38.5975 79.2413 -38.821 79.919C-38.839 79.9629 -38.5507 80.1156 -38.469 80.1681C-38.5927 80.6479 -38.8895 81.173 -38.821 81.6492Z" fill="black"/>
                            <path d="M-30.6433 84.8582C-30.6817 84.6091 -30.6085 84.3197 -30.5183 84.0755C-30.385 83.7043 -30.3466 83.3844 -30.7983 83.2513C-31.125 83.1597 -31.4686 83.1108 -31.9288 83.0193C-32.2291 83.5517 -32.8478 83.4161 -33.4245 83.421C-34.6799 83.4247 -35.5569 84.045 -35.987 85.2209C-36.3522 86.2002 -36.0951 87.1343 -35.3767 87.8559C-35.1196 88.1136 -34.4997 88.3456 -34.2378 88.2052C-33.4341 87.7729 -32.7121 87.1441 -31.9552 86.6019C-31.8651 86.5311 -31.7486 86.514 -31.5684 86.431C-31.5167 86.7411 -31.4734 86.9865 -31.435 87.2613C-30.7382 86.1782 -30.5448 85.4834 -30.6433 84.8582Z" fill="black"/>
                            <path d="M-23.7294 90.7792C-22.4488 89.9709 -21.7436 88.7425 -21.4853 87.2918C-21.2534 85.9499 -21.7952 85.2331 -23.0422 84.8069C-23.5324 84.636 -23.9961 84.3527 -24.4695 84.1207C-24.4515 84.0682 -24.4214 84.0242 -24.4046 83.9717C-23.9661 84.0938 -23.5276 84.2123 -23.0843 84.3344C-23.0927 84.2733 -23.1095 84.2123 -23.1143 84.1512C-22.8777 84.0682 -22.6278 83.9974 -22.4043 83.8887C-22.1544 83.7751 -21.8493 83.6701 -21.7159 83.465C-21.6475 83.3636 -21.9094 83.0364 -22.0475 82.8178C-22.1508 82.6688 -22.2806 82.5418 -22.4392 82.3672C-22.2505 82.1181 -22.0571 81.869 -21.7988 81.532C-22.7107 81.5845 -23.6309 81.0301 -24.4178 81.9606C-24.616 82.1963 -24.9548 82.3404 -25.2564 82.4673C-25.7633 82.6774 -25.8799 83.0791 -25.4966 83.4992C-25.3465 83.6567 -25.1266 83.7519 -24.9464 83.8704C-25.0281 83.9583 -25.093 84.0413 -25.2131 84.1854C-24.6725 84.382 -24.216 84.5481 -23.7691 84.7141C-23.7859 84.7715 -23.8123 84.824 -23.8291 84.8851C-24.7878 84.8326 -25.7513 84.8411 -26.6968 84.7141C-27.4236 84.614 -27.9354 84.9156 -28.2874 85.4394C-28.6959 86.0158 -29.0611 86.6849 -29.2629 87.3663C-29.4215 87.9036 -29.4299 88.5593 -29.2797 89.1014C-29.0515 89.9623 -28.5745 90.6791 -27.8525 91.2908C-26.9239 92.0821 -26.1286 92.2482 -25.0666 91.601C-24.6148 91.325 -24.1763 91.0503 -23.7294 90.7792Z" fill="black"/>
                            <path d="M21.0707 68.265C22.1328 68.9195 22.9281 68.7534 23.8615 67.9585C24.5799 67.3468 25.0569 66.6263 25.2936 65.7655C25.4401 65.2233 25.4305 64.5725 25.2719 64.0303C25.0701 63.349 24.7037 62.6932 24.3 62.0986C23.9468 61.587 23.4314 61.2805 22.7046 61.3769C21.7591 61.5076 20.7956 61.4942 19.8369 61.5515C19.8201 61.4893 19.7937 61.438 19.7769 61.3806C20.2274 61.2096 20.6791 61.0485 21.2209 60.847C21.096 60.7066 21.0359 60.6235 20.9542 60.5319C21.1344 60.4184 21.3543 60.3219 21.5044 60.1644C21.8877 59.7456 21.7711 59.3426 21.2642 59.1289L21.248 59.1223C20.9506 59.0007 20.6203 58.8657 20.4256 58.6258C19.6423 57.6942 18.7185 58.2497 17.8066 58.1972C18.0601 58.5294 18.2583 58.7785 18.447 59.0276C18.2872 59.2107 18.1538 59.3292 18.0553 59.4818C17.9172 59.687 17.6553 60.024 17.7237 60.1241C17.8571 60.3292 18.1586 60.4343 18.4121 60.5478C18.6368 60.6577 18.8855 60.7224 19.1221 60.8103C19.1173 60.8665 19.1005 60.9276 19.0921 60.9935C19.5354 60.8714 19.9739 60.753 20.4124 60.6308C20.4304 60.6785 20.4605 60.7273 20.4773 60.7749C20.0051 61.0069 19.5402 61.2902 19.05 61.4612C17.7994 61.902 17.2528 62.6188 17.4895 63.9607C17.743 65.4065 18.4482 66.6385 19.7336 67.4432C20.1805 67.7229 20.6238 67.9939 21.0707 68.265Z" fill="black"/>
                            <path d="M30.242 64.8778C30.5003 65.0133 31.119 64.7898 31.3773 64.5236C32.0945 63.8069 32.3492 62.863 31.9912 61.8837C31.5563 60.7163 30.6793 60.0924 29.4239 60.0875C28.8484 60.0826 28.2249 60.2145 27.9282 59.6809C27.468 59.7724 27.1244 59.8249 26.7977 59.9214C26.3459 60.0569 26.3844 60.372 26.5177 60.7432C26.6042 60.9923 26.6811 61.2817 26.6427 61.5259C26.5442 62.1548 26.7424 62.8495 27.4344 63.929C27.4728 63.6542 27.5113 63.4137 27.5677 63.1035C27.7491 63.1829 27.8693 63.2049 27.9594 63.2745C28.7114 63.8154 29.4335 64.4369 30.242 64.8778Z" fill="black"/>
                            <path d="M32.3744 58.5404C32.6315 58.8774 33.0316 59.1436 33.4232 59.3231C34.3651 59.7517 34.675 59.4672 34.8264 58.3218C34.8913 57.8505 34.5945 57.3217 34.4696 56.8492C34.5513 56.7918 34.8384 56.6428 34.8216 56.5952C34.6017 55.9089 34.0683 55.5866 33.4797 55.4156C33.0964 55.8088 32.7661 56.1678 32.4177 56.5085C31.6824 57.2204 31.6392 57.583 32.3744 58.5404Z" fill="black"/>
                            <path d="M34.9117 54.5829C35.4487 54.766 36.2356 55.0456 36.5624 54.7965C37.3228 54.2275 37.8695 53.3716 37.7938 52.2811C37.6941 50.8427 36.62 49.7987 35.0631 49.6192C34.7579 49.5838 34.4612 49.4531 34.156 49.4311C33.9494 49.4189 33.7344 49.5142 33.4592 49.5801C34.2281 50.4935 33.0592 51.1187 33.4977 51.8306C33.5878 52.0833 33.7127 52.3373 33.7596 52.6035C33.8413 53.0052 33.7548 53.4863 33.9398 53.805C34.138 54.1457 34.5333 54.4559 34.9117 54.5829Z" fill="black"/>
                            <path d="M37.7649 45.4626C37.5931 45.1781 37.288 44.6054 36.9228 44.0682C36.5239 43.4955 36.1323 43.4552 35.6493 43.9387C35.1111 44.4846 34.5225 45.0084 34.1356 45.6556C33.9158 46.0317 33.9554 46.6471 34.0323 47.1282C34.2221 48.4604 35.379 49.1637 36.6597 48.784C37.7818 48.4567 38.3536 47.0403 37.7649 45.4626Z" fill="black"/>
                            <path d="M1.31907 4.95102C1.20734 4.98643 1.07039 5.33199 1.11724 5.4016C1.65906 6.14889 0.902195 6.70815 0.866154 7.36021C0.839722 7.87061 0.887775 8.3737 0.904598 8.88045C0.904598 9.1039 0.904598 9.33958 0.973076 9.51907C1.55814 11.2359 2.19006 12.9454 3.42386 14.4791C3.59206 14.4925 3.96568 14.5096 4.34411 14.5316C4.31889 14.2129 4.29726 13.9809 4.27563 13.6573C4.91116 14.037 5.44938 14.3606 5.97797 14.6757C6.16298 14.6012 6.41647 14.4485 6.69639 14.3912C6.93306 14.3484 7.19496 14.418 7.53014 14.4485C7.53855 14.6854 7.54696 15.0603 7.56017 15.4278C7.85691 15.4108 8.17047 15.4413 8.44558 15.3534C8.60896 15.3045 8.70748 15.0554 8.8192 14.8942C9.06428 14.5584 9.27933 14.2788 9.70461 14.7025C9.81273 14.8075 10.1083 14.7245 10.2464 14.8246C10.3762 14.9211 10.4879 15.2838 10.4663 15.3009C9.67458 15.7954 10.4062 16.3888 10.363 16.9224C10.3497 17.0836 10.548 17.2595 10.6981 17.5037C11.2352 16.9395 11.7385 16.4023 12.4089 15.6989C12.5206 16.2716 12.5074 16.6477 12.6624 16.9224C12.8462 17.2497 13.1477 17.6563 13.4745 17.7393C14.0211 17.8712 14.6278 17.8407 15.1949 17.7528C15.6201 17.6966 16.0118 17.4035 16.4371 17.29C16.6137 17.2424 16.8371 17.373 17.0438 17.4255C16.9188 17.6697 16.8407 17.9579 16.6521 18.1374C16.5152 18.2778 16.2437 18.2607 15.81 18.3694C16.2268 18.4915 16.4635 18.5624 16.7002 18.6405C16.8852 18.7052 17.0738 18.776 17.2588 18.8456C17.1567 18.9983 17.0438 19.1509 16.9368 19.2913C16.89 19.3438 16.8167 19.378 16.7434 19.4354C16.8804 19.7102 17.0089 19.9861 17.1471 20.2657C17.8258 19.6711 18.3845 19.8323 18.7161 20.72C18.5046 20.8201 18.3028 20.9117 18.101 21.0082V21.2573C18.4241 21.2829 18.7425 21.3183 18.9744 21.3354C19.3143 22.0351 19.6832 22.7726 20.0964 23.6078C19.8814 24.0047 20.04 24.4553 20.6467 24.7959C20.4196 24.9413 20.1697 25.089 19.8345 25.299C20.1661 25.5127 20.386 25.6568 20.6563 25.8363C20.5397 25.9535 20.4496 26.0536 20.3163 26.1941C20.4797 26.2991 20.6395 26.4957 20.7896 26.4957C21.5501 26.492 21.6618 27.0024 21.7135 27.5971C21.7171 27.7143 21.6955 27.9378 21.7303 27.9549C22.737 28.2345 22.212 29.1784 22.4703 29.7767C22.6085 30.0917 22.5052 30.5155 22.5136 30.9917C23.3005 31.2676 23.0338 32.1016 22.9605 32.7183C22.8656 33.5877 22.492 34.418 22.307 35.2838C22.2036 35.7551 22.2721 36.2667 22.2205 36.7515C22.194 36.9786 22.0523 37.1972 22.0006 37.4292C21.9453 37.7345 21.9237 38.0532 21.8889 38.3682C22.2156 38.3059 22.5424 38.2669 22.8608 38.1973C22.9773 38.1667 23.0674 38.08 23.1191 38.0446C23.089 38.599 23.0926 39.1546 22.9941 39.6918C22.9593 39.8799 22.6722 40.0679 22.4523 40.1595C22.0655 40.3341 21.9057 40.5356 21.9105 41.0118C21.9189 41.2646 21.5189 41.5271 21.2353 41.6932C21.2053 41.8934 21.1717 42.09 21.1368 42.2915C21.6222 42.3135 22.1472 42.344 22.719 42.366C22.6854 43.244 21.9838 43.0437 21.7219 42.9033C20.8533 42.4319 20.2863 42.9082 19.6627 43.3624C19.6279 43.3844 19.5678 43.3673 19.4693 43.3673C19.3924 43.0657 19.3143 42.7519 19.2242 42.3758C18.7305 42.1572 18.0974 41.9704 17.8571 41.0827C17.4787 41.3843 17.1086 41.6773 16.7302 41.9789C16.7302 41.9704 16.7338 41.9667 16.7386 41.9533C16.2352 42.4393 15.4147 42.7189 15.7499 43.7104C15.8015 43.8667 15.6982 44.1121 15.6081 44.2868L15.6078 44.2874C15.4481 44.6096 15.2812 44.9463 15.0615 45.2258C14.7227 45.6409 14.8248 46.0561 14.7996 46.5372C14.7528 47.2759 14.8729 48.2333 14.0343 48.8316C14.2193 48.9891 14.4044 49.1417 14.5846 49.2993C14.3863 50.1296 14.6927 51.5888 15.0447 52.7293C15.4231 53.965 15.6778 55.2374 16.765 56.0457C16.6918 56.3522 16.6269 56.6453 16.5584 56.942C17.0005 56.5671 17.3069 56.6147 17.7922 56.8638C18.6091 57.2875 19.4909 56.8895 20.1745 56.4877C20.9878 56.0103 21.8865 55.5646 22.3634 54.5731C22.5652 54.1543 23.2368 54.0358 23.7954 54.2153C24.139 54.3289 24.5523 54.6048 24.6508 53.9357C25.1109 54.0395 25.1926 53.573 25.4461 53.4326C25.6864 53.3019 26.1165 53.5327 26.4649 53.5901C26.8337 53.6475 27.2037 53.6915 27.2986 53.1798C27.3887 52.6255 27.6386 52.2445 28.3006 52.3324C27.8621 51.7988 27.9906 51.5937 29.0875 51.1089C28.8556 50.9123 28.667 50.7511 28.4688 50.5802C28.6922 50.4886 28.9037 50.3616 29.1355 50.3005C29.3373 50.248 29.5608 50.2651 29.7807 50.248C29.7458 50.187 29.7026 50.1296 29.6641 50.0685C30.0209 49.7975 30.3561 49.5056 30.7478 49.2736C31.5479 48.8108 31.9347 48.011 31.9431 47.1892C31.9563 46.2979 32.4032 45.7032 32.8934 45.122C33.5686 44.3234 34.329 43.6017 35.0258 42.8239C35.1424 42.6969 35.1856 42.4478 35.164 42.2647C35.0342 40.9056 34.8889 39.5514 34.7123 38.2009C34.6906 38.0141 34.5056 37.7552 34.3471 37.7076C34.2101 37.6649 33.9854 37.87 33.8269 37.9921C33.6899 38.0874 33.5866 38.2363 33.3199 38.516C33.1685 37.8297 33.0484 37.2973 32.9282 36.7246C32.7084 36.7771 32.5066 36.8199 32.2999 36.8773C32.2014 36.2264 32.1065 35.6196 32.0032 34.9504C31.8182 34.9553 31.5383 34.9675 31.113 34.9809C31.4181 34.7318 31.6115 34.5743 31.8698 34.3692C31.6764 34.3692 31.5431 34.3741 31.3965 34.3692C31.5815 34.2251 31.7485 34.0896 31.9683 33.9101C31.7966 33.9101 31.6884 33.9015 31.495 33.8966C31.6151 33.7782 31.692 33.7 31.8086 33.5865C31.4434 33.639 31.1082 33.6732 30.648 33.7306C30.9015 33.5559 31.0517 33.4509 31.2067 33.3459C31.1983 33.3105 31.1851 33.2885 31.1766 33.258C30.6733 33.446 30.1747 33.6341 29.6845 33.8136C29.6671 33.7924 29.6587 33.7666 29.6506 33.7417L29.6497 33.7391C30.1266 33.468 30.6036 33.2018 31.0986 32.9173C30.8066 32.877 30.5519 32.8379 30.1182 32.7769C30.4186 32.6414 30.5603 32.5803 30.8619 32.4533C30.4534 32.4191 30.2216 32.4008 30.0017 32.3837C29.9849 32.0736 29.9765 31.811 29.9633 31.4618C29.8864 31.4349 29.7362 31.3873 29.5164 31.3214C29.6365 31.1993 29.7362 31.1028 29.753 31.0857C29.228 30.7401 28.7379 30.408 28.2309 30.0808C28.3042 29.9977 28.3679 29.9281 28.4628 29.8365C28.2297 29.8231 28.0243 29.8195 27.7143 29.806C27.9077 29.6534 28.0146 29.5667 28.2213 29.3957C27.5725 29.5007 27.1124 29.4043 27.1593 28.679C27.289 28.6313 27.4692 28.5617 27.7359 28.4653C27.3539 28.0635 26.9923 27.74 26.6871 27.3639C25.6299 26.1135 24.598 24.8375 23.566 23.5749C22.9293 22.8019 22.2805 22.0461 21.6738 21.2548C20.7187 20.0044 19.7348 18.7638 18.8662 17.4524C18.3412 16.6575 17.9892 15.7392 17.5892 14.8698C17.3393 14.3325 17.1855 13.7379 16.9056 13.2177C16.7939 13.0089 16.4539 12.921 16.2172 12.7854C16.0803 12.7061 15.9385 12.6365 15.7102 12.5144C15.9253 12.3532 16.0671 12.2701 16.1836 12.1566C16.5104 11.8513 16.4287 11.3837 16.007 11.2127C15.8088 11.1394 15.5805 11.1211 15.3787 11.0515C14.5137 10.7462 14.5137 10.7414 14.772 9.94643C14.3287 9.78037 13.8818 9.6143 13.4 9.44335C13.6054 9.29926 13.7568 9.18205 13.9154 9.06361C13.6835 8.72659 12.9915 8.46893 13.7736 8.03667C13.1201 8.03667 13.9635 7.59953 13.6235 7.49085C13.3652 7.40782 13.1201 7.27717 12.7933 7.13309C13.0949 7.06715 13.3484 7.01953 13.6235 6.95847C13.2835 6.21118 13.2931 6.23193 12.5014 6.48592C12.3212 6.5433 12.0761 6.38945 11.8611 6.36381C11.616 6.33817 11.3757 6.35526 10.9372 6.35526C11.6508 6.08906 12.1842 5.89613 12.8978 5.62994C12.4041 5.23675 12.0389 4.94859 11.7289 4.69949C12.0161 4.48053 12.4398 4.15025 12.9265 3.77084L13.1309 3.6115C13.1826 3.66034 13.3892 3.82641 13.6127 4.00102C13.4661 3.20976 13.1141 3.05713 12.529 3.4723C12.3224 3.61638 12.0557 3.65546 11.819 3.74337C11.7638 3.26349 11.7337 2.86543 11.6688 2.26221C11.9175 2.57236 12.0809 2.77384 12.3308 3.084C12.3392 2.67371 12.3428 2.35867 12.356 1.94351C11.986 2.03998 11.7145 2.11446 11.3709 2.20605C11.6592 0.86042 10.4771 0.755409 9.82355 0.475777C8.92133 0.0960236 7.85931 -0.0358505 6.87419 0.00811005C6.25549 0.0215378 5.67042 0.755402 5.0385 0.829887C4.01013 0.947105 3.67135 1.93497 2.84961 2.31106C2.37748 2.52963 2.14921 3.3514 1.8741 3.93264C1.71072 4.2782 1.85608 4.78007 1.31907 4.95102Z" fill="black"/>
                            <path d="M20.6671 41.8873C20.7956 41.4893 20.9122 41.14 21.0323 40.7505C20.7308 40.7371 20.4472 40.7249 19.9451 40.7041C20.2022 40.328 20.3752 40.0753 20.5638 39.8042C20.2754 39.367 19.9739 39.3365 19.4669 39.8396C19.1401 40.1534 18.8867 40.5466 18.5815 40.9361C19.0681 41.0399 19.7901 40.6565 19.8802 41.5955C20.0904 41.4905 20.2106 41.4331 20.3571 41.3635C20.4568 41.5418 20.5686 41.7164 20.6671 41.8873Z" fill="black"/>
                            <path d="M-38.3489 61.0375C-38.5074 61.0802 -38.6889 61.3427 -38.7141 61.5308C-38.8895 62.8849 -39.036 64.2391 -39.1766 65.5786C-39.1982 65.7618 -39.1514 66.0109 -39.0348 66.1379C-38.3429 66.9157 -37.5812 67.641 -36.9024 68.436C-36.4123 69.0172 -35.9701 69.6106 -35.9569 70.5069C-35.9437 71.3324 -35.5653 72.1236 -34.7616 72.5913C-34.3699 72.8184 -34.0348 73.1163 -33.678 73.3825C-33.708 73.4485 -33.756 73.501 -33.7945 73.5706C-33.5794 73.5791 -33.356 73.5608 -33.1493 73.6182C-32.9211 73.6695 -32.7108 73.8014 -32.4826 73.8929C-32.6796 74.0639 -32.8694 74.2251 -33.1013 74.4217C-32.0044 74.9077 -31.8711 75.1128 -32.3144 75.6501C-31.6524 75.5622 -31.4026 75.9382 -31.3125 76.489C-31.214 77.0055 -30.8439 76.9664 -30.4739 76.909C-30.1291 76.848 -29.7038 76.6208 -29.4587 76.7478C-29.2005 76.887 -29.1188 77.351 -28.6634 77.2546C-28.5637 77.9188 -28.1517 77.6429 -27.8033 77.5293C-27.2494 77.3498 -26.5779 77.467 -26.376 77.8871C-25.8943 78.8713 -24.9957 79.3255 -24.1871 79.8017C-23.5036 80.2035 -22.617 80.6015 -21.8048 80.1778C-21.3183 79.9324 -21.0131 79.8799 -20.5662 80.256C-20.6383 79.9666 -20.7032 79.6662 -20.7765 79.3597C-19.688 78.5465 -19.4394 77.279 -19.0561 76.0384C-18.7029 74.9028 -18.3978 73.4424 -18.596 72.6169C-18.4158 72.4545 -18.2308 72.3019 -18.0458 72.1444C-18.8879 71.5546 -18.7642 70.5924 -18.811 69.85C-18.8363 69.3701 -18.7378 68.9586 -19.0729 68.5349C-19.2928 68.2552 -19.461 67.9231 -19.6196 67.5995C-19.7048 67.4213 -19.813 67.1807 -19.7613 67.0232C-19.4213 66.0402 -20.2467 65.752 -20.75 65.2709C-20.7464 65.2758 -20.7416 65.2929 -20.7416 65.2929C-21.1201 64.9962 -21.4901 64.6946 -21.8685 64.4015C-22.1052 65.288 -22.7407 65.4761 -23.2357 65.6946C-23.3258 66.0695 -23.4039 66.3846 -23.4807 66.6862C-23.5841 66.6813 -23.6393 66.7033 -23.6742 66.6813C-24.2929 66.2319 -24.8647 65.7508 -25.7333 66.2185C-25.9904 66.3626 -26.692 66.5628 -26.7304 65.6849C-26.1586 65.6544 -25.6336 65.6324 -25.1483 65.6018C-25.1783 65.4101 -25.2119 65.2038 -25.2468 65.0121C-25.5351 64.846 -25.9303 64.5884 -25.9219 64.3307C-25.9171 63.8508 -26.0769 63.6542 -26.4637 63.4747C-26.6836 63.3832 -26.9707 63.1951 -27.0056 63.0071C-27.1053 62.4734 -27.1005 61.9142 -27.1305 61.3635C-27.0788 61.3989 -26.9839 61.4819 -26.8722 61.5125C-26.549 61.5833 -26.2223 61.6224 -25.9003 61.6834C-25.9303 61.3696 -25.952 61.0509 -26.012 60.7444C-26.0637 60.5173 -26.2067 60.2987 -26.2319 60.0716C-26.2835 59.5832 -26.2199 59.0667 -26.3184 58.6039C-26.5034 57.7393 -26.877 56.9041 -26.9719 56.0433C-27.0404 55.4266 -27.3119 54.5877 -26.525 54.3081C-26.5166 53.8404 -26.6199 53.4167 -26.4818 53.098C-26.2235 52.4997 -26.7437 51.5595 -25.7417 51.2713C-25.7081 51.2579 -25.7297 51.0356 -25.7249 50.9172C-25.6744 50.3274 -25.5615 49.8109 -24.801 49.8158C-24.6497 49.8158 -24.4911 49.6228 -24.3277 49.5093C-24.4611 49.3737 -24.5512 49.2773 -24.6677 49.1552C-24.3962 48.9757 -24.1775 48.8365 -23.846 48.6179C-24.1811 48.4115 -24.4262 48.2638 -24.6581 48.1148C-24.0514 47.7741 -23.8928 47.3284 -24.1079 46.9304C-23.6958 46.0866 -23.3258 45.3479 -22.9858 44.658C-22.7527 44.636 -22.4344 44.6103 -22.1124 44.5749V44.3258C-22.3142 44.233 -22.5173 44.1329 -22.7275 44.0413C-22.3971 43.1548 -21.8373 42.9887 -21.1585 43.5871C-21.0216 43.3074 -20.8882 43.0315 -20.7548 42.7567C-20.8281 42.7042 -20.9014 42.6688 -20.9483 42.6163C-21.0552 42.4722 -21.1669 42.3196 -21.2702 42.1706C-21.0816 42.101 -20.9002 42.0314 -20.7116 41.9655C-20.4749 41.8861 -20.2383 41.8129 -19.8214 41.6944C-20.2503 41.5808 -20.5218 41.5894 -20.6635 41.4587C-20.8534 41.2841 -20.935 40.9911 -21.0552 40.7505C-20.8485 40.7017 -20.6251 40.5661 -20.4485 40.6101C-20.0232 40.7285 -19.6316 41.0118 -19.2063 41.0778C-18.6428 41.1608 -18.0325 41.1962 -17.4859 41.0607C-17.1592 40.9862 -16.8624 40.571 -16.6738 40.2438C-16.5152 39.9727 -16.5272 39.5929 -16.4203 39.0202C-15.75 39.7285 -15.2466 40.2621 -14.7096 40.8299C-14.5594 40.5808 -14.3612 40.405 -14.3744 40.2438C-14.4128 39.715 -13.6824 39.1118 -14.4777 38.6271C-14.4993 38.61 -14.3876 38.2424 -14.2543 38.1508C-14.1209 38.0495 -13.8242 38.1325 -13.7172 38.0239C-13.292 37.5953 -13.0769 37.8834 -12.8318 38.2204C-12.7201 38.3816 -12.6216 38.6173 -12.4582 38.6747C-12.1831 38.7663 -11.8695 38.7406 -11.5728 38.7577C-11.5596 38.3829 -11.5512 38.0068 -11.5428 37.7662C-11.2076 37.7442 -10.9493 37.6697 -10.709 37.7137C-10.4291 37.7625 -10.1756 37.9237 -9.9906 37.9982C-9.45719 37.6832 -8.92018 37.3645 -8.28826 36.9798C-8.30988 37.3022 -8.33151 37.5342 -8.35674 37.8578C-7.97831 37.8309 -7.60468 37.8138 -7.43649 37.8053C-6.20269 36.2716 -5.57438 34.5621 -4.9857 32.8453C-4.91722 32.6609 -4.91722 32.4338 -4.91722 32.2067C-4.90041 31.695 -4.85355 31.1883 -4.87878 30.6815C-4.90401 30.0307 -5.66087 29.4714 -5.11906 28.7241C-5.071 28.6497 -5.21396 28.309 -5.32088 28.2736C-5.8591 28.1026 -5.71254 27.6008 -5.87592 27.2552C-6.15464 26.674 -6.3829 25.8473 -6.85143 25.6336C-7.67797 25.2539 -8.01315 24.2575 -9.04031 24.1524C-9.67704 24.078 -10.2573 23.3526 -10.876 23.3221C-11.8599 23.283 -12.9219 23.4137 -13.8254 23.7983C-14.4789 24.0779 -15.6562 24.1793 -15.3727 25.5249C-15.7175 25.4333 -15.9842 25.3589 -16.3578 25.2673C-16.3458 25.6776 -16.341 25.9975 -16.3326 26.4078C-16.0875 26.0927 -15.9242 25.8925 -15.6707 25.586C-15.7307 26.1843 -15.7644 26.5824 -15.8208 27.0671C-16.0575 26.9841 -16.3242 26.9414 -16.5308 26.7924C-17.1159 26.3772 -17.4679 26.5311 -17.6145 27.326C-17.3946 27.1465 -17.1892 26.9804 -17.1327 26.9365C-16.5609 27.3822 -16.0575 27.7705 -15.7307 28.0245C-16.0395 28.2736 -16.4047 28.5569 -16.8997 28.9549C-16.186 29.2175 -15.6526 29.4141 -14.939 29.6766C-15.3775 29.6766 -15.6178 29.6595 -15.8629 29.69C-16.0731 29.7083 -16.323 29.8744 -16.5032 29.8085C-17.2937 29.5508 -17.2853 29.5325 -17.6253 30.2847C-17.3502 30.3421 -17.0967 30.3897 -16.7951 30.4556C-17.1219 30.5997 -17.3634 30.7304 -17.6253 30.8134C-17.9641 30.927 -17.1219 31.3592 -17.7755 31.3592C-16.9934 31.7927 -17.6853 32.054 -17.9172 32.391C-17.7586 32.5083 -17.6037 32.6218 -17.4018 32.7708C-17.8836 32.9454 -18.3269 33.1029 -18.7738 33.269C-18.5203 34.0639 -18.5203 34.0724 -19.3805 34.3741C-19.5787 34.4485 -19.807 34.462 -20.0088 34.5401C-20.4305 34.7147 -20.5122 35.1824 -20.1854 35.484C-20.0689 35.5878 -19.9319 35.6757 -19.7121 35.8418C-19.9391 35.9688 -20.0809 36.0347 -20.219 36.1129C-20.4557 36.257 -20.7957 36.34 -20.9074 36.55C-21.1825 37.0653 -21.3375 37.66 -21.591 38.2021C-21.991 39.0764 -22.3431 39.9898 -22.868 40.7847C-23.7366 42.0949 -24.717 43.327 -25.6756 44.5774C-26.2775 45.3735 -26.9311 46.1294 -27.5678 46.9072C-28.6034 48.1698 -29.6354 49.4372 -30.6889 50.6998C-30.9941 51.0625 -31.3509 51.3897 -31.7377 51.7964C-31.4662 51.8977 -31.2896 51.9588 -31.1611 52.0064C-31.1142 52.7329 -31.5695 52.8282 -32.2231 52.728L-32.1567 52.7817C-31.9921 52.9149 -31.8876 52.9993 -31.7161 53.1347C-32.0213 53.1481 -32.2315 53.1566 -32.4598 53.1652C-32.3649 53.2653 -32.3048 53.3313 -32.2315 53.4057C-32.7433 53.7428 -33.2334 54.07 -33.7536 54.4156C-33.7368 54.4327 -33.6335 54.5377 -33.517 54.6512C-33.732 54.7135 -33.8822 54.766 -33.9687 54.7917C-33.9819 55.1409 -33.9903 55.4071 -34.0035 55.7136C-34.2222 55.7307 -34.454 55.7478 -34.8673 55.7832C-34.5658 55.9102 -34.424 55.9749 -34.1188 56.1019C-34.5573 56.1629 -34.8156 56.2069 -35.104 56.2509C-34.609 56.5354 -34.1321 56.8015 -33.6503 57.0726C-33.6635 57.0946 -33.6719 57.1203 -33.6852 57.1422L-33.6871 57.1415C-34.185 56.9586 -34.6829 56.7757 -35.1809 56.5964C-35.1893 56.6135 -35.1977 56.6489 -35.2109 56.6709C-35.0559 56.7845 -34.9057 56.8895 -34.6523 57.0641C-35.116 57.0067 -35.4476 56.9676 -35.8128 56.9151C-35.6962 57.025 -35.6194 57.1117 -35.4944 57.2302C-35.6878 57.2338 -35.7996 57.2338 -35.9714 57.2387C-35.7515 57.4182 -35.5845 57.5537 -35.3995 57.6978C-35.5461 57.7027 -35.6794 57.6978 -35.868 57.6978C-35.6145 57.903 -35.4127 58.0654 -35.116 58.3096C-35.5413 58.2974 -35.8212 58.2888 -36.0062 58.2839C-36.1095 58.9531 -36.2044 59.5514 -36.3029 60.2071C-36.5096 60.1497 -36.7066 60.107 -36.9265 60.0496C-37.055 60.6272 -37.1715 61.1645 -37.3217 61.8458C-37.5836 61.5662 -37.6905 61.4221 -37.8287 61.322C-37.9873 61.2035 -38.2107 60.9984 -38.3489 61.0375Z" fill="black"/>
                            <path d="M-23.4675 63.1646C-23.9745 62.6615 -24.2796 62.692 -24.5596 63.1292C-24.3746 63.4002 -24.2028 63.6542 -23.9457 64.0254C-24.3952 64.0497 -24.6728 64.062 -24.9441 64.074L-25.0329 64.0779C-24.9128 64.4662 -24.7962 64.8204 -24.6677 65.2184C-24.568 65.0475 -24.4563 64.8643 -24.3577 64.6897C-24.2124 64.7593 -24.091 64.8252 -23.8808 64.9254C-23.7907 63.9864 -23.0639 64.3661 -22.5821 64.266C-22.8873 63.8728 -23.1408 63.4796 -23.4675 63.1646Z" fill="black"/>
                            <path d="M-40.9234 67.3993C-41.2886 67.9329 -41.5938 68.5043 -41.7619 68.7889C-42.3554 70.3714 -41.7836 71.7866 -40.6627 72.1187C-39.3808 72.4948 -38.2239 71.7964 -38.0353 70.4629C-37.9572 69.977 -37.914 69.3615 -38.1338 68.9854C-38.5243 68.3395 -39.1141 67.8144 -39.6512 67.2686C-40.1317 66.779 -40.5233 66.8229 -40.9234 67.3993Z" fill="black"/>
                            <path d="M-41.7968 75.611C-41.8749 76.699 -41.3283 77.5562 -40.563 78.124C-40.2449 78.3653 -39.4862 78.1113 -38.9541 77.9332L-38.9111 77.9188C-38.5375 77.7833 -38.1374 77.4768 -37.944 77.1361C-37.7554 76.8125 -37.8455 76.3363 -37.7638 75.9383C-37.717 75.6672 -37.5872 75.4181 -37.4971 75.1604C-37.0586 74.4473 -38.2323 73.8221 -37.4623 72.9136C-37.7374 72.8489 -37.9488 72.7476 -38.159 72.761C-38.4642 72.783 -38.7609 72.9136 -39.0661 72.9491C-40.6279 73.1249 -41.6983 74.1689 -41.7968 75.611Z" stroke="black" stroke-width="2" mask="url(#path-3-inside-2_0_1)"/>
                            <path d="M-38.821 81.6492C-38.6744 82.7946 -38.3657 83.0742 -37.4238 82.6505C-37.0322 82.4759 -36.6369 82.2048 -36.3738 81.8641C-35.6386 80.9068 -35.6818 80.5441 -36.4171 79.8274C-36.7655 79.4855 -37.0922 79.1326 -37.4791 78.7431C-38.0641 78.9177 -38.5975 79.2413 -38.821 79.919C-38.839 79.9629 -38.5507 80.1156 -38.469 80.1681C-38.5927 80.6479 -38.8895 81.173 -38.821 81.6492Z" stroke="black" stroke-width="2" mask="url(#path-3-inside-2_0_1)"/>
                            <path d="M-30.6433 84.8582C-30.6817 84.6091 -30.6085 84.3197 -30.5183 84.0755C-30.385 83.7043 -30.3466 83.3844 -30.7983 83.2513C-31.125 83.1597 -31.4686 83.1108 -31.9288 83.0193C-32.2291 83.5517 -32.8478 83.4161 -33.4245 83.421C-34.6799 83.4247 -35.5569 84.045 -35.987 85.2209C-36.3522 86.2002 -36.0951 87.1343 -35.3767 87.8559C-35.1196 88.1136 -34.4997 88.3456 -34.2378 88.2052C-33.4341 87.7729 -32.7121 87.1441 -31.9552 86.6019C-31.8651 86.5311 -31.7486 86.514 -31.5684 86.431C-31.5167 86.7411 -31.4734 86.9865 -31.435 87.2613C-30.7382 86.1782 -30.5448 85.4834 -30.6433 84.8582Z" stroke="black" stroke-width="2" mask="url(#path-3-inside-2_0_1)"/>
                            <path d="M-23.7294 90.7792C-22.4488 89.9709 -21.7436 88.7425 -21.4853 87.2918C-21.2534 85.9499 -21.7952 85.2331 -23.0422 84.8069C-23.5324 84.636 -23.9961 84.3527 -24.4695 84.1207C-24.4515 84.0682 -24.4214 84.0242 -24.4046 83.9717C-23.9661 84.0938 -23.5276 84.2123 -23.0843 84.3344C-23.0927 84.2733 -23.1095 84.2123 -23.1143 84.1512C-22.8777 84.0682 -22.6278 83.9974 -22.4043 83.8887C-22.1544 83.7751 -21.8493 83.6701 -21.7159 83.465C-21.6475 83.3636 -21.9094 83.0364 -22.0475 82.8178C-22.1508 82.6688 -22.2806 82.5418 -22.4392 82.3672C-22.2505 82.1181 -22.0571 81.869 -21.7988 81.532C-22.7107 81.5845 -23.6309 81.0301 -24.4178 81.9606C-24.616 82.1963 -24.9548 82.3404 -25.2564 82.4673C-25.7633 82.6774 -25.8799 83.0791 -25.4966 83.4992C-25.3465 83.6567 -25.1266 83.7519 -24.9464 83.8704C-25.0281 83.9583 -25.093 84.0413 -25.2131 84.1854C-24.6725 84.382 -24.216 84.5481 -23.7691 84.7141C-23.7859 84.7715 -23.8123 84.824 -23.8291 84.8851C-24.7878 84.8326 -25.7513 84.8411 -26.6968 84.7141C-27.4236 84.614 -27.9354 84.9156 -28.2874 85.4394C-28.6959 86.0158 -29.0611 86.6849 -29.2629 87.3663C-29.4215 87.9036 -29.4299 88.5593 -29.2797 89.1014C-29.0515 89.9623 -28.5745 90.6791 -27.8525 91.2908C-26.9239 92.0821 -26.1286 92.2482 -25.0666 91.601C-24.6148 91.325 -24.1763 91.0503 -23.7294 90.7792Z" stroke="black" stroke-width="2" mask="url(#path-3-inside-2_0_1)"/>
                            <path d="M21.0707 68.265C22.1328 68.9195 22.9281 68.7534 23.8615 67.9585C24.5799 67.3468 25.0569 66.6263 25.2936 65.7655C25.4401 65.2233 25.4305 64.5725 25.2719 64.0303C25.0701 63.349 24.7037 62.6932 24.3 62.0986C23.9468 61.587 23.4314 61.2805 22.7046 61.3769C21.7591 61.5076 20.7956 61.4942 19.8369 61.5515C19.8201 61.4893 19.7937 61.438 19.7769 61.3806C20.2274 61.2096 20.6791 61.0485 21.2209 60.847C21.096 60.7066 21.0359 60.6235 20.9542 60.5319C21.1344 60.4184 21.3543 60.3219 21.5044 60.1644C21.8877 59.7456 21.7711 59.3426 21.2642 59.1289L21.248 59.1223C20.9506 59.0007 20.6203 58.8657 20.4256 58.6258C19.6423 57.6942 18.7185 58.2497 17.8066 58.1972C18.0601 58.5294 18.2583 58.7785 18.447 59.0276C18.2872 59.2107 18.1538 59.3292 18.0553 59.4818C17.9172 59.687 17.6553 60.024 17.7237 60.1241C17.8571 60.3292 18.1586 60.4343 18.4121 60.5478C18.6368 60.6577 18.8855 60.7224 19.1221 60.8103C19.1173 60.8665 19.1005 60.9276 19.0921 60.9935C19.5354 60.8714 19.9739 60.753 20.4124 60.6308C20.4304 60.6785 20.4605 60.7273 20.4773 60.7749C20.0051 61.0069 19.5402 61.2902 19.05 61.4612C17.7994 61.902 17.2528 62.6188 17.4895 63.9607C17.743 65.4065 18.4482 66.6385 19.7336 67.4432C20.1805 67.7229 20.6238 67.9939 21.0707 68.265Z" stroke="black" stroke-width="2" mask="url(#path-3-inside-2_0_1)"/>
                            <path d="M30.242 64.8778C30.5003 65.0133 31.119 64.7898 31.3773 64.5236C32.0945 63.8069 32.3492 62.863 31.9912 61.8837C31.5563 60.7163 30.6793 60.0924 29.4239 60.0875C28.8484 60.0826 28.2249 60.2145 27.9282 59.6809C27.468 59.7724 27.1244 59.8249 26.7977 59.9214C26.3459 60.0569 26.3844 60.372 26.5177 60.7432C26.6042 60.9923 26.6811 61.2817 26.6427 61.5259C26.5442 62.1548 26.7424 62.8495 27.4344 63.929C27.4728 63.6542 27.5113 63.4137 27.5677 63.1035C27.7491 63.1829 27.8693 63.2049 27.9594 63.2745C28.7114 63.8154 29.4335 64.4369 30.242 64.8778Z" stroke="black" stroke-width="2" mask="url(#path-3-inside-2_0_1)"/>
                            <path d="M32.3744 58.5404C32.6315 58.8774 33.0316 59.1436 33.4232 59.3231C34.3651 59.7517 34.675 59.4672 34.8264 58.3218C34.8913 57.8505 34.5945 57.3217 34.4696 56.8492C34.5513 56.7918 34.8384 56.6428 34.8216 56.5952C34.6017 55.9089 34.0683 55.5866 33.4797 55.4156C33.0964 55.8088 32.7661 56.1678 32.4177 56.5085C31.6824 57.2204 31.6392 57.583 32.3744 58.5404Z" stroke="black" stroke-width="2" mask="url(#path-3-inside-2_0_1)"/>
                            <path d="M34.9117 54.5829C35.4487 54.766 36.2356 55.0456 36.5624 54.7965C37.3228 54.2275 37.8695 53.3716 37.7938 52.2811C37.6941 50.8427 36.62 49.7987 35.0631 49.6192C34.7579 49.5838 34.4612 49.4531 34.156 49.4311C33.9494 49.4189 33.7344 49.5142 33.4592 49.5801C34.2281 50.4935 33.0592 51.1187 33.4977 51.8306C33.5878 52.0833 33.7127 52.3373 33.7596 52.6035C33.8413 53.0052 33.7548 53.4863 33.9398 53.805C34.138 54.1457 34.5333 54.4559 34.9117 54.5829Z" stroke="black" stroke-width="2" mask="url(#path-3-inside-2_0_1)"/>
                            <path d="M37.7649 45.4626C37.5931 45.1781 37.288 44.6054 36.9228 44.0682C36.5239 43.4955 36.1323 43.4552 35.6493 43.9387C35.1111 44.4846 34.5225 45.0084 34.1356 45.6556C33.9158 46.0317 33.9554 46.6471 34.0323 47.1282C34.2221 48.4604 35.379 49.1637 36.6597 48.784C37.7818 48.4567 38.3536 47.0403 37.7649 45.4626Z" stroke="black" stroke-width="2" mask="url(#path-3-inside-2_0_1)"/>
                            <path d="M1.31907 4.95102C1.20734 4.98643 1.07039 5.33199 1.11724 5.4016C1.65906 6.14889 0.902195 6.70815 0.866154 7.36021C0.839722 7.87061 0.887775 8.3737 0.904598 8.88045C0.904598 9.1039 0.904598 9.33958 0.973076 9.51907C1.55814 11.2359 2.19006 12.9454 3.42386 14.4791C3.59206 14.4925 3.96568 14.5096 4.34411 14.5316C4.31889 14.2129 4.29726 13.9809 4.27563 13.6573C4.91116 14.037 5.44938 14.3606 5.97797 14.6757C6.16298 14.6012 6.41647 14.4485 6.69639 14.3912C6.93306 14.3484 7.19496 14.418 7.53014 14.4485C7.53855 14.6854 7.54696 15.0603 7.56017 15.4278C7.85691 15.4108 8.17047 15.4413 8.44558 15.3534C8.60896 15.3045 8.70748 15.0554 8.8192 14.8942C9.06428 14.5584 9.27933 14.2788 9.70461 14.7025C9.81273 14.8075 10.1083 14.7245 10.2464 14.8246C10.3762 14.9211 10.4879 15.2838 10.4663 15.3009C9.67458 15.7954 10.4062 16.3888 10.363 16.9224C10.3497 17.0836 10.548 17.2595 10.6981 17.5037C11.2352 16.9395 11.7385 16.4023 12.4089 15.6989C12.5206 16.2716 12.5074 16.6477 12.6624 16.9224C12.8462 17.2497 13.1477 17.6563 13.4745 17.7393C14.0211 17.8712 14.6278 17.8407 15.1949 17.7528C15.6201 17.6966 16.0118 17.4035 16.4371 17.29C16.6137 17.2424 16.8371 17.373 17.0438 17.4255C16.9188 17.6697 16.8407 17.9579 16.6521 18.1374C16.5152 18.2778 16.2437 18.2607 15.81 18.3694C16.2268 18.4915 16.4635 18.5624 16.7002 18.6405C16.8852 18.7052 17.0738 18.776 17.2588 18.8456C17.1567 18.9983 17.0438 19.1509 16.9368 19.2913C16.89 19.3438 16.8167 19.378 16.7434 19.4354C16.8804 19.7102 17.0089 19.9861 17.1471 20.2657C17.8258 19.6711 18.3845 19.8323 18.7161 20.72C18.5046 20.8201 18.3028 20.9117 18.101 21.0082V21.2573C18.4241 21.2829 18.7425 21.3183 18.9744 21.3354C19.3143 22.0351 19.6832 22.7726 20.0964 23.6078C19.8814 24.0047 20.04 24.4553 20.6467 24.7959C20.4196 24.9413 20.1697 25.089 19.8345 25.299C20.1661 25.5127 20.386 25.6568 20.6563 25.8363C20.5397 25.9535 20.4496 26.0536 20.3163 26.1941C20.4797 26.2991 20.6395 26.4957 20.7896 26.4957C21.5501 26.492 21.6618 27.0024 21.7135 27.5971C21.7171 27.7143 21.6955 27.9378 21.7303 27.9549C22.737 28.2345 22.212 29.1784 22.4703 29.7767C22.6085 30.0917 22.5052 30.5155 22.5136 30.9917C23.3005 31.2676 23.0338 32.1016 22.9605 32.7183C22.8656 33.5877 22.492 34.418 22.307 35.2838C22.2036 35.7551 22.2721 36.2667 22.2205 36.7515C22.194 36.9786 22.0523 37.1972 22.0006 37.4292C21.9453 37.7345 21.9237 38.0532 21.8889 38.3682C22.2156 38.3059 22.5424 38.2669 22.8608 38.1973C22.9773 38.1667 23.0674 38.08 23.1191 38.0446C23.089 38.599 23.0926 39.1546 22.9941 39.6918C22.9593 39.8799 22.6722 40.0679 22.4523 40.1595C22.0655 40.3341 21.9057 40.5356 21.9105 41.0118C21.9189 41.2646 21.5189 41.5271 21.2353 41.6932C21.2053 41.8934 21.1717 42.09 21.1368 42.2915C21.6222 42.3135 22.1472 42.344 22.719 42.366C22.6854 43.244 21.9838 43.0437 21.7219 42.9033C20.8533 42.4319 20.2863 42.9082 19.6627 43.3624C19.6279 43.3844 19.5678 43.3673 19.4693 43.3673C19.3924 43.0657 19.3143 42.7519 19.2242 42.3758C18.7305 42.1572 18.0974 41.9704 17.8571 41.0827C17.4787 41.3843 17.1086 41.6773 16.7302 41.9789C16.7302 41.9704 16.7338 41.9667 16.7386 41.9533C16.2352 42.4393 15.4147 42.7189 15.7499 43.7104C15.8015 43.8667 15.6982 44.1121 15.6081 44.2868L15.6078 44.2874C15.4481 44.6096 15.2812 44.9463 15.0615 45.2258C14.7227 45.6409 14.8248 46.0561 14.7996 46.5372C14.7528 47.2759 14.8729 48.2333 14.0343 48.8316C14.2193 48.9891 14.4044 49.1417 14.5846 49.2993C14.3863 50.1296 14.6927 51.5888 15.0447 52.7293C15.4231 53.965 15.6778 55.2374 16.765 56.0457C16.6918 56.3522 16.6269 56.6453 16.5584 56.942C17.0005 56.5671 17.3069 56.6147 17.7922 56.8638C18.6091 57.2875 19.4909 56.8895 20.1745 56.4877C20.9878 56.0103 21.8865 55.5646 22.3634 54.5731C22.5652 54.1543 23.2368 54.0358 23.7954 54.2153C24.139 54.3289 24.5523 54.6048 24.6508 53.9357C25.1109 54.0395 25.1926 53.573 25.4461 53.4326C25.6864 53.3019 26.1165 53.5327 26.4649 53.5901C26.8337 53.6475 27.2037 53.6915 27.2986 53.1798C27.3887 52.6255 27.6386 52.2445 28.3006 52.3324C27.8621 51.7988 27.9906 51.5937 29.0875 51.1089C28.8556 50.9123 28.667 50.7511 28.4688 50.5802C28.6922 50.4886 28.9037 50.3616 29.1355 50.3005C29.3373 50.248 29.5608 50.2651 29.7807 50.248C29.7458 50.187 29.7026 50.1296 29.6641 50.0685C30.0209 49.7975 30.3561 49.5056 30.7478 49.2736C31.5479 48.8108 31.9347 48.011 31.9431 47.1892C31.9563 46.2979 32.4032 45.7032 32.8934 45.122C33.5686 44.3234 34.329 43.6017 35.0258 42.8239C35.1424 42.6969 35.1856 42.4478 35.164 42.2647C35.0342 40.9056 34.8889 39.5514 34.7123 38.2009C34.6906 38.0141 34.5056 37.7552 34.3471 37.7076C34.2101 37.6649 33.9854 37.87 33.8269 37.9921C33.6899 38.0874 33.5866 38.2363 33.3199 38.516C33.1685 37.8297 33.0484 37.2973 32.9282 36.7246C32.7084 36.7771 32.5066 36.8199 32.2999 36.8773C32.2014 36.2264 32.1065 35.6196 32.0032 34.9504C31.8182 34.9553 31.5383 34.9675 31.113 34.9809C31.4181 34.7318 31.6115 34.5743 31.8698 34.3692C31.6764 34.3692 31.5431 34.3741 31.3965 34.3692C31.5815 34.2251 31.7485 34.0896 31.9683 33.9101C31.7966 33.9101 31.6884 33.9015 31.495 33.8966C31.6151 33.7782 31.692 33.7 31.8086 33.5865C31.4434 33.639 31.1082 33.6732 30.648 33.7306C30.9015 33.5559 31.0517 33.4509 31.2067 33.3459C31.1983 33.3105 31.1851 33.2885 31.1766 33.258C30.6733 33.446 30.1747 33.6341 29.6845 33.8136C29.6671 33.7924 29.6587 33.7666 29.6506 33.7417L29.6497 33.7391C30.1266 33.468 30.6036 33.2018 31.0986 32.9173C30.8066 32.877 30.5519 32.8379 30.1182 32.7769C30.4186 32.6414 30.5603 32.5803 30.8619 32.4533C30.4534 32.4191 30.2216 32.4008 30.0017 32.3837C29.9849 32.0736 29.9765 31.811 29.9633 31.4618C29.8864 31.4349 29.7362 31.3873 29.5164 31.3214C29.6365 31.1993 29.7362 31.1028 29.753 31.0857C29.228 30.7401 28.7379 30.408 28.2309 30.0808C28.3042 29.9977 28.3679 29.9281 28.4628 29.8365C28.2297 29.8231 28.0243 29.8195 27.7143 29.806C27.9077 29.6534 28.0146 29.5667 28.2213 29.3957C27.5725 29.5007 27.1124 29.4043 27.1593 28.679C27.289 28.6313 27.4692 28.5617 27.7359 28.4653C27.3539 28.0635 26.9923 27.74 26.6871 27.3639C25.6299 26.1135 24.598 24.8375 23.566 23.5749C22.9293 22.8019 22.2805 22.0461 21.6738 21.2548C20.7187 20.0044 19.7348 18.7638 18.8662 17.4524C18.3412 16.6575 17.9892 15.7392 17.5892 14.8698C17.3393 14.3325 17.1855 13.7379 16.9056 13.2177C16.7939 13.0089 16.4539 12.921 16.2172 12.7854C16.0803 12.7061 15.9385 12.6365 15.7102 12.5144C15.9253 12.3532 16.0671 12.2701 16.1836 12.1566C16.5104 11.8513 16.4287 11.3837 16.007 11.2127C15.8088 11.1394 15.5805 11.1211 15.3787 11.0515C14.5137 10.7462 14.5137 10.7414 14.772 9.94643C14.3287 9.78037 13.8818 9.6143 13.4 9.44335C13.6054 9.29926 13.7568 9.18205 13.9154 9.06361C13.6835 8.72659 12.9915 8.46893 13.7736 8.03667C13.1201 8.03667 13.9635 7.59953 13.6235 7.49085C13.3652 7.40782 13.1201 7.27717 12.7933 7.13309C13.0949 7.06715 13.3484 7.01953 13.6235 6.95847C13.2835 6.21118 13.2931 6.23193 12.5014 6.48592C12.3212 6.5433 12.0761 6.38945 11.8611 6.36381C11.616 6.33817 11.3757 6.35526 10.9372 6.35526C11.6508 6.08906 12.1842 5.89613 12.8978 5.62994C12.4041 5.23675 12.0389 4.94859 11.7289 4.69949C12.0161 4.48053 12.4398 4.15025 12.9265 3.77084L13.1309 3.6115C13.1826 3.66034 13.3892 3.82641 13.6127 4.00102C13.4661 3.20976 13.1141 3.05713 12.529 3.4723C12.3224 3.61638 12.0557 3.65546 11.819 3.74337C11.7638 3.26349 11.7337 2.86543 11.6688 2.26221C11.9175 2.57236 12.0809 2.77384 12.3308 3.084C12.3392 2.67371 12.3428 2.35867 12.356 1.94351C11.986 2.03998 11.7145 2.11446 11.3709 2.20605C11.6592 0.86042 10.4771 0.755409 9.82355 0.475777C8.92133 0.0960236 7.85931 -0.0358505 6.87419 0.00811005C6.25549 0.0215378 5.67042 0.755402 5.0385 0.829887C4.01013 0.947105 3.67135 1.93497 2.84961 2.31106C2.37748 2.52963 2.14921 3.3514 1.8741 3.93264C1.71072 4.2782 1.85608 4.78007 1.31907 4.95102Z" stroke="black" stroke-width="2" mask="url(#path-3-inside-2_0_1)"/>
                            <path d="M20.6671 41.8873C20.7956 41.4893 20.9122 41.14 21.0323 40.7505C20.7308 40.7371 20.4472 40.7249 19.9451 40.7041C20.2022 40.328 20.3752 40.0753 20.5638 39.8042C20.2754 39.367 19.9739 39.3365 19.4669 39.8396C19.1401 40.1534 18.8867 40.5466 18.5815 40.9361C19.0681 41.0399 19.7901 40.6565 19.8802 41.5955C20.0904 41.4905 20.2106 41.4331 20.3571 41.3635C20.4568 41.5418 20.5686 41.7164 20.6671 41.8873Z" stroke="black" stroke-width="2" mask="url(#path-3-inside-2_0_1)"/>
                            <path d="M-38.3489 61.0375C-38.5074 61.0802 -38.6889 61.3427 -38.7141 61.5308C-38.8895 62.8849 -39.036 64.2391 -39.1766 65.5786C-39.1982 65.7618 -39.1514 66.0109 -39.0348 66.1379C-38.3429 66.9157 -37.5812 67.641 -36.9024 68.436C-36.4123 69.0172 -35.9701 69.6106 -35.9569 70.5069C-35.9437 71.3324 -35.5653 72.1236 -34.7616 72.5913C-34.3699 72.8184 -34.0348 73.1163 -33.678 73.3825C-33.708 73.4485 -33.756 73.501 -33.7945 73.5706C-33.5794 73.5791 -33.356 73.5608 -33.1493 73.6182C-32.9211 73.6695 -32.7108 73.8014 -32.4826 73.8929C-32.6796 74.0639 -32.8694 74.2251 -33.1013 74.4217C-32.0044 74.9077 -31.8711 75.1128 -32.3144 75.6501C-31.6524 75.5622 -31.4026 75.9382 -31.3125 76.489C-31.214 77.0055 -30.8439 76.9664 -30.4739 76.909C-30.1291 76.848 -29.7038 76.6208 -29.4587 76.7478C-29.2005 76.887 -29.1188 77.351 -28.6634 77.2546C-28.5637 77.9188 -28.1517 77.6429 -27.8033 77.5293C-27.2494 77.3498 -26.5779 77.467 -26.376 77.8871C-25.8943 78.8713 -24.9957 79.3255 -24.1871 79.8017C-23.5036 80.2035 -22.617 80.6015 -21.8048 80.1778C-21.3183 79.9324 -21.0131 79.8799 -20.5662 80.256C-20.6383 79.9666 -20.7032 79.6662 -20.7765 79.3597C-19.688 78.5465 -19.4394 77.279 -19.0561 76.0384C-18.7029 74.9028 -18.3978 73.4424 -18.596 72.6169C-18.4158 72.4545 -18.2308 72.3019 -18.0458 72.1444C-18.8879 71.5546 -18.7642 70.5924 -18.811 69.85C-18.8363 69.3701 -18.7378 68.9586 -19.0729 68.5349C-19.2928 68.2552 -19.461 67.9231 -19.6196 67.5995C-19.7048 67.4213 -19.813 67.1807 -19.7613 67.0232C-19.4213 66.0402 -20.2467 65.752 -20.75 65.2709C-20.7464 65.2758 -20.7416 65.2929 -20.7416 65.2929C-21.1201 64.9962 -21.4901 64.6946 -21.8685 64.4015C-22.1052 65.288 -22.7407 65.4761 -23.2357 65.6946C-23.3258 66.0695 -23.4039 66.3846 -23.4807 66.6862C-23.5841 66.6813 -23.6393 66.7033 -23.6742 66.6813C-24.2929 66.2319 -24.8647 65.7508 -25.7333 66.2185C-25.9904 66.3626 -26.692 66.5628 -26.7304 65.6849C-26.1586 65.6544 -25.6336 65.6324 -25.1483 65.6018C-25.1783 65.4101 -25.2119 65.2038 -25.2468 65.0121C-25.5351 64.846 -25.9303 64.5884 -25.9219 64.3307C-25.9171 63.8508 -26.0769 63.6542 -26.4637 63.4747C-26.6836 63.3832 -26.9707 63.1951 -27.0056 63.0071C-27.1053 62.4734 -27.1005 61.9142 -27.1305 61.3635C-27.0788 61.3989 -26.9839 61.4819 -26.8722 61.5125C-26.549 61.5833 -26.2223 61.6224 -25.9003 61.6834C-25.9303 61.3696 -25.952 61.0509 -26.012 60.7444C-26.0637 60.5173 -26.2067 60.2987 -26.2319 60.0716C-26.2835 59.5832 -26.2199 59.0667 -26.3184 58.6039C-26.5034 57.7393 -26.877 56.9041 -26.9719 56.0433C-27.0404 55.4266 -27.3119 54.5877 -26.525 54.3081C-26.5166 53.8404 -26.6199 53.4167 -26.4818 53.098C-26.2235 52.4997 -26.7437 51.5595 -25.7417 51.2713C-25.7081 51.2579 -25.7297 51.0356 -25.7249 50.9172C-25.6744 50.3274 -25.5615 49.8109 -24.801 49.8158C-24.6497 49.8158 -24.4911 49.6228 -24.3277 49.5093C-24.4611 49.3737 -24.5512 49.2773 -24.6677 49.1552C-24.3962 48.9757 -24.1775 48.8365 -23.846 48.6179C-24.1811 48.4115 -24.4262 48.2638 -24.6581 48.1148C-24.0514 47.7741 -23.8928 47.3284 -24.1079 46.9304C-23.6958 46.0866 -23.3258 45.3479 -22.9858 44.658C-22.7527 44.636 -22.4344 44.6103 -22.1124 44.5749V44.3258C-22.3142 44.233 -22.5173 44.1329 -22.7275 44.0413C-22.3971 43.1548 -21.8373 42.9887 -21.1585 43.5871C-21.0216 43.3074 -20.8882 43.0315 -20.7548 42.7567C-20.8281 42.7042 -20.9014 42.6688 -20.9483 42.6163C-21.0552 42.4722 -21.1669 42.3196 -21.2702 42.1706C-21.0816 42.101 -20.9002 42.0314 -20.7116 41.9655C-20.4749 41.8861 -20.2383 41.8129 -19.8214 41.6944C-20.2503 41.5808 -20.5218 41.5894 -20.6635 41.4587C-20.8534 41.2841 -20.935 40.9911 -21.0552 40.7505C-20.8485 40.7017 -20.6251 40.5661 -20.4485 40.6101C-20.0232 40.7285 -19.6316 41.0118 -19.2063 41.0778C-18.6428 41.1608 -18.0325 41.1962 -17.4859 41.0607C-17.1592 40.9862 -16.8624 40.571 -16.6738 40.2438C-16.5152 39.9727 -16.5272 39.5929 -16.4203 39.0202C-15.75 39.7285 -15.2466 40.2621 -14.7096 40.8299C-14.5594 40.5808 -14.3612 40.405 -14.3744 40.2438C-14.4128 39.715 -13.6824 39.1118 -14.4777 38.6271C-14.4993 38.61 -14.3876 38.2424 -14.2543 38.1508C-14.1209 38.0495 -13.8242 38.1325 -13.7172 38.0239C-13.292 37.5953 -13.0769 37.8834 -12.8318 38.2204C-12.7201 38.3816 -12.6216 38.6173 -12.4582 38.6747C-12.1831 38.7663 -11.8695 38.7406 -11.5728 38.7577C-11.5596 38.3829 -11.5512 38.0068 -11.5428 37.7662C-11.2076 37.7442 -10.9493 37.6697 -10.709 37.7137C-10.4291 37.7625 -10.1756 37.9237 -9.9906 37.9982C-9.45719 37.6832 -8.92018 37.3645 -8.28826 36.9798C-8.30988 37.3022 -8.33151 37.5342 -8.35674 37.8578C-7.97831 37.8309 -7.60468 37.8138 -7.43649 37.8053C-6.20269 36.2716 -5.57438 34.5621 -4.9857 32.8453C-4.91722 32.6609 -4.91722 32.4338 -4.91722 32.2067C-4.90041 31.695 -4.85355 31.1883 -4.87878 30.6815C-4.90401 30.0307 -5.66087 29.4714 -5.11906 28.7241C-5.071 28.6497 -5.21396 28.309 -5.32088 28.2736C-5.8591 28.1026 -5.71254 27.6008 -5.87592 27.2552C-6.15464 26.674 -6.3829 25.8473 -6.85143 25.6336C-7.67797 25.2539 -8.01315 24.2575 -9.04031 24.1524C-9.67704 24.078 -10.2573 23.3526 -10.876 23.3221C-11.8599 23.283 -12.9219 23.4137 -13.8254 23.7983C-14.4789 24.0779 -15.6562 24.1793 -15.3727 25.5249C-15.7175 25.4333 -15.9842 25.3589 -16.3578 25.2673C-16.3458 25.6776 -16.341 25.9975 -16.3326 26.4078C-16.0875 26.0927 -15.9242 25.8925 -15.6707 25.586C-15.7307 26.1843 -15.7644 26.5824 -15.8208 27.0671C-16.0575 26.9841 -16.3242 26.9414 -16.5308 26.7924C-17.1159 26.3772 -17.4679 26.5311 -17.6145 27.326C-17.3946 27.1465 -17.1892 26.9804 -17.1327 26.9365C-16.5609 27.3822 -16.0575 27.7705 -15.7307 28.0245C-16.0395 28.2736 -16.4047 28.5569 -16.8997 28.9549C-16.186 29.2175 -15.6526 29.4141 -14.939 29.6766C-15.3775 29.6766 -15.6178 29.6595 -15.8629 29.69C-16.0731 29.7083 -16.323 29.8744 -16.5032 29.8085C-17.2937 29.5508 -17.2853 29.5325 -17.6253 30.2847C-17.3502 30.3421 -17.0967 30.3897 -16.7951 30.4556C-17.1219 30.5997 -17.3634 30.7304 -17.6253 30.8134C-17.9641 30.927 -17.1219 31.3592 -17.7755 31.3592C-16.9934 31.7927 -17.6853 32.054 -17.9172 32.391C-17.7586 32.5083 -17.6037 32.6218 -17.4018 32.7708C-17.8836 32.9454 -18.3269 33.1029 -18.7738 33.269C-18.5203 34.0639 -18.5203 34.0724 -19.3805 34.3741C-19.5787 34.4485 -19.807 34.462 -20.0088 34.5401C-20.4305 34.7147 -20.5122 35.1824 -20.1854 35.484C-20.0689 35.5878 -19.9319 35.6757 -19.7121 35.8418C-19.9391 35.9688 -20.0809 36.0347 -20.219 36.1129C-20.4557 36.257 -20.7957 36.34 -20.9074 36.55C-21.1825 37.0653 -21.3375 37.66 -21.591 38.2021C-21.991 39.0764 -22.3431 39.9898 -22.868 40.7847C-23.7366 42.0949 -24.717 43.327 -25.6756 44.5774C-26.2775 45.3735 -26.9311 46.1294 -27.5678 46.9072C-28.6034 48.1698 -29.6354 49.4372 -30.6889 50.6998C-30.9941 51.0625 -31.3509 51.3897 -31.7377 51.7964C-31.4662 51.8977 -31.2896 51.9588 -31.1611 52.0064C-31.1142 52.7329 -31.5695 52.8282 -32.2231 52.728L-32.1567 52.7817C-31.9921 52.9149 -31.8876 52.9993 -31.7161 53.1347C-32.0213 53.1481 -32.2315 53.1566 -32.4598 53.1652C-32.3649 53.2653 -32.3048 53.3313 -32.2315 53.4057C-32.7433 53.7428 -33.2334 54.07 -33.7536 54.4156C-33.7368 54.4327 -33.6335 54.5377 -33.517 54.6512C-33.732 54.7135 -33.8822 54.766 -33.9687 54.7917C-33.9819 55.1409 -33.9903 55.4071 -34.0035 55.7136C-34.2222 55.7307 -34.454 55.7478 -34.8673 55.7832C-34.5658 55.9102 -34.424 55.9749 -34.1188 56.1019C-34.5573 56.1629 -34.8156 56.2069 -35.104 56.2509C-34.609 56.5354 -34.1321 56.8015 -33.6503 57.0726C-33.6635 57.0946 -33.6719 57.1203 -33.6852 57.1422L-33.6871 57.1415C-34.185 56.9586 -34.6829 56.7757 -35.1809 56.5964C-35.1893 56.6135 -35.1977 56.6489 -35.2109 56.6709C-35.0559 56.7845 -34.9057 56.8895 -34.6523 57.0641C-35.116 57.0067 -35.4476 56.9676 -35.8128 56.9151C-35.6962 57.025 -35.6194 57.1117 -35.4944 57.2302C-35.6878 57.2338 -35.7996 57.2338 -35.9714 57.2387C-35.7515 57.4182 -35.5845 57.5537 -35.3995 57.6978C-35.5461 57.7027 -35.6794 57.6978 -35.868 57.6978C-35.6145 57.903 -35.4127 58.0654 -35.116 58.3096C-35.5413 58.2974 -35.8212 58.2888 -36.0062 58.2839C-36.1095 58.9531 -36.2044 59.5514 -36.3029 60.2071C-36.5096 60.1497 -36.7066 60.107 -36.9265 60.0496C-37.055 60.6272 -37.1715 61.1645 -37.3217 61.8458C-37.5836 61.5662 -37.6905 61.4221 -37.8287 61.322C-37.9873 61.2035 -38.2107 60.9984 -38.3489 61.0375Z" stroke="black" stroke-width="2" mask="url(#path-3-inside-2_0_1)"/>
                            <path d="M-23.4675 63.1646C-23.9745 62.6615 -24.2796 62.692 -24.5596 63.1292C-24.3746 63.4002 -24.2028 63.6542 -23.9457 64.0254C-24.3952 64.0497 -24.6728 64.062 -24.9441 64.074L-25.0329 64.0779C-24.9128 64.4662 -24.7962 64.8204 -24.6677 65.2184C-24.568 65.0475 -24.4563 64.8643 -24.3577 64.6897C-24.2124 64.7593 -24.091 64.8252 -23.8808 64.9254C-23.7907 63.9864 -23.0639 64.3661 -22.5821 64.266C-22.8873 63.8728 -23.1408 63.4796 -23.4675 63.1646Z" stroke="black" stroke-width="2" mask="url(#path-3-inside-2_0_1)"/>
                            <path d="M-40.9234 67.3993C-41.2886 67.9329 -41.5938 68.5043 -41.7619 68.7889C-42.3554 70.3714 -41.7836 71.7866 -40.6627 72.1187C-39.3808 72.4948 -38.2239 71.7964 -38.0353 70.4629C-37.9572 69.977 -37.914 69.3615 -38.1338 68.9854C-38.5243 68.3395 -39.1141 67.8144 -39.6512 67.2686C-40.1317 66.779 -40.5233 66.8229 -40.9234 67.3993Z" stroke="black" stroke-width="2" mask="url(#path-3-inside-2_0_1)"/>
                            <path d="M16.7236 41.9875V41.9792L16.7154 41.9875H16.7236Z" fill="#010002"/>
                        </svg>